<?xml version="1.0" encoding="UTF-8" standalone="no"?>
<!-- Created with Inkscape (http://www.inkscape.org/) -->

<svg
   width="297mm"
   height="210mm"
   viewBox="0 0 297 210"
   version="1.1"
   id="svg6251"
   xml:space="preserve"
   inkscape:version="1.2.1 (9c6d41e410, 2022-07-14, custom)"
   sodipodi:docname="3-hamiltonian.svg"
   xmlns:inkscape="http://www.inkscape.org/namespaces/inkscape"
   xmlns:sodipodi="http://sodipodi.sourceforge.net/DTD/sodipodi-0.dtd"
   xmlns:xlink="http://www.w3.org/1999/xlink"
   xmlns="http://www.w3.org/2000/svg"
   xmlns:svg="http://www.w3.org/2000/svg"><sodipodi:namedview
     id="namedview6253"
     pagecolor="#ffffff"
     bordercolor="#000000"
     borderopacity="0.25"
     inkscape:showpageshadow="2"
     inkscape:pageopacity="0.0"
     inkscape:pagecheckerboard="0"
     inkscape:deskcolor="#d1d1d1"
     inkscape:document-units="mm"
     showgrid="false"
     inkscape:zoom="0.73300675"
     inkscape:cx="526.59815"
     inkscape:cy="405.18044"
     inkscape:window-width="1545"
     inkscape:window-height="1020"
     inkscape:window-x="5"
     inkscape:window-y="51"
     inkscape:window-maximized="1"
     inkscape:current-layer="layer1" /><defs
     id="defs6248"><clipPath
   id="clipPath6935">
      <path
   clip-rule="nonzero"
   d="M 2,0 H 4 V 20.664062 H 2 Z m 0,0"
   id="path2380" />
    </clipPath>
    <clipPath
   id="clipPath7175">
      <path
   clip-rule="nonzero"
   d="m 16,0 h 5 v 20.664062 h -5 z m 0,0"
   id="path7393" />
    </clipPath>
  <clipPath
   id="clipPath4866">
      <path
   clip-rule="nonzero"
   d="M 2,0 H 4 V 20.664062 H 2 Z m 0,0"
   id="path3487" />
    </clipPath>
    <clipPath
   id="clipPath576">
      <path
   clip-rule="nonzero"
   d="m 17,0 h 5 v 20.664062 h -5 z m 0,0"
   id="path466" />
    </clipPath>
  <clipPath
   id="clipPath1315">
      <path
   clip-rule="nonzero"
   d="M 2,0 H 21 V 20.664062 H 2 Z m 0,0"
   id="path1458" />
    </clipPath>
    <clipPath
   id="clipPath4771">
      <path
   clip-rule="nonzero"
   d="m 32,0 h 6 v 20.664062 h -6 z m 0,0"
   id="path6974" />
    </clipPath>
  <clipPath
   id="clipPath5714">
      <path
   clip-rule="nonzero"
   d="m 39,12 h 8 v 9.386719 h -8 z m 0,0"
   id="path7056" />
    </clipPath>
  <clipPath
   id="clipPath9061">
      <path
   clip-rule="nonzero"
   d="m 23,12 h 7 v 9.386719 h -7 z m 0,0"
   id="path9482" />
    </clipPath>
  <clipPath
   id="clipPath8113">
      <path
   clip-rule="nonzero"
   d="M 2,0 H 4 V 20.664062 H 2 Z m 0,0"
   id="path5989" />
    </clipPath>
    <clipPath
   id="clipPath2512">
      <path
   clip-rule="nonzero"
   d="m 16,0 h 5 v 20.664062 h -5 z m 0,0"
   id="path855" />
    </clipPath>
  <clipPath
   id="clipPath9782">
      <path
   clip-rule="nonzero"
   d="M 2,0 H 4 V 20.664062 H 2 Z m 0,0"
   id="path6471" />
    </clipPath>
    <clipPath
   id="clipPath2331">
      <path
   clip-rule="nonzero"
   d="m 16,0 h 6 v 20.664062 h -6 z m 0,0"
   id="path9119" />
    </clipPath>
  <clipPath
   id="clipPath735">
      <path
   clip-rule="nonzero"
   d="M 1,0 H 9 V 20.664062 H 1 Z m 0,0"
   id="path7947" />
    </clipPath>
  <clipPath
   id="clipPath4984">
      <path
   clip-rule="nonzero"
   d="M 1,0 H 9 V 20.664062 H 1 Z m 0,0"
   id="path8717" />
    </clipPath>
  <clipPath
   id="clipPath2449">
      <path
   clip-rule="nonzero"
   d="M 2,0 H 37 V 20.628906 H 2 Z m 0,0"
   id="path1484" />
    </clipPath>
  <clipPath
   id="clipPath1963">
      <path
   clip-rule="nonzero"
   d="M 2,2 H 5 V 22.851562 H 2 Z m 0,0"
   id="path7764" />
    </clipPath>
    <clipPath
   id="clipPath3872">
      <path
   clip-rule="nonzero"
   d="M 16,2 H 37 V 22.851562 H 16 Z m 0,0"
   id="path7716" />
    </clipPath>
  <clipPath
   id="clipPath6775">
      <path
   clip-rule="nonzero"
   d="M 2,2 H 5 V 22.851562 H 2 Z m 0,0"
   id="path8652" />
    </clipPath>
    <clipPath
   id="clipPath8724">
      <path
   clip-rule="nonzero"
   d="M 16,2 H 37 V 22.851562 H 16 Z m 0,0"
   id="path32" />
    </clipPath>
  <clipPath
   id="clipPath4733">
      <path
   clip-rule="nonzero"
   d="M 2,2 H 5 V 22.851562 H 2 Z m 0,0"
   id="path1867" />
    </clipPath>
    <clipPath
   id="clipPath2689">
      <path
   clip-rule="nonzero"
   d="M 38,2 H 50 V 22.851562 H 38 Z m 0,0"
   id="path9813" />
    </clipPath>
  <clipPath
   id="clipPath1180">
      <path
   clip-rule="nonzero"
   d="M 1,1 H 5 V 18.972656 H 1 Z m 0,0"
   id="path8270" />
    </clipPath>
    <clipPath
   id="clipPath5922">
      <path
   clip-rule="nonzero"
   d="M 31,1 H 41 V 18.972656 H 31 Z m 0,0"
   id="path3931" />
    </clipPath>
  <clipPath
   id="clipPath9395">
      <path
   clip-rule="nonzero"
   d="M 1,1 H 11 V 18.972656 H 1 Z m 0,0"
   id="path3520" />
    </clipPath>
    <clipPath
   id="clipPath2099">
      <path
   clip-rule="nonzero"
   d="M 31,1 H 41 V 18.972656 H 31 Z m 0,0"
   id="path3609" />
    </clipPath>
  <clipPath
   id="clipPath876">
      <path
   clip-rule="nonzero"
   d="M 1,1 H 5 V 18.972656 H 1 Z m 0,0"
   id="path8359" />
    </clipPath>
    <clipPath
   id="clipPath3661">
      <path
   clip-rule="nonzero"
   d="M 31,1 H 41 V 18.972656 H 31 Z m 0,0"
   id="path5793" />
    </clipPath>
  <clipPath
   id="clipPath1058">
      <path
   clip-rule="nonzero"
   d="M 1,0 H 11 V 17.1875 H 1 Z m 0,0"
   id="path1469" />
    </clipPath>
    <clipPath
   id="clipPath2743">
      <path
   clip-rule="nonzero"
   d="M 31,0 H 41 V 17.1875 H 31 Z m 0,0"
   id="path1016" />
    </clipPath>
  <clipPath
   id="clipPath4044">
      <path
   clip-rule="nonzero"
   d="M 1,0 H 11 V 17.1875 H 1 Z m 0,0"
   id="path9913" />
    </clipPath>
    <clipPath
   id="clipPath6071">
      <path
   clip-rule="nonzero"
   d="M 31,0 H 41 V 17.1875 H 31 Z m 0,0"
   id="path7264" />
    </clipPath>
  <clipPath
   id="clipPath229">
      <path
   clip-rule="nonzero"
   d="M 1,0 H 11 V 17.1875 H 1 Z m 0,0"
   id="path1130" />
    </clipPath>
    <clipPath
   id="clipPath1176">
      <path
   clip-rule="nonzero"
   d="M 31,0 H 41 V 17.1875 H 31 Z m 0,0"
   id="path5713" />
    </clipPath>
  <clipPath
   id="clipPath4249">
      <path
   clip-rule="nonzero"
   d="M 1,1 H 11 V 18.972656 H 1 Z m 0,0"
   id="path7398" />
    </clipPath>
    <clipPath
   id="clipPath2310">
      <path
   clip-rule="nonzero"
   d="M 31,1 H 41 V 18.972656 H 31 Z m 0,0"
   id="path8539" />
    </clipPath>
  <clipPath
   id="clipPath9227">
      <path
   clip-rule="nonzero"
   d="M 1,1 H 5 V 18.972656 H 1 Z m 0,0"
   id="path5240" />
    </clipPath>
    <clipPath
   id="clipPath8847">
      <path
   clip-rule="nonzero"
   d="M 31,1 H 41 V 18.972656 H 31 Z m 0,0"
   id="path2598" />
    </clipPath>
  <linearGradient
   inkscape:collect="always"
   xlink:href="#linearGradient17790"
   id="linearGradient17792"
   x1="226.33644"
   y1="175.02895"
   x2="226.30957"
   y2="143.66116"
   gradientUnits="userSpaceOnUse"
   gradientTransform="matrix(0.96096465,0,0,0.95451095,-10.656447,-13.962743)" /><linearGradient
   inkscape:collect="always"
   id="linearGradient17790"><stop
     style="stop-color:#87bafa;stop-opacity:1;"
     offset="0"
     id="stop17786" /><stop
     style="stop-color:#85d8fa;stop-opacity:0;"
     offset="1"
     id="stop17788" /></linearGradient><linearGradient
   inkscape:collect="always"
   xlink:href="#linearGradient17790"
   id="linearGradient17827"
   gradientUnits="userSpaceOnUse"
   x1="226.33644"
   y1="175.02895"
   x2="226.30957"
   y2="143.66116"
   gradientTransform="matrix(0.96096465,0,0,0.95451095,-10.698802,-64.980652)" /><radialGradient
   inkscape:collect="always"
   xlink:href="#linearGradient17790"
   id="radialGradient17853"
   cx="275.56891"
   cy="141.96577"
   fx="275.56891"
   fy="141.96577"
   r="13.869559"
   gradientTransform="matrix(0.00605452,-0.95449201,14.224196,0.0890189,-1766.862,371.93583)"
   gradientUnits="userSpaceOnUse" /><clipPath
   id="clipPath6935-3">
      <path
   clip-rule="nonzero"
   d="M 2,0 H 4 V 20.664062 H 2 Z m 0,0"
   id="path2380-6" />
    </clipPath><clipPath
   id="clipPath7175-7">
      <path
   clip-rule="nonzero"
   d="m 16,0 h 5 v 20.664062 h -5 z m 0,0"
   id="path7393-5" />
    </clipPath><clipPath
   id="clipPath4866-3">
      <path
   clip-rule="nonzero"
   d="M 2,0 H 4 V 20.664062 H 2 Z m 0,0"
   id="path3487-5" />
    </clipPath><clipPath
   id="clipPath576-6">
      <path
   clip-rule="nonzero"
   d="m 17,0 h 5 v 20.664062 h -5 z m 0,0"
   id="path466-2" />
    </clipPath><clipPath
   id="clipPath1315-9">
      <path
   clip-rule="nonzero"
   d="M 2,0 H 21 V 20.664062 H 2 Z m 0,0"
   id="path1458-1" />
    </clipPath><clipPath
   id="clipPath4771-2">
      <path
   clip-rule="nonzero"
   d="m 32,0 h 6 v 20.664062 h -6 z m 0,0"
   id="path6974-7" />
    </clipPath><clipPath
   id="clipPath5714-0">
      <path
   clip-rule="nonzero"
   d="m 39,12 h 8 v 9.386719 h -8 z m 0,0"
   id="path7056-9" />
    </clipPath><clipPath
   id="clipPath9061-3">
      <path
   clip-rule="nonzero"
   d="m 23,12 h 7 v 9.386719 h -7 z m 0,0"
   id="path9482-6" />
    </clipPath><clipPath
   id="clipPath8113-0">
      <path
   clip-rule="nonzero"
   d="M 2,0 H 4 V 20.664062 H 2 Z m 0,0"
   id="path5989-6" />
    </clipPath><clipPath
   id="clipPath2512-2">
      <path
   clip-rule="nonzero"
   d="m 16,0 h 5 v 20.664062 h -5 z m 0,0"
   id="path855-6" />
    </clipPath><clipPath
   id="clipPath9782-1">
      <path
   clip-rule="nonzero"
   d="M 2,0 H 4 V 20.664062 H 2 Z m 0,0"
   id="path6471-8" />
    </clipPath><clipPath
   id="clipPath2331-7">
      <path
   clip-rule="nonzero"
   d="m 16,0 h 6 v 20.664062 h -6 z m 0,0"
   id="path9119-9" />
    </clipPath><clipPath
   id="clipPath735-2">
      <path
   clip-rule="nonzero"
   d="M 1,0 H 9 V 20.664062 H 1 Z m 0,0"
   id="path7947-0" />
    </clipPath><clipPath
   id="clipPath4984-2">
      <path
   clip-rule="nonzero"
   d="M 1,0 H 9 V 20.664062 H 1 Z m 0,0"
   id="path8717-3" />
    </clipPath></defs><g
     inkscape:label="Layer 1"
     inkscape:groupmode="layer"
     id="layer1"><text
       xml:space="preserve"
       style="font-size:5.64444px;fill:#000000;fill-opacity:1;stroke-width:0.264583"
       x="178.39848"
       y="175.67996"
       id="text21913-97"><tspan
         sodipodi:role="line"
         id="tspan21911-3"
         style="font-size:5.64444px;stroke-width:0.264583"
         x="178.39848"
         y="175.67996" /></text><text
       xml:space="preserve"
       style="font-size:12.7px;white-space:pre;inline-size:64.0257;fill:#787878;stroke-width:0.264583"
       x="185.55971"
       y="60.34203"
       id="text1262"
       transform="translate(-153.06691,23.365624)"><tspan
         x="185.55971"
         y="60.34203"
         id="tspan3142">Testo </tspan><tspan
         x="185.55971"
         y="76.217028"
         id="tspan3144">Struttura </tspan><tspan
         x="185.55971"
         y="92.092028"
         id="tspan3146">reticolo </tspan><tspan
         x="185.55971"
         y="107.96703"
         id="tspan3148">cristtallino</tspan></text><rect
       style="fill:url(#linearGradient17792);fill-opacity:1;stroke-width:0.2534"
       id="rect17761"
       width="34.717506"
       height="30.165007"
       x="189.83305"
       y="123.05474" /><rect
       style="fill:url(#linearGradient17827);fill-opacity:1;stroke-width:0.2534"
       id="rect17761-3"
       width="34.717506"
       height="30.165007"
       x="189.79071"
       y="72.036835"
       inkscape:transform-center-x="-0.50338546"
       inkscape:transform-center-y="-0.3503962" /><rect
       style="fill:url(#radialGradient17853);fill-opacity:1;stroke-width:0.22204"
       id="rect17761-6"
       width="26.656311"
       height="30.165007"
       x="240.82738"
       y="106.46265" /><rect
       style="fill:#000000;fill-opacity:1;stroke-width:0.2534"
       id="rect17979"
       width="1.9560044"
       height="22.17901"
       x="203.41901"
       y="72.538208" /><rect
       style="fill:#000000;fill-opacity:1;stroke-width:0.266111"
       id="rect18397"
       width="35.999615"
       height="1.723891"
       x="243.85519"
       y="-41.309772"
       transform="matrix(0.85177335,0.52391045,-0.50463251,0.86333425,0,0)"
       inkscape:transform-center-x="-0.10521972"
       inkscape:transform-center-y="-0.17816772" /><rect
       style="fill:#000000;fill-opacity:1;stroke-width:0.266159"
       id="rect18397-8"
       width="35.980419"
       height="1.7254276"
       x="85.692261"
       y="257.5802"
       transform="matrix(0.80407897,-0.5945225,0.62223744,0.78282857,0,0)"
       inkscape:transform-center-x="0.12812231"
       inkscape:transform-center-y="-0.1626973" /><rect
       style="fill:#000000;fill-opacity:1;stroke-width:0.167566"
       id="rect18397-8-9"
       width="22.661753"
       height="1.0858275"
       x="90.360321"
       y="249.66331"
       transform="matrix(0.80499405,-0.59328289,0.62346673,0.78184988,0,0)"
       inkscape:transform-center-x="0.080802879"
       inkscape:transform-center-y="-0.10227196" /><rect
       style="fill:#000000;fill-opacity:1;stroke-width:0.150263"
       id="rect18397-6"
       width="20.373442"
       height="0.97122335"
       x="247.36632"
       y="-31.592453"
       transform="matrix(0.85399807,0.52027618,-0.50823582,0.86121795,0,0)"
       inkscape:transform-center-x="-0.059721955"
       inkscape:transform-center-y="-0.10011552" /><rect
       style="fill:#000000;fill-opacity:1;stroke-width:0.2534"
       id="rect18513"
       width="1.8066373"
       height="12.87222"
       x="215.5394"
       y="134.02138" /><path
       style="fill:#4ce200;fill-opacity:1;stroke-width:0.2534"
       d="m 196.52692,74.384128 h 3.78557 l -1.9719,-2.258084 z"
       id="path21176" /><path
       style="fill:#f50000;fill-opacity:1;stroke-width:0.2534"
       d="m 208.77927,132.08232 3.65698,0.0121 -1.7971,1.79839 z"
       id="path21180" /><path
       style="fill:#000000;fill-opacity:1;stroke-width:0.2534"
       d="m 202.50485,94.679053 h 3.80356 l -1.88049,2.02108 z"
       id="path21670" /><path
       style="fill:#000000;fill-opacity:1;stroke-width:0.2534"
       d="m 257.10205,113.81871 2.73459,-4.47473 1.08504,3.63128 z"
       id="path21672" /><path
       style="fill:#000000;fill-opacity:1;stroke-width:0.2534"
       d="m 243.49168,113.93857 1.74365,-2.85776 0.80988,2.53646 z"
       id="path21674" /><path
       style="fill:#000000;fill-opacity:1;stroke-width:0.2534"
       d="m 228.00005,140.58813 1.87716,2.46109 -2.54395,-0.0171 z"
       id="path21676" /><path
       style="fill:#000000;fill-opacity:1;stroke-width:0.2534"
       d="m 228.72193,149.41756 2.60944,3.43353 -3.60962,0.0729 z"
       id="path21678" /><path
       style="fill:#000000;fill-opacity:1;stroke-width:0.2534"
       d="m 214.80404,146.53526 3.37484,-0.007 -1.74701,1.75179 z"
       id="path21680" /><rect
       style="fill:#000000;fill-opacity:1;stroke-width:0.2534"
       id="rect21729"
       width="34.812042"
       height="0.66334206"
       x="189.78897"
       y="153.26677" /><rect
       style="fill:#000000;fill-opacity:1;stroke-width:0.2534"
       id="rect21729-2"
       width="34.812042"
       height="0.66334206"
       x="189.78656"
       y="143.73537" /><rect
       style="fill:#000000;fill-opacity:1;stroke-width:0.2534"
       id="rect21729-0"
       width="34.812042"
       height="0.66334206"
       x="189.75764"
       y="141.59027" /><rect
       style="fill:#000000;fill-opacity:1;stroke-width:0.2534"
       id="rect21729-23"
       width="34.812042"
       height="0.66334206"
       x="189.7606"
       y="102.2411" /><rect
       style="fill:#000000;fill-opacity:1;stroke-width:0.2534"
       id="rect21729-7"
       width="34.812042"
       height="0.66334206"
       x="189.70724"
       y="92.461525" /><rect
       style="fill:#000000;fill-opacity:1;stroke-width:0.2534"
       id="rect21729-5"
       width="34.812042"
       height="0.66334206"
       x="189.72099"
       y="90.242744" /><rect
       style="fill:#4ce200;fill-opacity:1;stroke-width:0.2534"
       id="rect21013"
       width="2.0815907"
       height="74.293953"
       x="197.35399"
       y="74.046082" /><rect
       style="fill:#f60000;fill-opacity:1;stroke-width:0.2534"
       id="rect18515"
       width="1.6872888"
       height="35.666428"
       x="209.76636"
       y="96.611595" /><text
       xml:space="preserve"
       style="font-size:5.40586px;fill:#000000;fill-opacity:1;stroke-width:0.2534"
       x="206.15048"
       y="83.067619"
       id="text21913"
       transform="scale(1.0033749,0.99663645)"><tspan
         sodipodi:role="line"
         id="tspan21911"
         style="font-size:5.40586px;stroke-width:0.2534"
         x="206.15048"
         y="83.067619">relaxation</tspan></text><text
       xml:space="preserve"
       style="font-size:5.40586px;fill:#f50000;fill-opacity:1;stroke-width:0.2534"
       x="212.00459"
       y="114.38544"
       id="text21913-9"
       transform="scale(1.0033749,0.99663645)"><tspan
         sodipodi:role="line"
         style="font-size:5.40586px;fill:#f50000;fill-opacity:1;stroke-width:0.2534"
         x="212.00459"
         y="114.38544"
         id="tspan22163">emission</tspan></text><text
       xml:space="preserve"
       style="font-size:5.40586px;fill:#000000;fill-opacity:1;stroke-width:0.2534"
       x="170.69792"
       y="114.32553"
       id="text21913-2"
       transform="scale(1.0033749,0.99663645)"><tspan
         sodipodi:role="line"
         id="tspan21911-8"
         style="font-size:5.40586px;fill:#4be000;fill-opacity:1;stroke-width:0.2534"
         x="170.69792"
         y="114.32553">excitation</tspan></text><g
       inkscape:label=""
       transform="matrix(0.96096465,0,0,0.95451095,160.14106,93.403663)"
       id="g253953"><g
   clip-path="url(#clipPath6935-3)"
   id="g27"
   transform="matrix(0.352778,0,0,0.352778,-0.865408,0.00105843)">
    <g
   fill="#000000"
   fill-opacity="1"
   id="g25">
      <g
   id="use23"
   transform="translate(0,15.497)">
        <path
   d="m 3.28125,-14.75 c 0,-0.375 0,-0.75 -0.40625,-0.75 -0.421875,0 -0.421875,0.375 -0.421875,0.75 V 4.421875 c 0,0.375 0,0.75 0.421875,0.75 0.40625,0 0.40625,-0.375 0.40625,-0.75 z m 0,0"
   id="path43" />
      </g>
    </g>
  </g>
  <g
   fill="#000000"
   fill-opacity="1"
   id="g31"
   transform="matrix(0.352778,0,0,0.352778,-0.865408,0.00105843)">
    <g
   id="use29"
   transform="translate(5.7399998,15.497)">
      <path
   d="m 3.703125,-4.796875 c 0.546875,0 1.953125,-0.03125 2.953125,-0.40625 C 8.21875,-5.796875 8.359375,-7 8.359375,-7.375 c 0,-0.90625 -0.78125,-1.734375 -2.140625,-1.734375 -2.171875,0 -5.296875,1.96875 -5.296875,5.640625 0,2.171875 1.25,3.671875 3.125,3.671875 2.8125,0 4.59375,-2.1875 4.59375,-2.453125 0,-0.125 -0.125,-0.234375 -0.21875,-0.234375 -0.0625,0 -0.078125,0.03125 -0.265625,0.21875 -1.3125,1.75 -3.28125,2.0625 -4.0625,2.0625 -1.1875,0 -1.796875,-0.9375 -1.796875,-2.46875 0,-0.28125 0,-0.796875 0.3125,-2.125 z m -1,-0.40625 c 0.890625,-3.1875 2.859375,-3.5 3.515625,-3.5 0.90625,0 1.53125,0.546875 1.53125,1.328125 0,2.171875 -3.3125,2.171875 -4.171875,2.171875 z m 0,0"
   id="path47" />
    </g>
  </g>
  <g
   clip-path="url(#clipPath7175-7)"
   id="g37"
   transform="matrix(0.352778,0,0,0.352778,-0.865408,0.00105843)">
    <g
   fill="#000000"
   fill-opacity="1"
   id="g35">
      <g
   id="use33"
   transform="translate(15.117,15.497)">
        <path
   d="M 5.640625,-4.8125 C 5.75,-5.0625 5.75,-5.109375 5.75,-5.171875 c 0,-0.046875 0,-0.09375 -0.109375,-0.34375 l -3.609375,-9.5 C 1.90625,-15.375 1.78125,-15.5 1.546875,-15.5 c -0.21875,0 -0.40625,0.1875 -0.40625,0.421875 0,0.0625 0,0.109375 0.09375,0.328125 L 4.890625,-5.171875 1.234375,4.375 c -0.09375,0.234375 -0.09375,0.265625 -0.09375,0.375 0,0.234375 0.1875,0.421875 0.40625,0.421875 0.265625,0 0.359375,-0.21875 0.4375,-0.421875 z m 0,0"
   id="path51" />
      </g>
    </g>
  </g>
</g><g
       inkscape:label=""
       transform="matrix(0.96096465,0,0,0.95451095,160.21036,144.73486)"
       id="g254124"><g
   clip-path="url(#clipPath4866-3)"
   id="g254108"
   transform="matrix(0.352778,0,0,0.352778,-0.865408,0.00105843)">
    <g
   fill="#000000"
   fill-opacity="1"
   id="g254106">
      <g
   id="g254104"
   transform="translate(0,15.497)">
        <path
   d="m 3.28125,-14.75 c 0,-0.375 0,-0.75 -0.40625,-0.75 -0.421875,0 -0.421875,0.375 -0.421875,0.75 V 4.421875 c 0,0.375 0,0.75 0.421875,0.75 0.40625,0 0.40625,-0.375 0.40625,-0.75 z m 0,0"
   id="path254102" />
      </g>
    </g>
  </g>
  <g
   fill="#000000"
   fill-opacity="1"
   id="g254114"
   transform="matrix(0.352778,0,0,0.352778,-0.865408,0.00105843)">
    <g
   id="g254112"
   transform="translate(5.7399998,15.497)">
      <path
   d="m 6.984375,-2.625 c -0.078125,0.328125 -0.125,0.421875 -0.390625,0.71875 -0.84375,1.09375 -1.71875,1.5 -2.359375,1.5 -0.6875,0 -1.328125,-0.546875 -1.328125,-1.96875 0,-1.09375 0.625,-3.40625 1.078125,-4.34375 C 4.578125,-7.875 5.515625,-8.703125 6.375,-8.703125 7.75,-8.703125 8.015625,-7 8.015625,-6.875 l -0.0625,0.28125 z M 8.265625,-7.75 C 8,-8.34375 7.421875,-9.109375 6.375,-9.109375 c -2.25,0 -4.8125,2.828125 -4.8125,5.90625 C 1.5625,-1.046875 2.875,0 4.1875,0 5.28125,0 6.265625,-0.875 6.625,-1.28125 L 6.171875,0.578125 c -0.28125,1.140625 -0.40625,1.65625 -1.15625,2.375 -0.84375,0.84375 -1.625,0.84375 -2.078125,0.84375 -0.625,0 -1.140625,-0.03125 -1.65625,-0.203125 0.65625,-0.1875 0.828125,-0.765625 0.828125,-0.984375 0,-0.34375 -0.25,-0.671875 -0.703125,-0.671875 -0.5,0 -1.03125,0.421875 -1.03125,1.09375 0,0.859375 0.84375,1.1875 2.59375,1.1875 2.671875,0 4.046875,-1.71875 4.328125,-2.828125 L 9.578125,-7.875 c 0.0625,-0.25 0.0625,-0.28125 0.0625,-0.328125 0,-0.28125 -0.21875,-0.515625 -0.53125,-0.515625 -0.5,0 -0.78125,0.421875 -0.84375,0.96875 z m 0,0"
   id="path254110" />
    </g>
  </g>
  <g
   clip-path="url(#clipPath576-6)"
   id="g254122"
   transform="matrix(0.352778,0,0,0.352778,-0.865408,0.00105843)">
    <g
   fill="#000000"
   fill-opacity="1"
   id="g254120">
      <g
   id="g254118"
   transform="translate(16.169001,15.497)">
        <path
   d="M 5.640625,-4.8125 C 5.75,-5.0625 5.75,-5.109375 5.75,-5.171875 c 0,-0.046875 0,-0.09375 -0.109375,-0.34375 l -3.609375,-9.5 C 1.90625,-15.375 1.78125,-15.5 1.546875,-15.5 c -0.21875,0 -0.40625,0.1875 -0.40625,0.421875 0,0.0625 0,0.109375 0.09375,0.328125 L 4.890625,-5.171875 1.234375,4.375 c -0.09375,0.234375 -0.09375,0.265625 -0.09375,0.375 0,0.234375 0.1875,0.421875 0.40625,0.421875 0.265625,0 0.359375,-0.21875 0.4375,-0.421875 z m 0,0"
   id="path254116" />
      </g>
    </g>
  </g>
</g><g
       inkscape:label=""
       transform="matrix(0.96096465,0,0,0.95451095,172.46142,88.875694)"
       id="g254320"><g
   clip-path="url(#clipPath1315-9)"
   id="g36"
   transform="matrix(0.352778,0,0,0.352778,-0.865408,0.00105843)">
    <g
   fill="#000000"
   fill-opacity="1"
   id="g34">
      <g
   id="use30"
   transform="translate(0,15.497)">
        <path
   d="m 3.28125,-14.75 c 0,-0.375 0,-0.75 -0.40625,-0.75 -0.421875,0 -0.421875,0.375 -0.421875,0.75 V 4.421875 c 0,0.375 0,0.75 0.421875,0.75 0.40625,0 0.40625,-0.375 0.40625,-0.75 z m 0,0"
   id="path56" />
      </g>
      <g
   id="use32"
   transform="translate(5.7400422,15.497)">
        <path
   d="M 8.453125,-6.46875 H 14.1875 c 0.359375,0 0.71875,0 0.71875,-0.40625 0,-0.421875 -0.359375,-0.421875 -0.71875,-0.421875 H 8.453125 V -13 c 0,-0.328125 0,-0.75 -0.421875,-0.75 -0.40625,0 -0.40625,0.359375 -0.40625,0.6875 v 5.765625 H 1.859375 c -0.34375,0 -0.71875,0 -0.71875,0.421875 0,0.40625 0.375,0.40625 0.71875,0.40625 H 7.625 v 5.640625 H 1.859375 c -0.34375,0 -0.71875,0 -0.71875,0.421875 C 1.140625,0 1.515625,0 1.859375,0 H 14.1875 c 0.359375,0 0.71875,0 0.71875,-0.40625 0,-0.421875 -0.359375,-0.421875 -0.71875,-0.421875 H 8.453125 Z m 0,0"
   id="path60" />
      </g>
    </g>
  </g>
  <g
   fill="#000000"
   fill-opacity="1"
   id="g40"
   transform="matrix(0.352778,0,0,0.352778,-0.865408,0.00105843)">
    <g
   id="use38"
   transform="translate(21.809999,15.497)">
      <path
   d="m 5.5,-13.203125 c 0,-0.4375 -0.03125,-0.453125 -0.3125,-0.453125 C 4.375,-12.6875 3.15625,-12.375 2,-12.328125 c -0.0625,0 -0.15625,0 -0.1875,0.03125 -0.015625,0.04687 -0.015625,0.09375 -0.015625,0.515625 0.640625,0 1.71875,-0.109375 2.546875,-0.609375 v 10.875 c 0,0.734375 -0.046875,0.984375 -1.828125,0.984375 H 1.90625 V 0 C 2.890625,-0.015625 3.921875,-0.046875 4.921875,-0.046875 5.90625,-0.046875 6.9375,-0.015625 7.9375,0 V -0.53125 H 7.3125 C 5.53125,-0.53125 5.5,-0.765625 5.5,-1.515625 Z m 0,0"
   id="path64" />
    </g>
  </g>
  <g
   clip-path="url(#clipPath4771-2)"
   id="g46"
   transform="matrix(0.352778,0,0,0.352778,-0.865408,0.00105843)">
    <g
   fill="#000000"
   fill-opacity="1"
   id="g44">
      <g
   id="use42"
   transform="translate(31.287001,15.497)">
        <path
   d="M 5.640625,-4.8125 C 5.75,-5.0625 5.75,-5.109375 5.75,-5.171875 c 0,-0.046875 0,-0.09375 -0.109375,-0.34375 l -3.609375,-9.5 C 1.90625,-15.375 1.78125,-15.5 1.546875,-15.5 c -0.21875,0 -0.40625,0.1875 -0.40625,0.421875 0,0.0625 0,0.109375 0.09375,0.328125 L 4.890625,-5.171875 1.234375,4.375 c -0.09375,0.234375 -0.09375,0.265625 -0.09375,0.375 0,0.234375 0.1875,0.421875 0.40625,0.421875 0.265625,0 0.359375,-0.21875 0.4375,-0.421875 z m 0,0"
   id="path68" />
      </g>
    </g>
  </g>
  <g
   fill="#000000"
   fill-opacity="1"
   id="g50"
   transform="matrix(0.352778,0,0,0.352778,-0.865408,0.00105843)">
    <g
   id="use48"
   transform="translate(39.321999,18.597)">
      <path
   d="m 2.5625,-3.328125 c 0.390625,0 1.375,-0.03125 2.0625,-0.28125 1.078125,-0.421875 1.1875,-1.25 1.1875,-1.515625 0,-0.625 -0.546875,-1.203125 -1.5,-1.203125 -1.5,0 -3.671875,1.359375 -3.671875,3.921875 0,1.5 0.859375,2.546875 2.171875,2.546875 C 4.765625,0.140625 6,-1.375 6,-1.5625 6,-1.65625 5.90625,-1.71875 5.859375,-1.71875 c -0.046875,0 -0.0625,0.015625 -0.1875,0.140625 -0.921875,1.21875 -2.28125,1.4375 -2.828125,1.4375 -0.828125,0 -1.25,-0.640625 -1.25,-1.703125 0,-0.203125 0,-0.5625 0.21875,-1.484375 z M 1.875,-3.609375 C 2.5,-5.828125 3.859375,-6.03125 4.3125,-6.03125 c 0.640625,0 1.0625,0.359375 1.0625,0.90625 0,1.515625 -2.296875,1.515625 -2.890625,1.515625 z m 0,0"
   id="path72" />
    </g>
  </g>
</g><g
       inkscape:label=""
       transform="matrix(0.96096465,0,0,0.95451095,173.43758,139.77984)"
       id="g254565"><g
   fill="#000000"
   fill-opacity="1"
   id="g254551"
   transform="matrix(0.352778,0,0,0.352778,-0.865408,0.00105843)">
    <g
   id="use27"
   transform="translate(0,15.497)">
      <path
   d="m 3.28125,-14.75 c 0,-0.375 0,-0.75 -0.40625,-0.75 -0.421875,0 -0.421875,0.375 -0.421875,0.75 V 4.421875 c 0,0.375 0,0.75 0.421875,0.75 0.40625,0 0.40625,-0.375 0.40625,-0.75 z m 0,0"
   id="path254545" />
    </g>
    <g
   id="g254549"
   transform="translate(5.7400422,15.497)">
      <path
   d="M 8.453125,-6.46875 H 14.1875 c 0.359375,0 0.71875,0 0.71875,-0.40625 0,-0.421875 -0.359375,-0.421875 -0.71875,-0.421875 H 8.453125 V -13 c 0,-0.328125 0,-0.75 -0.421875,-0.75 -0.40625,0 -0.40625,0.359375 -0.40625,0.6875 v 5.765625 H 1.859375 c -0.34375,0 -0.71875,0 -0.71875,0.421875 0,0.40625 0.375,0.40625 0.71875,0.40625 H 7.625 v 5.640625 H 1.859375 c -0.34375,0 -0.71875,0 -0.71875,0.421875 C 1.140625,0 1.515625,0 1.859375,0 H 14.1875 c 0.359375,0 0.71875,0 0.71875,-0.40625 0,-0.421875 -0.359375,-0.421875 -0.71875,-0.421875 H 8.453125 Z m 0,0"
   id="path55" />
    </g>
  </g>
  <g
   fill="#000000"
   fill-opacity="1"
   id="g254556"
   transform="matrix(0.352778,0,0,0.352778,-0.865408,0.00105843)">
    <g
   id="g254554"
   transform="translate(21.809999,15.497)">
      <path
   d="m 5.5,-13.203125 c 0,-0.4375 -0.03125,-0.453125 -0.3125,-0.453125 C 4.375,-12.6875 3.15625,-12.375 2,-12.328125 c -0.0625,0 -0.15625,0 -0.1875,0.03125 -0.015625,0.04687 -0.015625,0.09375 -0.015625,0.515625 0.640625,0 1.71875,-0.109375 2.546875,-0.609375 v 10.875 c 0,0.734375 -0.046875,0.984375 -1.828125,0.984375 H 1.90625 V 0 C 2.890625,-0.015625 3.921875,-0.046875 4.921875,-0.046875 5.90625,-0.046875 6.9375,-0.015625 7.9375,0 V -0.53125 H 7.3125 C 5.53125,-0.53125 5.5,-0.765625 5.5,-1.515625 Z m 0,0"
   id="path59" />
    </g>
  </g>
  <g
   fill="#000000"
   fill-opacity="1"
   id="g39"
   transform="matrix(0.352778,0,0,0.352778,-0.865408,0.00105843)">
    <g
   id="use37"
   transform="translate(31.287001,15.497)">
      <path
   d="M 5.640625,-4.8125 C 5.75,-5.0625 5.75,-5.109375 5.75,-5.171875 c 0,-0.046875 0,-0.09375 -0.109375,-0.34375 l -3.609375,-9.5 C 1.90625,-15.375 1.78125,-15.5 1.546875,-15.5 c -0.21875,0 -0.40625,0.1875 -0.40625,0.421875 0,0.0625 0,0.109375 0.09375,0.328125 L 4.890625,-5.171875 1.234375,4.375 c -0.09375,0.234375 -0.09375,0.265625 -0.09375,0.375 0,0.234375 0.1875,0.421875 0.40625,0.421875 0.265625,0 0.359375,-0.21875 0.4375,-0.421875 z m 0,0"
   id="path63" />
    </g>
  </g>
  <g
   clip-path="url(#clipPath5714-0)"
   id="g45"
   transform="matrix(0.352778,0,0,0.352778,-0.865408,0.00105843)">
    <g
   fill="#000000"
   fill-opacity="1"
   id="g43">
      <g
   id="use41"
   transform="translate(39.321999,18.596001)">
        <path
   d="M 4.84375,-1.828125 C 4.796875,-1.59375 4.765625,-1.53125 4.578125,-1.3125 c -0.59375,0.75 -1.1875,1.03125 -1.640625,1.03125 -0.46875,0 -0.921875,-0.375 -0.921875,-1.375 0,-0.75 0.4375,-2.359375 0.75,-3 0.421875,-0.8125 1.0625,-1.375 1.671875,-1.375 0.9375,0 1.125,1.171875 1.125,1.25 L 5.515625,-4.578125 Z M 5.734375,-5.375 C 5.546875,-5.796875 5.15625,-6.328125 4.4375,-6.328125 c -1.5625,0 -3.34375,1.96875 -3.34375,4.109375 C 1.09375,-0.734375 2,0 2.90625,0 3.671875,0 4.34375,-0.609375 4.609375,-0.890625 L 4.28125,0.40625 C 4.09375,1.1875 4,1.546875 3.484375,2.046875 2.890625,2.640625 2.359375,2.640625 2.03125,2.640625 1.609375,2.640625 1.25,2.609375 0.890625,2.5 1.34375,2.359375 1.46875,1.96875 1.46875,1.8125 c 0,-0.234375 -0.171875,-0.46875 -0.5,-0.46875 -0.34375,0 -0.703125,0.296875 -0.703125,0.765625 0,0.59375 0.578125,0.8125 1.796875,0.8125 1.859375,0 2.8125,-1.1875 3,-1.953125 l 1.59375,-6.4375 c 0.046875,-0.171875 0.046875,-0.203125 0.046875,-0.21875 0,-0.203125 -0.15625,-0.359375 -0.375,-0.359375 -0.34375,0 -0.546875,0.28125 -0.59375,0.671875 z m 0,0"
   id="path67" />
      </g>
    </g>
  </g>
</g><g
       inkscape:label=""
       transform="matrix(0.96096465,0,0,0.95451095,173.35551,149.64236)"
       id="g254839"><g
   fill="#000000"
   fill-opacity="1"
   id="g26"
   transform="matrix(0.352778,0,0,0.352778,-0.865408,0.00105843)">
    <g
   id="use24"
   transform="translate(0,15.497)">
      <path
   d="m 3.28125,-14.75 c 0,-0.375 0,-0.75 -0.40625,-0.75 -0.421875,0 -0.421875,0.375 -0.421875,0.75 V 4.421875 c 0,0.375 0,0.75 0.421875,0.75 0.40625,0 0.40625,-0.375 0.40625,-0.75 z m 0,0"
   id="path46" />
    </g>
  </g>
  <g
   fill="#000000"
   fill-opacity="1"
   id="g30"
   transform="matrix(0.352778,0,0,0.352778,-0.865408,0.00105843)">
    <g
   id="use28"
   transform="translate(5.7399998,15.497)">
      <path
   d="m 8.671875,-6.625 c 0,-1.265625 -0.015625,-3.40625 -0.890625,-5.0625 -0.765625,-1.453125 -1.984375,-1.96875 -3.046875,-1.96875 -1,0 -2.25,0.453125 -3.046875,1.9375 -0.8125,1.5625 -0.90625,3.484375 -0.90625,5.09375 0,1.171875 0.03125,2.96875 0.671875,4.53125 0.875,2.140625 2.46875,2.421875 3.28125,2.421875 C 5.6875,0.328125 7.125,-0.0625 7.96875,-2.03125 8.59375,-3.453125 8.671875,-5.125 8.671875,-6.625 Z M 4.734375,0 C 3.40625,0 2.625,-1.140625 2.328125,-2.703125 c -0.21875,-1.21875 -0.21875,-3 -0.21875,-4.15625 0,-1.59375 0,-2.90625 0.265625,-4.171875 0.390625,-1.75 1.546875,-2.296875 2.359375,-2.296875 0.84375,0 1.9375,0.5625 2.328125,2.25 0.265625,1.1875 0.296875,2.5625 0.296875,4.21875 0,1.34375 0,3 -0.25,4.21875 C 6.671875,-0.390625 5.453125,0 4.734375,0 Z m 0,0"
   id="path50" />
    </g>
  </g>
  <g
   fill="#000000"
   fill-opacity="1"
   id="g254832"
   transform="matrix(0.352778,0,0,0.352778,-0.865408,0.00105843)">
    <g
   id="g254830"
   transform="translate(15.216,15.497)">
      <path
   d="M 5.640625,-4.8125 C 5.75,-5.0625 5.75,-5.109375 5.75,-5.171875 c 0,-0.046875 0,-0.09375 -0.109375,-0.34375 l -3.609375,-9.5 C 1.90625,-15.375 1.78125,-15.5 1.546875,-15.5 c -0.21875,0 -0.40625,0.1875 -0.40625,0.421875 0,0.0625 0,0.109375 0.09375,0.328125 L 4.890625,-5.171875 1.234375,4.375 c -0.09375,0.234375 -0.09375,0.265625 -0.09375,0.375 0,0.234375 0.1875,0.421875 0.40625,0.421875 0.265625,0 0.359375,-0.21875 0.4375,-0.421875 z m 0,0"
   id="path54" />
    </g>
  </g>
  <g
   clip-path="url(#clipPath9061-3)"
   id="g254837"
   transform="matrix(0.352778,0,0,0.352778,-0.865408,0.00105843)">
    <g
   fill="#000000"
   fill-opacity="1"
   id="g38">
      <g
   id="use36"
   transform="translate(23.250999,18.596001)">
        <path
   d="M 4.84375,-1.828125 C 4.796875,-1.59375 4.765625,-1.53125 4.578125,-1.3125 c -0.59375,0.75 -1.1875,1.03125 -1.640625,1.03125 -0.46875,0 -0.921875,-0.375 -0.921875,-1.375 0,-0.75 0.4375,-2.359375 0.75,-3 0.421875,-0.8125 1.0625,-1.375 1.671875,-1.375 0.9375,0 1.125,1.171875 1.125,1.25 L 5.515625,-4.578125 Z M 5.734375,-5.375 C 5.546875,-5.796875 5.15625,-6.328125 4.4375,-6.328125 c -1.5625,0 -3.34375,1.96875 -3.34375,4.109375 C 1.09375,-0.734375 2,0 2.90625,0 3.671875,0 4.34375,-0.609375 4.609375,-0.890625 L 4.28125,0.40625 C 4.09375,1.1875 4,1.546875 3.484375,2.046875 2.890625,2.640625 2.359375,2.640625 2.03125,2.640625 1.609375,2.640625 1.25,2.609375 0.890625,2.5 1.34375,2.359375 1.46875,1.96875 1.46875,1.8125 c 0,-0.234375 -0.171875,-0.46875 -0.5,-0.46875 -0.34375,0 -0.703125,0.296875 -0.703125,0.765625 0,0.59375 0.578125,0.8125 1.796875,0.8125 1.859375,0 2.8125,-1.1875 3,-1.953125 l 1.59375,-6.4375 c 0.046875,-0.171875 0.046875,-0.203125 0.046875,-0.21875 0,-0.203125 -0.15625,-0.359375 -0.375,-0.359375 -0.34375,0 -0.546875,0.28125 -0.59375,0.671875 z m 0,0"
   id="path58" />
      </g>
    </g>
  </g>
</g><g
       inkscape:label=""
       transform="matrix(0.96096465,0,0,0.95451095,172.63604,98.110723)"
       id="g255154"><g
   clip-path="url(#clipPath8113-0)"
   id="g255134"
   transform="matrix(0.352778,0,0,0.352778,-0.865408,0.00105843)">
    <g
   fill="#000000"
   fill-opacity="1"
   id="g29">
      <g
   id="g255131"
   transform="translate(0,15.497)">
        <path
   d="m 3.28125,-14.75 c 0,-0.375 0,-0.75 -0.40625,-0.75 -0.421875,0 -0.421875,0.375 -0.421875,0.75 V 4.421875 c 0,0.375 0,0.75 0.421875,0.75 0.40625,0 0.40625,-0.375 0.40625,-0.75 z m 0,0"
   id="path255129" />
      </g>
    </g>
  </g>
  <g
   fill="#000000"
   fill-opacity="1"
   id="g255140"
   transform="matrix(0.352778,0,0,0.352778,-0.865408,0.00105843)">
    <g
   id="g255138"
   transform="translate(5.7399998,15.497)">
      <path
   d="m 8.671875,-6.625 c 0,-1.265625 -0.015625,-3.40625 -0.890625,-5.0625 -0.765625,-1.453125 -1.984375,-1.96875 -3.046875,-1.96875 -1,0 -2.25,0.453125 -3.046875,1.9375 -0.8125,1.5625 -0.90625,3.484375 -0.90625,5.09375 0,1.171875 0.03125,2.96875 0.671875,4.53125 0.875,2.140625 2.46875,2.421875 3.28125,2.421875 C 5.6875,0.328125 7.125,-0.0625 7.96875,-2.03125 8.59375,-3.453125 8.671875,-5.125 8.671875,-6.625 Z M 4.734375,0 C 3.40625,0 2.625,-1.140625 2.328125,-2.703125 c -0.21875,-1.21875 -0.21875,-3 -0.21875,-4.15625 0,-1.59375 0,-2.90625 0.265625,-4.171875 0.390625,-1.75 1.546875,-2.296875 2.359375,-2.296875 0.84375,0 1.9375,0.5625 2.328125,2.25 0.265625,1.1875 0.296875,2.5625 0.296875,4.21875 0,1.34375 0,3 -0.25,4.21875 C 6.671875,-0.390625 5.453125,0 4.734375,0 Z m 0,0"
   id="path255136" />
    </g>
  </g>
  <g
   clip-path="url(#clipPath2512-2)"
   id="g41"
   transform="matrix(0.352778,0,0,0.352778,-0.865408,0.00105843)">
    <g
   fill="#000000"
   fill-opacity="1"
   id="g255146">
      <g
   id="g255144"
   transform="translate(15.216,15.497)">
        <path
   d="M 5.640625,-4.8125 C 5.75,-5.0625 5.75,-5.109375 5.75,-5.171875 c 0,-0.046875 0,-0.09375 -0.109375,-0.34375 l -3.609375,-9.5 C 1.90625,-15.375 1.78125,-15.5 1.546875,-15.5 c -0.21875,0 -0.40625,0.1875 -0.40625,0.421875 0,0.0625 0,0.109375 0.09375,0.328125 L 4.890625,-5.171875 1.234375,4.375 c -0.09375,0.234375 -0.09375,0.265625 -0.09375,0.375 0,0.234375 0.1875,0.421875 0.40625,0.421875 0.265625,0 0.359375,-0.21875 0.4375,-0.421875 z m 0,0"
   id="path255142" />
      </g>
    </g>
  </g>
  <g
   fill="#000000"
   fill-opacity="1"
   id="g255152"
   transform="matrix(0.352778,0,0,0.352778,-0.865408,0.00105843)">
    <g
   id="use43"
   transform="translate(23.250999,18.597)">
      <path
   d="m 2.5625,-3.328125 c 0.390625,0 1.375,-0.03125 2.0625,-0.28125 1.078125,-0.421875 1.1875,-1.25 1.1875,-1.515625 0,-0.625 -0.546875,-1.203125 -1.5,-1.203125 -1.5,0 -3.671875,1.359375 -3.671875,3.921875 0,1.5 0.859375,2.546875 2.171875,2.546875 C 4.765625,0.140625 6,-1.375 6,-1.5625 6,-1.65625 5.90625,-1.71875 5.859375,-1.71875 c -0.046875,0 -0.0625,0.015625 -0.1875,0.140625 -0.921875,1.21875 -2.28125,1.4375 -2.828125,1.4375 -0.828125,0 -1.25,-0.640625 -1.25,-1.703125 0,-0.203125 0,-0.5625 0.21875,-1.484375 z M 1.875,-3.609375 C 2.5,-5.828125 3.859375,-6.03125 4.3125,-6.03125 c 0.640625,0 1.0625,0.359375 1.0625,0.90625 0,1.515625 -2.296875,1.515625 -2.890625,1.515625 z m 0,0"
   id="path255149" />
    </g>
  </g>
</g><g
       inkscape:label=""
       transform="matrix(0.96096465,0,0,0.95451095,232.39298,118.51023)"
       id="g255507"><g
   clip-path="url(#clipPath9782-1)"
   id="g255491"
   transform="matrix(0.352778,0,0,0.352778,-0.865408,0.00105843)">
    <g
   fill="#000000"
   fill-opacity="1"
   id="g255489">
      <g
   id="g255487"
   transform="translate(0,15.497)">
        <path
   d="m 3.28125,-14.75 c 0,-0.375 0,-0.75 -0.40625,-0.75 -0.421875,0 -0.421875,0.375 -0.421875,0.75 V 4.421875 c 0,0.375 0,0.75 0.421875,0.75 0.40625,0 0.40625,-0.375 0.40625,-0.75 z m 0,0"
   id="path255485" />
      </g>
    </g>
  </g>
  <g
   fill="#000000"
   fill-opacity="1"
   id="g255497"
   transform="matrix(0.352778,0,0,0.352778,-0.865408,0.00105843)">
    <g
   id="g255495"
   transform="translate(5.7399998,15.497)">
      <path
   d="M 4.703125,-4.125 C 5.0625,-4.0625 5.625,-3.953125 5.75,-3.921875 c 0.265625,0.078125 1.1875,0.40625 1.1875,1.40625 0,0.640625 -0.578125,2.3125 -2.96875,2.3125 -0.4375,0 -1.984375,-0.0625 -2.40625,-1.203125 0.828125,0.109375 1.25,-0.53125 1.25,-0.984375 0,-0.4375 -0.296875,-0.671875 -0.703125,-0.671875 -0.453125,0 -1.0625,0.359375 -1.0625,1.28125 0,1.21875 1.25,1.984375 2.90625,1.984375 3.125,0 4.0625,-2.3125 4.0625,-3.390625 0,-0.296875 0,-0.875 -0.65625,-1.546875 C 6.84375,-5.21875 6.34375,-5.328125 5.21875,-5.5625 c -0.546875,-0.125 -1.4375,-0.296875 -1.4375,-1.234375 0,-0.40625 0.375,-1.90625 2.328125,-1.90625 0.875,0 1.71875,0.34375 1.921875,1.078125 -0.90625,0 -0.953125,0.78125 -0.953125,0.8125 0,0.4375 0.40625,0.546875 0.578125,0.546875 0.296875,0 0.875,-0.21875 0.875,-1.09375 0,-0.859375 -0.78125,-1.75 -2.390625,-1.75 -2.71875,0 -3.4375,2.125 -3.4375,2.96875 0,1.578125 1.53125,1.90625 2,2.015625 z m 0,0"
   id="path255493" />
    </g>
  </g>
  <g
   clip-path="url(#clipPath2331-7)"
   id="g255505"
   transform="matrix(0.352778,0,0,0.352778,-0.865408,0.00105843)">
    <g
   fill="#000000"
   fill-opacity="1"
   id="g255503">
      <g
   id="g255501"
   transform="translate(15.27,15.497)">
        <path
   d="M 5.640625,-4.8125 C 5.75,-5.0625 5.75,-5.109375 5.75,-5.171875 c 0,-0.046875 0,-0.09375 -0.109375,-0.34375 l -3.609375,-9.5 C 1.90625,-15.375 1.78125,-15.5 1.546875,-15.5 c -0.21875,0 -0.40625,0.1875 -0.40625,0.421875 0,0.0625 0,0.109375 0.09375,0.328125 L 4.890625,-5.171875 1.234375,4.375 c -0.09375,0.234375 -0.09375,0.265625 -0.09375,0.375 0,0.234375 0.1875,0.421875 0.40625,0.421875 0.265625,0 0.359375,-0.21875 0.4375,-0.421875 z m 0,0"
   id="path255499" />
      </g>
    </g>
  </g>
</g><g
       inkscape:label=""
       transform="matrix(0.96096465,0,0,0.95451095,168.2111,93.263533)"
       id="g256038"><g
   clip-path="url(#clipPath735-2)"
   id="g17"
   transform="matrix(0.352778,0,0,0.352778,-0.523655,0.00105843)">
    <g
   fill="#000000"
   fill-opacity="1"
   id="g15">
      <g
   id="use13"
   transform="translate(0,15.497)">
        <path
   d="m 5.84375,-12.75 c 0,-0.828125 0.53125,-2.140625 2.796875,-2.28125 C 8.734375,-15.0625 8.8125,-15.140625 8.8125,-15.265625 8.8125,-15.5 8.65625,-15.5 8.421875,-15.5 c -2.0625,0 -3.9375,1.0625 -3.953125,2.59375 v 4.703125 c 0,0.8125 0,1.46875 -0.828125,2.15625 -0.734375,0.59375 -1.515625,0.640625 -1.96875,0.65625 -0.109375,0.015625 -0.1875,0.109375 -0.1875,0.21875 0,0.21875 0.125,0.21875 0.328125,0.234375 1.375,0.078125 2.359375,0.828125 2.59375,1.84375 0.0625,0.21875 0.0625,0.265625 0.0625,1 V 2 c 0,0.875 0,1.53125 0.984375,2.3125 0.8125,0.625 2.171875,0.859375 2.96875,0.859375 0.234375,0 0.390625,0 0.390625,-0.234375 C 8.8125,4.734375 8.703125,4.734375 8.484375,4.703125 7.1875,4.625 6.171875,3.96875 5.90625,2.90625 5.84375,2.734375 5.84375,2.6875 5.84375,1.9375 v -4.328125 c 0,-0.953125 -0.15625,-1.3125 -0.828125,-1.96875 C 4.578125,-4.796875 3.984375,-5 3.40625,-5.171875 5.109375,-5.640625 5.84375,-6.59375 5.84375,-7.78125 Z m 0,0"
   id="path23" />
      </g>
    </g>
  </g>
</g><g
       inkscape:label=""
       transform="matrix(0.96096465,0,0,0.95451095,169.12019,144.63831)"
       id="g256409"><g
   clip-path="url(#clipPath4984-2)"
   id="g256407"
   transform="matrix(0.352778,0,0,0.352778,-0.523655,0.00105843)">
    <g
   fill="#000000"
   fill-opacity="1"
   id="g256405">
      <g
   id="g256403"
   transform="translate(0,15.497)">
        <path
   d="m 5.84375,-12.75 c 0,-0.828125 0.53125,-2.140625 2.796875,-2.28125 C 8.734375,-15.0625 8.8125,-15.140625 8.8125,-15.265625 8.8125,-15.5 8.65625,-15.5 8.421875,-15.5 c -2.0625,0 -3.9375,1.0625 -3.953125,2.59375 v 4.703125 c 0,0.8125 0,1.46875 -0.828125,2.15625 -0.734375,0.59375 -1.515625,0.640625 -1.96875,0.65625 -0.109375,0.015625 -0.1875,0.109375 -0.1875,0.21875 0,0.21875 0.125,0.21875 0.328125,0.234375 1.375,0.078125 2.359375,0.828125 2.59375,1.84375 0.0625,0.21875 0.0625,0.265625 0.0625,1 V 2 c 0,0.875 0,1.53125 0.984375,2.3125 0.8125,0.625 2.171875,0.859375 2.96875,0.859375 0.234375,0 0.390625,0 0.390625,-0.234375 C 8.8125,4.734375 8.703125,4.734375 8.484375,4.703125 7.1875,4.625 6.171875,3.96875 5.90625,2.90625 5.84375,2.734375 5.84375,2.6875 5.84375,1.9375 v -4.328125 c 0,-0.953125 -0.15625,-1.3125 -0.828125,-1.96875 C 4.578125,-4.796875 3.984375,-5 3.40625,-5.171875 5.109375,-5.640625 5.84375,-6.59375 5.84375,-7.78125 Z m 0,0"
   id="path256401" />
      </g>
    </g>
  </g>
</g><rect
       style="fill:#000000;fill-opacity:1;stroke-width:0.2534"
       id="rect256472"
       width="0.32869077"
       height="16.863224"
       x="160.14656"
       y="103.19054" /><rect
       style="fill:#000000;fill-opacity:1;stroke-width:0.2534"
       id="rect256472-3"
       width="0.32869077"
       height="16.863224"
       x="160.10152"
       y="124.87864" /><text
       xml:space="preserve"
       style="font-size:4.0544px;fill:#000000;fill-opacity:1;stroke-width:0.2534"
       x="151.60324"
       y="124.40475"
       id="text256498"
       transform="scale(1.0033749,0.99663645)"><tspan
         sodipodi:role="line"
         id="tspan256496"
         style="font-size:4.0544px;fill:#000000;fill-opacity:1;stroke-width:0.2534"
         x="151.60324"
         y="124.40475">1.945 eV</tspan></text><text
       xml:space="preserve"
       style="font-size:4.0544px;fill:#000000;fill-opacity:1;stroke-width:0.2534"
       x="143.05525"
       y="77.259399"
       id="text256498-5"
       transform="scale(1.0033749,0.99663645)"><tspan
         sodipodi:role="line"
         id="tspan256496-3"
         style="font-size:4.0544px;fill:#787878;fill-opacity:1;stroke-width:0.2534"
         x="143.05525"
         y="77.259399">5.5 eV</tspan></text><rect
       style="fill:#777777;fill-opacity:1;stroke-width:0.2534"
       id="rect256990"
       width="120.05858"
       height="1.3842738"
       x="148.89421"
       y="167.78882" /><rect
       style="fill:#777777;fill-opacity:1;stroke-width:0.2534"
       id="rect256990-6"
       width="120.05858"
       height="1.3842738"
       x="148.82094"
       y="57.266216" /><rect
       style="fill:#777777;fill-opacity:1;stroke-width:0.2534"
       id="rect259618"
       width="0.50741982"
       height="86.97316"
       x="149.11276"
       y="78.976852" /><rect
       style="fill:#777777;fill-opacity:1;stroke-width:0.2534"
       id="rect259642"
       width="0.49626011"
       height="11.725333"
       x="149.17987"
       y="60.468281" /><path
       style="fill:#000000;fill-opacity:1;stroke-width:0.2534"
       d="m 159.98139,103.22522 0.67313,0.027 -0.34523,-0.61516 z"
       id="path259929" /><path
       style="fill:#000000;fill-opacity:1;stroke-width:0.2534"
       d="m 160.61216,141.6481 -0.67314,-0.027 0.34523,0.61514 z"
       id="path259929-5" /><path
       style="fill:#787878;fill-opacity:1;stroke-width:0.378089"
       d="m 148.94159,60.69721 0.99461,0.0407 -0.5101,-0.926889 z"
       id="path259929-6" /><path
       style="fill:#787878;fill-opacity:1;stroke-width:0.378089"
       d="m 149.85009,165.94653 -0.9946,-0.0406 0.5101,0.9269 z"
       id="path259929-6-9" /><text
       xml:space="preserve"
       style="font-size:5.40586px;fill:#787878;fill-opacity:1;stroke-width:0.2534"
       x="225.31113"
       y="64.977882"
       id="text21913-7"
       transform="scale(1.0033749,0.99663645)"><tspan
         sodipodi:role="line"
         id="tspan21911-0"
         style="font-size:5.40586px;fill:#787878;fill-opacity:1;stroke-width:0.2534"
         x="225.31113"
         y="64.977882">conduction band</tspan></text><text
       xml:space="preserve"
       style="font-size:5.40586px;fill:#787878;fill-opacity:1;stroke-width:0.2534"
       x="234.65233"
       y="165.96609"
       id="text21913-7-9"
       transform="scale(1.0033749,0.99663645)"><tspan
         sodipodi:role="line"
         id="tspan21911-0-3"
         style="font-size:5.40586px;fill:#787878;fill-opacity:1;stroke-width:0.2534"
         x="234.65233"
         y="165.96609">valence band</tspan></text><text
       xml:space="preserve"
       style="font-size:12.7px;fill:#787878;stroke-width:0.264583"
       x="129.77026"
       y="29.815382"
       id="text1266"><tspan
         sodipodi:role="line"
         id="tspan1264"
         style="stroke-width:0.264583"
         x="129.77026"
         y="29.815382">3 title</tspan></text></g></svg>
