<?xml version="1.0" encoding="UTF-8" standalone="no"?>
<!-- Created with Inkscape (http://www.inkscape.org/) -->

<svg
   width="297mm"
   height="210mm"
   viewBox="0 0 297 210"
   version="1.1"
   id="svg6251"
   xml:space="preserve"
   inkscape:version="1.2.1 (9c6d41e410, 2022-07-14, custom)"
   sodipodi:docname="4-zeeman.svg"
   xmlns:inkscape="http://www.inkscape.org/namespaces/inkscape"
   xmlns:sodipodi="http://sodipodi.sourceforge.net/DTD/sodipodi-0.dtd"
   xmlns:xlink="http://www.w3.org/1999/xlink"
   xmlns="http://www.w3.org/2000/svg"
   xmlns:svg="http://www.w3.org/2000/svg"><sodipodi:namedview
     id="namedview6253"
     pagecolor="#ffffff"
     bordercolor="#000000"
     borderopacity="0.25"
     inkscape:showpageshadow="2"
     inkscape:pageopacity="0.0"
     inkscape:pagecheckerboard="0"
     inkscape:deskcolor="#d1d1d1"
     inkscape:document-units="mm"
     showgrid="false"
     inkscape:zoom="0.8211752"
     inkscape:cx="562.60832"
     inkscape:cy="383.59658"
     inkscape:window-width="1906"
     inkscape:window-height="1020"
     inkscape:window-x="5"
     inkscape:window-y="51"
     inkscape:window-maximized="1"
     inkscape:current-layer="layer1" /><defs
     id="defs6248"><clipPath
   id="clipPath6935">
      <path
   clip-rule="nonzero"
   d="M 2,0 H 4 V 20.664062 H 2 Z m 0,0"
   id="path2380" />
    </clipPath>
    <clipPath
   id="clipPath7175">
      <path
   clip-rule="nonzero"
   d="m 16,0 h 5 v 20.664062 h -5 z m 0,0"
   id="path7393" />
    </clipPath>
  <clipPath
   id="clipPath4866">
      <path
   clip-rule="nonzero"
   d="M 2,0 H 4 V 20.664062 H 2 Z m 0,0"
   id="path3487" />
    </clipPath>
    <clipPath
   id="clipPath576">
      <path
   clip-rule="nonzero"
   d="m 17,0 h 5 v 20.664062 h -5 z m 0,0"
   id="path466" />
    </clipPath>
  <clipPath
   id="clipPath1315">
      <path
   clip-rule="nonzero"
   d="M 2,0 H 21 V 20.664062 H 2 Z m 0,0"
   id="path1458" />
    </clipPath>
    <clipPath
   id="clipPath4771">
      <path
   clip-rule="nonzero"
   d="m 32,0 h 6 v 20.664062 h -6 z m 0,0"
   id="path6974" />
    </clipPath>
  <clipPath
   id="clipPath5714">
      <path
   clip-rule="nonzero"
   d="m 39,12 h 8 v 9.386719 h -8 z m 0,0"
   id="path7056" />
    </clipPath>
  <clipPath
   id="clipPath9061">
      <path
   clip-rule="nonzero"
   d="m 23,12 h 7 v 9.386719 h -7 z m 0,0"
   id="path9482" />
    </clipPath>
  <clipPath
   id="clipPath8113">
      <path
   clip-rule="nonzero"
   d="M 2,0 H 4 V 20.664062 H 2 Z m 0,0"
   id="path5989" />
    </clipPath>
    <clipPath
   id="clipPath2512">
      <path
   clip-rule="nonzero"
   d="m 16,0 h 5 v 20.664062 h -5 z m 0,0"
   id="path855" />
    </clipPath>
  <clipPath
   id="clipPath9782">
      <path
   clip-rule="nonzero"
   d="M 2,0 H 4 V 20.664062 H 2 Z m 0,0"
   id="path6471" />
    </clipPath>
    <clipPath
   id="clipPath2331">
      <path
   clip-rule="nonzero"
   d="m 16,0 h 6 v 20.664062 h -6 z m 0,0"
   id="path9119" />
    </clipPath>
  <clipPath
   id="clipPath735">
      <path
   clip-rule="nonzero"
   d="M 1,0 H 9 V 20.664062 H 1 Z m 0,0"
   id="path7947" />
    </clipPath>
  <clipPath
   id="clipPath4984">
      <path
   clip-rule="nonzero"
   d="M 1,0 H 9 V 20.664062 H 1 Z m 0,0"
   id="path8717" />
    </clipPath>
  <clipPath
   id="clipPath2449">
      <path
   clip-rule="nonzero"
   d="M 2,0 H 37 V 20.628906 H 2 Z m 0,0"
   id="path1484" />
    </clipPath>
  <clipPath
   id="clipPath1963">
      <path
   clip-rule="nonzero"
   d="M 2,2 H 5 V 22.851562 H 2 Z m 0,0"
   id="path7764" />
    </clipPath>
    <clipPath
   id="clipPath3872">
      <path
   clip-rule="nonzero"
   d="M 16,2 H 37 V 22.851562 H 16 Z m 0,0"
   id="path7716" />
    </clipPath>
  <clipPath
   id="clipPath6775">
      <path
   clip-rule="nonzero"
   d="M 2,2 H 5 V 22.851562 H 2 Z m 0,0"
   id="path8652" />
    </clipPath>
    <clipPath
   id="clipPath8724">
      <path
   clip-rule="nonzero"
   d="M 16,2 H 37 V 22.851562 H 16 Z m 0,0"
   id="path32" />
    </clipPath>
  <clipPath
   id="clipPath4733">
      <path
   clip-rule="nonzero"
   d="M 2,2 H 5 V 22.851562 H 2 Z m 0,0"
   id="path1867" />
    </clipPath>
    <clipPath
   id="clipPath2689">
      <path
   clip-rule="nonzero"
   d="M 38,2 H 50 V 22.851562 H 38 Z m 0,0"
   id="path9813" />
    </clipPath>
  <clipPath
   id="clipPath1180">
      <path
   clip-rule="nonzero"
   d="M 1,1 H 5 V 18.972656 H 1 Z m 0,0"
   id="path8270" />
    </clipPath>
    <clipPath
   id="clipPath5922">
      <path
   clip-rule="nonzero"
   d="M 31,1 H 41 V 18.972656 H 31 Z m 0,0"
   id="path3931" />
    </clipPath>
  <clipPath
   id="clipPath9395">
      <path
   clip-rule="nonzero"
   d="M 1,1 H 11 V 18.972656 H 1 Z m 0,0"
   id="path3520" />
    </clipPath>
    <clipPath
   id="clipPath2099">
      <path
   clip-rule="nonzero"
   d="M 31,1 H 41 V 18.972656 H 31 Z m 0,0"
   id="path3609" />
    </clipPath>
  <clipPath
   id="clipPath876">
      <path
   clip-rule="nonzero"
   d="M 1,1 H 5 V 18.972656 H 1 Z m 0,0"
   id="path8359" />
    </clipPath>
    <clipPath
   id="clipPath3661">
      <path
   clip-rule="nonzero"
   d="M 31,1 H 41 V 18.972656 H 31 Z m 0,0"
   id="path5793" />
    </clipPath>
  <clipPath
   id="clipPath1058">
      <path
   clip-rule="nonzero"
   d="M 1,0 H 11 V 17.1875 H 1 Z m 0,0"
   id="path1469" />
    </clipPath>
    <clipPath
   id="clipPath2743">
      <path
   clip-rule="nonzero"
   d="M 31,0 H 41 V 17.1875 H 31 Z m 0,0"
   id="path1016" />
    </clipPath>
  <clipPath
   id="clipPath4044">
      <path
   clip-rule="nonzero"
   d="M 1,0 H 11 V 17.1875 H 1 Z m 0,0"
   id="path9913" />
    </clipPath>
    <clipPath
   id="clipPath6071">
      <path
   clip-rule="nonzero"
   d="M 31,0 H 41 V 17.1875 H 31 Z m 0,0"
   id="path7264" />
    </clipPath>
  <clipPath
   id="clipPath229">
      <path
   clip-rule="nonzero"
   d="M 1,0 H 11 V 17.1875 H 1 Z m 0,0"
   id="path1130" />
    </clipPath>
    <clipPath
   id="clipPath1176">
      <path
   clip-rule="nonzero"
   d="M 31,0 H 41 V 17.1875 H 31 Z m 0,0"
   id="path5713" />
    </clipPath>
  <clipPath
   id="clipPath4249">
      <path
   clip-rule="nonzero"
   d="M 1,1 H 11 V 18.972656 H 1 Z m 0,0"
   id="path7398" />
    </clipPath>
    <clipPath
   id="clipPath2310">
      <path
   clip-rule="nonzero"
   d="M 31,1 H 41 V 18.972656 H 31 Z m 0,0"
   id="path8539" />
    </clipPath>
  <clipPath
   id="clipPath9227">
      <path
   clip-rule="nonzero"
   d="M 1,1 H 5 V 18.972656 H 1 Z m 0,0"
   id="path5240" />
    </clipPath>
    <clipPath
   id="clipPath8847">
      <path
   clip-rule="nonzero"
   d="M 31,1 H 41 V 18.972656 H 31 Z m 0,0"
   id="path2598" />
    </clipPath>
  <linearGradient
   inkscape:collect="always"
   xlink:href="#linearGradient17790"
   id="linearGradient17792"
   x1="226.33644"
   y1="175.02895"
   x2="226.30957"
   y2="143.66116"
   gradientUnits="userSpaceOnUse"
   gradientTransform="matrix(0.96096465,0,0,2.5112845,-134.45161,-287.79005)" /><linearGradient
   inkscape:collect="always"
   id="linearGradient17790"><stop
     style="stop-color:#87bafa;stop-opacity:1;"
     offset="0"
     id="stop17786" /><stop
     style="stop-color:#85d8fa;stop-opacity:0;"
     offset="1"
     id="stop17788" /></linearGradient><clipPath
   id="clipPath6935-3">
      <path
   clip-rule="nonzero"
   d="M 2,0 H 4 V 20.664062 H 2 Z m 0,0"
   id="path2380-6" />
    </clipPath><clipPath
   id="clipPath7175-7">
      <path
   clip-rule="nonzero"
   d="m 16,0 h 5 v 20.664062 h -5 z m 0,0"
   id="path7393-5" />
    </clipPath><clipPath
   id="clipPath4866-3">
      <path
   clip-rule="nonzero"
   d="M 2,0 H 4 V 20.664062 H 2 Z m 0,0"
   id="path3487-5" />
    </clipPath><clipPath
   id="clipPath576-6">
      <path
   clip-rule="nonzero"
   d="m 17,0 h 5 v 20.664062 h -5 z m 0,0"
   id="path466-2" />
    </clipPath><clipPath
   id="clipPath1315-9">
      <path
   clip-rule="nonzero"
   d="M 2,0 H 21 V 20.664062 H 2 Z m 0,0"
   id="path1458-1" />
    </clipPath><clipPath
   id="clipPath4771-2">
      <path
   clip-rule="nonzero"
   d="m 32,0 h 6 v 20.664062 h -6 z m 0,0"
   id="path6974-7" />
    </clipPath><clipPath
   id="clipPath5714-0">
      <path
   clip-rule="nonzero"
   d="m 39,12 h 8 v 9.386719 h -8 z m 0,0"
   id="path7056-9" />
    </clipPath><clipPath
   id="clipPath9061-3">
      <path
   clip-rule="nonzero"
   d="m 23,12 h 7 v 9.386719 h -7 z m 0,0"
   id="path9482-6" />
    </clipPath><clipPath
   id="clipPath8113-0">
      <path
   clip-rule="nonzero"
   d="M 2,0 H 4 V 20.664062 H 2 Z m 0,0"
   id="path5989-6" />
    </clipPath><clipPath
   id="clipPath2512-2">
      <path
   clip-rule="nonzero"
   d="m 16,0 h 5 v 20.664062 h -5 z m 0,0"
   id="path855-6" />
    </clipPath><clipPath
   id="clipPath9782-1">
      <path
   clip-rule="nonzero"
   d="M 2,0 H 4 V 20.664062 H 2 Z m 0,0"
   id="path6471-8" />
    </clipPath><clipPath
   id="clipPath2331-7">
      <path
   clip-rule="nonzero"
   d="m 16,0 h 6 v 20.664062 h -6 z m 0,0"
   id="path9119-9" />
    </clipPath><clipPath
   id="clipPath735-2">
      <path
   clip-rule="nonzero"
   d="M 1,0 H 9 V 20.664062 H 1 Z m 0,0"
   id="path7947-0" />
    </clipPath><clipPath
   id="clipPath4984-2">
      <path
   clip-rule="nonzero"
   d="M 1,0 H 9 V 20.664062 H 1 Z m 0,0"
   id="path8717-3" />
    </clipPath><clipPath
   id="clipPath2947">
      <path
   clip-rule="nonzero"
   d="m 38,12 h 7 v 9.386719 h -7 z m 0,0"
   id="path3046" />
    </clipPath>
  <clipPath
   id="clipPath3881">
      <path
   clip-rule="nonzero"
   d="m 39,12 h 8 v 9.386719 h -8 z m 0,0"
   id="path4405" />
    </clipPath>
  <clipPath
   id="clipPath218">
      <path
   clip-rule="nonzero"
   d="M 0,5 H 10 V 18.136719 H 0 Z m 0,0"
   id="path5448" />
    </clipPath>
    <clipPath
   id="clipPath8224">
      <path
   clip-rule="nonzero"
   d="M 11,0 H 38 V 18.136719 H 11 Z m 0,0"
   id="path6804" />
    </clipPath>
  <clipPath
   id="clipPath9685">
      <path
   clip-rule="nonzero"
   d="M 0,4 H 9 V 15.109375 H 0 Z m 0,0"
   id="path4593" />
    </clipPath>
    <clipPath
   id="clipPath6889">
      <path
   clip-rule="nonzero"
   d="M 9,0 H 32 V 15.109375 H 9 Z m 0,0"
   id="path3414" />
    </clipPath>
  </defs><g
     inkscape:label="Layer 1"
     inkscape:groupmode="layer"
     id="layer1"><text
       xml:space="preserve"
       style="font-size:5.64444px;fill:#000000;fill-opacity:1;stroke-width:0.264583"
       x="178.39848"
       y="175.67996"
       id="text21913-97"><tspan
         sodipodi:role="line"
         id="tspan21911-3"
         style="font-size:5.64444px;stroke-width:0.264583"
         x="178.39848"
         y="175.67996" /></text><text
       xml:space="preserve"
       style="font-size:12.7px;white-space:pre;inline-size:64.0257;display:inline;fill:#787878;stroke-width:0.264583"
       x="185.55971"
       y="60.34203"
       id="text1262"
       transform="translate(13.960858,28.287188)"><tspan
         x="185.55971"
         y="60.34203"
         id="tspan10293">Testo </tspan><tspan
         x="185.55971"
         y="76.217028"
         id="tspan10295">Struttura </tspan><tspan
         x="185.55971"
         y="92.092028"
         id="tspan10297">reticolo </tspan><tspan
         x="185.55971"
         y="107.96703"
         id="tspan10299">cristtallino</tspan></text><rect
       style="fill:url(#linearGradient17792);fill-opacity:1;stroke-width:0.411021"
       id="rect17761"
       width="34.717506"
       height="79.363068"
       x="66.038452"
       y="72.698105" /><rect
       style="fill:#000000;fill-opacity:1;stroke-width:0.411021"
       id="rect21729"
       width="34.812042"
       height="1.7452295"
       x="65.99353"
       y="152.18488" /><rect
       style="fill:#000000;fill-opacity:1;stroke-width:0.411021"
       id="rect21729-2"
       width="34.812042"
       height="1.7452295"
       x="65.991577"
       y="137.108" /><rect
       style="fill:#000000;fill-opacity:1;stroke-width:0.411021"
       id="rect21729-0"
       width="34.812042"
       height="1.7452295"
       x="65.96228"
       y="111.464" /><g
       inkscape:label=""
       transform="matrix(0.96096465,0,0,0.95451095,49.560392,149.64236)"
       id="g254839"><g
   fill="#000000"
   fill-opacity="1"
   id="g26"
   transform="matrix(0.352778,0,0,0.352778,-0.865408,0.00105843)">
    <g
   id="use24"
   transform="translate(0,15.497)">
      <path
   d="m 3.28125,-14.75 c 0,-0.375 0,-0.75 -0.40625,-0.75 -0.421875,0 -0.421875,0.375 -0.421875,0.75 V 4.421875 c 0,0.375 0,0.75 0.421875,0.75 0.40625,0 0.40625,-0.375 0.40625,-0.75 z m 0,0"
   id="path46" />
    </g>
  </g>
  <g
   fill="#000000"
   fill-opacity="1"
   id="g30"
   transform="matrix(0.352778,0,0,0.352778,-0.865408,0.00105843)">
    <g
   id="use28"
   transform="translate(5.7399998,15.497)">
      <path
   d="m 8.671875,-6.625 c 0,-1.265625 -0.015625,-3.40625 -0.890625,-5.0625 -0.765625,-1.453125 -1.984375,-1.96875 -3.046875,-1.96875 -1,0 -2.25,0.453125 -3.046875,1.9375 -0.8125,1.5625 -0.90625,3.484375 -0.90625,5.09375 0,1.171875 0.03125,2.96875 0.671875,4.53125 0.875,2.140625 2.46875,2.421875 3.28125,2.421875 C 5.6875,0.328125 7.125,-0.0625 7.96875,-2.03125 8.59375,-3.453125 8.671875,-5.125 8.671875,-6.625 Z M 4.734375,0 C 3.40625,0 2.625,-1.140625 2.328125,-2.703125 c -0.21875,-1.21875 -0.21875,-3 -0.21875,-4.15625 0,-1.59375 0,-2.90625 0.265625,-4.171875 0.390625,-1.75 1.546875,-2.296875 2.359375,-2.296875 0.84375,0 1.9375,0.5625 2.328125,2.25 0.265625,1.1875 0.296875,2.5625 0.296875,4.21875 0,1.34375 0,3 -0.25,4.21875 C 6.671875,-0.390625 5.453125,0 4.734375,0 Z m 0,0"
   id="path50" />
    </g>
  </g>
  <g
   fill="#000000"
   fill-opacity="1"
   id="g254832"
   transform="matrix(0.352778,0,0,0.352778,-0.865408,0.00105843)">
    <g
   id="g254830"
   transform="translate(15.216,15.497)">
      <path
   d="M 5.640625,-4.8125 C 5.75,-5.0625 5.75,-5.109375 5.75,-5.171875 c 0,-0.046875 0,-0.09375 -0.109375,-0.34375 l -3.609375,-9.5 C 1.90625,-15.375 1.78125,-15.5 1.546875,-15.5 c -0.21875,0 -0.40625,0.1875 -0.40625,0.421875 0,0.0625 0,0.109375 0.09375,0.328125 L 4.890625,-5.171875 1.234375,4.375 c -0.09375,0.234375 -0.09375,0.265625 -0.09375,0.375 0,0.234375 0.1875,0.421875 0.40625,0.421875 0.265625,0 0.359375,-0.21875 0.4375,-0.421875 z m 0,0"
   id="path54" />
    </g>
  </g>
  <g
   clip-path="url(#clipPath9061-3)"
   id="g254837"
   transform="matrix(0.352778,0,0,0.352778,-0.865408,0.00105843)">
    <g
   fill="#000000"
   fill-opacity="1"
   id="g38">
      <g
   id="use36"
   transform="translate(23.250999,18.596001)">
        <path
   d="M 4.84375,-1.828125 C 4.796875,-1.59375 4.765625,-1.53125 4.578125,-1.3125 c -0.59375,0.75 -1.1875,1.03125 -1.640625,1.03125 -0.46875,0 -0.921875,-0.375 -0.921875,-1.375 0,-0.75 0.4375,-2.359375 0.75,-3 0.421875,-0.8125 1.0625,-1.375 1.671875,-1.375 0.9375,0 1.125,1.171875 1.125,1.25 L 5.515625,-4.578125 Z M 5.734375,-5.375 C 5.546875,-5.796875 5.15625,-6.328125 4.4375,-6.328125 c -1.5625,0 -3.34375,1.96875 -3.34375,4.109375 C 1.09375,-0.734375 2,0 2.90625,0 3.671875,0 4.34375,-0.609375 4.609375,-0.890625 L 4.28125,0.40625 C 4.09375,1.1875 4,1.546875 3.484375,2.046875 2.890625,2.640625 2.359375,2.640625 2.03125,2.640625 1.609375,2.640625 1.25,2.609375 0.890625,2.5 1.34375,2.359375 1.46875,1.96875 1.46875,1.8125 c 0,-0.234375 -0.171875,-0.46875 -0.5,-0.46875 -0.34375,0 -0.703125,0.296875 -0.703125,0.765625 0,0.59375 0.578125,0.8125 1.796875,0.8125 1.859375,0 2.8125,-1.1875 3,-1.953125 l 1.59375,-6.4375 c 0.046875,-0.171875 0.046875,-0.203125 0.046875,-0.21875 0,-0.203125 -0.15625,-0.359375 -0.375,-0.359375 -0.34375,0 -0.546875,0.28125 -0.59375,0.671875 z m 0,0"
   id="path58" />
      </g>
    </g>
  </g>
</g><rect
       style="fill:#777777;fill-opacity:1;stroke-width:0.2534"
       id="rect256990"
       width="120.05858"
       height="1.3842738"
       x="25.099001"
       y="167.78882" /><text
       xml:space="preserve"
       style="font-size:5.40586px;fill:#787878;fill-opacity:1;stroke-width:0.2534"
       x="111.273"
       y="165.96609"
       id="text21913-7-9"
       transform="scale(1.0033749,0.99663645)"><tspan
         sodipodi:role="line"
         id="tspan21911-0-3"
         style="font-size:5.40586px;fill:#787878;fill-opacity:1;stroke-width:0.2534"
         x="111.273"
         y="165.96609">valence band</tspan></text><text
       xml:space="preserve"
       style="font-size:12.7px;fill:#787878;stroke-width:0.264583"
       x="129.77026"
       y="29.815382"
       id="text1266"><tspan
         sodipodi:role="line"
         id="tspan1264"
         style="stroke-width:0.264583"
         x="129.77026"
         y="29.815382">4 title</tspan></text><path
       style="fill:none;fill-rule:evenodd;stroke:#000000;stroke-width:0.264583px;stroke-linecap:butt;stroke-linejoin:miter;stroke-opacity:1"
       d="m 66.09424,125.24999 34.57205,0.0135"
       id="path5966"
       inkscape:connector-type="polyline"
       inkscape:connector-curvature="0" /><g
       inkscape:label=""
       transform="translate(49.652531,108.464)"
       id="g6357"><g
   fill="#000000"
   fill-opacity="1"
   id="g29"
   transform="matrix(0.352778,0,0,0.352778,-0.865408,0.00105843)">
    <g
   id="g6333"
   transform="translate(0,15.497)">
      <path
   d="m 3.28125,-14.75 c 0,-0.375 0,-0.75 -0.40625,-0.75 -0.421875,0 -0.421875,0.375 -0.421875,0.75 V 4.421875 c 0,0.375 0,0.75 0.421875,0.75 0.40625,0 0.40625,-0.375 0.40625,-0.75 z m 0,0"
   id="path51" />
    </g>
  </g>
  <g
   fill="#000000"
   fill-opacity="1"
   id="g35"
   transform="matrix(0.352778,0,0,0.352778,-0.865408,0.00105843)">
    <g
   id="use31"
   transform="translate(5.7399998,15.497)">
      <path
   d="m 7.78125,-4.796875 h 5.484375 c 0.28125,0 0.640625,0 0.640625,-0.34375 0,-0.375 -0.328125,-0.375 -0.640625,-0.375 H 7.78125 v -5.46875 c 0,-0.296875 0,-0.640625 -0.34375,-0.640625 -0.375,0 -0.375,0.328125 -0.375,0.640625 v 5.46875 H 1.59375 c -0.296875,0 -0.640625,0 -0.640625,0.34375 0,0.375 0.328125,0.375 0.640625,0.375 H 7.0625 V 0.6875 c 0,0.28125 0,0.640625 0.359375,0.640625 0.359375,0 0.359375,-0.34375 0.359375,-0.640625 z m 0,0"
   id="path6336" />
    </g>
    <g
   id="use33"
   transform="translate(20.612867,15.497)">
      <path
   d="m 5.5,-13.203125 c 0,-0.4375 -0.03125,-0.453125 -0.3125,-0.453125 C 4.375,-12.6875 3.15625,-12.375 2,-12.328125 c -0.0625,0 -0.15625,0 -0.1875,0.03125 -0.015625,0.04687 -0.015625,0.09375 -0.015625,0.515625 0.640625,0 1.71875,-0.109375 2.546875,-0.609375 v 10.875 c 0,0.734375 -0.046875,0.984375 -1.828125,0.984375 H 1.90625 V 0 C 2.890625,-0.015625 3.921875,-0.046875 4.921875,-0.046875 5.90625,-0.046875 6.9375,-0.015625 7.9375,0 V -0.53125 H 7.3125 C 5.53125,-0.53125 5.5,-0.765625 5.5,-1.515625 Z m 0,0"
   id="path6339" />
    </g>
  </g>
  <g
   fill="#000000"
   fill-opacity="1"
   id="g6347"
   transform="matrix(0.352778,0,0,0.352778,-0.865408,0.00105843)">
    <g
   id="g6345"
   transform="translate(30.089001,15.497)">
      <path
   d="M 5.640625,-4.8125 C 5.75,-5.0625 5.75,-5.109375 5.75,-5.171875 c 0,-0.046875 0,-0.09375 -0.109375,-0.34375 l -3.609375,-9.5 C 1.90625,-15.375 1.78125,-15.5 1.546875,-15.5 c -0.21875,0 -0.40625,0.1875 -0.40625,0.421875 0,0.0625 0,0.109375 0.09375,0.328125 L 4.890625,-5.171875 1.234375,4.375 c -0.09375,0.234375 -0.09375,0.265625 -0.09375,0.375 0,0.234375 0.1875,0.421875 0.40625,0.421875 0.265625,0 0.359375,-0.21875 0.4375,-0.421875 z m 0,0"
   id="path6343" />
    </g>
  </g>
  <g
   clip-path="url(#clipPath2947)"
   id="g6355"
   transform="matrix(0.352778,0,0,0.352778,-0.865408,0.00105843)">
    <g
   fill="#000000"
   fill-opacity="1"
   id="g6353">
      <g
   id="g6351"
   transform="translate(38.125,18.596001)">
        <path
   d="M 4.84375,-1.828125 C 4.796875,-1.59375 4.765625,-1.53125 4.578125,-1.3125 c -0.59375,0.75 -1.1875,1.03125 -1.640625,1.03125 -0.46875,0 -0.921875,-0.375 -0.921875,-1.375 0,-0.75 0.4375,-2.359375 0.75,-3 0.421875,-0.8125 1.0625,-1.375 1.671875,-1.375 0.9375,0 1.125,1.171875 1.125,1.25 L 5.515625,-4.578125 Z M 5.734375,-5.375 C 5.546875,-5.796875 5.15625,-6.328125 4.4375,-6.328125 c -1.5625,0 -3.34375,1.96875 -3.34375,4.109375 C 1.09375,-0.734375 2,0 2.90625,0 3.671875,0 4.34375,-0.609375 4.609375,-0.890625 L 4.28125,0.40625 C 4.09375,1.1875 4,1.546875 3.484375,2.046875 2.890625,2.640625 2.359375,2.640625 2.03125,2.640625 1.609375,2.640625 1.25,2.609375 0.890625,2.5 1.34375,2.359375 1.46875,1.96875 1.46875,1.8125 c 0,-0.234375 -0.171875,-0.46875 -0.5,-0.46875 -0.34375,0 -0.703125,0.296875 -0.703125,0.765625 0,0.59375 0.578125,0.8125 1.796875,0.8125 1.859375,0 2.8125,-1.1875 3,-1.953125 l 1.59375,-6.4375 c 0.046875,-0.171875 0.046875,-0.203125 0.046875,-0.21875 0,-0.203125 -0.15625,-0.359375 -0.375,-0.359375 -0.34375,0 -0.546875,0.28125 -0.59375,0.671875 z m 0,0"
   id="path6349" />
      </g>
    </g>
  </g>
</g><g
       inkscape:label=""
       transform="translate(49.564411,134.108)"
       id="g6810"><g
   fill="#000000"
   fill-opacity="1"
   id="g31"
   transform="matrix(0.352778,0,0,0.352778,-0.865408,0.00105843)">
    <g
   id="g6784"
   transform="translate(0,15.497)">
      <path
   d="m 3.28125,-14.75 c 0,-0.375 0,-0.75 -0.40625,-0.75 -0.421875,0 -0.421875,0.375 -0.421875,0.75 V 4.421875 c 0,0.375 0,0.75 0.421875,0.75 0.40625,0 0.40625,-0.375 0.40625,-0.75 z m 0,0"
   id="path6782" />
    </g>
    <g
   id="use29"
   transform="translate(5.7400422,15.497)">
      <path
   d="m 13.609375,-4.75 c 0.359375,0 0.71875,0 0.71875,-0.421875 0,-0.40625 -0.359375,-0.40625 -0.71875,-0.40625 H 2.4375 c -0.34375,0 -0.71875,0 -0.71875,0.40625 0,0.421875 0.375,0.421875 0.71875,0.421875 z m 0,0"
   id="path6786" />
    </g>
  </g>
  <g
   fill="#000000"
   fill-opacity="1"
   id="g6794"
   transform="matrix(0.352778,0,0,0.352778,-0.865408,0.00105843)">
    <g
   id="g6792"
   transform="translate(21.809999,15.497)">
      <path
   d="m 5.5,-13.203125 c 0,-0.4375 -0.03125,-0.453125 -0.3125,-0.453125 C 4.375,-12.6875 3.15625,-12.375 2,-12.328125 c -0.0625,0 -0.15625,0 -0.1875,0.03125 -0.015625,0.04687 -0.015625,0.09375 -0.015625,0.515625 0.640625,0 1.71875,-0.109375 2.546875,-0.609375 v 10.875 c 0,0.734375 -0.046875,0.984375 -1.828125,0.984375 H 1.90625 V 0 C 2.890625,-0.015625 3.921875,-0.046875 4.921875,-0.046875 5.90625,-0.046875 6.9375,-0.015625 7.9375,0 V -0.53125 H 7.3125 C 5.53125,-0.53125 5.5,-0.765625 5.5,-1.515625 Z m 0,0"
   id="path6790" />
    </g>
  </g>
  <g
   fill="#000000"
   fill-opacity="1"
   id="g6800"
   transform="matrix(0.352778,0,0,0.352778,-0.865408,0.00105843)">
    <g
   id="g6798"
   transform="translate(31.287001,15.497)">
      <path
   d="M 5.640625,-4.8125 C 5.75,-5.0625 5.75,-5.109375 5.75,-5.171875 c 0,-0.046875 0,-0.09375 -0.109375,-0.34375 l -3.609375,-9.5 C 1.90625,-15.375 1.78125,-15.5 1.546875,-15.5 c -0.21875,0 -0.40625,0.1875 -0.40625,0.421875 0,0.0625 0,0.109375 0.09375,0.328125 L 4.890625,-5.171875 1.234375,4.375 c -0.09375,0.234375 -0.09375,0.265625 -0.09375,0.375 0,0.234375 0.1875,0.421875 0.40625,0.421875 0.265625,0 0.359375,-0.21875 0.4375,-0.421875 z m 0,0"
   id="path6796" />
    </g>
  </g>
  <g
   clip-path="url(#clipPath3881)"
   id="g6808"
   transform="matrix(0.352778,0,0,0.352778,-0.865408,0.00105843)">
    <g
   fill="#000000"
   fill-opacity="1"
   id="g6806">
      <g
   id="g6804"
   transform="translate(39.321999,18.596001)">
        <path
   d="M 4.84375,-1.828125 C 4.796875,-1.59375 4.765625,-1.53125 4.578125,-1.3125 c -0.59375,0.75 -1.1875,1.03125 -1.640625,1.03125 -0.46875,0 -0.921875,-0.375 -0.921875,-1.375 0,-0.75 0.4375,-2.359375 0.75,-3 0.421875,-0.8125 1.0625,-1.375 1.671875,-1.375 0.9375,0 1.125,1.171875 1.125,1.25 L 5.515625,-4.578125 Z M 5.734375,-5.375 C 5.546875,-5.796875 5.15625,-6.328125 4.4375,-6.328125 c -1.5625,0 -3.34375,1.96875 -3.34375,4.109375 C 1.09375,-0.734375 2,0 2.90625,0 3.671875,0 4.34375,-0.609375 4.609375,-0.890625 L 4.28125,0.40625 C 4.09375,1.1875 4,1.546875 3.484375,2.046875 2.890625,2.640625 2.359375,2.640625 2.03125,2.640625 1.609375,2.640625 1.25,2.609375 0.890625,2.5 1.34375,2.359375 1.46875,1.96875 1.46875,1.8125 c 0,-0.234375 -0.171875,-0.46875 -0.5,-0.46875 -0.34375,0 -0.703125,0.296875 -0.703125,0.765625 0,0.59375 0.578125,0.8125 1.796875,0.8125 1.859375,0 2.8125,-1.1875 3,-1.953125 l 1.59375,-6.4375 c 0.046875,-0.171875 0.046875,-0.203125 0.046875,-0.21875 0,-0.203125 -0.15625,-0.359375 -0.375,-0.359375 -0.34375,0 -0.546875,0.28125 -0.59375,0.671875 z m 0,0"
   id="path6802" />
      </g>
    </g>
  </g>
</g><rect
       style="fill:#000000;fill-opacity:1;stroke-width:0.185966"
       id="rect256472"
       width="0.32869077"
       height="9.0822496"
       x="112.47146"
       y="113.37239" /><rect
       style="fill:#000000;fill-opacity:1;stroke-width:0.19814"
       id="rect256472-3"
       width="0.32869077"
       height="10.310288"
       x="112.42642"
       y="127.27951" /><path
       style="fill:#000000;fill-opacity:1;stroke-width:0.2534"
       d="m 112.31445,113.36959 0.67313,0.027 -0.34523,-0.61516 z"
       id="path259929" /><path
       style="fill:#000000;fill-opacity:1;stroke-width:0.2534"
       d="m 112.92084,137.57059 -0.67314,-0.027 0.34523,0.61514 z"
       id="path259929-5" /><g
       inkscape:label=""
       transform="translate(107.1516,121.7895)"
       id="g10070"><g
   clip-path="url(#clipPath9685)"
   id="g10061"
   transform="matrix(0.352778,0,0,0.352778,-0.110243,5.73285e-4)">
    <g
   fill="#000000"
   fill-opacity="1"
   id="g24">
      <g
   id="use22"
   transform="translate(0,11.764)">
        <path
   d="M 5.8125,-2.1875 C 5.75,-1.90625 5.71875,-1.84375 5.5,-1.578125 4.78125,-0.671875 4.0625,-0.34375 3.53125,-0.34375 c -0.5625,0 -1.109375,-0.453125 -1.109375,-1.640625 0,-0.90625 0.515625,-2.84375 0.90625,-3.609375 0.5,-0.96875 1.265625,-1.65625 2,-1.65625 1.125,0 1.359375,1.40625 1.359375,1.515625 L 6.625,-5.5 Z M 6.890625,-6.453125 C 6.65625,-6.953125 6.1875,-7.59375 5.328125,-7.59375 3.4375,-7.59375 1.3125,-5.234375 1.3125,-2.671875 1.3125,-0.875 2.390625,0 3.5,0 4.40625,0 5.21875,-0.71875 5.53125,-1.0625 L 5.140625,0.484375 C 4.90625,1.421875 4.796875,1.859375 4.1875,2.46875 3.484375,3.171875 2.828125,3.171875 2.4375,3.171875 1.921875,3.171875 1.5,3.140625 1.0625,3 1.625,2.84375 1.75,2.359375 1.75,2.171875 1.75,1.890625 1.546875,1.625 1.171875,1.625 0.75,1.625 0.3125,1.96875 0.3125,2.53125 c 0,0.703125 0.703125,0.984375 2.171875,0.984375 2.21875,0 3.375,-1.4375 3.59375,-2.359375 l 1.90625,-7.71875 c 0.0625,-0.203125 0.0625,-0.234375 0.0625,-0.265625 0,-0.25 -0.1875,-0.4375 -0.453125,-0.4375 -0.40625,0 -0.65625,0.34375 -0.703125,0.8125 z m 0,0"
   id="path40" />
      </g>
    </g>
  </g>
  <g
   clip-path="url(#clipPath6889)"
   id="g34"
   transform="matrix(0.352778,0,0,0.352778,-0.110243,5.73285e-4)">
    <g
   fill="#000000"
   fill-opacity="1"
   id="g32">
      <g
   id="g10064"
   transform="translate(8.6920547,11.764)">
        <path
   d="m 2.484375,-0.375 c 0.421875,0.390625 1.0625,0.546875 1.640625,0.546875 1.109375,0 1.859375,-0.734375 2.265625,-1.28125 0.171875,0.921875 0.890625,1.28125 1.5,1.28125 0.515625,0 0.921875,-0.3125 1.234375,-0.921875 0.28125,-0.59375 0.515625,-1.640625 0.515625,-1.71875 0,-0.078125 -0.0625,-0.15625 -0.171875,-0.15625 -0.15625,0 -0.171875,0.09375 -0.234375,0.359375 -0.265625,1.015625 -0.59375,2.09375 -1.296875,2.09375 -0.5,0 -0.53125,-0.453125 -0.53125,-0.796875 0,-0.390625 0.15625,-1.015625 0.265625,-1.53125 L 8.15625,-4.359375 C 8.234375,-4.6875 8.421875,-5.453125 8.5,-5.765625 c 0.109375,-0.421875 0.296875,-1.15625 0.296875,-1.21875 0,-0.265625 -0.203125,-0.4375 -0.46875,-0.4375 -0.15625,0 -0.515625,0.0625 -0.65625,0.59375 l -1.203125,4.78125 c -0.078125,0.34375 -0.078125,0.375 -0.296875,0.65625 -0.21875,0.28125 -0.890625,1.21875 -1.96875,1.21875 -0.96875,0 -1.28125,-0.703125 -1.28125,-1.515625 0,-0.5 0.15625,-1.109375 0.234375,-1.390625 L 3.921875,-6.1875 c 0.09375,-0.328125 0.234375,-0.875 0.234375,-0.96875 0,-0.28125 -0.234375,-0.4375 -0.453125,-0.4375 -0.15625,0 -0.53125,0.046875 -0.671875,0.609375 l -2.5,9.96875 c -0.015625,0.078125 -0.046875,0.1875 -0.046875,0.28125 0,0.265625 0.203125,0.4375 0.46875,0.4375 0.5,0 0.59375,-0.390625 0.71875,-0.875 z m 0,0"
   id="path44" />
      </g>
      <g
   id="use30"
   transform="translate(18.833649,11.764)">
        <path
   d="m 6.296875,-10.59375 c 0.15625,-0.640625 0.234375,-0.671875 0.90625,-0.671875 H 9.4375 c 1.9375,0 1.9375,1.65625 1.9375,1.8125 0,1.390625 -1.390625,3.171875 -3.65625,3.171875 H 5.234375 Z m 2.921875,4.453125 c 1.875,-0.34375 3.578125,-1.65625 3.578125,-3.25 0,-1.34375 -1.1875,-2.375 -3.140625,-2.375 H 4.125 c -0.3125,0 -0.46875,0 -0.46875,0.328125 0,0.171875 0.15625,0.171875 0.40625,0.171875 1.046875,0 1.046875,0.140625 1.046875,0.328125 0,0.03125 0,0.140625 -0.0625,0.40625 l -2.328125,9.25 C 2.5625,-0.671875 2.53125,-0.5 1.328125,-0.5 c -0.328125,0 -0.5,0 -0.5,0.3125 C 0.828125,0 0.9375,0 1.28125,0 H 7.1875 c 2.625,0 4.65625,-2 4.65625,-3.734375 0,-1.40625 -1.234375,-2.28125 -2.625,-2.40625 z M 6.765625,-0.5 H 4.4375 c -0.234375,0 -0.265625,0 -0.375,-0.015625 C 3.875,-0.53125 3.859375,-0.5625 3.859375,-0.703125 c 0,-0.125 0.03125,-0.234375 0.0625,-0.375 L 5.125,-5.9375 h 3.25 c 2.03125,0 2.03125,1.890625 2.03125,2.03125 0,1.65625 -1.5,3.40625 -3.640625,3.40625 z m 0,0"
   id="path48" />
      </g>
    </g>
  </g>
</g></g></svg>
