<?xml version="1.0" encoding="UTF-8" standalone="no"?>
<!-- Created with Inkscape (http://www.inkscape.org/) -->

<svg
   width="297mm"
   height="210mm"
   viewBox="0 0 297 210"
   version="1.1"
   id="svg6251"
   xml:space="preserve"
   inkscape:version="1.2.1 (9c6d41e410, 2022-07-14, custom)"
   sodipodi:docname="6-circuit.svg"
   xmlns:inkscape="http://www.inkscape.org/namespaces/inkscape"
   xmlns:sodipodi="http://sodipodi.sourceforge.net/DTD/sodipodi-0.dtd"
   xmlns="http://www.w3.org/2000/svg"
   xmlns:svg="http://www.w3.org/2000/svg"><sodipodi:namedview
     id="namedview6253"
     pagecolor="#ffffff"
     bordercolor="#000000"
     borderopacity="0.25"
     inkscape:showpageshadow="2"
     inkscape:pageopacity="0.0"
     inkscape:pagecheckerboard="0"
     inkscape:deskcolor="#d1d1d1"
     inkscape:document-units="mm"
     showgrid="false"
     inkscape:zoom="0.8211752"
     inkscape:cx="769.01981"
     inkscape:cy="383.59658"
     inkscape:window-width="1478"
     inkscape:window-height="1020"
     inkscape:window-x="433"
     inkscape:window-y="51"
     inkscape:window-maximized="1"
     inkscape:current-layer="layer1" /><defs
     id="defs6248"><clipPath
   id="clipPath6935">
      <path
   clip-rule="nonzero"
   d="M 2,0 H 4 V 20.664062 H 2 Z m 0,0"
   id="path2380" />
    </clipPath>
    <clipPath
   id="clipPath7175">
      <path
   clip-rule="nonzero"
   d="m 16,0 h 5 v 20.664062 h -5 z m 0,0"
   id="path7393" />
    </clipPath>
  <clipPath
   id="clipPath4866">
      <path
   clip-rule="nonzero"
   d="M 2,0 H 4 V 20.664062 H 2 Z m 0,0"
   id="path3487" />
    </clipPath>
    <clipPath
   id="clipPath576">
      <path
   clip-rule="nonzero"
   d="m 17,0 h 5 v 20.664062 h -5 z m 0,0"
   id="path466" />
    </clipPath>
  <clipPath
   id="clipPath1315">
      <path
   clip-rule="nonzero"
   d="M 2,0 H 21 V 20.664062 H 2 Z m 0,0"
   id="path1458" />
    </clipPath>
    <clipPath
   id="clipPath4771">
      <path
   clip-rule="nonzero"
   d="m 32,0 h 6 v 20.664062 h -6 z m 0,0"
   id="path6974" />
    </clipPath>
  <clipPath
   id="clipPath5714">
      <path
   clip-rule="nonzero"
   d="m 39,12 h 8 v 9.386719 h -8 z m 0,0"
   id="path7056" />
    </clipPath>
  <clipPath
   id="clipPath9061">
      <path
   clip-rule="nonzero"
   d="m 23,12 h 7 v 9.386719 h -7 z m 0,0"
   id="path9482" />
    </clipPath>
  <clipPath
   id="clipPath8113">
      <path
   clip-rule="nonzero"
   d="M 2,0 H 4 V 20.664062 H 2 Z m 0,0"
   id="path5989" />
    </clipPath>
    <clipPath
   id="clipPath2512">
      <path
   clip-rule="nonzero"
   d="m 16,0 h 5 v 20.664062 h -5 z m 0,0"
   id="path855" />
    </clipPath>
  <clipPath
   id="clipPath9782">
      <path
   clip-rule="nonzero"
   d="M 2,0 H 4 V 20.664062 H 2 Z m 0,0"
   id="path6471" />
    </clipPath>
    <clipPath
   id="clipPath2331">
      <path
   clip-rule="nonzero"
   d="m 16,0 h 6 v 20.664062 h -6 z m 0,0"
   id="path9119" />
    </clipPath>
  <clipPath
   id="clipPath735">
      <path
   clip-rule="nonzero"
   d="M 1,0 H 9 V 20.664062 H 1 Z m 0,0"
   id="path7947" />
    </clipPath>
  <clipPath
   id="clipPath4984">
      <path
   clip-rule="nonzero"
   d="M 1,0 H 9 V 20.664062 H 1 Z m 0,0"
   id="path8717" />
    </clipPath>
  <clipPath
   id="clipPath2449">
      <path
   clip-rule="nonzero"
   d="M 2,0 H 37 V 20.628906 H 2 Z m 0,0"
   id="path1484" />
    </clipPath>
  <clipPath
   id="clipPath1963">
      <path
   clip-rule="nonzero"
   d="M 2,2 H 5 V 22.851562 H 2 Z m 0,0"
   id="path7764" />
    </clipPath>
    <clipPath
   id="clipPath3872">
      <path
   clip-rule="nonzero"
   d="M 16,2 H 37 V 22.851562 H 16 Z m 0,0"
   id="path7716" />
    </clipPath>
  <clipPath
   id="clipPath6775">
      <path
   clip-rule="nonzero"
   d="M 2,2 H 5 V 22.851562 H 2 Z m 0,0"
   id="path8652" />
    </clipPath>
    <clipPath
   id="clipPath8724">
      <path
   clip-rule="nonzero"
   d="M 16,2 H 37 V 22.851562 H 16 Z m 0,0"
   id="path32" />
    </clipPath>
  <clipPath
   id="clipPath4733">
      <path
   clip-rule="nonzero"
   d="M 2,2 H 5 V 22.851562 H 2 Z m 0,0"
   id="path1867" />
    </clipPath>
    <clipPath
   id="clipPath2689">
      <path
   clip-rule="nonzero"
   d="M 38,2 H 50 V 22.851562 H 38 Z m 0,0"
   id="path9813" />
    </clipPath>
  <clipPath
   id="clipPath1180">
      <path
   clip-rule="nonzero"
   d="M 1,1 H 5 V 18.972656 H 1 Z m 0,0"
   id="path8270" />
    </clipPath>
    <clipPath
   id="clipPath5922">
      <path
   clip-rule="nonzero"
   d="M 31,1 H 41 V 18.972656 H 31 Z m 0,0"
   id="path3931" />
    </clipPath>
  <clipPath
   id="clipPath9395">
      <path
   clip-rule="nonzero"
   d="M 1,1 H 11 V 18.972656 H 1 Z m 0,0"
   id="path3520" />
    </clipPath>
    <clipPath
   id="clipPath2099">
      <path
   clip-rule="nonzero"
   d="M 31,1 H 41 V 18.972656 H 31 Z m 0,0"
   id="path3609" />
    </clipPath>
  <clipPath
   id="clipPath876">
      <path
   clip-rule="nonzero"
   d="M 1,1 H 5 V 18.972656 H 1 Z m 0,0"
   id="path8359" />
    </clipPath>
    <clipPath
   id="clipPath3661">
      <path
   clip-rule="nonzero"
   d="M 31,1 H 41 V 18.972656 H 31 Z m 0,0"
   id="path5793" />
    </clipPath>
  <clipPath
   id="clipPath1058">
      <path
   clip-rule="nonzero"
   d="M 1,0 H 11 V 17.1875 H 1 Z m 0,0"
   id="path1469" />
    </clipPath>
    <clipPath
   id="clipPath2743">
      <path
   clip-rule="nonzero"
   d="M 31,0 H 41 V 17.1875 H 31 Z m 0,0"
   id="path1016" />
    </clipPath>
  <clipPath
   id="clipPath4044">
      <path
   clip-rule="nonzero"
   d="M 1,0 H 11 V 17.1875 H 1 Z m 0,0"
   id="path9913" />
    </clipPath>
    <clipPath
   id="clipPath6071">
      <path
   clip-rule="nonzero"
   d="M 31,0 H 41 V 17.1875 H 31 Z m 0,0"
   id="path7264" />
    </clipPath>
  <clipPath
   id="clipPath229">
      <path
   clip-rule="nonzero"
   d="M 1,0 H 11 V 17.1875 H 1 Z m 0,0"
   id="path1130" />
    </clipPath>
    <clipPath
   id="clipPath1176">
      <path
   clip-rule="nonzero"
   d="M 31,0 H 41 V 17.1875 H 31 Z m 0,0"
   id="path5713" />
    </clipPath>
  <clipPath
   id="clipPath4249">
      <path
   clip-rule="nonzero"
   d="M 1,1 H 11 V 18.972656 H 1 Z m 0,0"
   id="path7398" />
    </clipPath>
    <clipPath
   id="clipPath2310">
      <path
   clip-rule="nonzero"
   d="M 31,1 H 41 V 18.972656 H 31 Z m 0,0"
   id="path8539" />
    </clipPath>
  <clipPath
   id="clipPath9227">
      <path
   clip-rule="nonzero"
   d="M 1,1 H 5 V 18.972656 H 1 Z m 0,0"
   id="path5240" />
    </clipPath>
    <clipPath
   id="clipPath8847">
      <path
   clip-rule="nonzero"
   d="M 31,1 H 41 V 18.972656 H 31 Z m 0,0"
   id="path2598" />
    </clipPath>
  <clipPath
   id="clipPath6935-3">
      <path
   clip-rule="nonzero"
   d="M 2,0 H 4 V 20.664062 H 2 Z m 0,0"
   id="path2380-6" />
    </clipPath><clipPath
   id="clipPath7175-7">
      <path
   clip-rule="nonzero"
   d="m 16,0 h 5 v 20.664062 h -5 z m 0,0"
   id="path7393-5" />
    </clipPath><clipPath
   id="clipPath4866-3">
      <path
   clip-rule="nonzero"
   d="M 2,0 H 4 V 20.664062 H 2 Z m 0,0"
   id="path3487-5" />
    </clipPath><clipPath
   id="clipPath576-6">
      <path
   clip-rule="nonzero"
   d="m 17,0 h 5 v 20.664062 h -5 z m 0,0"
   id="path466-2" />
    </clipPath><clipPath
   id="clipPath1315-9">
      <path
   clip-rule="nonzero"
   d="M 2,0 H 21 V 20.664062 H 2 Z m 0,0"
   id="path1458-1" />
    </clipPath><clipPath
   id="clipPath4771-2">
      <path
   clip-rule="nonzero"
   d="m 32,0 h 6 v 20.664062 h -6 z m 0,0"
   id="path6974-7" />
    </clipPath><clipPath
   id="clipPath5714-0">
      <path
   clip-rule="nonzero"
   d="m 39,12 h 8 v 9.386719 h -8 z m 0,0"
   id="path7056-9" />
    </clipPath><clipPath
   id="clipPath9061-3">
      <path
   clip-rule="nonzero"
   d="m 23,12 h 7 v 9.386719 h -7 z m 0,0"
   id="path9482-6" />
    </clipPath><clipPath
   id="clipPath8113-0">
      <path
   clip-rule="nonzero"
   d="M 2,0 H 4 V 20.664062 H 2 Z m 0,0"
   id="path5989-6" />
    </clipPath><clipPath
   id="clipPath2512-2">
      <path
   clip-rule="nonzero"
   d="m 16,0 h 5 v 20.664062 h -5 z m 0,0"
   id="path855-6" />
    </clipPath><clipPath
   id="clipPath9782-1">
      <path
   clip-rule="nonzero"
   d="M 2,0 H 4 V 20.664062 H 2 Z m 0,0"
   id="path6471-8" />
    </clipPath><clipPath
   id="clipPath2331-7">
      <path
   clip-rule="nonzero"
   d="m 16,0 h 6 v 20.664062 h -6 z m 0,0"
   id="path9119-9" />
    </clipPath><clipPath
   id="clipPath735-2">
      <path
   clip-rule="nonzero"
   d="M 1,0 H 9 V 20.664062 H 1 Z m 0,0"
   id="path7947-0" />
    </clipPath><clipPath
   id="clipPath4984-2">
      <path
   clip-rule="nonzero"
   d="M 1,0 H 9 V 20.664062 H 1 Z m 0,0"
   id="path8717-3" />
    </clipPath><clipPath
   id="clipPath2947">
      <path
   clip-rule="nonzero"
   d="m 38,12 h 7 v 9.386719 h -7 z m 0,0"
   id="path3046" />
    </clipPath>
  <clipPath
   id="clipPath3881">
      <path
   clip-rule="nonzero"
   d="m 39,12 h 8 v 9.386719 h -8 z m 0,0"
   id="path4405" />
    </clipPath>
  <clipPath
   id="clipPath218">
      <path
   clip-rule="nonzero"
   d="M 0,5 H 10 V 18.136719 H 0 Z m 0,0"
   id="path5448" />
    </clipPath>
    <clipPath
   id="clipPath8224">
      <path
   clip-rule="nonzero"
   d="M 11,0 H 38 V 18.136719 H 11 Z m 0,0"
   id="path6804" />
    </clipPath>
  <clipPath
   id="clipPath9685">
      <path
   clip-rule="nonzero"
   d="M 0,4 H 9 V 15.109375 H 0 Z m 0,0"
   id="path4593" />
    </clipPath>
    <clipPath
   id="clipPath6889">
      <path
   clip-rule="nonzero"
   d="M 9,0 H 32 V 15.109375 H 9 Z m 0,0"
   id="path3414" />
    </clipPath>
  </defs><g
     inkscape:label="Layer 1"
     inkscape:groupmode="layer"
     id="layer1"><text
       xml:space="preserve"
       style="font-size:5.64444px;fill:#000000;fill-opacity:1;stroke-width:0.264583"
       x="178.39848"
       y="175.67996"
       id="text21913-97"><tspan
         sodipodi:role="line"
         id="tspan21911-3"
         style="font-size:5.64444px;stroke-width:0.264583"
         x="178.39848"
         y="175.67996" /></text><text
       xml:space="preserve"
       style="font-size:12.7px;fill:#787878;stroke-width:0.264583"
       x="129.77026"
       y="29.815382"
       id="text1266"><tspan
         sodipodi:role="line"
         id="tspan1264"
         style="stroke-width:0.264583"
         x="129.77026"
         y="29.815382">6 title</tspan></text></g></svg>
