<?xml version="1.0" encoding="UTF-8" standalone="no"?>
<!-- Created with Inkscape (http://www.inkscape.org/) -->

<svg
   width="170mm"
   height="140mm"
   viewBox="0 0 170 140"
   version="1.1"
   id="svg5"
   xml:space="preserve"
   sodipodi:docname="diamond.svg"
   inkscape:version="1.2.1 (9c6d41e410, 2022-07-14, custom)"
   xmlns:inkscape="http://www.inkscape.org/namespaces/inkscape"
   xmlns:sodipodi="http://sodipodi.sourceforge.net/DTD/sodipodi-0.dtd"
   xmlns:xlink="http://www.w3.org/1999/xlink"
   xmlns="http://www.w3.org/2000/svg"
   xmlns:svg="http://www.w3.org/2000/svg"><sodipodi:namedview
     id="namedview7"
     pagecolor="#ffffff"
     bordercolor="#000000"
     borderopacity="0.25"
     inkscape:showpageshadow="2"
     inkscape:pageopacity="0.0"
     inkscape:pagecheckerboard="0"
     inkscape:deskcolor="#d1d1d1"
     inkscape:document-units="mm"
     showgrid="false"
     inkscape:zoom="1.0578406"
     inkscape:cx="365.36697"
     inkscape:cy="213.64278"
     inkscape:window-width="1904"
     inkscape:window-height="1016"
     inkscape:window-x="5"
     inkscape:window-y="53"
     inkscape:window-maximized="1"
     inkscape:current-layer="layer1" /><defs
     id="defs2"><radialGradient
       inkscape:collect="always"
       xlink:href="#linearGradient75510"
       id="radialGradient75512-5-52-9"
       cx="468.11044"
       cy="43.286724"
       fx="468.11044"
       fy="43.286724"
       r="0.99138933"
       gradientTransform="matrix(41.870598,0,0,41.522527,-18741.645,-1615.891)"
       gradientUnits="userSpaceOnUse" /><linearGradient
       inkscape:collect="always"
       id="linearGradient75510"><stop
         style="stop-color:#ffffff;stop-opacity:1;"
         offset="0"
         id="stop75506" /><stop
         style="stop-color:#000000;stop-opacity:1;"
         offset="1"
         id="stop75508" /></linearGradient><radialGradient
       inkscape:collect="always"
       xlink:href="#linearGradient75510"
       id="radialGradient75512-5-52-47"
       cx="468.11044"
       cy="43.286724"
       fx="468.11044"
       fy="43.286724"
       r="0.99138933"
       gradientTransform="matrix(41.870598,0,0,41.522527,-18967.257,-1391.9949)"
       gradientUnits="userSpaceOnUse" /><radialGradient
       inkscape:collect="always"
       xlink:href="#linearGradient204168"
       id="radialGradient204170-6"
       cx="709.08533"
       cy="519.49146"
       fx="709.08533"
       fy="519.49146"
       r="51.77306"
       gradientTransform="matrix(2.0530361,-1.7654965,0.1299233,0.1510834,-964.57635,1644.0154)"
       gradientUnits="userSpaceOnUse" /><linearGradient
       inkscape:collect="always"
       id="linearGradient204168"><stop
         style="stop-color:#7b7b7b;stop-opacity:1;"
         offset="0"
         id="stop204164" /><stop
         style="stop-color:#000000;stop-opacity:1;"
         offset="1"
         id="stop204166" /></linearGradient><radialGradient
       inkscape:collect="always"
       xlink:href="#linearGradient75510"
       id="radialGradient75512-5-52-4"
       cx="468.11044"
       cy="43.286724"
       fx="468.11044"
       fy="43.286724"
       r="0.99138933"
       gradientTransform="matrix(41.870598,0,0,41.522527,-19194.202,-1168.0304)"
       gradientUnits="userSpaceOnUse" /><radialGradient
       inkscape:collect="always"
       xlink:href="#linearGradient75916"
       id="radialGradient75918-7-8"
       cx="463.45657"
       cy="47.700508"
       fx="463.45657"
       fy="47.700508"
       r="0.59340656"
       gradientTransform="matrix(8.2883658,6.9388909,-86.800624,102.99148,741.33536,-7543.8235)"
       gradientUnits="userSpaceOnUse" /><linearGradient
       inkscape:collect="always"
       id="linearGradient75916"><stop
         style="stop-color:#717171;stop-opacity:1;"
         offset="0"
         id="stop75912" /><stop
         style="stop-color:#000000;stop-opacity:1;"
         offset="1"
         id="stop75914" /></linearGradient><radialGradient
       inkscape:collect="always"
       xlink:href="#linearGradient75916"
       id="radialGradient75918-7-0"
       cx="463.45657"
       cy="47.700508"
       fx="463.45657"
       fy="47.700508"
       r="0.59340656"
       gradientTransform="matrix(8.2883658,6.9388909,-86.800624,102.99148,967.21596,-7765.3033)"
       gradientUnits="userSpaceOnUse" /><radialGradient
       inkscape:collect="always"
       xlink:href="#linearGradient204168"
       id="radialGradient204170-1"
       cx="709.08533"
       cy="519.49146"
       fx="709.08533"
       fy="519.49146"
       r="51.77306"
       gradientTransform="matrix(2.0530361,-1.7654965,0.1299233,0.1510834,-739.67706,1421.7136)"
       gradientUnits="userSpaceOnUse" /><radialGradient
       inkscape:collect="always"
       xlink:href="#linearGradient75510"
       id="radialGradient75512-5-52-5"
       cx="468.11044"
       cy="43.286724"
       fx="468.11044"
       fy="43.286724"
       r="0.99138933"
       gradientTransform="matrix(41.870598,0,0,41.522527,-19117.951,-1260.2584)"
       gradientUnits="userSpaceOnUse" /><radialGradient
       inkscape:collect="always"
       xlink:href="#linearGradient203885"
       id="radialGradient203887-1"
       cx="332.13611"
       cy="286.21469"
       fx="332.13611"
       fy="286.21469"
       r="48.630981"
       gradientTransform="matrix(2.2038421,1.5285397,-0.09638923,0.13897358,-298.32178,-64.260236)"
       gradientUnits="userSpaceOnUse" /><linearGradient
       inkscape:collect="always"
       id="linearGradient203885"><stop
         style="stop-color:#919191;stop-opacity:0.99993289;"
         offset="0"
         id="stop203881" /><stop
         style="stop-color:#000000;stop-opacity:0.99993289;"
         offset="1"
         id="stop203883" /></linearGradient><radialGradient
       inkscape:collect="always"
       xlink:href="#linearGradient75510"
       id="radialGradient75512-5-52-1"
       cx="468.11044"
       cy="43.286724"
       fx="468.11044"
       fy="43.286724"
       r="0.99138933"
       gradientTransform="matrix(41.870598,0,0,41.522527,-19269.929,-1366.7105)"
       gradientUnits="userSpaceOnUse" /><radialGradient
       inkscape:collect="always"
       xlink:href="#linearGradient75510"
       id="radialGradient75512-5-52-3"
       cx="468.11044"
       cy="43.286724"
       fx="468.11044"
       fy="43.286724"
       r="0.99138933"
       gradientTransform="matrix(41.870598,0,0,41.522527,-18892.292,-1483.4138)"
       gradientUnits="userSpaceOnUse" /><radialGradient
       inkscape:collect="always"
       xlink:href="#linearGradient88721"
       id="radialGradient88723-3"
       cx="27.298035"
       cy="138.68559"
       fx="27.298035"
       fy="138.68559"
       r="0.39977351"
       gradientTransform="matrix(-27.617469,13.384834,-119.84568,-222.98923,17892.445,31163.405)"
       gradientUnits="userSpaceOnUse" /><linearGradient
       inkscape:collect="always"
       id="linearGradient88721"><stop
         style="stop-color:#646464;stop-opacity:1;"
         offset="0"
         id="stop88717" /><stop
         style="stop-color:#000000;stop-opacity:1;"
         offset="1"
         id="stop88719" /></linearGradient><radialGradient
       inkscape:collect="always"
       xlink:href="#linearGradient88721"
       id="radialGradient88723-9"
       cx="27.298035"
       cy="138.68559"
       fx="27.298035"
       fy="138.68559"
       r="0.39977351"
       gradientTransform="matrix(-27.617469,13.384834,-119.84568,-222.98923,18119.133,30939.795)"
       gradientUnits="userSpaceOnUse" /><radialGradient
       inkscape:collect="always"
       xlink:href="#linearGradient75510"
       id="radialGradient75512-5-52-54"
       cx="468.11044"
       cy="43.286724"
       fx="468.11044"
       fy="43.286724"
       r="0.99138933"
       gradientTransform="matrix(41.870598,0,0,41.522527,-18815.736,-1342.8619)"
       gradientUnits="userSpaceOnUse" /><radialGradient
       inkscape:collect="always"
       xlink:href="#linearGradient75916"
       id="radialGradient75918-7-3"
       cx="463.45657"
       cy="47.700508"
       fx="463.45657"
       fy="47.700508"
       r="0.59340656"
       gradientTransform="matrix(8.2883658,6.9388909,-86.800624,102.99148,663.2445,-7738.1224)"
       gradientUnits="userSpaceOnUse" /><radialGradient
       inkscape:collect="always"
       xlink:href="#linearGradient75510"
       id="radialGradient75512-5-52-29"
       cx="468.11044"
       cy="43.286724"
       fx="468.11044"
       fy="43.286724"
       r="0.99138933"
       gradientTransform="matrix(41.870598,0,0,41.522527,-19042.614,-1117.8905)"
       gradientUnits="userSpaceOnUse" /><radialGradient
       inkscape:collect="always"
       xlink:href="#linearGradient75916"
       id="radialGradient75918-7-1"
       cx="463.45657"
       cy="47.700508"
       fx="463.45657"
       fy="47.700508"
       r="0.59340656"
       gradientTransform="matrix(8.2883658,6.9388909,-86.800624,102.99148,891.68282,-7493.0362)"
       gradientUnits="userSpaceOnUse" /><radialGradient
       inkscape:collect="always"
       xlink:href="#linearGradient204168"
       id="radialGradient204170"
       cx="709.08533"
       cy="519.49146"
       fx="709.08533"
       fy="519.49146"
       r="51.77306"
       gradientTransform="matrix(2.0530361,-1.7654965,0.1299233,0.1510834,-814.18652,1692.8926)"
       gradientUnits="userSpaceOnUse" /><radialGradient
       inkscape:collect="always"
       xlink:href="#linearGradient204148"
       id="radialGradient204150"
       cx="628.46802"
       cy="257.39975"
       fx="628.46802"
       fy="257.39975"
       r="57.420734"
       gradientTransform="matrix(1.4919203,1.0401826,-0.09385733,0.13461834,-284.9973,-430.97249)"
       gradientUnits="userSpaceOnUse" /><linearGradient
       inkscape:collect="always"
       id="linearGradient204148"><stop
         style="stop-color:#6d6d6d;stop-opacity:1;"
         offset="0"
         id="stop204144" /><stop
         style="stop-color:#000000;stop-opacity:1;"
         offset="1"
         id="stop204146" /></linearGradient><radialGradient
       inkscape:collect="always"
       xlink:href="#linearGradient75510"
       id="radialGradient75512-5-52-04"
       cx="468.11044"
       cy="43.286724"
       fx="468.11044"
       fy="43.286724"
       r="0.99138933"
       gradientTransform="matrix(41.870598,0,0,41.522527,-18968.113,-1210.9149)"
       gradientUnits="userSpaceOnUse" /><radialGradient
       inkscape:collect="always"
       xlink:href="#linearGradient73912"
       id="radialGradient73914-1-3"
       cx="460.82227"
       cy="43.885231"
       fx="460.82227"
       fy="43.885231"
       r="0.62433404"
       gradientTransform="matrix(40.14309,0,0,41.023585,-17941.646,-1592.1043)"
       gradientUnits="userSpaceOnUse" /><linearGradient
       inkscape:collect="always"
       id="linearGradient73912"><stop
         style="stop-color:#ffffff;stop-opacity:1;"
         offset="0"
         id="stop73908" /><stop
         style="stop-color:#bcbcbc;stop-opacity:1;"
         offset="1"
         id="stop73910" /></linearGradient><radialGradient
       inkscape:collect="always"
       xlink:href="#linearGradient4724"
       id="radialGradient4726-2"
       cx="485.80768"
       cy="263.24789"
       fx="485.80768"
       fy="263.24789"
       r="55.682213"
       gradientTransform="matrix(0.03204823,0.0376846,-1.7308625,1.4719828,928.32872,-136.43173)"
       gradientUnits="userSpaceOnUse" /><linearGradient
       inkscape:collect="always"
       id="linearGradient4724"><stop
         style="stop-color:#ffafaf;stop-opacity:1;"
         offset="0"
         id="stop4720" /><stop
         style="stop-color:#f00000;stop-opacity:1;"
         offset="1"
         id="stop4722" /></linearGradient><radialGradient
       inkscape:collect="always"
       xlink:href="#linearGradient75510"
       id="radialGradient75512-5-52-06"
       cx="468.11044"
       cy="43.286724"
       fx="468.11044"
       fy="43.286724"
       r="0.99138933"
       gradientTransform="matrix(41.870598,0,0,41.522527,-19345.903,-1092.3764)"
       gradientUnits="userSpaceOnUse" /><radialGradient
       inkscape:collect="always"
       xlink:href="#linearGradient4724"
       id="radialGradient4726"
       cx="485.80768"
       cy="263.24789"
       fx="485.80768"
       fy="263.24789"
       r="55.682213"
       gradientTransform="matrix(0.03204823,0.0376846,-1.7308625,1.4719828,925.88431,-142.55595)"
       gradientUnits="userSpaceOnUse" /><radialGradient
       inkscape:collect="always"
       xlink:href="#linearGradient75430"
       id="radialGradient75432-3-7"
       cx="464.47806"
       cy="46.42329"
       fx="464.47806"
       fy="46.42329"
       r="0.95129055"
       gradientTransform="matrix(41.870598,0,0,42.035689,-19042.112,-1613.6408)"
       gradientUnits="userSpaceOnUse" /><linearGradient
       inkscape:collect="always"
       id="linearGradient75430"><stop
         style="stop-color:#ffc4c4;stop-opacity:1;"
         offset="0"
         id="stop75426" /><stop
         style="stop-color:#f20000;stop-opacity:1;"
         offset="1"
         id="stop75428" /></linearGradient><radialGradient
       inkscape:collect="always"
       xlink:href="#linearGradient88721"
       id="radialGradient88723-1"
       cx="27.298035"
       cy="138.68559"
       fx="27.298035"
       fy="138.68559"
       r="0.39977351"
       gradientTransform="matrix(-27.617469,13.384834,-119.84568,-222.98923,17819.304,30968.655)"
       gradientUnits="userSpaceOnUse" /><radialGradient
       inkscape:collect="always"
       xlink:href="#linearGradient88721"
       id="radialGradient88723-5"
       cx="27.298035"
       cy="138.68559"
       fx="27.298035"
       fy="138.68559"
       r="0.39977351"
       gradientTransform="matrix(-27.617469,13.384834,-119.84568,-222.98923,18042.796,31212.722)"
       gradientUnits="userSpaceOnUse" /><radialGradient
       inkscape:collect="always"
       xlink:href="#linearGradient75510"
       id="radialGradient75512-5-52-27"
       cx="468.11044"
       cy="43.286724"
       fx="468.11044"
       fy="43.286724"
       r="0.99138933"
       gradientTransform="matrix(41.870598,0,0,41.522527,-18892.041,-1070.1876)"
       gradientUnits="userSpaceOnUse" /><radialGradient
       inkscape:collect="always"
       xlink:href="#linearGradient203885"
       id="radialGradient203887"
       cx="332.13611"
       cy="286.21469"
       fx="332.13611"
       fy="286.21469"
       r="48.630981"
       gradientTransform="matrix(2.2038421,1.5285397,-0.09638923,0.13897358,-372.25142,-261.24483)"
       gradientUnits="userSpaceOnUse" /><radialGradient
       inkscape:collect="always"
       xlink:href="#linearGradient203885"
       id="radialGradient203887-4"
       cx="332.13611"
       cy="286.21469"
       fx="332.13611"
       fy="286.21469"
       r="48.630981"
       gradientTransform="matrix(2.2038421,1.5285397,-0.09638923,0.13897358,-146.55121,-14.061565)"
       gradientUnits="userSpaceOnUse" /><radialGradient
       inkscape:collect="always"
       xlink:href="#linearGradient75510"
       id="radialGradient75512-5-52-97"
       cx="468.11044"
       cy="43.286724"
       fx="468.11044"
       fy="43.286724"
       r="0.99138933"
       gradientTransform="matrix(41.870598,0,0,41.522527,-18741.525,-1144.4519)"
       gradientUnits="userSpaceOnUse" /><radialGradient
       inkscape:collect="always"
       xlink:href="#linearGradient75510"
       id="radialGradient75512-5-52-0"
       cx="468.11044"
       cy="43.286724"
       fx="468.11044"
       fy="43.286724"
       r="0.99138933"
       gradientTransform="matrix(41.870598,0,0,41.522527,-18892.358,-1541.2337)"
       gradientUnits="userSpaceOnUse" /><radialGradient
       inkscape:collect="always"
       xlink:href="#linearGradient75510"
       id="radialGradient75512-5-52-2"
       cx="468.11044"
       cy="43.286724"
       fx="468.11044"
       fy="43.286724"
       r="0.99138933"
       gradientTransform="matrix(41.870598,0,0,41.522527,-19197.641,-1638.0188)"
       gradientUnits="userSpaceOnUse" /><radialGradient
       inkscape:collect="always"
       xlink:href="#linearGradient75510"
       id="radialGradient75512-5-52-26"
       cx="468.11044"
       cy="43.286724"
       fx="468.11044"
       fy="43.286724"
       r="0.99138933"
       gradientTransform="matrix(41.870598,0,0,41.522527,-19118.972,-1317.29)"
       gradientUnits="userSpaceOnUse" /><radialGradient
       inkscape:collect="always"
       xlink:href="#linearGradient75510"
       id="radialGradient75512-5-52-92"
       cx="468.11044"
       cy="43.286724"
       fx="468.11044"
       fy="43.286724"
       r="0.99138933"
       gradientTransform="matrix(41.870598,0,0,41.522527,-19345.303,-1565.0248)"
       gradientUnits="userSpaceOnUse" /></defs><g
     inkscape:label="Layer 1"
     inkscape:groupmode="layer"
     id="layer1"><g
       id="g15628"
       transform="translate(5.8208336,1.5875)"><path
         style="fill:#398dac;fill-opacity:1;stroke-width:0.264999;stroke-opacity:0"
         d="M 1.0644212,41.537964 41.776838,1.0687762 l 75.182912,0.032711 40.67,40.4542938 -78.236883,93.733689 z"
         id="path868" /><path
         style="fill:#e4f1f6;fill-opacity:1;stroke-width:0.264999;stroke-opacity:0"
         d="M 41.845452,1.2744474 57.434059,1.287485 45.64867,50.464653 1.3626457,41.51612 Z"
         id="path9723" /><path
         style="fill:#b1d5e5;fill-opacity:1;stroke-width:0.264999;stroke-opacity:0"
         d="M 57.748653,1.2852706 101.05491,1.2923206 112.9248,50.48566 45.952812,50.52004 Z"
         id="path15287" /><path
         style="fill:#68b2cd;fill-opacity:1;stroke-width:0.264999;stroke-opacity:0"
         d="m 101.50769,1.3171384 15.35593,-0.00558 40.5001,40.1656916 -44.10191,8.831805 z"
         id="path15613" /><path
         style="fill:#409bc0;fill-opacity:1;stroke-width:0.264999;stroke-opacity:0"
         d="M 113.17172,50.719775 157.3223,41.754954 79.876538,134.57122 Z"
         id="path15615" /><path
         style="fill:#65b0cc;fill-opacity:1;stroke-width:0.264999;stroke-opacity:0"
         d="M 112.80185,50.749916 46.027369,50.724278 79.354687,134.79526 Z"
         id="path15617" /><path
         style="fill:#b0d7e5;fill-opacity:1;stroke-width:0.264999;stroke-opacity:0"
         d="M 1.6018075,41.846931 78.973309,134.61225 45.641188,50.766212 Z"
         id="path15619" /></g><g
       id="g46701"
       transform="matrix(0.11245005,0,0,0.11906218,22.572416,0.14995996)"
       style="opacity:0.8"><rect
         style="fill:#616161;fill-opacity:1;stroke-width:17.532;stroke-linecap:butt;stroke-linejoin:round"
         id="rect88792-7-79"
         width="1.2277629"
         height="456.32629"
         x="688.1203"
         y="-750.30817"
         transform="matrix(-0.0576595,0.99833631,-0.99861028,-0.05270214,0,0)" /><path
         style="fill:#616161;fill-opacity:1;stroke-width:18.2127;stroke-linecap:butt;stroke-linejoin:round"
         d="m 708.63709,256.00045 150.82066,-74.37466 1.5401,0.53598 -151.52836,74.94828 z"
         id="path88916-2-3" /><rect
         style="fill:#616161;fill-opacity:1;stroke-width:17.532;stroke-linecap:butt;stroke-linejoin:round"
         id="rect88792-7-7-5"
         width="1.2277629"
         height="456.32629"
         x="135.05779"
         y="-870.48065"
         transform="matrix(-0.0576595,0.99833631,-0.99861028,-0.05270214,0,0)" /><rect
         style="fill:#616161;fill-opacity:1;stroke-width:19.0325;stroke-linecap:butt;stroke-linejoin:round"
         id="rect88792-4-6"
         width="1.398744"
         height="472.04428"
         x="860.04401"
         y="180.77127" /><path
         style="fill:#616161;fill-opacity:1;stroke-width:18.2921;stroke-linecap:butt;stroke-linejoin:round"
         d="m 253.40619,231.36403 151.8784,-74.5021 1.5512,0.53598 -152.591,75.07696 z"
         id="path88916-6-3" /><rect
         style="fill:#616161;fill-opacity:1;stroke-width:19.0325;stroke-linecap:butt;stroke-linejoin:round"
         id="rect88792-75"
         width="1.398744"
         height="472.04428"
         x="253.28867"
         y="231.33328" /><path
         style="fill:#616161;fill-opacity:1;stroke-width:18.2223;stroke-linecap:butt;stroke-linejoin:round"
         d="m 708.59346,726.63333 151.7994,-73.9734 1.54931,0.53599 -152.51161,74.54363 z"
         id="path88916-20" /><rect
         style="fill:#616161;fill-opacity:1;stroke-width:19.0325;stroke-linecap:butt;stroke-linejoin:round"
         id="rect88792-8-6"
         width="1.398744"
         height="472.04428"
         x="405.0672"
         y="156.71515" /><rect
         style="fill:#616161;fill-opacity:1;stroke-width:17.532;stroke-linecap:butt;stroke-linejoin:round"
         id="rect88792-7-2-2"
         width="1.2277629"
         height="456.32629"
         x="605.66638"
         y="-896.98541"
         transform="matrix(-0.0576595,0.99833631,-0.99861028,-0.05270214,0,0)" /><path
         style="fill:#616161;fill-opacity:1;stroke-width:18.2127;stroke-linecap:butt;stroke-linejoin:round"
         d="m 254.03469,702.3497 150.8208,-74.3745 1.54,0.536 -151.5284,74.9481 z"
         id="path88916-1-6" /><path
         style="fill:url(#radialGradient75512-5-52-9);fill-opacity:1;stroke-width:11.0598;stroke-linecap:butt;stroke-linejoin:round"
         id="path75504-2-744-8"
         sodipodi:type="arc"
         sodipodi:cx="858.41968"
         sodipodi:cy="181.48363"
         sodipodi:rx="41.510067"
         sodipodi:ry="41.164989"
         sodipodi:start="0"
         sodipodi:end="6.2814657"
         sodipodi:arc-type="slice"
         d="m 899.92974,181.48363 a 41.510067,41.164989 0 0 1 -41.49222,41.16498 41.510067,41.164989 0 0 1 -41.52789,-41.12959 41.510067,41.164989 0 0 1 41.45651,-41.20035 41.510067,41.164989 0 0 1 41.56354,41.09417 l -41.51,0.0708 z" /><path
         style="fill:url(#radialGradient75512-5-52-47);fill-opacity:1;stroke-width:11.0598;stroke-linecap:butt;stroke-linejoin:round"
         id="path75504-2-744-69"
         sodipodi:type="arc"
         sodipodi:cx="632.80817"
         sodipodi:cy="405.37967"
         sodipodi:rx="41.510067"
         sodipodi:ry="41.164989"
         sodipodi:start="0"
         sodipodi:end="6.2814657"
         sodipodi:arc-type="slice"
         d="m 674.31823,405.37967 a 41.510067,41.164989 0 0 1 -41.49222,41.16498 41.510067,41.164989 0 0 1 -41.5279,-41.12959 41.510067,41.164989 0 0 1 41.45652,-41.20035 41.510067,41.164989 0 0 1 41.56354,41.09417 l -41.51,0.0708 z" /><path
         style="fill:url(#radialGradient204170-6);fill-opacity:1"
         d="m 506.92246,506.33177 10.03609,10.71477 93.51003,-80.83725 c 0,0 0,12.56294 0,0 0,-12.56294 -7.85328,-12.02387 -7.85328,-12.02387 z"
         id="path204162-7" /><path
         style="fill:url(#radialGradient75512-5-52-4);fill-opacity:1;stroke-width:11.0598;stroke-linecap:butt;stroke-linejoin:round"
         id="path75504-2-744-4"
         sodipodi:type="arc"
         sodipodi:cx="405.8638"
         sodipodi:cy="629.34418"
         sodipodi:rx="41.510067"
         sodipodi:ry="41.164989"
         sodipodi:start="0"
         sodipodi:end="6.2814657"
         sodipodi:arc-type="slice"
         d="m 447.37387,629.34418 a 41.510067,41.164989 0 0 1 -41.49222,41.16498 41.510067,41.164989 0 0 1 -41.5279,-41.12959 41.510067,41.164989 0 0 1 41.45651,-41.20035 41.510067,41.164989 0 0 1 41.56355,41.09417 l -41.51001,0.0708 z" /><path
         style="fill:url(#radialGradient75918-7-8);fill-opacity:1;stroke-width:11.0598;stroke-linecap:butt;stroke-linejoin:round"
         d="m 417.40836,602.82172 c -0.9626,10.62262 10.9483,10.20875 10.9483,10.20875 l 38.6889,-46.5512 -12.183,-9.91751 z"
         id="path75910-7-3" /><path
         style="fill:url(#radialGradient75918-7-0);fill-opacity:1;stroke-width:11.0598;stroke-linecap:butt;stroke-linejoin:round"
         d="m 643.28896,381.34185 c -0.9626,10.62262 10.9483,10.20875 10.9483,10.20875 l 38.6889,-46.5512 -12.183,-9.91751 z"
         id="path75910-7-4" /><path
         style="fill:url(#radialGradient204170-1);fill-opacity:1"
         d="m 731.82175,284.02995 10.03609,10.71477 93.51003,-80.83725 c 0,0 0,12.56294 0,0 0,-12.56294 -7.85328,-12.02387 -7.85328,-12.02387 z"
         id="path204162-9" /><path
         style="fill:url(#radialGradient75512-5-52-5);fill-opacity:1;stroke-width:11.0598;stroke-linecap:butt;stroke-linejoin:round"
         id="path75504-2-744-6"
         sodipodi:type="arc"
         sodipodi:cx="482.1145"
         sodipodi:cy="537.11621"
         sodipodi:rx="41.510067"
         sodipodi:ry="41.164989"
         sodipodi:start="0"
         sodipodi:end="6.2814657"
         sodipodi:arc-type="slice"
         d="m 523.62457,537.11621 a 41.510067,41.164989 0 0 1 -41.49222,41.16499 41.510067,41.164989 0 0 1 -41.5279,-41.1296 41.510067,41.164989 0 0 1 41.45652,-41.20034 41.510067,41.164989 0 0 1 41.56354,41.09416 l -41.51001,0.0708 z" /><path
         style="fill:url(#radialGradient203887-1);fill-opacity:1"
         d="m 357.43478,458.77609 9.17631,-13.04161 87.7852,62.31673 c 0.60723,0.88426 6.44672,10.33871 -7.25667,12.61289 z"
         id="path203841-9"
         sodipodi:nodetypes="ccccc" /><path
         style="fill:url(#radialGradient75512-5-52-1);fill-opacity:1;stroke-width:11.0598;stroke-linecap:butt;stroke-linejoin:round"
         id="path75504-2-744-3"
         sodipodi:type="arc"
         sodipodi:cx="330.13525"
         sodipodi:cy="430.66412"
         sodipodi:rx="41.510067"
         sodipodi:ry="41.164989"
         sodipodi:start="0"
         sodipodi:end="6.2814657"
         sodipodi:arc-type="slice"
         d="m 371.64532,430.66412 a 41.510067,41.164989 0 0 1 -41.49222,41.16499 41.510067,41.164989 0 0 1 -41.5279,-41.12959 41.510067,41.164989 0 0 1 41.45652,-41.20035 41.510067,41.164989 0 0 1 41.56354,41.09417 l -41.51001,0.0708 z" /><path
         style="fill:url(#radialGradient75512-5-52-3);fill-opacity:1;stroke-width:11.0598;stroke-linecap:butt;stroke-linejoin:round"
         id="path75504-2-744-52"
         sodipodi:type="arc"
         sodipodi:cx="707.77252"
         sodipodi:cy="313.96078"
         sodipodi:rx="41.510067"
         sodipodi:ry="41.164989"
         sodipodi:start="0"
         sodipodi:end="6.2814657"
         sodipodi:arc-type="slice"
         d="m 749.28259,313.96078 a 41.510067,41.164989 0 0 1 -41.49222,41.16499 41.510067,41.164989 0 0 1 -41.5279,-41.12959 41.510067,41.164989 0 0 1 41.45652,-41.20035 41.510067,41.164989 0 0 1 41.56354,41.09417 l -41.51001,0.0708 z" /><path
         style="fill:url(#radialGradient88723-3);fill-opacity:1;stroke-width:18.2127;stroke-linecap:butt;stroke-linejoin:round"
         d="m 489.43421,567.92246 c 1.2952,-15.31604 13.7174,-7.58454 13.7174,-7.58454 l 42.7609,81.32116 -13.3574,6.73674 z"
         id="path88715-61"
         sodipodi:nodetypes="ccccc" /><path
         style="fill:url(#radialGradient88723-9);fill-opacity:1;stroke-width:18.2127;stroke-linecap:butt;stroke-linejoin:round"
         d="m 716.12241,344.31215 c 1.2952,-15.31604 13.7174,-7.58454 13.7174,-7.58454 l 42.7609,81.32116 -13.3574,6.73674 z"
         id="path88715-8"
         sodipodi:nodetypes="ccccc" /><path
         style="fill:url(#radialGradient75512-5-52-54);fill-opacity:1;stroke-width:11.0598;stroke-linecap:butt;stroke-linejoin:round"
         id="path75504-2-744-43"
         sodipodi:type="arc"
         sodipodi:cx="784.32904"
         sodipodi:cy="454.51276"
         sodipodi:rx="41.510067"
         sodipodi:ry="41.164989"
         sodipodi:start="0"
         sodipodi:end="6.2814657"
         sodipodi:arc-type="slice"
         d="m 825.83911,454.51276 a 41.510067,41.164989 0 0 1 -41.49222,41.16498 41.510067,41.164989 0 0 1 -41.5279,-41.12959 41.510067,41.164989 0 0 1 41.45651,-41.20035 41.510067,41.164989 0 0 1 41.56355,41.09417 l -41.51001,0.0708 z" /><path
         style="fill:url(#radialGradient75918-7-3);fill-opacity:1;stroke-width:11.0598;stroke-linecap:butt;stroke-linejoin:round"
         d="m 339.3175,408.52284 c -0.9626,10.62262 10.9483,10.20875 10.9483,10.20875 l 38.6889,-46.5512 -12.183,-9.91751 z"
         id="path75910-7-8" /><path
         style="fill:url(#radialGradient75512-5-52-29);fill-opacity:1;stroke-width:11.0598;stroke-linecap:butt;stroke-linejoin:round"
         id="path75504-2-744-9"
         sodipodi:type="arc"
         sodipodi:cx="557.45178"
         sodipodi:cy="679.48419"
         sodipodi:rx="41.510067"
         sodipodi:ry="41.164989"
         sodipodi:start="0"
         sodipodi:end="6.2814657"
         sodipodi:arc-type="slice"
         d="m 598.96185,679.48419 a 41.510067,41.164989 0 0 1 -41.49222,41.16499 41.510067,41.164989 0 0 1 -41.5279,-41.12959 41.510067,41.164989 0 0 1 41.45652,-41.20035 41.510067,41.164989 0 0 1 41.56354,41.09416 l -41.51001,0.0708 z" /><path
         style="fill:url(#radialGradient75918-7-1);fill-opacity:1;stroke-width:11.0598;stroke-linecap:butt;stroke-linejoin:round"
         d="m 567.75582,653.60896 c -0.9626,10.62262 10.9483,10.20875 10.9483,10.20875 l 38.6889,-46.5512 -12.183,-9.91751 z"
         id="path75910-7-84" /><path
         style="fill:url(#radialGradient204170);fill-opacity:1"
         d="m 657.31229,555.20895 10.03609,10.71477 93.51003,-80.83725 c 0,0 0,12.56294 0,0 0,-12.56294 -7.85328,-12.02387 -7.85328,-12.02387 z"
         id="path204162" /><path
         style="fill:url(#radialGradient204150);fill-opacity:1"
         d="m 571.04729,224.1508 103.74219,75.45429 c 0,0 -14.04147,0.72091 0,0 12.85221,-0.65985 9.0838,-10.7251 9.0838,-10.7251 L 578.87663,214.34833 Z"
         id="path204142"
         sodipodi:nodetypes="ccsccc" /><path
         style="fill:url(#radialGradient75512-5-52-04);fill-opacity:1;stroke-width:11.0598;stroke-linecap:butt;stroke-linejoin:round"
         id="path75504-2-744-17"
         sodipodi:type="arc"
         sodipodi:cx="631.95197"
         sodipodi:cy="586.45972"
         sodipodi:rx="41.510067"
         sodipodi:ry="41.164989"
         sodipodi:start="0"
         sodipodi:end="6.2814657"
         sodipodi:arc-type="slice"
         d="m 673.46203,586.45972 a 41.510067,41.164989 0 0 1 -41.49222,41.16498 41.510067,41.164989 0 0 1 -41.5279,-41.12959 41.510067,41.164989 0 0 1 41.45652,-41.20035 41.510067,41.164989 0 0 1 41.56354,41.09417 l -41.51,0.0708 z" /><ellipse
         style="fill:url(#radialGradient73914-1-3);fill-opacity:1;stroke-width:10.8256;stroke-linecap:butt;stroke-linejoin:round"
         id="path73881-2-6"
         cx="557.18329"
         cy="208.22444"
         rx="25.062695"
         ry="25.612421" /><path
         style="fill:url(#radialGradient4726-2);fill-opacity:1"
         d="m 432.56987,313.4004 107.16124,-91.528 c 0,0 -5.81347,0.82637 0,0 5.45456,-0.77535 4.03751,3.75677 4.03751,3.75677 l -107.72943,91.33191 z"
         id="path3682-8"
         sodipodi:nodetypes="ccsccc" /><path
         style="fill:url(#radialGradient75512-5-52-06);fill-opacity:1;stroke-width:11.0598;stroke-linecap:butt;stroke-linejoin:round"
         id="path75504-2-744-94"
         sodipodi:type="arc"
         sodipodi:cx="254.16241"
         sodipodi:cy="704.99817"
         sodipodi:rx="41.510067"
         sodipodi:ry="41.164989"
         sodipodi:start="0"
         sodipodi:end="6.2814657"
         sodipodi:arc-type="slice"
         d="m 295.67248,704.99817 a 41.510067,41.164989 0 0 1 -41.49222,41.16498 41.510067,41.164989 0 0 1 -41.5279,-41.12959 41.510067,41.164989 0 0 1 41.45652,-41.20035 41.510067,41.164989 0 0 1 41.56354,41.09417 l -41.51001,0.0708 z" /><path
         style="fill:url(#radialGradient4726);fill-opacity:1"
         d="m 430.12546,307.27618 107.16124,-91.528 c 0,0 -5.81347,0.82637 0,0 5.45456,-0.77535 4.03751,3.75677 4.03751,3.75677 l -107.72943,91.33191 z"
         id="path3682"
         sodipodi:nodetypes="ccsccc" /><path
         style="fill:url(#radialGradient75432-3-7);fill-opacity:1;stroke-width:11.0598;stroke-linecap:butt;stroke-linejoin:round"
         id="path73968-5-7"
         sodipodi:type="arc"
         sodipodi:cx="405.86224"
         sodipodi:cy="337.79315"
         sodipodi:rx="39.8311"
         sodipodi:ry="39.988155"
         sodipodi:start="0"
         sodipodi:end="6.2814657"
         sodipodi:arc-type="slice"
         d="m 445.69334,337.79315 a 39.8311,39.988155 0 0 1 -39.81397,39.98815 39.8311,39.988155 0 0 1 -39.84821,-39.95377 39.8311,39.988155 0 0 1 39.77971,-40.0225 39.8311,39.988155 0 0 1 39.88242,39.91936 l -39.83105,0.0688 z" /><rect
         style="fill:#616161;fill-opacity:1;stroke-width:17.532;stroke-linecap:butt;stroke-linejoin:round"
         id="rect88792-7-1-6"
         width="1.2277629"
         height="456.32629"
         x="218.09821"
         y="-723.05597"
         transform="matrix(-0.0576595,0.99833631,-0.99861028,-0.05270214,0,0)" /><path
         style="fill:url(#radialGradient88723-1);fill-opacity:1;stroke-width:18.2127;stroke-linecap:butt;stroke-linejoin:round"
         d="m 416.29337,373.17247 c 1.2952,-15.31604 13.7174,-7.58454 13.7174,-7.58454 l 42.7609,81.32116 -13.3574,6.73674 z"
         id="path88715-3"
         sodipodi:nodetypes="ccccc" /><path
         style="fill:url(#radialGradient88723-5);fill-opacity:1;stroke-width:18.2127;stroke-linecap:butt;stroke-linejoin:round"
         d="m 639.78491,617.23955 c 1.2952,-15.31604 13.7174,-7.58454 13.7174,-7.58454 l 42.7609,81.32116 -13.3574,6.73674 z"
         id="path88715-6"
         sodipodi:nodetypes="ccccc" /><rect
         style="fill:#616161;fill-opacity:1;stroke-width:19.0325;stroke-linecap:butt;stroke-linejoin:round"
         id="rect88792-0-8"
         width="1.398744"
         height="472.04428"
         x="708.35663"
         y="255.42232" /><path
         style="fill:url(#radialGradient75512-5-52-27);fill-opacity:1;stroke-width:11.0598;stroke-linecap:butt;stroke-linejoin:round"
         id="path75504-2-744-61"
         sodipodi:type="arc"
         sodipodi:cx="708.02393"
         sodipodi:cy="727.18695"
         sodipodi:rx="41.510067"
         sodipodi:ry="41.164989"
         sodipodi:start="0"
         sodipodi:end="6.2814657"
         sodipodi:arc-type="slice"
         d="m 749.53399,727.18695 a 41.510067,41.164989 0 0 1 -41.49222,41.16499 41.510067,41.164989 0 0 1 -41.5279,-41.1296 41.510067,41.164989 0 0 1 41.45652,-41.20034 41.510067,41.164989 0 0 1 41.56354,41.09416 l -41.51,0.0708 z" /><path
         style="fill:url(#radialGradient203887);fill-opacity:1"
         d="m 283.50514,261.7915 9.17631,-13.04161 87.7852,62.31673 c 0.64004,0.91439 6.27448,12.09866 -7.25667,12.61289 z"
         id="path203841"
         sodipodi:nodetypes="ccccc" /><path
         style="fill:url(#radialGradient203887-4);fill-opacity:1"
         d="m 509.20535,508.97477 9.17631,-13.04161 87.7852,62.31673 c 0.57604,0.95901 6.44672,10.33871 -7.25667,12.61289 z"
         id="path203841-3"
         sodipodi:nodetypes="ccccc" /><path
         style="fill:url(#radialGradient75512-5-52-97);fill-opacity:1;stroke-width:11.0598;stroke-linecap:butt;stroke-linejoin:round"
         id="path75504-2-744-1"
         sodipodi:type="arc"
         sodipodi:cx="858.53961"
         sodipodi:cy="652.92273"
         sodipodi:rx="41.510067"
         sodipodi:ry="41.164989"
         sodipodi:start="0"
         sodipodi:end="6.2814657"
         sodipodi:arc-type="slice"
         d="m 900.04968,652.92273 a 41.510067,41.164989 0 0 1 -41.49222,41.16499 41.510067,41.164989 0 0 1 -41.5279,-41.1296 41.510067,41.164989 0 0 1 41.45652,-41.20035 41.510067,41.164989 0 0 1 41.56354,41.09417 l -41.51001,0.0708 z" /><path
         style="fill:url(#radialGradient75512-5-52-0);fill-opacity:1;stroke-width:11.0598;stroke-linecap:butt;stroke-linejoin:round"
         id="path75504-2-744-68"
         sodipodi:type="arc"
         sodipodi:cx="707.70715"
         sodipodi:cy="256.14096"
         sodipodi:rx="41.510067"
         sodipodi:ry="41.164989"
         sodipodi:start="0"
         sodipodi:end="6.2814657"
         sodipodi:arc-type="slice"
         d="m 749.21722,256.14096 a 41.510067,41.164989 0 0 1 -41.49222,41.16499 41.510067,41.164989 0 0 1 -41.5279,-41.1296 41.510067,41.164989 0 0 1 41.45652,-41.20034 41.510067,41.164989 0 0 1 41.56354,41.09416 l -41.51001,0.0708 z" /><path
         style="fill:url(#radialGradient75512-5-52-2);fill-opacity:1;stroke-width:11.0598;stroke-linecap:butt;stroke-linejoin:round"
         id="path75504-2-744-5"
         sodipodi:type="arc"
         sodipodi:cx="402.42386"
         sodipodi:cy="159.35582"
         sodipodi:rx="41.510067"
         sodipodi:ry="41.164989"
         sodipodi:start="0"
         sodipodi:end="6.2814657"
         sodipodi:arc-type="slice"
         d="m 443.93393,159.35582 a 41.510067,41.164989 0 0 1 -41.49223,41.16499 41.510067,41.164989 0 0 1 -41.52789,-41.1296 41.510067,41.164989 0 0 1 41.45651,-41.20035 41.510067,41.164989 0 0 1 41.56354,41.09417 l -41.51,0.0708 z" /><path
         style="fill:url(#radialGradient75512-5-52-26);fill-opacity:1;stroke-width:11.0598;stroke-linecap:butt;stroke-linejoin:round"
         id="path75504-2-744-95"
         sodipodi:type="arc"
         sodipodi:cx="481.09317"
         sodipodi:cy="480.08459"
         sodipodi:rx="41.510067"
         sodipodi:ry="41.164989"
         sodipodi:start="0"
         sodipodi:end="6.2814657"
         sodipodi:arc-type="slice"
         d="m 522.60324,480.08459 a 41.510067,41.164989 0 0 1 -41.49222,41.16499 41.510067,41.164989 0 0 1 -41.5279,-41.12959 41.510067,41.164989 0 0 1 41.45651,-41.20035 41.510067,41.164989 0 0 1 41.56355,41.09417 l -41.51001,0.0708 z" /><path
         style="fill:url(#radialGradient75512-5-52-92);fill-opacity:1;stroke-width:11.0598;stroke-linecap:butt;stroke-linejoin:round"
         id="path75504-2-744-89"
         sodipodi:type="arc"
         sodipodi:cx="254.76166"
         sodipodi:cy="232.34978"
         sodipodi:rx="41.510067"
         sodipodi:ry="41.164989"
         sodipodi:start="0"
         sodipodi:end="6.2814657"
         sodipodi:arc-type="slice"
         d="m 296.27172,232.34978 a 41.510067,41.164989 0 0 1 -41.49222,41.16498 41.510067,41.164989 0 0 1 -41.52789,-41.12959 41.510067,41.164989 0 0 1 41.45651,-41.20035 41.510067,41.164989 0 0 1 41.56354,41.09417 l -41.51,0.0708 z" /></g></g></svg>
