<?xml version="1.0" encoding="UTF-8" standalone="no"?>
<!-- Created with Inkscape (http://www.inkscape.org/) -->

<svg
   width="500mm"
   height="500mm"
   viewBox="0 0 500 500"
   version="1.1"
   id="svg222043"
   inkscape:version="1.2.1 (9c6d41e410, 2022-07-14, custom)"
   sodipodi:docname="split_example_normal.svg"
   xml:space="preserve"
   xmlns:inkscape="http://www.inkscape.org/namespaces/inkscape"
   xmlns:sodipodi="http://sodipodi.sourceforge.net/DTD/sodipodi-0.dtd"
   xmlns:xlink="http://www.w3.org/1999/xlink"
   xmlns="http://www.w3.org/2000/svg"
   xmlns:svg="http://www.w3.org/2000/svg"><sodipodi:namedview
     id="namedview222045"
     pagecolor="#ffffff"
     bordercolor="#000000"
     borderopacity="0.25"
     inkscape:showpageshadow="2"
     inkscape:pageopacity="0.0"
     inkscape:pagecheckerboard="0"
     inkscape:deskcolor="#d1d1d1"
     inkscape:document-units="mm"
     showgrid="false"
     inkscape:zoom="0.3777786"
     inkscape:cx="309.70521"
     inkscape:cy="1109.1152"
     inkscape:window-width="1906"
     inkscape:window-height="1020"
     inkscape:window-x="5"
     inkscape:window-y="51"
     inkscape:window-maximized="1"
     inkscape:current-layer="layer1" /><defs
     id="defs222040"><clipPath
       id="p20d5bb39b9"><rect
         x="72"
         y="51.84"
         width="446.39999"
         height="332.64001"
         id="rect66697" /></clipPath><clipPath
       id="clipPath221633"><rect
         x="72"
         y="51.84"
         width="446.39999"
         height="332.64001"
         id="rect221631" /></clipPath><clipPath
       id="clipPath221637"><rect
         x="72"
         y="51.84"
         width="446.39999"
         height="332.64001"
         id="rect221635" /></clipPath><clipPath
       id="clipPath221641"><rect
         x="72"
         y="51.84"
         width="446.39999"
         height="332.64001"
         id="rect221639" /></clipPath><path
       id="path66751"
       d="M 0,1 C 0.265203,1 0.51958,0.894634 0.707107,0.707107 0.894634,0.51958 1,0.265203 1,0 1,-0.265203 0.894634,-0.51958 0.707107,-0.707107 0.51958,-0.894634 0.265203,-1 0,-1 -0.265203,-1 -0.51958,-0.894634 -0.707107,-0.707107 -0.894634,-0.51958 -1,-0.265203 -1,0 -1,0.265203 -0.894634,0.51958 -0.707107,0.707107 -0.51958,0.894634 -0.265203,1 0,1 Z"
       style="stroke:#1f77b4" /><path
       id="path66877"
       d="M 0,0 V 3.5"
       style="stroke:#000000;stroke-width:0.8" /><path
       id="path66883"
       d="M 1228,531 H 3431 V 0 H 469 v 531 q 359,372 979,998 621,627 780,809 303,340 423,576 121,236 121,464 0,372 -261,606 -261,235 -680,235 -297,0 -627,-103 -329,-103 -704,-313 v 638 q 381,153 712,231 332,78 607,78 725,0 1156,-363 431,-362 431,-968 0,-288 -108,-546 -107,-257 -392,-607 -78,-91 -497,-524 Q 1991,1309 1228,531 Z"
       transform="scale(0.015625)" /><path
       id="path66885"
       d="m 684,794 h 660 V 0 H 684 Z"
       transform="scale(0.015625)" /><path
       id="path66887"
       d="M 525,4666 H 3525 V 4397 L 1831,0 H 1172 L 2766,4134 H 525 Z"
       transform="scale(0.015625)" /><path
       id="path66889"
       d="M 691,4666 H 3169 V 4134 H 1269 V 2991 q 137,47 274,70 138,23 276,23 781,0 1237,-428 457,-428 457,-1159 Q 3513,744 3044,326 2575,-91 1722,-91 1428,-91 1123,-41 819,9 494,109 v 635 q 281,-153 581,-228 300,-75 634,-75 541,0 856,284 316,284 316,772 0,487 -316,771 -315,285 -856,285 -253,0 -505,-56 -251,-56 -513,-175 z"
       transform="scale(0.015625)" /><path
       id="path66902"
       d="m 2034,2216 q -450,0 -708,-241 -257,-241 -257,-662 0,-422 257,-663 258,-241 708,-241 450,0 709,242 260,243 260,662 0,421 -258,662 -257,241 -711,241 z m -631,268 q -406,100 -633,378 -226,279 -226,679 0,559 398,884 399,325 1092,325 697,0 1094,-325 397,-325 397,-884 0,-400 -227,-679 -226,-278 -629,-378 456,-106 710,-416 255,-309 255,-755 Q 3634,634 3220,271 2806,-91 2034,-91 1263,-91 848,271 434,634 434,1313 q 0,446 256,755 257,310 713,416 z m -231,997 q 0,-362 226,-565 227,-203 636,-203 407,0 636,203 230,203 230,565 0,363 -230,566 -229,203 -636,203 -409,0 -636,-203 -226,-203 -226,-566 z"
       transform="scale(0.015625)" /><path
       id="path66904"
       d="m 2034,4250 q -487,0 -733,-480 -245,-479 -245,-1442 0,-959 245,-1439 246,-480 733,-480 491,0 736,480 246,480 246,1439 0,963 -246,1442 -245,480 -736,480 z m 0,500 q 785,0 1199,-621 414,-620 414,-1801 0,-1178 -414,-1799 -414,-620 -1199,-620 -784,0 -1198,620 -414,621 -414,1799 0,1181 414,1801 414,621 1198,621 z"
       transform="scale(0.015625)" /><path
       id="path66927"
       d="m 703,97 v 575 q 238,-113 481,-172 244,-59 479,-59 625,0 954,420 330,420 377,1277 -181,-269 -460,-413 -278,-144 -615,-144 -700,0 -1108,423 -408,424 -408,1159 0,718 425,1152 425,435 1131,435 810,0 1236,-621 427,-620 427,-1801 Q 3622,1225 3098,567 2575,-91 1691,-91 1453,-91 1209,-44 966,3 703,97 Z m 1256,1978 q 425,0 673,290 249,291 249,798 0,503 -249,795 -248,292 -673,292 -425,0 -673,-292 -248,-292 -248,-795 0,-507 248,-798 248,-290 673,-290 z"
       transform="scale(0.015625)" /><path
       id="path66950"
       d="m 2597,2516 q 453,-97 707,-404 255,-306 255,-756 0,-690 -475,-1069 -475,-378 -1350,-378 -293,0 -604,58 -311,58 -642,174 v 609 q 262,-153 574,-231 313,-78 654,-78 593,0 904,234 311,234 311,681 0,413 -289,645 -289,233 -804,233 h -544 v 519 h 569 q 465,0 712,186 247,186 247,536 0,359 -255,551 -254,193 -729,193 -260,0 -557,-57 -297,-56 -653,-174 v 562 q 360,100 674,150 314,50 592,50 719,0 1137,-327 419,-326 419,-882 0,-388 -222,-655 -222,-267 -631,-370 z"
       transform="scale(0.015625)" /><path
       id="path66960"
       d="M 550,4863 H 1875 V 4416 H 1125 V -397 h 750 V -844 H 550 Z"
       transform="scale(0.015625)" /><path
       id="path66962"
       d="M 3809,666 V 1919 H 2778 v 519 H 4434 V 434 Q 4069,175 3628,42 3188,-91 2688,-91 1594,-91 976,548 359,1188 359,2328 q 0,1144 617,1783 618,639 1712,639 456,0 867,-113 411,-112 758,-331 v -672 q -350,297 -744,447 -394,150 -828,150 -857,0 -1287,-478 -429,-478 -429,-1425 0,-944 429,-1422 430,-478 1287,-478 334,0 596,58 263,58 472,180 z"
       transform="scale(0.015625)" /><path
       id="path66964"
       d="m 628,4666 h 631 V 2753 h 2294 v 1913 h 631 V 0 H 3553 V 2222 H 1259 V 0 H 628 Z"
       transform="scale(0.015625)" /><path
       id="path66966"
       d="M 353,3500 H 3084 V 2975 L 922,459 H 3084 V 0 H 275 V 525 L 2438,3041 H 353 Z"
       transform="scale(0.015625)" /><path
       id="path66968"
       d="M 1947,4863 V -844 H 622 v 447 h 747 V 4416 H 622 v 447 z"
       transform="scale(0.015625)" /><path
       id="path66979"
       d="M 0,0 H -3.5"
       style="stroke:#000000;stroke-width:0.8" /><path
       id="path66985"
       d="m 2113,2584 q -425,0 -674,-291 -248,-290 -248,-796 0,-503 248,-796 249,-292 674,-292 425,0 673,292 248,293 248,796 0,506 -248,796 -248,291 -673,291 z m 1253,1979 v -575 q -238,112 -480,171 -242,60 -480,60 -625,0 -955,-422 -329,-422 -376,-1275 184,272 462,417 279,145 613,145 703,0 1111,-427 408,-426 408,-1160 0,-719 -425,-1154 -425,-434 -1131,-434 -810,0 -1238,620 -428,621 -428,1799 0,1106 525,1764 525,658 1409,658 238,0 480,-47 242,-47 505,-140 z"
       transform="scale(0.015625)" /><path
       id="path67032"
       d="M 2419,4116 825,1625 h 1594 z m -166,550 h 794 V 1625 h 666 V 1100 H 3047 V 0 H 2419 V 1100 H 313 v 609 z"
       transform="scale(0.015625)" /><path
       id="path67068"
       d="M 794,531 H 1825 V 4091 L 703,3866 v 575 l 1116,225 h 631 V 531 H 3481 V 0 H 794 Z"
       transform="scale(0.015625)" /><path
       id="path67079"
       d="m 628,4666 h 850 L 3547,763 v 3903 h 612 V 0 H 3309 L 1241,3903 V 0 H 628 Z"
       transform="scale(0.015625)" /><path
       id="path67081"
       d="m 1959,3097 q -462,0 -731,-361 -269,-361 -269,-989 0,-628 267,-989 268,-361 733,-361 460,0 728,362 269,363 269,988 0,622 -269,986 -268,364 -728,364 z m 0,487 q 750,0 1178,-488 429,-487 429,-1349 Q 3566,888 3137,398 2709,-91 1959,-91 1206,-91 779,398 353,888 353,1747 q 0,862 426,1349 427,488 1180,488 z"
       transform="scale(0.015625)" /><path
       id="path67083"
       d="m 2631,2963 q -97,56 -211,82 -114,27 -251,27 -488,0 -749,-317 -261,-317 -261,-911 V 0 H 581 v 3500 h 578 v -544 q 182,319 472,473 291,155 707,155 59,0 131,-8 72,-7 159,-23 z"
       transform="scale(0.015625)" /><path
       id="path67085"
       d="m 3328,2828 q 216,388 516,572 300,184 706,184 547,0 844,-383 297,-382 297,-1088 V 0 h -578 v 2094 q 0,503 -179,746 -178,244 -543,244 -447,0 -707,-297 -259,-296 -259,-809 V 0 h -578 v 2094 q 0,506 -178,748 -178,242 -550,242 -441,0 -701,-298 -259,-298 -259,-808 V 0 H 581 v 3500 h 578 v -544 q 197,322 472,475 275,153 653,153 382,0 649,-194 267,-193 395,-562 z"
       transform="scale(0.015625)" /><path
       id="path67087"
       d="m 2194,1759 q -697,0 -966,-159 -269,-159 -269,-544 0,-306 202,-486 202,-179 548,-179 479,0 768,339 289,339 289,901 v 128 z m 1147,238 V 0 H 2766 V 531 Q 2569,213 2275,61 1981,-91 1556,-91 q -537,0 -855,302 -317,302 -317,808 0,590 395,890 396,300 1180,300 h 807 v 57 q 0,397 -261,614 -261,217 -733,217 -300,0 -585,-72 -284,-72 -546,-216 v 532 q 315,122 612,182 297,61 578,61 760,0 1135,-394 375,-393 375,-1193 z"
       transform="scale(0.015625)" /><path
       id="path67089"
       d="m 603,4863 h 575 V 0 H 603 Z"
       transform="scale(0.015625)" /><path
       id="path67091"
       d="m 603,3500 h 575 V 0 H 603 Z m 0,1363 h 575 V 4134 H 603 Z"
       transform="scale(0.015625)" /><path
       id="path67093"
       d="M 3597,1894 V 1613 H 953 q 38,-594 358,-905 320,-311 892,-311 331,0 642,81 311,81 618,244 V 178 Q 3153,47 2828,-22 2503,-91 2169,-91 1331,-91 842,396 353,884 353,1716 q 0,859 464,1363 464,505 1252,505 706,0 1117,-455 411,-454 411,-1235 z m -575,169 q -6,471 -264,752 -258,282 -683,282 -481,0 -770,-272 -289,-272 -333,-766 z"
       transform="scale(0.015625)" /><path
       id="path67095"
       d="m 2906,2969 v 1894 h 575 V 0 H 2906 V 525 Q 2725,213 2448,61 2172,-91 1784,-91 1150,-91 751,415 353,922 353,1747 q 0,825 398,1331 399,506 1033,506 388,0 664,-152 277,-151 458,-463 z M 947,1747 q 0,-634 261,-995 261,-361 717,-361 456,0 718,361 263,361 263,995 0,634 -263,995 -262,361 -718,361 -456,0 -717,-361 -261,-361 -261,-995 z"
       transform="scale(0.015625)" /><path
       id="path67097"
       transform="scale(0.015625)"
       d="" /><path
       id="path67099"
       d="m 4122,4306 v -665 q -319,297 -680,443 -361,147 -767,147 -800,0 -1225,-489 -425,-489 -425,-1414 0,-922 425,-1411 425,-489 1225,-489 406,0 767,147 361,147 680,444 V 359 Q 3791,134 3420,21 3050,-91 2638,-91 1578,-91 968,557 359,1206 359,2328 q 0,1125 609,1773 610,649 1670,649 418,0 788,-111 371,-111 696,-333 z"
       transform="scale(0.015625)" /><path
       id="path67101"
       d="m 544,1381 v 2119 h 575 V 1403 q 0,-497 193,-746 194,-248 582,-248 465,0 735,297 271,297 271,810 v 1984 h 575 V 0 H 2900 V 538 Q 2691,219 2414,64 2138,-91 1772,-91 1169,-91 856,284 544,659 544,1381 Z m 1447,2203 z"
       transform="scale(0.015625)" /><path
       id="path67103"
       d="M 3513,2113 V 0 h -575 v 2094 q 0,497 -194,743 -194,247 -581,247 -466,0 -735,-297 -269,-296 -269,-809 V 0 H 581 v 3500 h 578 v -544 q 207,316 486,472 280,156 646,156 603,0 912,-373 310,-373 310,-1098 z"
       transform="scale(0.015625)" /><path
       id="path67105"
       d="M 1172,4494 V 3500 H 2356 V 3053 H 1172 V 1153 q 0,-428 117,-550 117,-122 477,-122 h 590 V 0 H 1766 Q 1100,0 847,248 594,497 594,1153 V 3053 H 172 v 447 h 422 v 994 z"
       transform="scale(0.015625)" /><path
       id="path67107"
       d="m 2834,3397 v -544 q -243,125 -506,187 -262,63 -544,63 -428,0 -642,-131 -214,-131 -214,-394 0,-200 153,-314 153,-114 616,-217 l 197,-44 q 612,-131 870,-370 258,-239 258,-667 0,-488 -386,-773 Q 2250,-91 1575,-91 1294,-91 989,-36 684,19 347,128 v 594 q 319,-166 628,-249 309,-82 613,-82 406,0 624,139 219,139 219,392 0,234 -158,359 -157,125 -692,241 l -200,47 q -534,112 -772,345 -237,233 -237,639 0,494 350,762 350,269 994,269 318,0 599,-47 282,-46 519,-140 z"
       transform="scale(0.015625)" /><path
       id="path67109"
       d="m 1625,4666 h 531 L 531,-594 H 0 Z"
       transform="scale(0.015625)" /><path
       id="path67156"
       d="M 2944,4013 V 2803 H 4684 V 2272 H 2944 V 1063 H 2419 V 2272 H 678 v 531 H 2419 V 4013 Z M 678,531 H 4684 V 0 H 678 Z"
       transform="scale(0.015625)" /><path
       id="path67158"
       d="M 5747,2113 5338,0 h -575 l 403,2094 q 25,134 37,231 13,97 13,166 0,281 -157,437 -156,156 -437,156 -419,0 -747,-314 -328,-314 -425,-817 L 3066,0 h -575 l 409,2094 q 25,115 37,213 13,99 13,177 0,285 -156,442 -156,158 -431,158 -425,0 -754,-314 -328,-314 -425,-817 L 800,0 H 225 l 684,3500 h 575 l -109,-544 q 234,307 548,467 315,161 674,161 381,0 626,-200 246,-200 296,-556 262,369 607,562 346,194 730,194 450,0 695,-259 246,-259 246,-734 0,-103 -13,-227 -12,-123 -37,-251 z"
       transform="scale(0.015625)" /><path
       id="path67160"
       d="M 378,4666 H 4325 L 4225,4134 H 2559 L 1759,0 h -634 l 800,4134 H 275 Z"
       transform="scale(0.015625)" /><clipPath
       id="clipPath376-7"><path
         clip-rule="nonzero"
         d="m 8,4 h 8 V 15.109375 H 8 Z m 0,0"
         id="path23593-9" /></clipPath><clipPath
       id="clipPath38422-7"><path
         clip-rule="nonzero"
         d="M 17,0 H 40 V 15.109375 H 17 Z m 0,0"
         id="path73488-2" /></clipPath><clipPath
       id="clipPath376-7-6"><path
         clip-rule="nonzero"
         d="m 8,4 h 8 V 15.109375 H 8 Z m 0,0"
         id="path23593-9-7" /></clipPath><clipPath
       id="clipPath38422-7-5"><path
         clip-rule="nonzero"
         d="M 17,0 H 40 V 15.109375 H 17 Z m 0,0"
         id="path73488-2-3" /></clipPath><style
       type="text/css"
       id="style67620">*{stroke-linejoin: round; stroke-linecap: butt}</style><path
       id="ma9bfa148f2"
       d="M 0 1  C 0.265203 1 0.51958 0.894634 0.707107 0.707107  C 0.894634 0.51958 1 0.265203 1 0  C 1 -0.265203 0.894634 -0.51958 0.707107 -0.707107  C 0.51958 -0.894634 0.265203 -1 0 -1  C -0.265203 -1 -0.51958 -0.894634 -0.707107 -0.707107  C -0.894634 -0.51958 -1 -0.265203 -1 0  C -1 0.265203 -0.894634 0.51958 -0.707107 0.707107  C -0.51958 0.894634 -0.265203 1 0 1  z "
       style="stroke: #1f77b4" /><path
       id="mf53c2a5a58"
       d="M 0 0  L 0 3.5  "
       style="stroke: #000000; stroke-width: 0.8" /><path
       id="DejaVuSans-32"
       d="M 1228 531  L 3431 531  L 3431 0  L 469 0  L 469 531  Q 828 903 1448 1529  Q 2069 2156 2228 2338  Q 2531 2678 2651 2914  Q 2772 3150 2772 3378  Q 2772 3750 2511 3984  Q 2250 4219 1831 4219  Q 1534 4219 1204 4116  Q 875 4013 500 3803  L 500 4441  Q 881 4594 1212 4672  Q 1544 4750 1819 4750  Q 2544 4750 2975 4387  Q 3406 4025 3406 3419  Q 3406 3131 3298 2873  Q 3191 2616 2906 2266  Q 2828 2175 2409 1742  Q 1991 1309 1228 531  z "
       transform="scale(0.015625)" /><path
       id="DejaVuSans-2e"
       d="M 684 794  L 1344 794  L 1344 0  L 684 0  L 684 794  z "
       transform="scale(0.015625)" /><path
       id="DejaVuSans-37"
       d="M 525 4666  L 3525 4666  L 3525 4397  L 1831 0  L 1172 0  L 2766 4134  L 525 4134  L 525 4666  z "
       transform="scale(0.015625)" /><path
       id="DejaVuSans-35"
       d="M 691 4666  L 3169 4666  L 3169 4134  L 1269 4134  L 1269 2991  Q 1406 3038 1543 3061  Q 1681 3084 1819 3084  Q 2600 3084 3056 2656  Q 3513 2228 3513 1497  Q 3513 744 3044 326  Q 2575 -91 1722 -91  Q 1428 -91 1123 -41  Q 819 9 494 109  L 494 744  Q 775 591 1075 516  Q 1375 441 1709 441  Q 2250 441 2565 725  Q 2881 1009 2881 1497  Q 2881 1984 2565 2268  Q 2250 2553 1709 2553  Q 1456 2553 1204 2497  Q 953 2441 691 2322  L 691 4666  z "
       transform="scale(0.015625)" /><path
       id="DejaVuSans-38"
       d="M 2034 2216  Q 1584 2216 1326 1975  Q 1069 1734 1069 1313  Q 1069 891 1326 650  Q 1584 409 2034 409  Q 2484 409 2743 651  Q 3003 894 3003 1313  Q 3003 1734 2745 1975  Q 2488 2216 2034 2216  z M 1403 2484  Q 997 2584 770 2862  Q 544 3141 544 3541  Q 544 4100 942 4425  Q 1341 4750 2034 4750  Q 2731 4750 3128 4425  Q 3525 4100 3525 3541  Q 3525 3141 3298 2862  Q 3072 2584 2669 2484  Q 3125 2378 3379 2068  Q 3634 1759 3634 1313  Q 3634 634 3220 271  Q 2806 -91 2034 -91  Q 1263 -91 848 271  Q 434 634 434 1313  Q 434 1759 690 2068  Q 947 2378 1403 2484  z M 1172 3481  Q 1172 3119 1398 2916  Q 1625 2713 2034 2713  Q 2441 2713 2670 2916  Q 2900 3119 2900 3481  Q 2900 3844 2670 4047  Q 2441 4250 2034 4250  Q 1625 4250 1398 4047  Q 1172 3844 1172 3481  z "
       transform="scale(0.015625)" /><path
       id="DejaVuSans-30"
       d="M 2034 4250  Q 1547 4250 1301 3770  Q 1056 3291 1056 2328  Q 1056 1369 1301 889  Q 1547 409 2034 409  Q 2525 409 2770 889  Q 3016 1369 3016 2328  Q 3016 3291 2770 3770  Q 2525 4250 2034 4250  z M 2034 4750  Q 2819 4750 3233 4129  Q 3647 3509 3647 2328  Q 3647 1150 3233 529  Q 2819 -91 2034 -91  Q 1250 -91 836 529  Q 422 1150 422 2328  Q 422 3509 836 4129  Q 1250 4750 2034 4750  z "
       transform="scale(0.015625)" /><path
       id="DejaVuSans-39"
       d="M 703 97  L 703 672  Q 941 559 1184 500  Q 1428 441 1663 441  Q 2288 441 2617 861  Q 2947 1281 2994 2138  Q 2813 1869 2534 1725  Q 2256 1581 1919 1581  Q 1219 1581 811 2004  Q 403 2428 403 3163  Q 403 3881 828 4315  Q 1253 4750 1959 4750  Q 2769 4750 3195 4129  Q 3622 3509 3622 2328  Q 3622 1225 3098 567  Q 2575 -91 1691 -91  Q 1453 -91 1209 -44  Q 966 3 703 97  z M 1959 2075  Q 2384 2075 2632 2365  Q 2881 2656 2881 3163  Q 2881 3666 2632 3958  Q 2384 4250 1959 4250  Q 1534 4250 1286 3958  Q 1038 3666 1038 3163  Q 1038 2656 1286 2365  Q 1534 2075 1959 2075  z "
       transform="scale(0.015625)" /><path
       id="DejaVuSans-33"
       d="M 2597 2516  Q 3050 2419 3304 2112  Q 3559 1806 3559 1356  Q 3559 666 3084 287  Q 2609 -91 1734 -91  Q 1441 -91 1130 -33  Q 819 25 488 141  L 488 750  Q 750 597 1062 519  Q 1375 441 1716 441  Q 2309 441 2620 675  Q 2931 909 2931 1356  Q 2931 1769 2642 2001  Q 2353 2234 1838 2234  L 1294 2234  L 1294 2753  L 1863 2753  Q 2328 2753 2575 2939  Q 2822 3125 2822 3475  Q 2822 3834 2567 4026  Q 2313 4219 1838 4219  Q 1578 4219 1281 4162  Q 984 4106 628 3988  L 628 4550  Q 988 4650 1302 4700  Q 1616 4750 1894 4750  Q 2613 4750 3031 4423  Q 3450 4097 3450 3541  Q 3450 3153 3228 2886  Q 3006 2619 2597 2516  z "
       transform="scale(0.015625)" /><path
       id="DejaVuSans-5b"
       d="M 550 4863  L 1875 4863  L 1875 4416  L 1125 4416  L 1125 -397  L 1875 -397  L 1875 -844  L 550 -844  L 550 4863  z "
       transform="scale(0.015625)" /><path
       id="DejaVuSans-47"
       d="M 3809 666  L 3809 1919  L 2778 1919  L 2778 2438  L 4434 2438  L 4434 434  Q 4069 175 3628 42  Q 3188 -91 2688 -91  Q 1594 -91 976 548  Q 359 1188 359 2328  Q 359 3472 976 4111  Q 1594 4750 2688 4750  Q 3144 4750 3555 4637  Q 3966 4525 4313 4306  L 4313 3634  Q 3963 3931 3569 4081  Q 3175 4231 2741 4231  Q 1884 4231 1454 3753  Q 1025 3275 1025 2328  Q 1025 1384 1454 906  Q 1884 428 2741 428  Q 3075 428 3337 486  Q 3600 544 3809 666  z "
       transform="scale(0.015625)" /><path
       id="DejaVuSans-48"
       d="M 628 4666  L 1259 4666  L 1259 2753  L 3553 2753  L 3553 4666  L 4184 4666  L 4184 0  L 3553 0  L 3553 2222  L 1259 2222  L 1259 0  L 628 0  L 628 4666  z "
       transform="scale(0.015625)" /><path
       id="DejaVuSans-7a"
       d="M 353 3500  L 3084 3500  L 3084 2975  L 922 459  L 3084 459  L 3084 0  L 275 0  L 275 525  L 2438 3041  L 353 3041  L 353 3500  z "
       transform="scale(0.015625)" /><path
       id="DejaVuSans-5d"
       d="M 1947 4863  L 1947 -844  L 622 -844  L 622 -397  L 1369 -397  L 1369 4416  L 622 4416  L 622 4863  L 1947 4863  z "
       transform="scale(0.015625)" /><path
       id="md77531d39e"
       d="M 0 0  L -3.5 0  "
       style="stroke: #000000; stroke-width: 0.8" /><path
       id="DejaVuSans-31"
       d="M 794 531  L 1825 531  L 1825 4091  L 703 3866  L 703 4441  L 1819 4666  L 2450 4666  L 2450 531  L 3481 531  L 3481 0  L 794 0  L 794 531  z "
       transform="scale(0.015625)" /><path
       id="DejaVuSans-4e"
       d="M 628 4666  L 1478 4666  L 3547 763  L 3547 4666  L 4159 4666  L 4159 0  L 3309 0  L 1241 3903  L 1241 0  L 628 0  L 628 4666  z "
       transform="scale(0.015625)" /><path
       id="DejaVuSans-6f"
       d="M 1959 3097  Q 1497 3097 1228 2736  Q 959 2375 959 1747  Q 959 1119 1226 758  Q 1494 397 1959 397  Q 2419 397 2687 759  Q 2956 1122 2956 1747  Q 2956 2369 2687 2733  Q 2419 3097 1959 3097  z M 1959 3584  Q 2709 3584 3137 3096  Q 3566 2609 3566 1747  Q 3566 888 3137 398  Q 2709 -91 1959 -91  Q 1206 -91 779 398  Q 353 888 353 1747  Q 353 2609 779 3096  Q 1206 3584 1959 3584  z "
       transform="scale(0.015625)" /><path
       id="DejaVuSans-72"
       d="M 2631 2963  Q 2534 3019 2420 3045  Q 2306 3072 2169 3072  Q 1681 3072 1420 2755  Q 1159 2438 1159 1844  L 1159 0  L 581 0  L 581 3500  L 1159 3500  L 1159 2956  Q 1341 3275 1631 3429  Q 1922 3584 2338 3584  Q 2397 3584 2469 3576  Q 2541 3569 2628 3553  L 2631 2963  z "
       transform="scale(0.015625)" /><path
       id="DejaVuSans-6d"
       d="M 3328 2828  Q 3544 3216 3844 3400  Q 4144 3584 4550 3584  Q 5097 3584 5394 3201  Q 5691 2819 5691 2113  L 5691 0  L 5113 0  L 5113 2094  Q 5113 2597 4934 2840  Q 4756 3084 4391 3084  Q 3944 3084 3684 2787  Q 3425 2491 3425 1978  L 3425 0  L 2847 0  L 2847 2094  Q 2847 2600 2669 2842  Q 2491 3084 2119 3084  Q 1678 3084 1418 2786  Q 1159 2488 1159 1978  L 1159 0  L 581 0  L 581 3500  L 1159 3500  L 1159 2956  Q 1356 3278 1631 3431  Q 1906 3584 2284 3584  Q 2666 3584 2933 3390  Q 3200 3197 3328 2828  z "
       transform="scale(0.015625)" /><path
       id="DejaVuSans-61"
       d="M 2194 1759  Q 1497 1759 1228 1600  Q 959 1441 959 1056  Q 959 750 1161 570  Q 1363 391 1709 391  Q 2188 391 2477 730  Q 2766 1069 2766 1631  L 2766 1759  L 2194 1759  z M 3341 1997  L 3341 0  L 2766 0  L 2766 531  Q 2569 213 2275 61  Q 1981 -91 1556 -91  Q 1019 -91 701 211  Q 384 513 384 1019  Q 384 1609 779 1909  Q 1175 2209 1959 2209  L 2766 2209  L 2766 2266  Q 2766 2663 2505 2880  Q 2244 3097 1772 3097  Q 1472 3097 1187 3025  Q 903 2953 641 2809  L 641 3341  Q 956 3463 1253 3523  Q 1550 3584 1831 3584  Q 2591 3584 2966 3190  Q 3341 2797 3341 1997  z "
       transform="scale(0.015625)" /><path
       id="DejaVuSans-6c"
       d="M 603 4863  L 1178 4863  L 1178 0  L 603 0  L 603 4863  z "
       transform="scale(0.015625)" /><path
       id="DejaVuSans-69"
       d="M 603 3500  L 1178 3500  L 1178 0  L 603 0  L 603 3500  z M 603 4863  L 1178 4863  L 1178 4134  L 603 4134  L 603 4863  z "
       transform="scale(0.015625)" /><path
       id="DejaVuSans-65"
       d="M 3597 1894  L 3597 1613  L 953 1613  Q 991 1019 1311 708  Q 1631 397 2203 397  Q 2534 397 2845 478  Q 3156 559 3463 722  L 3463 178  Q 3153 47 2828 -22  Q 2503 -91 2169 -91  Q 1331 -91 842 396  Q 353 884 353 1716  Q 353 2575 817 3079  Q 1281 3584 2069 3584  Q 2775 3584 3186 3129  Q 3597 2675 3597 1894  z M 3022 2063  Q 3016 2534 2758 2815  Q 2500 3097 2075 3097  Q 1594 3097 1305 2825  Q 1016 2553 972 2059  L 3022 2063  z "
       transform="scale(0.015625)" /><path
       id="DejaVuSans-64"
       d="M 2906 2969  L 2906 4863  L 3481 4863  L 3481 0  L 2906 0  L 2906 525  Q 2725 213 2448 61  Q 2172 -91 1784 -91  Q 1150 -91 751 415  Q 353 922 353 1747  Q 353 2572 751 3078  Q 1150 3584 1784 3584  Q 2172 3584 2448 3432  Q 2725 3281 2906 2969  z M 947 1747  Q 947 1113 1208 752  Q 1469 391 1925 391  Q 2381 391 2643 752  Q 2906 1113 2906 1747  Q 2906 2381 2643 2742  Q 2381 3103 1925 3103  Q 1469 3103 1208 2742  Q 947 2381 947 1747  z "
       transform="scale(0.015625)" /><path
       id="DejaVuSans-20"
       transform="scale(0.015625)" /><path
       id="DejaVuSans-43"
       d="M 4122 4306  L 4122 3641  Q 3803 3938 3442 4084  Q 3081 4231 2675 4231  Q 1875 4231 1450 3742  Q 1025 3253 1025 2328  Q 1025 1406 1450 917  Q 1875 428 2675 428  Q 3081 428 3442 575  Q 3803 722 4122 1019  L 4122 359  Q 3791 134 3420 21  Q 3050 -91 2638 -91  Q 1578 -91 968 557  Q 359 1206 359 2328  Q 359 3453 968 4101  Q 1578 4750 2638 4750  Q 3056 4750 3426 4639  Q 3797 4528 4122 4306  z "
       transform="scale(0.015625)" /><path
       id="DejaVuSans-75"
       d="M 544 1381  L 544 3500  L 1119 3500  L 1119 1403  Q 1119 906 1312 657  Q 1506 409 1894 409  Q 2359 409 2629 706  Q 2900 1003 2900 1516  L 2900 3500  L 3475 3500  L 3475 0  L 2900 0  L 2900 538  Q 2691 219 2414 64  Q 2138 -91 1772 -91  Q 1169 -91 856 284  Q 544 659 544 1381  z M 1991 3584  L 1991 3584  z "
       transform="scale(0.015625)" /><path
       id="DejaVuSans-6e"
       d="M 3513 2113  L 3513 0  L 2938 0  L 2938 2094  Q 2938 2591 2744 2837  Q 2550 3084 2163 3084  Q 1697 3084 1428 2787  Q 1159 2491 1159 1978  L 1159 0  L 581 0  L 581 3500  L 1159 3500  L 1159 2956  Q 1366 3272 1645 3428  Q 1925 3584 2291 3584  Q 2894 3584 3203 3211  Q 3513 2838 3513 2113  z "
       transform="scale(0.015625)" /><path
       id="DejaVuSans-74"
       d="M 1172 4494  L 1172 3500  L 2356 3500  L 2356 3053  L 1172 3053  L 1172 1153  Q 1172 725 1289 603  Q 1406 481 1766 481  L 2356 481  L 2356 0  L 1766 0  Q 1100 0 847 248  Q 594 497 594 1153  L 594 3053  L 172 3053  L 172 3500  L 594 3500  L 594 4494  L 1172 4494  z "
       transform="scale(0.015625)" /><path
       id="DejaVuSans-73"
       d="M 2834 3397  L 2834 2853  Q 2591 2978 2328 3040  Q 2066 3103 1784 3103  Q 1356 3103 1142 2972  Q 928 2841 928 2578  Q 928 2378 1081 2264  Q 1234 2150 1697 2047  L 1894 2003  Q 2506 1872 2764 1633  Q 3022 1394 3022 966  Q 3022 478 2636 193  Q 2250 -91 1575 -91  Q 1294 -91 989 -36  Q 684 19 347 128  L 347 722  Q 666 556 975 473  Q 1284 391 1588 391  Q 1994 391 2212 530  Q 2431 669 2431 922  Q 2431 1156 2273 1281  Q 2116 1406 1581 1522  L 1381 1569  Q 847 1681 609 1914  Q 372 2147 372 2553  Q 372 3047 722 3315  Q 1072 3584 1716 3584  Q 2034 3584 2315 3537  Q 2597 3491 2834 3397  z "
       transform="scale(0.015625)" /><path
       id="DejaVuSans-2f"
       d="M 1625 4666  L 2156 4666  L 531 -594  L 0 -594  L 1625 4666  z "
       transform="scale(0.015625)" /><path
       id="DejaVuSans-2223"
       d="M 1350 4934  L 1850 4934  L 1850 -1369  L 1350 -1369  L 1350 4934  z "
       transform="scale(0.015625)" /><path
       id="DejaVuSans-Oblique-42"
       d="M 1081 4666  L 2694 4666  Q 3350 4666 3675 4422  Q 4000 4178 4000 3688  Q 4000 3238 3720 2911  Q 3441 2584 2988 2516  Q 3375 2428 3569 2181  Q 3763 1934 3763 1522  Q 3763 819 3242 409  Q 2722 0 1819 0  L 172 0  L 1081 4666  z M 1234 2228  L 903 519  L 1919 519  Q 2491 519 2800 781  Q 3109 1044 3109 1522  Q 3109 1891 2904 2059  Q 2700 2228 2247 2228  L 1234 2228  z M 1606 4147  L 1331 2741  L 2272 2741  Q 2775 2741 3058 2959  Q 3341 3178 3341 3566  Q 3341 3869 3150 4008  Q 2959 4147 2541 4147  L 1606 4147  z "
       transform="scale(0.015625)" /><path
       id="DejaVuSans-3d"
       d="M 678 2906  L 4684 2906  L 4684 2381  L 678 2381  L 678 2906  z M 678 1631  L 4684 1631  L 4684 1100  L 678 1100  L 678 1631  z "
       transform="scale(0.015625)" /><path
       id="DejaVuSans-b1"
       d="M 2944 4013  L 2944 2803  L 4684 2803  L 4684 2272  L 2944 2272  L 2944 1063  L 2419 1063  L 2419 2272  L 678 2272  L 678 2803  L 2419 2803  L 2419 4013  L 2944 4013  z M 678 531  L 4684 531  L 4684 0  L 678 0  L 678 531  z "
       transform="scale(0.015625)" /><path
       id="DejaVuSans-Oblique-6d"
       d="M 5747 2113  L 5338 0  L 4763 0  L 5166 2094  Q 5191 2228 5203 2325  Q 5216 2422 5216 2491  Q 5216 2772 5059 2928  Q 4903 3084 4622 3084  Q 4203 3084 3875 2770  Q 3547 2456 3450 1953  L 3066 0  L 2491 0  L 2900 2094  Q 2925 2209 2937 2307  Q 2950 2406 2950 2484  Q 2950 2769 2794 2926  Q 2638 3084 2363 3084  Q 1938 3084 1609 2770  Q 1281 2456 1184 1953  L 800 0  L 225 0  L 909 3500  L 1484 3500  L 1375 2956  Q 1609 3263 1923 3423  Q 2238 3584 2597 3584  Q 2978 3584 3223 3384  Q 3469 3184 3519 2828  Q 3781 3197 4126 3390  Q 4472 3584 4856 3584  Q 5306 3584 5551 3325  Q 5797 3066 5797 2591  Q 5797 2488 5784 2364  Q 5772 2241 5747 2113  z "
       transform="scale(0.015625)" /><path
       id="DejaVuSans-Oblique-54"
       d="M 378 4666  L 4325 4666  L 4225 4134  L 2559 4134  L 1759 0  L 1125 0  L 1925 4134  L 275 4134  L 378 4666  z "
       transform="scale(0.015625)" /><path
       id="DejaVuSans-Oblique-69"
       d="M 1172 4863  L 1747 4863  L 1606 4134  L 1031 4134  L 1172 4863  z M 909 3500  L 1484 3500  L 800 0  L 225 0  L 909 3500  z "
       transform="scale(0.015625)" /><path
       id="DejaVuSans-36"
       d="M 2113 2584  Q 1688 2584 1439 2293  Q 1191 2003 1191 1497  Q 1191 994 1439 701  Q 1688 409 2113 409  Q 2538 409 2786 701  Q 3034 994 3034 1497  Q 3034 2003 2786 2293  Q 2538 2584 2113 2584  z M 3366 4563  L 3366 3988  Q 3128 4100 2886 4159  Q 2644 4219 2406 4219  Q 1781 4219 1451 3797  Q 1122 3375 1075 2522  Q 1259 2794 1537 2939  Q 1816 3084 2150 3084  Q 2853 3084 3261 2657  Q 3669 2231 3669 1497  Q 3669 778 3244 343  Q 2819 -91 2113 -91  Q 1303 -91 875 529  Q 447 1150 447 2328  Q 447 3434 972 4092  Q 1497 4750 2381 4750  Q 2619 4750 2861 4703  Q 3103 4656 3366 4563  z "
       transform="scale(0.015625)" /><clipPath
       id="pcb17cb4aad"><rect
         x="72"
         y="51.84"
         width="446.4"
         height="332.64"
         id="rect68375" /></clipPath></defs><g
     inkscape:label="Layer 1"
     inkscape:groupmode="layer"
     id="layer1"><g
       id="axes_1"
       transform="matrix(0.70467996,0,0,0.70216196,52.960613,75.862994)"><g
         id="patch_2"><path
           d="M 72,384.48 H 518.4 V 51.84 H 72 Z"
           style="fill:#ffffff"
           id="path67627" /></g><g
         id="PathCollection_1-3"><defs
           id="defs67631"><path
             id="path68432"
             d="M 0,1 C 0.265203,1 0.51958,0.894634 0.707107,0.707107 0.894634,0.51958 1,0.265203 1,0 1,-0.265203 0.894634,-0.51958 0.707107,-0.707107 0.51958,-0.894634 0.265203,-1 0,-1 -0.265203,-1 -0.51958,-0.894634 -0.707107,-0.707107 -0.894634,-0.51958 -1,-0.265203 -1,0 -1,0.265203 -0.894634,0.51958 -0.707107,0.707107 -0.51958,0.894634 -0.265203,1 0,1 Z"
             style="stroke:#1f77b4" /></defs><g
           clip-path="url(#pcb17cb4aad)"
           id="g67875"><use
             xlink:href="#ma9bfa148f2"
             x="92.290909"
             y="70.200752"
             style="fill:#1f77b4;stroke:#1f77b4"
             id="use67633" /><use
             xlink:href="#ma9bfa148f2"
             x="95.672729"
             y="73.631668"
             style="fill:#1f77b4;stroke:#1f77b4"
             id="use67635" /><use
             xlink:href="#ma9bfa148f2"
             x="99.054543"
             y="68.477287"
             style="fill:#1f77b4;stroke:#1f77b4"
             id="use67637" /><use
             xlink:href="#ma9bfa148f2"
             x="102.43636"
             y="71.235634"
             style="fill:#1f77b4;stroke:#1f77b4"
             id="use67639" /><use
             xlink:href="#ma9bfa148f2"
             x="105.81818"
             y="69.249947"
             style="fill:#1f77b4;stroke:#1f77b4"
             id="use67641" /><use
             xlink:href="#ma9bfa148f2"
             x="109.2"
             y="72.47068"
             style="fill:#1f77b4;stroke:#1f77b4"
             id="use67643" /><use
             xlink:href="#ma9bfa148f2"
             x="112.58182"
             y="74.124084"
             style="fill:#1f77b4;stroke:#1f77b4"
             id="use67645" /><use
             xlink:href="#ma9bfa148f2"
             x="115.96364"
             y="71.033463"
             style="fill:#1f77b4;stroke:#1f77b4"
             id="use67647" /><use
             xlink:href="#ma9bfa148f2"
             x="119.34545"
             y="69.818428"
             style="fill:#1f77b4;stroke:#1f77b4"
             id="use67649" /><use
             xlink:href="#ma9bfa148f2"
             x="122.72727"
             y="68.521324"
             style="fill:#1f77b4;stroke:#1f77b4"
             id="use67651" /><use
             xlink:href="#ma9bfa148f2"
             x="126.10909"
             y="70.99543"
             style="fill:#1f77b4;stroke:#1f77b4"
             id="use67653" /><use
             xlink:href="#ma9bfa148f2"
             x="129.49091"
             y="73.911903"
             style="fill:#1f77b4;stroke:#1f77b4"
             id="use67655" /><use
             xlink:href="#ma9bfa148f2"
             x="132.87273"
             y="72.548744"
             style="fill:#1f77b4;stroke:#1f77b4"
             id="use67657" /><use
             xlink:href="#ma9bfa148f2"
             x="136.25455"
             y="72.070343"
             style="fill:#1f77b4;stroke:#1f77b4"
             id="use67659" /><use
             xlink:href="#ma9bfa148f2"
             x="139.63637"
             y="74.202148"
             style="fill:#1f77b4;stroke:#1f77b4"
             id="use67661" /><use
             xlink:href="#ma9bfa148f2"
             x="143.01819"
             y="74.696571"
             style="fill:#1f77b4;stroke:#1f77b4"
             id="use67663" /><use
             xlink:href="#ma9bfa148f2"
             x="146.39999"
             y="74.928764"
             style="fill:#1f77b4;stroke:#1f77b4"
             id="use67665" /><use
             xlink:href="#ma9bfa148f2"
             x="149.78181"
             y="76.778336"
             style="fill:#1f77b4;stroke:#1f77b4"
             id="use67667" /><use
             xlink:href="#ma9bfa148f2"
             x="153.16364"
             y="76.478081"
             style="fill:#1f77b4;stroke:#1f77b4"
             id="use67669" /><use
             xlink:href="#ma9bfa148f2"
             x="156.54546"
             y="73.229324"
             style="fill:#1f77b4;stroke:#1f77b4"
             id="use67671" /><use
             xlink:href="#ma9bfa148f2"
             x="159.92728"
             y="78.577866"
             style="fill:#1f77b4;stroke:#1f77b4"
             id="use67673" /><use
             xlink:href="#ma9bfa148f2"
             x="163.3091"
             y="78.319649"
             style="fill:#1f77b4;stroke:#1f77b4"
             id="use67675" /><use
             xlink:href="#ma9bfa148f2"
             x="166.6909"
             y="74.348274"
             style="fill:#1f77b4;stroke:#1f77b4"
             id="use67677" /><use
             xlink:href="#ma9bfa148f2"
             x="170.07272"
             y="75.813522"
             style="fill:#1f77b4;stroke:#1f77b4"
             id="use67679" /><use
             xlink:href="#ma9bfa148f2"
             x="173.45454"
             y="75.223015"
             style="fill:#1f77b4;stroke:#1f77b4"
             id="use67681" /><use
             xlink:href="#ma9bfa148f2"
             x="176.83636"
             y="77.839241"
             style="fill:#1f77b4;stroke:#1f77b4"
             id="use67683" /><use
             xlink:href="#ma9bfa148f2"
             x="180.21819"
             y="76.546143"
             style="fill:#1f77b4;stroke:#1f77b4"
             id="use67685" /><use
             xlink:href="#ma9bfa148f2"
             x="183.60001"
             y="77.212708"
             style="fill:#1f77b4;stroke:#1f77b4"
             id="use67687" /><use
             xlink:href="#ma9bfa148f2"
             x="186.98181"
             y="82.4972"
             style="fill:#1f77b4;stroke:#1f77b4"
             id="use67689" /><use
             xlink:href="#ma9bfa148f2"
             x="190.36363"
             y="79.798904"
             style="fill:#1f77b4;stroke:#1f77b4"
             id="use67691" /><use
             xlink:href="#ma9bfa148f2"
             x="193.74545"
             y="80.599586"
             style="fill:#1f77b4;stroke:#1f77b4"
             id="use67693" /><use
             xlink:href="#ma9bfa148f2"
             x="197.12727"
             y="80.52552"
             style="fill:#1f77b4;stroke:#1f77b4"
             id="use67695" /><use
             xlink:href="#ma9bfa148f2"
             x="200.50909"
             y="78.685959"
             style="fill:#1f77b4;stroke:#1f77b4"
             id="use67697" /><use
             xlink:href="#ma9bfa148f2"
             x="203.89091"
             y="81.798599"
             style="fill:#1f77b4;stroke:#1f77b4"
             id="use67699" /><use
             xlink:href="#ma9bfa148f2"
             x="207.27272"
             y="83.375946"
             style="fill:#1f77b4;stroke:#1f77b4"
             id="use67701" /><use
             xlink:href="#ma9bfa148f2"
             x="210.65454"
             y="81.12603"
             style="fill:#1f77b4;stroke:#1f77b4"
             id="use67703" /><use
             xlink:href="#ma9bfa148f2"
             x="214.03636"
             y="79.312492"
             style="fill:#1f77b4;stroke:#1f77b4"
             id="use67705" /><use
             xlink:href="#ma9bfa148f2"
             x="217.41818"
             y="80.419434"
             style="fill:#1f77b4;stroke:#1f77b4"
             id="use67707" /><use
             xlink:href="#ma9bfa148f2"
             x="220.8"
             y="74.94278"
             style="fill:#1f77b4;stroke:#1f77b4"
             id="use67709" /><use
             xlink:href="#ma9bfa148f2"
             x="224.18182"
             y="72.40062"
             style="fill:#1f77b4;stroke:#1f77b4"
             id="use67711" /><use
             xlink:href="#ma9bfa148f2"
             x="227.56363"
             y="73.493546"
             style="fill:#1f77b4;stroke:#1f77b4"
             id="use67713" /><use
             xlink:href="#ma9bfa148f2"
             x="230.94545"
             y="73.451515"
             style="fill:#1f77b4;stroke:#1f77b4"
             id="use67715" /><use
             xlink:href="#ma9bfa148f2"
             x="234.32727"
             y="73.757774"
             style="fill:#1f77b4;stroke:#1f77b4"
             id="use67717" /><use
             xlink:href="#ma9bfa148f2"
             x="237.70909"
             y="72.360588"
             style="fill:#1f77b4;stroke:#1f77b4"
             id="use67719" /><use
             xlink:href="#ma9bfa148f2"
             x="241.09091"
             y="73.601639"
             style="fill:#1f77b4;stroke:#1f77b4"
             id="use67721" /><use
             xlink:href="#ma9bfa148f2"
             x="244.47273"
             y="73.909904"
             style="fill:#1f77b4;stroke:#1f77b4"
             id="use67723" /><use
             xlink:href="#ma9bfa148f2"
             x="247.85454"
             y="71.247643"
             style="fill:#1f77b4;stroke:#1f77b4"
             id="use67725" /><use
             xlink:href="#ma9bfa148f2"
             x="251.23636"
             y="74.356285"
             style="fill:#1f77b4;stroke:#1f77b4"
             id="use67727" /><use
             xlink:href="#ma9bfa148f2"
             x="254.61818"
             y="78.093452"
             style="fill:#1f77b4;stroke:#1f77b4"
             id="use67729" /><use
             xlink:href="#ma9bfa148f2"
             x="258"
             y="75.497253"
             style="fill:#1f77b4;stroke:#1f77b4"
             id="use67731" /><use
             xlink:href="#ma9bfa148f2"
             x="261.38181"
             y="77.206703"
             style="fill:#1f77b4;stroke:#1f77b4"
             id="use67733" /><use
             xlink:href="#ma9bfa148f2"
             x="264.76364"
             y="79.082298"
             style="fill:#1f77b4;stroke:#1f77b4"
             id="use67735" /><use
             xlink:href="#ma9bfa148f2"
             x="268.14545"
             y="84.647026"
             style="fill:#1f77b4;stroke:#1f77b4"
             id="use67737" /><use
             xlink:href="#ma9bfa148f2"
             x="271.52728"
             y="96.557137"
             style="fill:#1f77b4;stroke:#1f77b4"
             id="use67739" /><use
             xlink:href="#ma9bfa148f2"
             x="274.90909"
             y="115.89156"
             style="fill:#1f77b4;stroke:#1f77b4"
             id="use67741" /><use
             xlink:href="#ma9bfa148f2"
             x="278.29092"
             y="153.67966"
             style="fill:#1f77b4;stroke:#1f77b4"
             id="use67743" /><use
             xlink:href="#ma9bfa148f2"
             x="281.67273"
             y="277.47479"
             style="fill:#1f77b4;stroke:#1f77b4"
             id="use67745" /><use
             xlink:href="#ma9bfa148f2"
             x="285.05453"
             y="320.77759"
             style="fill:#1f77b4;stroke:#1f77b4"
             id="use67747" /><use
             xlink:href="#ma9bfa148f2"
             x="288.43637"
             y="353.1611"
             style="fill:#1f77b4;stroke:#1f77b4"
             id="use67749" /><use
             xlink:href="#ma9bfa148f2"
             x="291.81818"
             y="332.46152"
             style="fill:#1f77b4;stroke:#1f77b4"
             id="use67751" /><use
             xlink:href="#ma9bfa148f2"
             x="295.20001"
             y="289.69318"
             style="fill:#1f77b4;stroke:#1f77b4"
             id="use67753" /><use
             xlink:href="#ma9bfa148f2"
             x="298.58182"
             y="317.34866"
             style="fill:#1f77b4;stroke:#1f77b4"
             id="use67755" /><use
             xlink:href="#ma9bfa148f2"
             x="301.96362"
             y="333.01196"
             style="fill:#1f77b4;stroke:#1f77b4"
             id="use67757" /><use
             xlink:href="#ma9bfa148f2"
             x="305.34546"
             y="292.71976"
             style="fill:#1f77b4;stroke:#1f77b4"
             id="use67759" /><use
             xlink:href="#ma9bfa148f2"
             x="308.72726"
             y="256.36887"
             style="fill:#1f77b4;stroke:#1f77b4"
             id="use67761" /><use
             xlink:href="#ma9bfa148f2"
             x="312.1091"
             y="159.16231"
             style="fill:#1f77b4;stroke:#1f77b4"
             id="use67763" /><use
             xlink:href="#ma9bfa148f2"
             x="315.49091"
             y="115.08488"
             style="fill:#1f77b4;stroke:#1f77b4"
             id="use67765" /><use
             xlink:href="#ma9bfa148f2"
             x="318.87274"
             y="99.461609"
             style="fill:#1f77b4;stroke:#1f77b4"
             id="use67767" /><use
             xlink:href="#ma9bfa148f2"
             x="322.25455"
             y="87.55349"
             style="fill:#1f77b4;stroke:#1f77b4"
             id="use67769" /><use
             xlink:href="#ma9bfa148f2"
             x="325.63635"
             y="83.690208"
             style="fill:#1f77b4;stroke:#1f77b4"
             id="use67771" /><use
             xlink:href="#ma9bfa148f2"
             x="329.01819"
             y="79.230423"
             style="fill:#1f77b4;stroke:#1f77b4"
             id="use67773" /><use
             xlink:href="#ma9bfa148f2"
             x="332.39999"
             y="77.160667"
             style="fill:#1f77b4;stroke:#1f77b4"
             id="use67775" /><use
             xlink:href="#ma9bfa148f2"
             x="335.78183"
             y="76.035706"
             style="fill:#1f77b4;stroke:#1f77b4"
             id="use67777" /><use
             xlink:href="#ma9bfa148f2"
             x="339.16364"
             y="77.432892"
             style="fill:#1f77b4;stroke:#1f77b4"
             id="use67779" /><use
             xlink:href="#ma9bfa148f2"
             x="342.54544"
             y="77.520973"
             style="fill:#1f77b4;stroke:#1f77b4"
             id="use67781" /><use
             xlink:href="#ma9bfa148f2"
             x="345.92728"
             y="74.338264"
             style="fill:#1f77b4;stroke:#1f77b4"
             id="use67783" /><use
             xlink:href="#ma9bfa148f2"
             x="349.30908"
             y="76.542137"
             style="fill:#1f77b4;stroke:#1f77b4"
             id="use67785" /><use
             xlink:href="#ma9bfa148f2"
             x="352.69092"
             y="74.41433"
             style="fill:#1f77b4;stroke:#1f77b4"
             id="use67787" /><use
             xlink:href="#ma9bfa148f2"
             x="356.07272"
             y="73.45752"
             style="fill:#1f77b4;stroke:#1f77b4"
             id="use67789" /><use
             xlink:href="#ma9bfa148f2"
             x="359.45456"
             y="72.250496"
             style="fill:#1f77b4;stroke:#1f77b4"
             id="use67791" /><use
             xlink:href="#ma9bfa148f2"
             x="362.83636"
             y="73.007133"
             style="fill:#1f77b4;stroke:#1f77b4"
             id="use67793" /><use
             xlink:href="#ma9bfa148f2"
             x="366.21817"
             y="72.748917"
             style="fill:#1f77b4;stroke:#1f77b4"
             id="use67795" /><use
             xlink:href="#ma9bfa148f2"
             x="369.60001"
             y="71.429794"
             style="fill:#1f77b4;stroke:#1f77b4"
             id="use67797" /><use
             xlink:href="#ma9bfa148f2"
             x="372.98181"
             y="71.573921"
             style="fill:#1f77b4;stroke:#1f77b4"
             id="use67799" /><use
             xlink:href="#ma9bfa148f2"
             x="376.36365"
             y="71.663994"
             style="fill:#1f77b4;stroke:#1f77b4"
             id="use67801" /><use
             xlink:href="#ma9bfa148f2"
             x="379.74545"
             y="68.501312"
             style="fill:#1f77b4;stroke:#1f77b4"
             id="use67803" /><use
             xlink:href="#ma9bfa148f2"
             x="383.12726"
             y="68.441261"
             style="fill:#1f77b4;stroke:#1f77b4"
             id="use67805" /><use
             xlink:href="#ma9bfa148f2"
             x="386.50909"
             y="71.20961"
             style="fill:#1f77b4;stroke:#1f77b4"
             id="use67807" /><use
             xlink:href="#ma9bfa148f2"
             x="389.8909"
             y="71.065491"
             style="fill:#1f77b4;stroke:#1f77b4"
             id="use67809" /><use
             xlink:href="#ma9bfa148f2"
             x="393.27274"
             y="73.495552"
             style="fill:#1f77b4;stroke:#1f77b4"
             id="use67811" /><use
             xlink:href="#ma9bfa148f2"
             x="396.65454"
             y="71.680008"
             style="fill:#1f77b4;stroke:#1f77b4"
             id="use67813" /><use
             xlink:href="#ma9bfa148f2"
             x="400.03638"
             y="70.482994"
             style="fill:#1f77b4;stroke:#1f77b4"
             id="use67815" /><use
             xlink:href="#ma9bfa148f2"
             x="403.41818"
             y="72.606796"
             style="fill:#1f77b4;stroke:#1f77b4"
             id="use67817" /><use
             xlink:href="#ma9bfa148f2"
             x="406.79999"
             y="74.952789"
             style="fill:#1f77b4;stroke:#1f77b4"
             id="use67819" /><use
             xlink:href="#ma9bfa148f2"
             x="410.18182"
             y="72.728897"
             style="fill:#1f77b4;stroke:#1f77b4"
             id="use67821" /><use
             xlink:href="#ma9bfa148f2"
             x="413.56363"
             y="74.140099"
             style="fill:#1f77b4;stroke:#1f77b4"
             id="use67823" /><use
             xlink:href="#ma9bfa148f2"
             x="416.94547"
             y="75.054878"
             style="fill:#1f77b4;stroke:#1f77b4"
             id="use67825" /><use
             xlink:href="#ma9bfa148f2"
             x="420.32727"
             y="78.073441"
             style="fill:#1f77b4;stroke:#1f77b4"
             id="use67827" /><use
             xlink:href="#ma9bfa148f2"
             x="423.70908"
             y="74.898743"
             style="fill:#1f77b4;stroke:#1f77b4"
             id="use67829" /><use
             xlink:href="#ma9bfa148f2"
             x="427.09091"
             y="75.595337"
             style="fill:#1f77b4;stroke:#1f77b4"
             id="use67831" /><use
             xlink:href="#ma9bfa148f2"
             x="430.47272"
             y="71.511864"
             style="fill:#1f77b4;stroke:#1f77b4"
             id="use67833" /><use
             xlink:href="#ma9bfa148f2"
             x="433.85455"
             y="76.315948"
             style="fill:#1f77b4;stroke:#1f77b4"
             id="use67835" /><use
             xlink:href="#ma9bfa148f2"
             x="437.23636"
             y="67.646584"
             style="fill:#1f77b4;stroke:#1f77b4"
             id="use67837" /><use
             xlink:href="#ma9bfa148f2"
             x="440.61819"
             y="71.161568"
             style="fill:#1f77b4;stroke:#1f77b4"
             id="use67839" /><use
             xlink:href="#ma9bfa148f2"
             x="444"
             y="67.312302"
             style="fill:#1f77b4;stroke:#1f77b4"
             id="use67841" /><use
             xlink:href="#ma9bfa148f2"
             x="447.38181"
             y="70.82328"
             style="fill:#1f77b4;stroke:#1f77b4"
             id="use67843" /><use
             xlink:href="#ma9bfa148f2"
             x="450.76364"
             y="70.777245"
             style="fill:#1f77b4;stroke:#1f77b4"
             id="use67845" /><use
             xlink:href="#ma9bfa148f2"
             x="454.14545"
             y="72.152412"
             style="fill:#1f77b4;stroke:#1f77b4"
             id="use67847" /><use
             xlink:href="#ma9bfa148f2"
             x="457.52728"
             y="70.264809"
             style="fill:#1f77b4;stroke:#1f77b4"
             id="use67849" /><use
             xlink:href="#ma9bfa148f2"
             x="460.90909"
             y="70.565063"
             style="fill:#1f77b4;stroke:#1f77b4"
             id="use67851" /><use
             xlink:href="#ma9bfa148f2"
             x="464.29092"
             y="71.051476"
             style="fill:#1f77b4;stroke:#1f77b4"
             id="use67853" /><use
             xlink:href="#ma9bfa148f2"
             x="467.67273"
             y="69.097816"
             style="fill:#1f77b4;stroke:#1f77b4"
             id="use67855" /><use
             xlink:href="#ma9bfa148f2"
             x="471.05453"
             y="70.563057"
             style="fill:#1f77b4;stroke:#1f77b4"
             id="use67857" /><use
             xlink:href="#ma9bfa148f2"
             x="474.43637"
             y="66.959999"
             style="fill:#1f77b4;stroke:#1f77b4"
             id="use67859" /><use
             xlink:href="#ma9bfa148f2"
             x="477.81818"
             y="73.869865"
             style="fill:#1f77b4;stroke:#1f77b4"
             id="use67861" /><use
             xlink:href="#ma9bfa148f2"
             x="481.20001"
             y="71.113525"
             style="fill:#1f77b4;stroke:#1f77b4"
             id="use67863" /><use
             xlink:href="#ma9bfa148f2"
             x="484.58182"
             y="71.553902"
             style="fill:#1f77b4;stroke:#1f77b4"
             id="use67865" /><use
             xlink:href="#ma9bfa148f2"
             x="487.96362"
             y="70.779243"
             style="fill:#1f77b4;stroke:#1f77b4"
             id="use67867" /><use
             xlink:href="#ma9bfa148f2"
             x="491.34546"
             y="69.101822"
             style="fill:#1f77b4;stroke:#1f77b4"
             id="use67869" /><use
             xlink:href="#ma9bfa148f2"
             x="494.72726"
             y="70.697174"
             style="fill:#1f77b4;stroke:#1f77b4"
             id="use67871" /><use
             xlink:href="#ma9bfa148f2"
             x="498.1091"
             y="68.665451"
             style="fill:#1f77b4;stroke:#1f77b4"
             id="use67873" /></g></g><g
         id="matplotlib.axis_1"><g
           id="xtick_1"><g
             id="line2d_1"><defs
               id="defs67879"><path
                 id="path68558"
                 d="M 0,0 V 3.5"
                 style="stroke:#000000;stroke-width:0.8" /></defs><g
               id="g67883"><use
                 xlink:href="#mf53c2a5a58"
                 x="92.290909"
                 y="384.48001"
                 style="stroke:#000000;stroke-width:0.8"
                 id="use67881" /></g></g><g
             id="text_1"><!-- 2.75 --><g
               transform="matrix(0.1,0,0,-0.1,81.158097,399.07844)"
               id="g67900"><defs
                 id="defs67890"><path
                   id="path68564"
                   d="M 1228,531 H 3431 V 0 H 469 v 531 q 359,372 979,998 621,627 780,809 303,340 423,576 121,236 121,464 0,372 -261,606 -261,235 -680,235 -297,0 -627,-103 -329,-103 -704,-313 v 638 q 381,153 712,231 332,78 607,78 725,0 1156,-363 431,-362 431,-968 0,-288 -108,-546 -107,-257 -392,-607 -78,-91 -497,-524 Q 1991,1309 1228,531 Z"
                   transform="scale(0.015625)" /><path
                   id="path68566"
                   d="m 684,794 h 660 V 0 H 684 Z"
                   transform="scale(0.015625)" /><path
                   id="path68568"
                   d="M 525,4666 H 3525 V 4397 L 1831,0 H 1172 L 2766,4134 H 525 Z"
                   transform="scale(0.015625)" /><path
                   id="path68570"
                   d="M 691,4666 H 3169 V 4134 H 1269 V 2991 q 137,47 274,70 138,23 276,23 781,0 1237,-428 457,-428 457,-1159 Q 3513,744 3044,326 2575,-91 1722,-91 1428,-91 1123,-41 819,9 494,109 v 635 q 281,-153 581,-228 300,-75 634,-75 541,0 856,284 316,284 316,772 0,487 -316,771 -315,285 -856,285 -253,0 -505,-56 -251,-56 -513,-175 z"
                   transform="scale(0.015625)" /></defs><use
                 xlink:href="#DejaVuSans-32"
                 id="use67892" /><use
                 xlink:href="#DejaVuSans-2e"
                 x="63.623047"
                 id="use67894" /><use
                 xlink:href="#DejaVuSans-37"
                 x="95.410156"
                 id="use67896" /><use
                 xlink:href="#DejaVuSans-35"
                 x="159.0332"
                 id="use67898" /></g></g></g><g
           id="xtick_2"><g
             id="line2d_2"><g
               id="g67906"><use
                 xlink:href="#mf53c2a5a58"
                 x="176.83636"
                 y="384.48001"
                 style="stroke:#000000;stroke-width:0.8"
                 id="use67904" /></g></g><g
             id="text_2"><!-- 2.80 --><g
               transform="matrix(0.1,0,0,-0.1,165.70355,399.07844)"
               id="g67921"><defs
                 id="defs67911"><path
                   id="path68583"
                   d="m 2034,2216 q -450,0 -708,-241 -257,-241 -257,-662 0,-422 257,-663 258,-241 708,-241 450,0 709,242 260,243 260,662 0,421 -258,662 -257,241 -711,241 z m -631,268 q -406,100 -633,378 -226,279 -226,679 0,559 398,884 399,325 1092,325 697,0 1094,-325 397,-325 397,-884 0,-400 -227,-679 -226,-278 -629,-378 456,-106 710,-416 255,-309 255,-755 Q 3634,634 3220,271 2806,-91 2034,-91 1263,-91 848,271 434,634 434,1313 q 0,446 256,755 257,310 713,416 z m -231,997 q 0,-362 226,-565 227,-203 636,-203 407,0 636,203 230,203 230,565 0,363 -230,566 -229,203 -636,203 -409,0 -636,-203 -226,-203 -226,-566 z"
                   transform="scale(0.015625)" /><path
                   id="path68585"
                   d="m 2034,4250 q -487,0 -733,-480 -245,-479 -245,-1442 0,-959 245,-1439 246,-480 733,-480 491,0 736,480 246,480 246,1439 0,963 -246,1442 -245,480 -736,480 z m 0,500 q 785,0 1199,-621 414,-620 414,-1801 0,-1178 -414,-1799 -414,-620 -1199,-620 -784,0 -1198,620 -414,621 -414,1799 0,1181 414,1801 414,621 1198,621 z"
                   transform="scale(0.015625)" /></defs><use
                 xlink:href="#DejaVuSans-32"
                 id="use67913" /><use
                 xlink:href="#DejaVuSans-2e"
                 x="63.623047"
                 id="use67915" /><use
                 xlink:href="#DejaVuSans-38"
                 x="95.410156"
                 id="use67917" /><use
                 xlink:href="#DejaVuSans-30"
                 x="159.0332"
                 id="use67919" /></g></g></g><g
           id="xtick_3"><g
             id="line2d_3"><g
               id="g67927"><use
                 xlink:href="#mf53c2a5a58"
                 x="261.38181"
                 y="384.48001"
                 style="stroke:#000000;stroke-width:0.8"
                 id="use67925" /></g></g><g
             id="text_3"><!-- 2.85 --><g
               transform="matrix(0.1,0,0,-0.1,250.24901,399.07844)"
               id="g67938"><use
                 xlink:href="#DejaVuSans-32"
                 id="use67930" /><use
                 xlink:href="#DejaVuSans-2e"
                 x="63.623047"
                 id="use67932" /><use
                 xlink:href="#DejaVuSans-38"
                 x="95.410156"
                 id="use67934" /><use
                 xlink:href="#DejaVuSans-35"
                 x="159.0332"
                 id="use67936" /></g></g></g><g
           id="xtick_4"><g
             id="line2d_4"><g
               id="g67944"><use
                 xlink:href="#mf53c2a5a58"
                 x="345.92728"
                 y="384.48001"
                 style="stroke:#000000;stroke-width:0.8"
                 id="use67942" /></g></g><g
             id="text_4"><!-- 2.90 --><g
               transform="matrix(0.1,0,0,-0.1,334.79446,399.07844)"
               id="g67958"><defs
                 id="defs67948"><path
                   id="path68608"
                   d="m 703,97 v 575 q 238,-113 481,-172 244,-59 479,-59 625,0 954,420 330,420 377,1277 -181,-269 -460,-413 -278,-144 -615,-144 -700,0 -1108,423 -408,424 -408,1159 0,718 425,1152 425,435 1131,435 810,0 1236,-621 427,-620 427,-1801 Q 3622,1225 3098,567 2575,-91 1691,-91 1453,-91 1209,-44 966,3 703,97 Z m 1256,1978 q 425,0 673,290 249,291 249,798 0,503 -249,795 -248,292 -673,292 -425,0 -673,-292 -248,-292 -248,-795 0,-507 248,-798 248,-290 673,-290 z"
                   transform="scale(0.015625)" /></defs><use
                 xlink:href="#DejaVuSans-32"
                 id="use67950" /><use
                 xlink:href="#DejaVuSans-2e"
                 x="63.623047"
                 id="use67952" /><use
                 xlink:href="#DejaVuSans-39"
                 x="95.410156"
                 id="use67954" /><use
                 xlink:href="#DejaVuSans-30"
                 x="159.0332"
                 id="use67956" /></g></g></g><g
           id="xtick_5"><g
             id="line2d_5"><g
               id="g67964"><use
                 xlink:href="#mf53c2a5a58"
                 x="430.47272"
                 y="384.48001"
                 style="stroke:#000000;stroke-width:0.8"
                 id="use67962" /></g></g><g
             id="text_5"><!-- 2.95 --><g
               transform="matrix(0.1,0,0,-0.1,419.33992,399.07844)"
               id="g67975"><use
                 xlink:href="#DejaVuSans-32"
                 id="use67967" /><use
                 xlink:href="#DejaVuSans-2e"
                 x="63.623047"
                 id="use67969" /><use
                 xlink:href="#DejaVuSans-39"
                 x="95.410156"
                 id="use67971" /><use
                 xlink:href="#DejaVuSans-35"
                 x="159.0332"
                 id="use67973" /></g></g></g><g
           id="xtick_6"><g
             id="line2d_6"><g
               id="g67981"><use
                 xlink:href="#mf53c2a5a58"
                 x="515.01819"
                 y="384.48001"
                 style="stroke:#000000;stroke-width:0.8"
                 id="use67979" /></g></g><g
             id="text_6"><!-- 3.00 --><g
               transform="matrix(0.1,0,0,-0.1,503.88537,399.07844)"
               id="g67995"><defs
                 id="defs67985"><path
                   id="path68631"
                   d="m 2597,2516 q 453,-97 707,-404 255,-306 255,-756 0,-690 -475,-1069 -475,-378 -1350,-378 -293,0 -604,58 -311,58 -642,174 v 609 q 262,-153 574,-231 313,-78 654,-78 593,0 904,234 311,234 311,681 0,413 -289,645 -289,233 -804,233 h -544 v 519 h 569 q 465,0 712,186 247,186 247,536 0,359 -255,551 -254,193 -729,193 -260,0 -557,-57 -297,-56 -653,-174 v 562 q 360,100 674,150 314,50 592,50 719,0 1137,-327 419,-326 419,-882 0,-388 -222,-655 -222,-267 -631,-370 z"
                   transform="scale(0.015625)" /></defs><use
                 xlink:href="#DejaVuSans-33"
                 id="use67987" /><use
                 xlink:href="#DejaVuSans-2e"
                 x="63.623047"
                 id="use67989" /><use
                 xlink:href="#DejaVuSans-30"
                 x="95.410156"
                 id="use67991" /><use
                 xlink:href="#DejaVuSans-30"
                 x="159.0332"
                 id="use67993" /></g></g></g><g
           id="text_7"><!-- [GHz] --><g
             transform="matrix(0.1,0,0,-0.1,281.03984,412.75656)"
             id="g68016"><defs
               id="defs68004"><path
                 id="path68641"
                 d="M 550,4863 H 1875 V 4416 H 1125 V -397 h 750 V -844 H 550 Z"
                 transform="scale(0.015625)" /><path
                 id="path68643"
                 d="M 3809,666 V 1919 H 2778 v 519 H 4434 V 434 Q 4069,175 3628,42 3188,-91 2688,-91 1594,-91 976,548 359,1188 359,2328 q 0,1144 617,1783 618,639 1712,639 456,0 867,-113 411,-112 758,-331 v -672 q -350,297 -744,447 -394,150 -828,150 -857,0 -1287,-478 -429,-478 -429,-1425 0,-944 429,-1422 430,-478 1287,-478 334,0 596,58 263,58 472,180 z"
                 transform="scale(0.015625)" /><path
                 id="path68645"
                 d="m 628,4666 h 631 V 2753 h 2294 v 1913 h 631 V 0 H 3553 V 2222 H 1259 V 0 H 628 Z"
                 transform="scale(0.015625)" /><path
                 id="path68647"
                 d="M 353,3500 H 3084 V 2975 L 922,459 H 3084 V 0 H 275 V 525 L 2438,3041 H 353 Z"
                 transform="scale(0.015625)" /><path
                 id="path68649"
                 d="M 1947,4863 V -844 H 622 v 447 h 747 V 4416 H 622 v 447 z"
                 transform="scale(0.015625)" /></defs><use
               xlink:href="#DejaVuSans-5b"
               id="use68006" /><use
               xlink:href="#DejaVuSans-47"
               x="39.013672"
               id="use68008" /><use
               xlink:href="#DejaVuSans-48"
               x="116.50391"
               id="use68010" /><use
               xlink:href="#DejaVuSans-7a"
               x="191.69922"
               id="use68012" /><use
               xlink:href="#DejaVuSans-5d"
               x="244.18945"
               id="use68014" /></g></g></g><g
         id="matplotlib.axis_2"><g
           id="ytick_1"><g
             id="line2d_7"><defs
               id="defs68021"><path
                 id="path68660"
                 d="M 0,0 H -3.5"
                 style="stroke:#000000;stroke-width:0.8" /></defs><g
               id="g68025"><use
                 xlink:href="#md77531d39e"
                 x="72"
                 y="381.79645"
                 style="stroke:#000000;stroke-width:0.8"
                 id="use68023" /></g></g><g
             id="text_8"><!-- 0.9825 --><g
               transform="matrix(0.1,0,0,-0.1,30.009375,385.59566)"
               id="g68040"><use
                 xlink:href="#DejaVuSans-30"
                 id="use68028" /><use
                 xlink:href="#DejaVuSans-2e"
                 x="63.623047"
                 id="use68030" /><use
                 xlink:href="#DejaVuSans-39"
                 x="95.410156"
                 id="use68032" /><use
                 xlink:href="#DejaVuSans-38"
                 x="159.0332"
                 id="use68034" /><use
                 xlink:href="#DejaVuSans-32"
                 x="222.65625"
                 id="use68036" /><use
                 xlink:href="#DejaVuSans-35"
                 x="286.2793"
                 id="use68038" /></g></g></g><g
           id="ytick_2"><g
             id="line2d_8"><g
               id="g68046"><use
                 xlink:href="#md77531d39e"
                 x="72"
                 y="337.44907"
                 style="stroke:#000000;stroke-width:0.8"
                 id="use68044" /></g></g><g
             id="text_9"><!-- 0.9850 --><g
               transform="matrix(0.1,0,0,-0.1,30.009375,341.2483)"
               id="g68061"><use
                 xlink:href="#DejaVuSans-30"
                 id="use68049" /><use
                 xlink:href="#DejaVuSans-2e"
                 x="63.623047"
                 id="use68051" /><use
                 xlink:href="#DejaVuSans-39"
                 x="95.410156"
                 id="use68053" /><use
                 xlink:href="#DejaVuSans-38"
                 x="159.0332"
                 id="use68055" /><use
                 xlink:href="#DejaVuSans-35"
                 x="222.65625"
                 id="use68057" /><use
                 xlink:href="#DejaVuSans-30"
                 x="286.2793"
                 id="use68059" /></g></g></g><g
           id="ytick_3"><g
             id="line2d_9"><g
               id="g68067"><use
                 xlink:href="#md77531d39e"
                 x="72"
                 y="293.10172"
                 style="stroke:#000000;stroke-width:0.8"
                 id="use68065" /></g></g><g
             id="text_10"><!-- 0.9875 --><g
               transform="matrix(0.1,0,0,-0.1,30.009375,296.90094)"
               id="g68082"><use
                 xlink:href="#DejaVuSans-30"
                 id="use68070" /><use
                 xlink:href="#DejaVuSans-2e"
                 x="63.623047"
                 id="use68072" /><use
                 xlink:href="#DejaVuSans-39"
                 x="95.410156"
                 id="use68074" /><use
                 xlink:href="#DejaVuSans-38"
                 x="159.0332"
                 id="use68076" /><use
                 xlink:href="#DejaVuSans-37"
                 x="222.65625"
                 id="use68078" /><use
                 xlink:href="#DejaVuSans-35"
                 x="286.2793"
                 id="use68080" /></g></g></g><g
           id="ytick_4"><g
             id="line2d_10"><g
               id="g68088"><use
                 xlink:href="#md77531d39e"
                 x="72"
                 y="248.75435"
                 style="stroke:#000000;stroke-width:0.8"
                 id="use68086" /></g></g><g
             id="text_11"><!-- 0.9900 --><g
               transform="matrix(0.1,0,0,-0.1,30.009375,252.55357)"
               id="g68103"><use
                 xlink:href="#DejaVuSans-30"
                 id="use68091" /><use
                 xlink:href="#DejaVuSans-2e"
                 x="63.623047"
                 id="use68093" /><use
                 xlink:href="#DejaVuSans-39"
                 x="95.410156"
                 id="use68095" /><use
                 xlink:href="#DejaVuSans-39"
                 x="159.0332"
                 id="use68097" /><use
                 xlink:href="#DejaVuSans-30"
                 x="222.65625"
                 id="use68099" /><use
                 xlink:href="#DejaVuSans-30"
                 x="286.2793"
                 id="use68101" /></g></g></g><g
           id="ytick_5"><g
             id="line2d_11"><g
               id="g68109"><use
                 xlink:href="#md77531d39e"
                 x="72"
                 y="204.407"
                 style="stroke:#000000;stroke-width:0.8"
                 id="use68107" /></g></g><g
             id="text_12"><!-- 0.9925 --><g
               transform="matrix(0.1,0,0,-0.1,30.009375,208.20621)"
               id="g68124"><use
                 xlink:href="#DejaVuSans-30"
                 id="use68112" /><use
                 xlink:href="#DejaVuSans-2e"
                 x="63.623047"
                 id="use68114" /><use
                 xlink:href="#DejaVuSans-39"
                 x="95.410156"
                 id="use68116" /><use
                 xlink:href="#DejaVuSans-39"
                 x="159.0332"
                 id="use68118" /><use
                 xlink:href="#DejaVuSans-32"
                 x="222.65625"
                 id="use68120" /><use
                 xlink:href="#DejaVuSans-35"
                 x="286.2793"
                 id="use68122" /></g></g></g><g
           id="ytick_6"><g
             id="line2d_12"><g
               id="g68130"><use
                 xlink:href="#md77531d39e"
                 x="72"
                 y="160.05963"
                 style="stroke:#000000;stroke-width:0.8"
                 id="use68128" /></g></g><g
             id="text_13"><!-- 0.9950 --><g
               transform="matrix(0.1,0,0,-0.1,30.009375,163.85885)"
               id="g68145"><use
                 xlink:href="#DejaVuSans-30"
                 id="use68133" /><use
                 xlink:href="#DejaVuSans-2e"
                 x="63.623047"
                 id="use68135" /><use
                 xlink:href="#DejaVuSans-39"
                 x="95.410156"
                 id="use68137" /><use
                 xlink:href="#DejaVuSans-39"
                 x="159.0332"
                 id="use68139" /><use
                 xlink:href="#DejaVuSans-35"
                 x="222.65625"
                 id="use68141" /><use
                 xlink:href="#DejaVuSans-30"
                 x="286.2793"
                 id="use68143" /></g></g></g><g
           id="ytick_7-6"><g
             id="line2d_13"><g
               id="g68151"><use
                 xlink:href="#md77531d39e"
                 x="72"
                 y="115.71227"
                 style="stroke:#000000;stroke-width:0.8"
                 id="use68149" /></g></g><g
             id="text_14"><!-- 0.9975 --><g
               transform="matrix(0.1,0,0,-0.1,30.009375,119.51149)"
               id="g68166"><use
                 xlink:href="#DejaVuSans-30"
                 id="use68154" /><use
                 xlink:href="#DejaVuSans-2e"
                 x="63.623047"
                 id="use68156" /><use
                 xlink:href="#DejaVuSans-39"
                 x="95.410156"
                 id="use68158" /><use
                 xlink:href="#DejaVuSans-39"
                 x="159.0332"
                 id="use68160" /><use
                 xlink:href="#DejaVuSans-37"
                 x="222.65625"
                 id="use68162" /><use
                 xlink:href="#DejaVuSans-35"
                 x="286.2793"
                 id="use68164" /></g></g></g><g
           id="ytick_8-7"><g
             id="line2d_14"><g
               id="g68172"><use
                 xlink:href="#md77531d39e"
                 x="72"
                 y="71.364906"
                 style="stroke:#000000;stroke-width:0.8"
                 id="use68170" /></g></g><g
             id="text_15"><!-- 1.0000 --><g
               transform="matrix(0.1,0,0,-0.1,30.009375,75.164127)"
               id="g68190"><defs
                 id="defs68176"><path
                   id="path68750"
                   d="M 794,531 H 1825 V 4091 L 703,3866 v 575 l 1116,225 h 631 V 531 H 3481 V 0 H 794 Z"
                   transform="scale(0.015625)" /></defs><use
                 xlink:href="#DejaVuSans-31"
                 id="use68178" /><use
                 xlink:href="#DejaVuSans-2e"
                 x="63.623047"
                 id="use68180" /><use
                 xlink:href="#DejaVuSans-30"
                 x="95.410156"
                 id="use68182" /><use
                 xlink:href="#DejaVuSans-30"
                 x="159.0332"
                 id="use68184" /><use
                 xlink:href="#DejaVuSans-30"
                 x="222.65625"
                 id="use68186" /><use
                 xlink:href="#DejaVuSans-30"
                 x="286.2793"
                 id="use68188" /></g></g></g><g
           id="text_16-5"><!-- [Normalized Counts / s] --><g
             transform="matrix(0,-0.1,-0.1,0,23.929687,276.92641)"
             id="g68258"><defs
               id="defs68210"><path
                 id="path68762"
                 d="m 628,4666 h 850 L 3547,763 v 3903 h 612 V 0 H 3309 L 1241,3903 V 0 H 628 Z"
                 transform="scale(0.015625)" /><path
                 id="path68764"
                 d="m 1959,3097 q -462,0 -731,-361 -269,-361 -269,-989 0,-628 267,-989 268,-361 733,-361 460,0 728,362 269,363 269,988 0,622 -269,986 -268,364 -728,364 z m 0,487 q 750,0 1178,-488 429,-487 429,-1349 Q 3566,888 3137,398 2709,-91 1959,-91 1206,-91 779,398 353,888 353,1747 q 0,862 426,1349 427,488 1180,488 z"
                 transform="scale(0.015625)" /><path
                 id="path68766"
                 d="m 2631,2963 q -97,56 -211,82 -114,27 -251,27 -488,0 -749,-317 -261,-317 -261,-911 V 0 H 581 v 3500 h 578 v -544 q 182,319 472,473 291,155 707,155 59,0 131,-8 72,-7 159,-23 z"
                 transform="scale(0.015625)" /><path
                 id="path68768"
                 d="m 3328,2828 q 216,388 516,572 300,184 706,184 547,0 844,-383 297,-382 297,-1088 V 0 h -578 v 2094 q 0,503 -179,746 -178,244 -543,244 -447,0 -707,-297 -259,-296 -259,-809 V 0 h -578 v 2094 q 0,506 -178,748 -178,242 -550,242 -441,0 -701,-298 -259,-298 -259,-808 V 0 H 581 v 3500 h 578 v -544 q 197,322 472,475 275,153 653,153 382,0 649,-194 267,-193 395,-562 z"
                 transform="scale(0.015625)" /><path
                 id="path68770"
                 d="m 2194,1759 q -697,0 -966,-159 -269,-159 -269,-544 0,-306 202,-486 202,-179 548,-179 479,0 768,339 289,339 289,901 v 128 z m 1147,238 V 0 H 2766 V 531 Q 2569,213 2275,61 1981,-91 1556,-91 q -537,0 -855,302 -317,302 -317,808 0,590 395,890 396,300 1180,300 h 807 v 57 q 0,397 -261,614 -261,217 -733,217 -300,0 -585,-72 -284,-72 -546,-216 v 532 q 315,122 612,182 297,61 578,61 760,0 1135,-394 375,-393 375,-1193 z"
                 transform="scale(0.015625)" /><path
                 id="path68772"
                 d="m 603,4863 h 575 V 0 H 603 Z"
                 transform="scale(0.015625)" /><path
                 id="path68774"
                 d="m 603,3500 h 575 V 0 H 603 Z m 0,1363 h 575 V 4134 H 603 Z"
                 transform="scale(0.015625)" /><path
                 id="path68776"
                 d="M 3597,1894 V 1613 H 953 q 38,-594 358,-905 320,-311 892,-311 331,0 642,81 311,81 618,244 V 178 Q 3153,47 2828,-22 2503,-91 2169,-91 1331,-91 842,396 353,884 353,1716 q 0,859 464,1363 464,505 1252,505 706,0 1117,-455 411,-454 411,-1235 z m -575,169 q -6,471 -264,752 -258,282 -683,282 -481,0 -770,-272 -289,-272 -333,-766 z"
                 transform="scale(0.015625)" /><path
                 id="path68778"
                 d="m 2906,2969 v 1894 h 575 V 0 H 2906 V 525 Q 2725,213 2448,61 2172,-91 1784,-91 1150,-91 751,415 353,922 353,1747 q 0,825 398,1331 399,506 1033,506 388,0 664,-152 277,-151 458,-463 z M 947,1747 q 0,-634 261,-995 261,-361 717,-361 456,0 718,361 263,361 263,995 0,634 -263,995 -262,361 -718,361 -456,0 -717,-361 -261,-361 -261,-995 z"
                 transform="scale(0.015625)" /><path
                 id="path68780"
                 transform="scale(0.015625)"
                 d="" /><path
                 id="path68782"
                 d="m 4122,4306 v -665 q -319,297 -680,443 -361,147 -767,147 -800,0 -1225,-489 -425,-489 -425,-1414 0,-922 425,-1411 425,-489 1225,-489 406,0 767,147 361,147 680,444 V 359 Q 3791,134 3420,21 3050,-91 2638,-91 1578,-91 968,557 359,1206 359,2328 q 0,1125 609,1773 610,649 1670,649 418,0 788,-111 371,-111 696,-333 z"
                 transform="scale(0.015625)" /><path
                 id="path68784"
                 d="m 544,1381 v 2119 h 575 V 1403 q 0,-497 193,-746 194,-248 582,-248 465,0 735,297 271,297 271,810 v 1984 h 575 V 0 H 2900 V 538 Q 2691,219 2414,64 2138,-91 1772,-91 1169,-91 856,284 544,659 544,1381 Z m 1447,2203 z"
                 transform="scale(0.015625)" /><path
                 id="path68786"
                 d="M 3513,2113 V 0 h -575 v 2094 q 0,497 -194,743 -194,247 -581,247 -466,0 -735,-297 -269,-296 -269,-809 V 0 H 581 v 3500 h 578 v -544 q 207,316 486,472 280,156 646,156 603,0 912,-373 310,-373 310,-1098 z"
                 transform="scale(0.015625)" /><path
                 id="path68788"
                 d="M 1172,4494 V 3500 H 2356 V 3053 H 1172 V 1153 q 0,-428 117,-550 117,-122 477,-122 h 590 V 0 H 1766 Q 1100,0 847,248 594,497 594,1153 V 3053 H 172 v 447 h 422 v 994 z"
                 transform="scale(0.015625)" /><path
                 id="path68790"
                 d="m 2834,3397 v -544 q -243,125 -506,187 -262,63 -544,63 -428,0 -642,-131 -214,-131 -214,-394 0,-200 153,-314 153,-114 616,-217 l 197,-44 q 612,-131 870,-370 258,-239 258,-667 0,-488 -386,-773 Q 2250,-91 1575,-91 1294,-91 989,-36 684,19 347,128 v 594 q 319,-166 628,-249 309,-82 613,-82 406,0 624,139 219,139 219,392 0,234 -158,359 -157,125 -692,241 l -200,47 q -534,112 -772,345 -237,233 -237,639 0,494 350,762 350,269 994,269 318,0 599,-47 282,-46 519,-140 z"
                 transform="scale(0.015625)" /><path
                 id="path68792"
                 d="m 1625,4666 h 531 L 531,-594 H 0 Z"
                 transform="scale(0.015625)" /></defs><use
               xlink:href="#DejaVuSans-5b"
               id="use68212" /><use
               xlink:href="#DejaVuSans-4e"
               x="39.013672"
               id="use68214" /><use
               xlink:href="#DejaVuSans-6f"
               x="113.81836"
               id="use68216" /><use
               xlink:href="#DejaVuSans-72"
               x="175"
               id="use68218" /><use
               xlink:href="#DejaVuSans-6d"
               x="214.36328"
               id="use68220" /><use
               xlink:href="#DejaVuSans-61"
               x="311.77539"
               id="use68222" /><use
               xlink:href="#DejaVuSans-6c"
               x="373.05469"
               id="use68224" /><use
               xlink:href="#DejaVuSans-69"
               x="400.83789"
               id="use68226" /><use
               xlink:href="#DejaVuSans-7a"
               x="428.62109"
               id="use68228" /><use
               xlink:href="#DejaVuSans-65"
               x="481.11133"
               id="use68230" /><use
               xlink:href="#DejaVuSans-64"
               x="542.63477"
               id="use68232" /><use
               xlink:href="#DejaVuSans-20"
               x="606.11133"
               id="use68234" /><use
               xlink:href="#DejaVuSans-43"
               x="637.89844"
               id="use68236" /><use
               xlink:href="#DejaVuSans-6f"
               x="707.72266"
               id="use68238" /><use
               xlink:href="#DejaVuSans-75"
               x="768.9043"
               id="use68240" /><use
               xlink:href="#DejaVuSans-6e"
               x="832.2832"
               id="use68242" /><use
               xlink:href="#DejaVuSans-74"
               x="895.66211"
               id="use68244" /><use
               xlink:href="#DejaVuSans-73"
               x="934.87109"
               id="use68246" /><use
               xlink:href="#DejaVuSans-20"
               x="986.9707"
               id="use68248" /><use
               xlink:href="#DejaVuSans-2f"
               x="1018.7578"
               id="use68250" /><use
               xlink:href="#DejaVuSans-20"
               x="1052.4492"
               id="use68252" /><use
               xlink:href="#DejaVuSans-73"
               x="1084.2363"
               id="use68254" /><use
               xlink:href="#DejaVuSans-5d"
               x="1136.3359"
               id="use68256" /></g></g></g><g
         id="line2d_15"><path
           d="M 288.43636,384.48 V 51.84"
           clip-path="url(#pcb17cb4aad)"
           style="fill:none;stroke:#000000;stroke-width:1.5;stroke-dasharray:1.5, 2.475;stroke-dashoffset:0"
           id="path68262" /></g><g
         id="line2d_16"><path
           d="M 301.96364,384.48 V 51.84"
           clip-path="url(#pcb17cb4aad)"
           style="fill:none;stroke:#000000;stroke-width:1.5;stroke-dasharray:1.5, 2.475;stroke-dashoffset:0"
           id="path68265" /></g><g
         id="line2d_17"><path
           d="m 92.290909,71.873941 3.381818,0.01747 3.381818,0.01839 3.381815,0.01937 3.38182,0.02042 3.38182,0.02155 3.38182,0.02276 3.38182,0.02407 3.38182,0.02548 3.38181,0.02701 3.38182,0.02865 3.38182,0.03044 3.38182,0.03237 3.38181,0.03448 3.38182,0.03677 3.38182,0.03927 3.38182,0.042 3.38182,0.04499 3.38182,0.04827 3.38181,0.05187 3.38182,0.05586 3.38182,0.06025 3.38182,0.06512 3.38182,0.07054 3.38181,0.07657 3.38182,0.08331 3.38182,0.09087 3.38182,0.09937 3.38182,0.108979 3.38182,0.119865 3.38181,0.132259 3.38182,0.146427 3.38182,0.162705 3.38182,0.181496 3.38182,0.203313 3.38182,0.228789 3.38181,0.258731 3.38182,0.294164 3.38182,0.33642 3.38182,0.387229 3.38182,0.448885 3.38181,0.524467 3.38182,0.618167 3.38182,0.7358 3.38182,0.885587 3.38182,1.079405 3.38181,1.334841 3.38182,1.678678 3.38182,2.153029 3.38182,2.826599 3.38182,3.816357 3.38182,5.331469 3.38182,7.767508 3.38181,11.91951 3.38182,19.47711 3.38182,34.06268 3.38182,61.63141 3.38182,93.13413 3.38181,44.31256 3.38182,-52.92988 3.38182,-33.01233 3.38182,25.1696 3.38182,36.14599 3.38182,-45.95305 3.38181,-80.44892 3.38182,-54.22782 3.38182,-30.93203 3.38182,-18.10071 3.38181,-11.25142 3.38182,-7.411091 3.38182,-5.125688 3.38182,-3.68966 3.38182,-2.744409 3.38182,-2.097378 3.38181,-1.639632 3.38182,-1.306618 3.38182,-1.058481 3.38182,-0.869735 3.38182,-0.723562 3.38181,-0.608564 3.38182,-0.516821 3.38182,-0.44272 3.38182,-0.382199 3.38182,-0.332275 3.38182,-0.290718 3.38181,-0.255838 3.38182,-0.226345 3.38182,-0.201233 3.38182,-0.179714 3.38182,-0.161168 3.38181,-0.145097 3.38182,-0.131099 3.38182,-0.118851 3.38182,-0.108087 3.38182,-0.09859 3.38182,-0.09017 3.38181,-0.08269 3.38182,-0.07601 3.38182,-0.07004 3.38182,-0.06468 3.38182,-0.05985 3.38181,-0.05549 3.38182,-0.05155 3.38182,-0.04797 3.38182,-0.04472 3.38182,-0.04175 3.38182,-0.03904 3.38182,-0.03656 3.38181,-0.03429 3.38182,-0.0322 3.38182,-0.03028 3.38182,-0.02851 3.38182,-0.02687 3.38181,-0.02536 3.38182,-0.02396 3.38182,-0.02266 3.38182,-0.02145 3.38182,-0.02032 3.38182,-0.01928 3.38181,-0.0183 3.38182,-0.01739"
           clip-path="url(#pcb17cb4aad)"
           style="fill:none;stroke:#ffa500;stroke-width:1.5;stroke-linecap:square"
           id="path68268" /></g><g
         id="patch_3"><path
           d="M 72,384.48 V 51.84"
           style="fill:none;stroke:#000000;stroke-width:0.8;stroke-linecap:square;stroke-linejoin:miter"
           id="path68271" /></g><g
         id="patch_4"><path
           d="M 518.4,384.48 V 51.84"
           style="fill:none;stroke:#000000;stroke-width:0.8;stroke-linecap:square;stroke-linejoin:miter"
           id="path68274" /></g><g
         id="patch_5"><path
           d="M 72,384.48 H 518.4"
           style="fill:none;stroke:#000000;stroke-width:0.8;stroke-linecap:square;stroke-linejoin:miter"
           id="path68277" /></g><g
         id="patch_6"><path
           d="M 72,51.84 H 518.4"
           style="fill:none;stroke:#000000;stroke-width:0.8;stroke-linecap:square;stroke-linejoin:miter"
           id="path68280" /></g><g
         id="legend_1"><g
           id="patch_7"><path
             d="m 79,379.48 h 148.9 q 2,0 2,-2 v -25.19781 q 0,-2 -2,-2 H 79 q -2,0 -2,2 V 377.48 q 0,2 2,2 z"
             style="opacity:0.8;fill:#ffffff;stroke:#cccccc;stroke-linejoin:miter"
             id="path68283" /></g><g
           id="line2d_18"><path
             d="m 81,365.18031 h 10 10"
             style="fill:none;stroke:#ffa500;stroke-width:1.5;stroke-linecap:square"
             id="path68286" /></g><g
           id="text_17"><!-- $\mid B \mid=[0.27 \pm 0.17]mT$ --><g
             transform="matrix(0.1,0,0,-0.1,109,362.08219)"
             id="g68331"><defs
               id="defs68295"><path
                 id="path68839"
                 d="m 1350,4934 h 500 v -6303 h -500 z"
                 transform="scale(0.015625)" /><path
                 id="path68841"
                 d="m 1081,4666 h 1613 q 656,0 981,-244 325,-244 325,-734 0,-450 -280,-777 -279,-327 -732,-395 387,-88 581,-335 194,-247 194,-659 Q 3763,819 3242,409 2722,0 1819,0 H 172 Z M 1234,2228 903,519 h 1016 q 572,0 881,262 309,263 309,741 0,369 -205,537 -204,169 -657,169 z m 372,1919 -275,-1406 h 941 q 503,0 786,218 283,219 283,607 0,303 -191,442 -191,139 -609,139 z"
                 transform="scale(0.015625)" /><path
                 id="path68843"
                 d="M 678,2906 H 4684 V 2381 H 678 Z m 0,-1275 H 4684 V 1100 H 678 Z"
                 transform="scale(0.015625)" /><path
                 id="path68845"
                 d="M 2944,4013 V 2803 H 4684 V 2272 H 2944 V 1063 H 2419 V 2272 H 678 v 531 H 2419 V 4013 Z M 678,531 H 4684 V 0 H 678 Z"
                 transform="scale(0.015625)" /><path
                 id="path68847"
                 d="M 5747,2113 5338,0 h -575 l 403,2094 q 25,134 37,231 13,97 13,166 0,281 -157,437 -156,156 -437,156 -419,0 -747,-314 -328,-314 -425,-817 L 3066,0 h -575 l 409,2094 q 25,115 37,213 13,99 13,177 0,285 -156,442 -156,158 -431,158 -425,0 -754,-314 -328,-314 -425,-817 L 800,0 H 225 l 684,3500 h 575 l -109,-544 q 234,307 548,467 315,161 674,161 381,0 626,-200 246,-200 296,-556 262,369 607,562 346,194 730,194 450,0 695,-259 246,-259 246,-734 0,-103 -13,-227 -12,-123 -37,-251 z"
                 transform="scale(0.015625)" /><path
                 id="path68849"
                 d="M 378,4666 H 4325 L 4225,4134 H 2559 L 1759,0 h -634 l 800,4134 H 275 Z"
                 transform="scale(0.015625)" /></defs><use
               xlink:href="#DejaVuSans-2223"
               transform="translate(19.482422,0.90625)"
               id="use68297" /><use
               xlink:href="#DejaVuSans-Oblique-42"
               transform="translate(88.964844,0.90625)"
               id="use68299" /><use
               xlink:href="#DejaVuSans-2223"
               transform="translate(177.05078,0.90625)"
               id="use68301" /><use
               xlink:href="#DejaVuSans-3d"
               transform="translate(266.01562,0.90625)"
               id="use68303" /><use
               xlink:href="#DejaVuSans-5b"
               transform="translate(369.28711,0.90625)"
               id="use68305" /><use
               xlink:href="#DejaVuSans-30"
               transform="translate(408.30078,0.90625)"
               id="use68307" /><use
               xlink:href="#DejaVuSans-2e"
               transform="translate(471.92383,0.90625)"
               id="use68309" /><use
               xlink:href="#DejaVuSans-32"
               transform="translate(498.21094,0.90625)"
               id="use68311" /><use
               xlink:href="#DejaVuSans-37"
               transform="translate(561.83398,0.90625)"
               id="use68313" /><use
               xlink:href="#DejaVuSans-b1"
               transform="translate(644.93945,0.90625)"
               id="use68315" /><use
               xlink:href="#DejaVuSans-30"
               transform="translate(748.21094,0.90625)"
               id="use68317" /><use
               xlink:href="#DejaVuSans-2e"
               transform="translate(811.83398,0.90625)"
               id="use68319" /><use
               xlink:href="#DejaVuSans-31"
               transform="translate(843.62109,0.90625)"
               id="use68321" /><use
               xlink:href="#DejaVuSans-37"
               transform="translate(907.24414,0.90625)"
               id="use68323" /><use
               xlink:href="#DejaVuSans-5d"
               transform="translate(970.86719,0.90625)"
               id="use68325" /><use
               xlink:href="#DejaVuSans-Oblique-6d"
               transform="translate(1009.8809,0.90625)"
               id="use68327" /><use
               xlink:href="#DejaVuSans-Oblique-54"
               transform="translate(1107.293,0.90625)"
               id="use68329" /></g><!-- $\ \ B_i = [ 0.16 \pm 0.09 ] mT$ --><g
             transform="matrix(0.1,0,0,-0.1,109,373.40031)"
             id="g68369"><defs
               id="defs68335"><path
                 id="path68870"
                 d="m 1172,4863 h 575 L 1606,4134 H 1031 Z M 909,3500 h 575 L 800,0 H 225 Z"
                 transform="scale(0.015625)" /><path
                 id="path68872"
                 d="m 2113,2584 q -425,0 -674,-291 -248,-290 -248,-796 0,-503 248,-796 249,-292 674,-292 425,0 673,292 248,293 248,796 0,506 -248,796 -248,291 -673,291 z m 1253,1979 v -575 q -238,112 -480,171 -242,60 -480,60 -625,0 -955,-422 -329,-422 -376,-1275 184,272 462,417 279,145 613,145 703,0 1111,-427 408,-426 408,-1160 0,-719 -425,-1154 -425,-434 -1131,-434 -810,0 -1238,620 -428,621 -428,1799 0,1106 525,1764 525,658 1409,658 238,0 480,-47 242,-47 505,-140 z"
                 transform="scale(0.015625)" /></defs><use
               xlink:href="#DejaVuSans-Oblique-42"
               transform="translate(64.940757,0.015625)"
               id="use68337" /><use
               xlink:href="#DejaVuSans-Oblique-69"
               transform="matrix(0.7,0,0,0.7,133.54427,-16.390625)"
               id="use68339" /><use
               xlink:href="#DejaVuSans-3d"
               transform="translate(175.20931,0.015625)"
               id="use68341" /><use
               xlink:href="#DejaVuSans-5b"
               transform="translate(278.4808,0.015625)"
               id="use68343" /><use
               xlink:href="#DejaVuSans-30"
               transform="translate(317.49447,0.015625)"
               id="use68345" /><use
               xlink:href="#DejaVuSans-2e"
               transform="translate(381.11752,0.015625)"
               id="use68347" /><use
               xlink:href="#DejaVuSans-31"
               transform="translate(412.90462,0.015625)"
               id="use68349" /><use
               xlink:href="#DejaVuSans-36"
               transform="translate(476.52767,0.015625)"
               id="use68351" /><use
               xlink:href="#DejaVuSans-b1"
               transform="translate(559.63314,0.015625)"
               id="use68353" /><use
               xlink:href="#DejaVuSans-30"
               transform="translate(662.90462,0.015625)"
               id="use68355" /><use
               xlink:href="#DejaVuSans-2e"
               transform="translate(726.52767,0.015625)"
               id="use68357" /><use
               xlink:href="#DejaVuSans-30"
               transform="translate(758.31478,0.015625)"
               id="use68359" /><use
               xlink:href="#DejaVuSans-39"
               transform="translate(821.93783,0.015625)"
               id="use68361" /><use
               xlink:href="#DejaVuSans-5d"
               transform="translate(885.56087,0.015625)"
               id="use68363" /><use
               xlink:href="#DejaVuSans-Oblique-6d"
               transform="translate(924.57455,0.015625)"
               id="use68365" /><use
               xlink:href="#DejaVuSans-Oblique-54"
               transform="translate(1021.9867,0.015625)"
               id="use68367" /></g></g></g></g><g
       inkscape:label=""
       transform="matrix(2.1345187,0,0,2.2311544,278.81536,219.0152)"
       id="g107999-0-5"
       style="display:inline;fill:#f07400;fill-opacity:1;stroke-linecap:butt;stroke-linejoin:round"><g
         fill="#000000"
         fill-opacity="1"
         id="g107977-2-6"
         transform="matrix(0.352778,0,0,0.352778,-0.248047,5.73285e-4)"
         style="fill:#f07400;fill-opacity:1;stroke-linecap:butt;stroke-linejoin:round"><g
           id="use26-1-2"
           transform="translate(0,11.764)"
           style="fill:#f07400;fill-opacity:1;stroke-linecap:butt;stroke-linejoin:round"><path
             d="M 7.1875,-2.671875 H 6.875 c -0.171875,1.21875 -0.3125,1.4375 -0.390625,1.53125 C 6.40625,-1 5.171875,-1 4.921875,-1 H 1.625 c 0.609375,-0.671875 1.8125,-1.890625 3.28125,-3.3125 1.046875,-0.984375 2.28125,-2.15625 2.28125,-3.859375 0,-2.03125 -1.625,-3.203125 -3.4375,-3.203125 -1.890625,0 -3.046875,1.65625 -3.046875,3.21875 0,0.671875 0.5,0.75 0.703125,0.75 0.171875,0 0.6875,-0.09375 0.6875,-0.703125 0,-0.53125 -0.4375,-0.6875 -0.6875,-0.6875 -0.09375,0 -0.203125,0.015625 -0.265625,0.046875 0.328125,-1.453125 1.328125,-2.1875 2.375,-2.1875 1.5,0 2.46875,1.1875 2.46875,2.765625 0,1.484375 -0.875,2.78125 -1.859375,3.90625 l -3.421875,3.875 V 0 h 6.0625 z m 0,0"
             id="path107974-5-9"
             style="fill:#f07400;fill-opacity:1;stroke-linecap:butt;stroke-linejoin:round" /></g></g><g
         clip-path="url(#clipPath376-7-6)"
         id="g107985-6-1"
         transform="matrix(0.352778,0,0,0.352778,-0.248047,5.73285e-4)"
         style="fill:#f07400;fill-opacity:1;stroke-linecap:butt;stroke-linejoin:round"><g
           fill="#000000"
           fill-opacity="1"
           id="g107983-5-2"
           style="fill:#f07400;fill-opacity:1;stroke-linecap:butt;stroke-linejoin:round"><g
             id="g107981-0-7"
             transform="translate(7.895,11.764)"
             style="fill:#f07400;fill-opacity:1;stroke-linecap:butt;stroke-linejoin:round"><path
               d="M 5.8125,-2.1875 C 5.75,-1.90625 5.71875,-1.84375 5.5,-1.578125 4.78125,-0.671875 4.0625,-0.34375 3.53125,-0.34375 c -0.5625,0 -1.109375,-0.453125 -1.109375,-1.640625 0,-0.90625 0.515625,-2.84375 0.90625,-3.609375 0.5,-0.96875 1.265625,-1.65625 2,-1.65625 1.125,0 1.359375,1.40625 1.359375,1.515625 L 6.625,-5.5 Z M 6.890625,-6.453125 C 6.65625,-6.953125 6.1875,-7.59375 5.328125,-7.59375 3.4375,-7.59375 1.3125,-5.234375 1.3125,-2.671875 1.3125,-0.875 2.390625,0 3.5,0 4.40625,0 5.21875,-0.71875 5.53125,-1.0625 L 5.140625,0.484375 C 4.90625,1.421875 4.796875,1.859375 4.1875,2.46875 3.484375,3.171875 2.828125,3.171875 2.4375,3.171875 1.921875,3.171875 1.5,3.140625 1.0625,3 1.625,2.84375 1.75,2.359375 1.75,2.171875 1.75,1.890625 1.546875,1.625 1.171875,1.625 0.75,1.625 0.3125,1.96875 0.3125,2.53125 c 0,0.703125 0.703125,0.984375 2.171875,0.984375 2.21875,0 3.375,-1.4375 3.59375,-2.359375 l 1.90625,-7.71875 c 0.0625,-0.203125 0.0625,-0.234375 0.0625,-0.265625 0,-0.25 -0.1875,-0.4375 -0.453125,-0.4375 -0.40625,0 -0.65625,0.34375 -0.703125,0.8125 z m 0,0"
               id="path107979-0-0"
               style="fill:#f07400;fill-opacity:1;stroke-linecap:butt;stroke-linejoin:round" /></g></g></g><g
         clip-path="url(#clipPath38422-7-5)"
         id="g107997-3-9"
         transform="matrix(0.352778,0,0,0.352778,-0.248047,5.73285e-4)"
         style="fill:#f07400;fill-opacity:1;stroke-linecap:butt;stroke-linejoin:round"><g
           fill="#000000"
           fill-opacity="1"
           id="g107995-4-3"
           style="fill:#f07400;fill-opacity:1;stroke-linecap:butt;stroke-linejoin:round"><g
             id="g107989-6-6"
             transform="translate(16.587055,11.764)"
             style="fill:#f07400;fill-opacity:1;stroke-linecap:butt;stroke-linejoin:round"><path
               d="m 2.484375,-0.375 c 0.421875,0.390625 1.0625,0.546875 1.640625,0.546875 1.109375,0 1.859375,-0.734375 2.265625,-1.28125 0.171875,0.921875 0.890625,1.28125 1.5,1.28125 0.515625,0 0.921875,-0.3125 1.234375,-0.921875 0.28125,-0.59375 0.515625,-1.640625 0.515625,-1.71875 0,-0.078125 -0.0625,-0.15625 -0.171875,-0.15625 -0.15625,0 -0.171875,0.09375 -0.234375,0.359375 -0.265625,1.015625 -0.59375,2.09375 -1.296875,2.09375 -0.5,0 -0.53125,-0.453125 -0.53125,-0.796875 0,-0.390625 0.15625,-1.015625 0.265625,-1.53125 L 8.15625,-4.359375 C 8.234375,-4.6875 8.421875,-5.453125 8.5,-5.765625 c 0.109375,-0.421875 0.296875,-1.15625 0.296875,-1.21875 0,-0.265625 -0.203125,-0.4375 -0.46875,-0.4375 -0.15625,0 -0.515625,0.0625 -0.65625,0.59375 l -1.203125,4.78125 c -0.078125,0.34375 -0.078125,0.375 -0.296875,0.65625 -0.21875,0.28125 -0.890625,1.21875 -1.96875,1.21875 -0.96875,0 -1.28125,-0.703125 -1.28125,-1.515625 0,-0.5 0.15625,-1.109375 0.234375,-1.390625 L 3.921875,-6.1875 c 0.09375,-0.328125 0.234375,-0.875 0.234375,-0.96875 0,-0.28125 -0.234375,-0.4375 -0.453125,-0.4375 -0.15625,0 -0.53125,0.046875 -0.671875,0.609375 l -2.5,9.96875 c -0.015625,0.078125 -0.046875,0.1875 -0.046875,0.28125 0,0.265625 0.203125,0.4375 0.46875,0.4375 0.5,0 0.59375,-0.390625 0.71875,-0.875 z m 0,0"
               id="path107987-6-0"
               style="fill:#f07400;fill-opacity:1;stroke-linecap:butt;stroke-linejoin:round" /></g><g
             id="g107993-0-6"
             transform="translate(26.728647,11.764)"
             style="fill:#f07400;fill-opacity:1;stroke-linecap:butt;stroke-linejoin:round"><path
               d="m 6.296875,-10.59375 c 0.15625,-0.640625 0.234375,-0.671875 0.90625,-0.671875 H 9.4375 c 1.9375,0 1.9375,1.65625 1.9375,1.8125 0,1.390625 -1.390625,3.171875 -3.65625,3.171875 H 5.234375 Z m 2.921875,4.453125 c 1.875,-0.34375 3.578125,-1.65625 3.578125,-3.25 0,-1.34375 -1.1875,-2.375 -3.140625,-2.375 H 4.125 c -0.3125,0 -0.46875,0 -0.46875,0.328125 0,0.171875 0.15625,0.171875 0.40625,0.171875 1.046875,0 1.046875,0.140625 1.046875,0.328125 0,0.03125 0,0.140625 -0.0625,0.40625 l -2.328125,9.25 C 2.5625,-0.671875 2.53125,-0.5 1.328125,-0.5 c -0.328125,0 -0.5,0 -0.5,0.3125 C 0.828125,0 0.9375,0 1.28125,0 H 7.1875 c 2.625,0 4.65625,-2 4.65625,-3.734375 0,-1.40625 -1.234375,-2.28125 -2.625,-2.40625 z M 6.765625,-0.5 H 4.4375 c -0.234375,0 -0.265625,0 -0.375,-0.015625 C 3.875,-0.53125 3.859375,-0.5625 3.859375,-0.703125 c 0,-0.125 0.03125,-0.234375 0.0625,-0.375 L 5.125,-5.9375 h 3.25 c 2.03125,0 2.03125,1.890625 2.03125,2.03125 0,1.65625 -1.5,3.40625 -3.640625,3.40625 z m 0,0"
               id="path107991-2-2"
               style="fill:#f07400;fill-opacity:1;stroke-linecap:butt;stroke-linejoin:round" /></g></g></g></g><rect
       style="fill:#f07400;fill-opacity:1;stroke-width:0.264583"
       id="rect225343-6"
       width="8.666873"
       height="0.76125681"
       x="256.72797"
       y="226.43648" /><rect
       style="fill:#f07400;fill-opacity:1;stroke-width:0.264583"
       id="rect225709-1"
       width="0.78382295"
       height="2.999943"
       x="256.26984"
       y="225.4662" /><rect
       style="fill:#f07400;fill-opacity:1;stroke-width:0.264583"
       id="rect225709-3-8"
       width="0.78382295"
       height="2.999943"
       x="265.03064"
       y="225.32777" /></g></svg>
