<?xml version="1.0" encoding="utf-8" standalone="no"?>
<!DOCTYPE svg PUBLIC "-//W3C//DTD SVG 1.1//EN"
  "http://www.w3.org/Graphics/SVG/1.1/DTD/svg11.dtd">
<svg xmlns:xlink="http://www.w3.org/1999/xlink" width="576pt" height="432pt" viewBox="0 0 576 432" xmlns="http://www.w3.org/2000/svg" version="1.1">
 <metadata>
  <rdf:RDF xmlns:dc="http://purl.org/dc/elements/1.1/" xmlns:cc="http://creativecommons.org/ns#" xmlns:rdf="http://www.w3.org/1999/02/22-rdf-syntax-ns#">
   <cc:Work>
    <dc:type rdf:resource="http://purl.org/dc/dcmitype/StillImage"/>
    <dc:date>2022-09-09T11:04:22.121239</dc:date>
    <dc:format>image/svg+xml</dc:format>
    <dc:creator>
     <cc:Agent>
      <dc:title>Matplotlib v3.5.3, https://matplotlib.org/</dc:title>
     </cc:Agent>
    </dc:creator>
   </cc:Work>
  </rdf:RDF>
 </metadata>
 <defs>
  <style type="text/css">*{stroke-linejoin: round; stroke-linecap: butt}</style>
 </defs>
 <g id="figure_1">
  <g id="patch_1">
   <path d="M 0 432 
L 576 432 
L 576 0 
L 0 0 
z
" style="fill: #ffffff"/>
  </g>
  <g id="axes_1">
   <g id="patch_2">
    <path d="M 72 384.48 
L 518.4 384.48 
L 518.4 51.84 
L 72 51.84 
z
" style="fill: #ffffff"/>
   </g>
   <g id="PathCollection_1">
    <defs>
     <path id="m97609b97b1" d="M 0 1 
C 0.265203 1 0.51958 0.894634 0.707107 0.707107 
C 0.894634 0.51958 1 0.265203 1 0 
C 1 -0.265203 0.894634 -0.51958 0.707107 -0.707107 
C 0.51958 -0.894634 0.265203 -1 0 -1 
C -0.265203 -1 -0.51958 -0.894634 -0.707107 -0.707107 
C -0.894634 -0.51958 -1 -0.265203 -1 0 
C -1 0.265203 -0.894634 0.51958 -0.707107 0.707107 
C -0.51958 0.894634 -0.265203 1 0 1 
z
" style="stroke: #1f77b4"/>
    </defs>
    <g clip-path="url(#p7fb600350a)">
     <use xlink:href="#m97609b97b1" x="92.290909" y="86.231219" style="fill: #1f77b4; stroke: #1f77b4"/>
     <use xlink:href="#m97609b97b1" x="94.135537" y="93.723777" style="fill: #1f77b4; stroke: #1f77b4"/>
     <use xlink:href="#m97609b97b1" x="95.980165" y="91.687411" style="fill: #1f77b4; stroke: #1f77b4"/>
     <use xlink:href="#m97609b97b1" x="97.824793" y="88.362875" style="fill: #1f77b4; stroke: #1f77b4"/>
     <use xlink:href="#m97609b97b1" x="99.669421" y="79.582147" style="fill: #1f77b4; stroke: #1f77b4"/>
     <use xlink:href="#m97609b97b1" x="101.51405" y="91.687411" style="fill: #1f77b4; stroke: #1f77b4"/>
     <use xlink:href="#m97609b97b1" x="103.358678" y="89.379293" style="fill: #1f77b4; stroke: #1f77b4"/>
     <use xlink:href="#m97609b97b1" x="105.203306" y="85.055985" style="fill: #1f77b4; stroke: #1f77b4"/>
     <use xlink:href="#m97609b97b1" x="107.047934" y="90.187487" style="fill: #1f77b4; stroke: #1f77b4"/>
     <use xlink:href="#m97609b97b1" x="108.892562" y="92.202678" style="fill: #1f77b4; stroke: #1f77b4"/>
     <use xlink:href="#m97609b97b1" x="110.73719" y="95.746027" style="fill: #1f77b4; stroke: #1f77b4"/>
     <use xlink:href="#m97609b97b1" x="112.581818" y="86.711194" style="fill: #1f77b4; stroke: #1f77b4"/>
     <use xlink:href="#m97609b97b1" x="114.426446" y="87.275871" style="fill: #1f77b4; stroke: #1f77b4"/>
     <use xlink:href="#m97609b97b1" x="116.271074" y="91.04509" style="fill: #1f77b4; stroke: #1f77b4"/>
     <use xlink:href="#m97609b97b1" x="118.115702" y="88.991078" style="fill: #1f77b4; stroke: #1f77b4"/>
     <use xlink:href="#m97609b97b1" x="119.960331" y="89.481641" style="fill: #1f77b4; stroke: #1f77b4"/>
     <use xlink:href="#m97609b97b1" x="121.804959" y="86.813542" style="fill: #1f77b4; stroke: #1f77b4"/>
     <use xlink:href="#m97609b97b1" x="123.649587" y="96.247177" style="fill: #1f77b4; stroke: #1f77b4"/>
     <use xlink:href="#m97609b97b1" x="125.494215" y="90.088669" style="fill: #1f77b4; stroke: #1f77b4"/>
     <use xlink:href="#m97609b97b1" x="127.338843" y="86.647668" style="fill: #1f77b4; stroke: #1f77b4"/>
     <use xlink:href="#m97609b97b1" x="129.183471" y="90.296893" style="fill: #1f77b4; stroke: #1f77b4"/>
     <use xlink:href="#m97609b97b1" x="131.028099" y="89.746333" style="fill: #1f77b4; stroke: #1f77b4"/>
     <use xlink:href="#m97609b97b1" x="132.872727" y="96.381288" style="fill: #1f77b4; stroke: #1f77b4"/>
     <use xlink:href="#m97609b97b1" x="134.717355" y="86.164163" style="fill: #1f77b4; stroke: #1f77b4"/>
     <use xlink:href="#m97609b97b1" x="136.561983" y="87.893487" style="fill: #1f77b4; stroke: #1f77b4"/>
     <use xlink:href="#m97609b97b1" x="138.406612" y="82.327889" style="fill: #1f77b4; stroke: #1f77b4"/>
     <use xlink:href="#m97609b97b1" x="140.25124" y="88.168767" style="fill: #1f77b4; stroke: #1f77b4"/>
     <use xlink:href="#m97609b97b1" x="142.095868" y="92.160328" style="fill: #1f77b4; stroke: #1f77b4"/>
     <use xlink:href="#m97609b97b1" x="143.940496" y="78.523378" style="fill: #1f77b4; stroke: #1f77b4"/>
     <use xlink:href="#m97609b97b1" x="145.785124" y="81.307941" style="fill: #1f77b4; stroke: #1f77b4"/>
     <use xlink:href="#m97609b97b1" x="147.629752" y="92.432078" style="fill: #1f77b4; stroke: #1f77b4"/>
     <use xlink:href="#m97609b97b1" x="149.47438" y="93.247331" style="fill: #1f77b4; stroke: #1f77b4"/>
     <use xlink:href="#m97609b97b1" x="151.319008" y="89.915736" style="fill: #1f77b4; stroke: #1f77b4"/>
     <use xlink:href="#m97609b97b1" x="153.163636" y="103.478572" style="fill: #1f77b4; stroke: #1f77b4"/>
     <use xlink:href="#m97609b97b1" x="155.008264" y="105.539644" style="fill: #1f77b4; stroke: #1f77b4"/>
     <use xlink:href="#m97609b97b1" x="156.852893" y="149.323288" style="fill: #1f77b4; stroke: #1f77b4"/>
     <use xlink:href="#m97609b97b1" x="158.697521" y="240.659795" style="fill: #1f77b4; stroke: #1f77b4"/>
     <use xlink:href="#m97609b97b1" x="160.542149" y="266.94551" style="fill: #1f77b4; stroke: #1f77b4"/>
     <use xlink:href="#m97609b97b1" x="162.386777" y="250.093431" style="fill: #1f77b4; stroke: #1f77b4"/>
     <use xlink:href="#m97609b97b1" x="164.231405" y="167.160023" style="fill: #1f77b4; stroke: #1f77b4"/>
     <use xlink:href="#m97609b97b1" x="166.076033" y="122.935225" style="fill: #1f77b4; stroke: #1f77b4"/>
     <use xlink:href="#m97609b97b1" x="167.920661" y="108.86418" style="fill: #1f77b4; stroke: #1f77b4"/>
     <use xlink:href="#m97609b97b1" x="169.765289" y="100.468138" style="fill: #1f77b4; stroke: #1f77b4"/>
     <use xlink:href="#m97609b97b1" x="171.609917" y="89.573401" style="fill: #1f77b4; stroke: #1f77b4"/>
     <use xlink:href="#m97609b97b1" x="173.454545" y="94.482562" style="fill: #1f77b4; stroke: #1f77b4"/>
     <use xlink:href="#m97609b97b1" x="175.299174" y="88.581687" style="fill: #1f77b4; stroke: #1f77b4"/>
     <use xlink:href="#m97609b97b1" x="177.143802" y="95.262522" style="fill: #1f77b4; stroke: #1f77b4"/>
     <use xlink:href="#m97609b97b1" x="178.98843" y="87.279401" style="fill: #1f77b4; stroke: #1f77b4"/>
     <use xlink:href="#m97609b97b1" x="180.833058" y="90.54394" style="fill: #1f77b4; stroke: #1f77b4"/>
     <use xlink:href="#m97609b97b1" x="182.677686" y="78.904535" style="fill: #1f77b4; stroke: #1f77b4"/>
     <use xlink:href="#m97609b97b1" x="184.522314" y="84.180735" style="fill: #1f77b4; stroke: #1f77b4"/>
     <use xlink:href="#m97609b97b1" x="186.366942" y="88.525219" style="fill: #1f77b4; stroke: #1f77b4"/>
     <use xlink:href="#m97609b97b1" x="188.21157" y="84.364255" style="fill: #1f77b4; stroke: #1f77b4"/>
     <use xlink:href="#m97609b97b1" x="190.056198" y="90.77334" style="fill: #1f77b4; stroke: #1f77b4"/>
     <use xlink:href="#m97609b97b1" x="191.900826" y="92.714417" style="fill: #1f77b4; stroke: #1f77b4"/>
     <use xlink:href="#m97609b97b1" x="193.745455" y="89.608693" style="fill: #1f77b4; stroke: #1f77b4"/>
     <use xlink:href="#m97609b97b1" x="195.590083" y="90.282776" style="fill: #1f77b4; stroke: #1f77b4"/>
     <use xlink:href="#m97609b97b1" x="197.434711" y="85.218329" style="fill: #1f77b4; stroke: #1f77b4"/>
     <use xlink:href="#m97609b97b1" x="199.279339" y="87.194699" style="fill: #1f77b4; stroke: #1f77b4"/>
     <use xlink:href="#m97609b97b1" x="201.123967" y="80.887963" style="fill: #1f77b4; stroke: #1f77b4"/>
     <use xlink:href="#m97609b97b1" x="202.968595" y="94.740196" style="fill: #1f77b4; stroke: #1f77b4"/>
     <use xlink:href="#m97609b97b1" x="204.813223" y="93.879063" style="fill: #1f77b4; stroke: #1f77b4"/>
     <use xlink:href="#m97609b97b1" x="206.657851" y="86.111225" style="fill: #1f77b4; stroke: #1f77b4"/>
     <use xlink:href="#m97609b97b1" x="208.502479" y="88.853438" style="fill: #1f77b4; stroke: #1f77b4"/>
     <use xlink:href="#m97609b97b1" x="210.347107" y="93.900239" style="fill: #1f77b4; stroke: #1f77b4"/>
     <use xlink:href="#m97609b97b1" x="212.191736" y="91.172143" style="fill: #1f77b4; stroke: #1f77b4"/>
     <use xlink:href="#m97609b97b1" x="214.036364" y="94.253162" style="fill: #1f77b4; stroke: #1f77b4"/>
     <use xlink:href="#m97609b97b1" x="215.880992" y="89.651044" style="fill: #1f77b4; stroke: #1f77b4"/>
     <use xlink:href="#m97609b97b1" x="217.72562" y="93.448497" style="fill: #1f77b4; stroke: #1f77b4"/>
     <use xlink:href="#m97609b97b1" x="219.570248" y="89.707512" style="fill: #1f77b4; stroke: #1f77b4"/>
     <use xlink:href="#m97609b97b1" x="221.414876" y="96.663627" style="fill: #1f77b4; stroke: #1f77b4"/>
     <use xlink:href="#m97609b97b1" x="223.259504" y="88.991078" style="fill: #1f77b4; stroke: #1f77b4"/>
     <use xlink:href="#m97609b97b1" x="225.104132" y="96.663627" style="fill: #1f77b4; stroke: #1f77b4"/>
     <use xlink:href="#m97609b97b1" x="226.94876" y="100.04816" style="fill: #1f77b4; stroke: #1f77b4"/>
     <use xlink:href="#m97609b97b1" x="228.793388" y="111.634626" style="fill: #1f77b4; stroke: #1f77b4"/>
     <use xlink:href="#m97609b97b1" x="230.638017" y="126.552687" style="fill: #1f77b4; stroke: #1f77b4"/>
     <use xlink:href="#m97609b97b1" x="232.482645" y="170.989239" style="fill: #1f77b4; stroke: #1f77b4"/>
     <use xlink:href="#m97609b97b1" x="234.327273" y="167.160023" style="fill: #1f77b4; stroke: #1f77b4"/>
     <use xlink:href="#m97609b97b1" x="236.171901" y="163.609616" style="fill: #1f77b4; stroke: #1f77b4"/>
     <use xlink:href="#m97609b97b1" x="238.016529" y="118.491923" style="fill: #1f77b4; stroke: #1f77b4"/>
     <use xlink:href="#m97609b97b1" x="239.861157" y="120.789452" style="fill: #1f77b4; stroke: #1f77b4"/>
     <use xlink:href="#m97609b97b1" x="241.705785" y="132.520617" style="fill: #1f77b4; stroke: #1f77b4"/>
     <use xlink:href="#m97609b97b1" x="243.550413" y="135.312239" style="fill: #1f77b4; stroke: #1f77b4"/>
     <use xlink:href="#m97609b97b1" x="245.395041" y="216.385742" style="fill: #1f77b4; stroke: #1f77b4"/>
     <use xlink:href="#m97609b97b1" x="247.239669" y="233.869554" style="fill: #1f77b4; stroke: #1f77b4"/>
     <use xlink:href="#m97609b97b1" x="249.084298" y="230.393261" style="fill: #1f77b4; stroke: #1f77b4"/>
     <use xlink:href="#m97609b97b1" x="250.928926" y="198.02668" style="fill: #1f77b4; stroke: #1f77b4"/>
     <use xlink:href="#m97609b97b1" x="252.773554" y="166.284774" style="fill: #1f77b4; stroke: #1f77b4"/>
     <use xlink:href="#m97609b97b1" x="254.618182" y="121.177668" style="fill: #1f77b4; stroke: #1f77b4"/>
     <use xlink:href="#m97609b97b1" x="256.46281" y="115.185033" style="fill: #1f77b4; stroke: #1f77b4"/>
     <use xlink:href="#m97609b97b1" x="258.307438" y="97.725925" style="fill: #1f77b4; stroke: #1f77b4"/>
     <use xlink:href="#m97609b97b1" x="260.152066" y="100.933997" style="fill: #1f77b4; stroke: #1f77b4"/>
     <use xlink:href="#m97609b97b1" x="261.996694" y="99.381135" style="fill: #1f77b4; stroke: #1f77b4"/>
     <use xlink:href="#m97609b97b1" x="263.841322" y="96.663627" style="fill: #1f77b4; stroke: #1f77b4"/>
     <use xlink:href="#m97609b97b1" x="265.68595" y="92.756768" style="fill: #1f77b4; stroke: #1f77b4"/>
     <use xlink:href="#m97609b97b1" x="267.530579" y="93.529669" style="fill: #1f77b4; stroke: #1f77b4"/>
     <use xlink:href="#m97609b97b1" x="269.375207" y="94.980183" style="fill: #1f77b4; stroke: #1f77b4"/>
     <use xlink:href="#m97609b97b1" x="271.219835" y="99.698766" style="fill: #1f77b4; stroke: #1f77b4"/>
     <use xlink:href="#m97609b97b1" x="273.064463" y="102.737434" style="fill: #1f77b4; stroke: #1f77b4"/>
     <use xlink:href="#m97609b97b1" x="274.909091" y="98.904689" style="fill: #1f77b4; stroke: #1f77b4"/>
     <use xlink:href="#m97609b97b1" x="276.753719" y="94.044937" style="fill: #1f77b4; stroke: #1f77b4"/>
     <use xlink:href="#m97609b97b1" x="278.598347" y="100.82812" style="fill: #1f77b4; stroke: #1f77b4"/>
     <use xlink:href="#m97609b97b1" x="280.442975" y="93.035577" style="fill: #1f77b4; stroke: #1f77b4"/>
     <use xlink:href="#m97609b97b1" x="282.287603" y="105.342007" style="fill: #1f77b4; stroke: #1f77b4"/>
     <use xlink:href="#m97609b97b1" x="284.132231" y="108.708893" style="fill: #1f77b4; stroke: #1f77b4"/>
     <use xlink:href="#m97609b97b1" x="285.97686" y="112.118131" style="fill: #1f77b4; stroke: #1f77b4"/>
     <use xlink:href="#m97609b97b1" x="287.821488" y="121.30472" style="fill: #1f77b4; stroke: #1f77b4"/>
     <use xlink:href="#m97609b97b1" x="289.666116" y="140.066114" style="fill: #1f77b4; stroke: #1f77b4"/>
     <use xlink:href="#m97609b97b1" x="291.510744" y="159.469828" style="fill: #1f77b4; stroke: #1f77b4"/>
     <use xlink:href="#m97609b97b1" x="293.355372" y="247.997067" style="fill: #1f77b4; stroke: #1f77b4"/>
     <use xlink:href="#m97609b97b1" x="295.2" y="344.779178" style="fill: #1f77b4; stroke: #1f77b4"/>
     <use xlink:href="#m97609b97b1" x="297.044628" y="347.980191" style="fill: #1f77b4; stroke: #1f77b4"/>
     <use xlink:href="#m97609b97b1" x="298.889256" y="302.311938" style="fill: #1f77b4; stroke: #1f77b4"/>
     <use xlink:href="#m97609b97b1" x="300.733884" y="206.083916" style="fill: #1f77b4; stroke: #1f77b4"/>
     <use xlink:href="#m97609b97b1" x="302.578512" y="149.235057" style="fill: #1f77b4; stroke: #1f77b4"/>
     <use xlink:href="#m97609b97b1" x="304.42314" y="115.477959" style="fill: #1f77b4; stroke: #1f77b4"/>
     <use xlink:href="#m97609b97b1" x="306.267769" y="116.303799" style="fill: #1f77b4; stroke: #1f77b4"/>
     <use xlink:href="#m97609b97b1" x="308.112397" y="110.212346" style="fill: #1f77b4; stroke: #1f77b4"/>
     <use xlink:href="#m97609b97b1" x="309.957025" y="126.273878" style="fill: #1f77b4; stroke: #1f77b4"/>
     <use xlink:href="#m97609b97b1" x="311.801653" y="148.871546" style="fill: #1f77b4; stroke: #1f77b4"/>
     <use xlink:href="#m97609b97b1" x="313.646281" y="220.694933" style="fill: #1f77b4; stroke: #1f77b4"/>
     <use xlink:href="#m97609b97b1" x="315.490909" y="325.597806" style="fill: #1f77b4; stroke: #1f77b4"/>
     <use xlink:href="#m97609b97b1" x="317.335537" y="345.213274" style="fill: #1f77b4; stroke: #1f77b4"/>
     <use xlink:href="#m97609b97b1" x="319.180165" y="300.730842" style="fill: #1f77b4; stroke: #1f77b4"/>
     <use xlink:href="#m97609b97b1" x="321.024793" y="203.331115" style="fill: #1f77b4; stroke: #1f77b4"/>
     <use xlink:href="#m97609b97b1" x="322.869421" y="137.983867" style="fill: #1f77b4; stroke: #1f77b4"/>
     <use xlink:href="#m97609b97b1" x="324.71405" y="117.471975" style="fill: #1f77b4; stroke: #1f77b4"/>
     <use xlink:href="#m97609b97b1" x="326.558678" y="104.833797" style="fill: #1f77b4; stroke: #1f77b4"/>
     <use xlink:href="#m97609b97b1" x="328.403306" y="98.756461" style="fill: #1f77b4; stroke: #1f77b4"/>
     <use xlink:href="#m97609b97b1" x="330.247934" y="92.940288" style="fill: #1f77b4; stroke: #1f77b4"/>
     <use xlink:href="#m97609b97b1" x="332.092562" y="95.940134" style="fill: #1f77b4; stroke: #1f77b4"/>
     <use xlink:href="#m97609b97b1" x="333.93719" y="94.644906" style="fill: #1f77b4; stroke: #1f77b4"/>
     <use xlink:href="#m97609b97b1" x="335.781818" y="100.538723" style="fill: #1f77b4; stroke: #1f77b4"/>
     <use xlink:href="#m97609b97b1" x="337.626446" y="78.047888" style="fill: #1f77b4; stroke: #1f77b4"/>
     <use xlink:href="#m97609b97b1" x="339.471074" y="84.866363" style="fill: #1f77b4; stroke: #1f77b4"/>
     <use xlink:href="#m97609b97b1" x="341.315702" y="90.195502" style="fill: #1f77b4; stroke: #1f77b4"/>
     <use xlink:href="#m97609b97b1" x="343.160331" y="80.490116" style="fill: #1f77b4; stroke: #1f77b4"/>
     <use xlink:href="#m97609b97b1" x="345.004959" y="75.930349" style="fill: #1f77b4; stroke: #1f77b4"/>
     <use xlink:href="#m97609b97b1" x="346.849587" y="80.387769" style="fill: #1f77b4; stroke: #1f77b4"/>
     <use xlink:href="#m97609b97b1" x="348.694215" y="85.536917" style="fill: #1f77b4; stroke: #1f77b4"/>
     <use xlink:href="#m97609b97b1" x="350.538843" y="82.35355" style="fill: #1f77b4; stroke: #1f77b4"/>
     <use xlink:href="#m97609b97b1" x="352.383471" y="102.173714" style="fill: #1f77b4; stroke: #1f77b4"/>
     <use xlink:href="#m97609b97b1" x="354.228099" y="105.784117" style="fill: #1f77b4; stroke: #1f77b4"/>
     <use xlink:href="#m97609b97b1" x="356.072727" y="114.233097" style="fill: #1f77b4; stroke: #1f77b4"/>
     <use xlink:href="#m97609b97b1" x="357.917355" y="146.560856" style="fill: #1f77b4; stroke: #1f77b4"/>
     <use xlink:href="#m97609b97b1" x="359.761983" y="303.421073" style="fill: #1f77b4; stroke: #1f77b4"/>
     <use xlink:href="#m97609b97b1" x="361.606612" y="298.801309" style="fill: #1f77b4; stroke: #1f77b4"/>
     <use xlink:href="#m97609b97b1" x="363.45124" y="290.115871" style="fill: #1f77b4; stroke: #1f77b4"/>
     <use xlink:href="#m97609b97b1" x="365.295868" y="172.380713" style="fill: #1f77b4; stroke: #1f77b4"/>
     <use xlink:href="#m97609b97b1" x="367.140496" y="150.541829" style="fill: #1f77b4; stroke: #1f77b4"/>
     <use xlink:href="#m97609b97b1" x="368.985124" y="136.343732" style="fill: #1f77b4; stroke: #1f77b4"/>
     <use xlink:href="#m97609b97b1" x="370.829752" y="167.026869" style="fill: #1f77b4; stroke: #1f77b4"/>
     <use xlink:href="#m97609b97b1" x="372.67438" y="171.787802" style="fill: #1f77b4; stroke: #1f77b4"/>
     <use xlink:href="#m97609b97b1" x="374.519008" y="155.623922" style="fill: #1f77b4; stroke: #1f77b4"/>
     <use xlink:href="#m97609b97b1" x="376.363636" y="134.850867" style="fill: #1f77b4; stroke: #1f77b4"/>
     <use xlink:href="#m97609b97b1" x="378.208264" y="113.084063" style="fill: #1f77b4; stroke: #1f77b4"/>
     <use xlink:href="#m97609b97b1" x="380.052893" y="94.354432" style="fill: #1f77b4; stroke: #1f77b4"/>
     <use xlink:href="#m97609b97b1" x="381.897521" y="92.85098" style="fill: #1f77b4; stroke: #1f77b4"/>
     <use xlink:href="#m97609b97b1" x="383.742149" y="89.829958" style="fill: #1f77b4; stroke: #1f77b4"/>
     <use xlink:href="#m97609b97b1" x="385.586777" y="82.227993" style="fill: #1f77b4; stroke: #1f77b4"/>
     <use xlink:href="#m97609b97b1" x="387.431405" y="81.730372" style="fill: #1f77b4; stroke: #1f77b4"/>
     <use xlink:href="#m97609b97b1" x="389.276033" y="78.416424" style="fill: #1f77b4; stroke: #1f77b4"/>
     <use xlink:href="#m97609b97b1" x="391.120661" y="83.427932" style="fill: #1f77b4; stroke: #1f77b4"/>
     <use xlink:href="#m97609b97b1" x="392.965289" y="75.885965" style="fill: #1f77b4; stroke: #1f77b4"/>
     <use xlink:href="#m97609b97b1" x="394.809917" y="83.516163" style="fill: #1f77b4; stroke: #1f77b4"/>
     <use xlink:href="#m97609b97b1" x="396.654545" y="77.184722" style="fill: #1f77b4; stroke: #1f77b4"/>
     <use xlink:href="#m97609b97b1" x="398.499174" y="78.670528" style="fill: #1f77b4; stroke: #1f77b4"/>
     <use xlink:href="#m97609b97b1" x="400.343802" y="81.606849" style="fill: #1f77b4; stroke: #1f77b4"/>
     <use xlink:href="#m97609b97b1" x="402.18843" y="80.770421" style="fill: #1f77b4; stroke: #1f77b4"/>
     <use xlink:href="#m97609b97b1" x="404.033058" y="79.065802" style="fill: #1f77b4; stroke: #1f77b4"/>
     <use xlink:href="#m97609b97b1" x="405.877686" y="81.850366" style="fill: #1f77b4; stroke: #1f77b4"/>
     <use xlink:href="#m97609b97b1" x="407.722314" y="77.110608" style="fill: #1f77b4; stroke: #1f77b4"/>
     <use xlink:href="#m97609b97b1" x="409.566942" y="72.812004" style="fill: #1f77b4; stroke: #1f77b4"/>
     <use xlink:href="#m97609b97b1" x="411.41157" y="78.43054" style="fill: #1f77b4; stroke: #1f77b4"/>
     <use xlink:href="#m97609b97b1" x="413.256198" y="81.493913" style="fill: #1f77b4; stroke: #1f77b4"/>
     <use xlink:href="#m97609b97b1" x="415.100826" y="83.110301" style="fill: #1f77b4; stroke: #1f77b4"/>
     <use xlink:href="#m97609b97b1" x="416.945455" y="88.813539" style="fill: #1f77b4; stroke: #1f77b4"/>
     <use xlink:href="#m97609b97b1" x="418.790083" y="84.049077" style="fill: #1f77b4; stroke: #1f77b4"/>
     <use xlink:href="#m97609b97b1" x="420.634711" y="97.961307" style="fill: #1f77b4; stroke: #1f77b4"/>
     <use xlink:href="#m97609b97b1" x="422.479339" y="88.467674" style="fill: #1f77b4; stroke: #1f77b4"/>
     <use xlink:href="#m97609b97b1" x="424.323967" y="98.614215" style="fill: #1f77b4; stroke: #1f77b4"/>
     <use xlink:href="#m97609b97b1" x="426.168595" y="125.888114" style="fill: #1f77b4; stroke: #1f77b4"/>
     <use xlink:href="#m97609b97b1" x="428.013223" y="146.983826" style="fill: #1f77b4; stroke: #1f77b4"/>
     <use xlink:href="#m97609b97b1" x="429.857851" y="239.590856" style="fill: #1f77b4; stroke: #1f77b4"/>
     <use xlink:href="#m97609b97b1" x="431.702479" y="254.583031" style="fill: #1f77b4; stroke: #1f77b4"/>
     <use xlink:href="#m97609b97b1" x="433.547107" y="228.96787" style="fill: #1f77b4; stroke: #1f77b4"/>
     <use xlink:href="#m97609b97b1" x="435.391736" y="161.478379" style="fill: #1f77b4; stroke: #1f77b4"/>
     <use xlink:href="#m97609b97b1" x="437.236364" y="109.926896" style="fill: #1f77b4; stroke: #1f77b4"/>
     <use xlink:href="#m97609b97b1" x="439.080992" y="95.178239" style="fill: #1f77b4; stroke: #1f77b4"/>
     <use xlink:href="#m97609b97b1" x="440.92562" y="82.825929" style="fill: #1f77b4; stroke: #1f77b4"/>
     <use xlink:href="#m97609b97b1" x="442.770248" y="81.170719" style="fill: #1f77b4; stroke: #1f77b4"/>
     <use xlink:href="#m97609b97b1" x="444.614876" y="71.190053" style="fill: #1f77b4; stroke: #1f77b4"/>
     <use xlink:href="#m97609b97b1" x="446.459504" y="84.258797" style="fill: #1f77b4; stroke: #1f77b4"/>
     <use xlink:href="#m97609b97b1" x="448.304132" y="82.896513" style="fill: #1f77b4; stroke: #1f77b4"/>
     <use xlink:href="#m97609b97b1" x="450.14876" y="78.18146" style="fill: #1f77b4; stroke: #1f77b4"/>
     <use xlink:href="#m97609b97b1" x="451.993388" y="76.374494" style="fill: #1f77b4; stroke: #1f77b4"/>
     <use xlink:href="#m97609b97b1" x="453.838017" y="73.293475" style="fill: #1f77b4; stroke: #1f77b4"/>
     <use xlink:href="#m97609b97b1" x="455.682645" y="74.359303" style="fill: #1f77b4; stroke: #1f77b4"/>
     <use xlink:href="#m97609b97b1" x="457.527273" y="74.4193" style="fill: #1f77b4; stroke: #1f77b4"/>
     <use xlink:href="#m97609b97b1" x="459.371901" y="77.719131" style="fill: #1f77b4; stroke: #1f77b4"/>
     <use xlink:href="#m97609b97b1" x="461.216529" y="72.665272" style="fill: #1f77b4; stroke: #1f77b4"/>
     <use xlink:href="#m97609b97b1" x="463.061157" y="73.713453" style="fill: #1f77b4; stroke: #1f77b4"/>
     <use xlink:href="#m97609b97b1" x="464.905785" y="73.618164" style="fill: #1f77b4; stroke: #1f77b4"/>
     <use xlink:href="#m97609b97b1" x="466.750413" y="81.283655" style="fill: #1f77b4; stroke: #1f77b4"/>
     <use xlink:href="#m97609b97b1" x="468.595041" y="80.861642" style="fill: #1f77b4; stroke: #1f77b4"/>
     <use xlink:href="#m97609b97b1" x="470.439669" y="76.086592" style="fill: #1f77b4; stroke: #1f77b4"/>
     <use xlink:href="#m97609b97b1" x="472.284298" y="74.773718" style="fill: #1f77b4; stroke: #1f77b4"/>
     <use xlink:href="#m97609b97b1" x="474.128926" y="73.358496" style="fill: #1f77b4; stroke: #1f77b4"/>
     <use xlink:href="#m97609b97b1" x="475.973554" y="76.174823" style="fill: #1f77b4; stroke: #1f77b4"/>
     <use xlink:href="#m97609b97b1" x="477.818182" y="74.473734" style="fill: #1f77b4; stroke: #1f77b4"/>
     <use xlink:href="#m97609b97b1" x="479.66281" y="66.96" style="fill: #1f77b4; stroke: #1f77b4"/>
     <use xlink:href="#m97609b97b1" x="481.507438" y="69.825736" style="fill: #1f77b4; stroke: #1f77b4"/>
     <use xlink:href="#m97609b97b1" x="483.352066" y="75.761903" style="fill: #1f77b4; stroke: #1f77b4"/>
     <use xlink:href="#m97609b97b1" x="485.196694" y="68.74932" style="fill: #1f77b4; stroke: #1f77b4"/>
     <use xlink:href="#m97609b97b1" x="487.041322" y="73.813767" style="fill: #1f77b4; stroke: #1f77b4"/>
     <use xlink:href="#m97609b97b1" x="488.88595" y="70.63393" style="fill: #1f77b4; stroke: #1f77b4"/>
     <use xlink:href="#m97609b97b1" x="490.730579" y="75.147817" style="fill: #1f77b4; stroke: #1f77b4"/>
     <use xlink:href="#m97609b97b1" x="492.575207" y="82.199221" style="fill: #1f77b4; stroke: #1f77b4"/>
     <use xlink:href="#m97609b97b1" x="494.419835" y="74.501967" style="fill: #1f77b4; stroke: #1f77b4"/>
     <use xlink:href="#m97609b97b1" x="496.264463" y="72.719706" style="fill: #1f77b4; stroke: #1f77b4"/>
     <use xlink:href="#m97609b97b1" x="498.109091" y="69.726917" style="fill: #1f77b4; stroke: #1f77b4"/>
    </g>
   </g>
   <g id="matplotlib.axis_1">
    <g id="xtick_1">
     <g id="line2d_1">
      <defs>
       <path id="m4011b1373f" d="M 0 0 
L 0 3.5 
" style="stroke: #000000; stroke-width: 0.8"/>
      </defs>
      <g>
       <use xlink:href="#m4011b1373f" x="138.406612" y="384.48" style="stroke: #000000; stroke-width: 0.8"/>
      </g>
     </g>
     <g id="text_1">
      <!-- 2.7 -->
      <g transform="translate(130.455049 399.078438)scale(0.1 -0.1)">
       <defs>
        <path id="DejaVuSans-32" d="M 1228 531 
L 3431 531 
L 3431 0 
L 469 0 
L 469 531 
Q 828 903 1448 1529 
Q 2069 2156 2228 2338 
Q 2531 2678 2651 2914 
Q 2772 3150 2772 3378 
Q 2772 3750 2511 3984 
Q 2250 4219 1831 4219 
Q 1534 4219 1204 4116 
Q 875 4013 500 3803 
L 500 4441 
Q 881 4594 1212 4672 
Q 1544 4750 1819 4750 
Q 2544 4750 2975 4387 
Q 3406 4025 3406 3419 
Q 3406 3131 3298 2873 
Q 3191 2616 2906 2266 
Q 2828 2175 2409 1742 
Q 1991 1309 1228 531 
z
" transform="scale(0.015625)"/>
        <path id="DejaVuSans-2e" d="M 684 794 
L 1344 794 
L 1344 0 
L 684 0 
L 684 794 
z
" transform="scale(0.015625)"/>
        <path id="DejaVuSans-37" d="M 525 4666 
L 3525 4666 
L 3525 4397 
L 1831 0 
L 1172 0 
L 2766 4134 
L 525 4134 
L 525 4666 
z
" transform="scale(0.015625)"/>
       </defs>
       <use xlink:href="#DejaVuSans-32"/>
       <use xlink:href="#DejaVuSans-2e" x="63.623047"/>
       <use xlink:href="#DejaVuSans-37" x="95.410156"/>
      </g>
     </g>
    </g>
    <g id="xtick_2">
     <g id="line2d_2">
      <g>
       <use xlink:href="#m4011b1373f" x="230.638017" y="384.48" style="stroke: #000000; stroke-width: 0.8"/>
      </g>
     </g>
     <g id="text_2">
      <!-- 2.8 -->
      <g transform="translate(222.686454 399.078438)scale(0.1 -0.1)">
       <defs>
        <path id="DejaVuSans-38" d="M 2034 2216 
Q 1584 2216 1326 1975 
Q 1069 1734 1069 1313 
Q 1069 891 1326 650 
Q 1584 409 2034 409 
Q 2484 409 2743 651 
Q 3003 894 3003 1313 
Q 3003 1734 2745 1975 
Q 2488 2216 2034 2216 
z
M 1403 2484 
Q 997 2584 770 2862 
Q 544 3141 544 3541 
Q 544 4100 942 4425 
Q 1341 4750 2034 4750 
Q 2731 4750 3128 4425 
Q 3525 4100 3525 3541 
Q 3525 3141 3298 2862 
Q 3072 2584 2669 2484 
Q 3125 2378 3379 2068 
Q 3634 1759 3634 1313 
Q 3634 634 3220 271 
Q 2806 -91 2034 -91 
Q 1263 -91 848 271 
Q 434 634 434 1313 
Q 434 1759 690 2068 
Q 947 2378 1403 2484 
z
M 1172 3481 
Q 1172 3119 1398 2916 
Q 1625 2713 2034 2713 
Q 2441 2713 2670 2916 
Q 2900 3119 2900 3481 
Q 2900 3844 2670 4047 
Q 2441 4250 2034 4250 
Q 1625 4250 1398 4047 
Q 1172 3844 1172 3481 
z
" transform="scale(0.015625)"/>
       </defs>
       <use xlink:href="#DejaVuSans-32"/>
       <use xlink:href="#DejaVuSans-2e" x="63.623047"/>
       <use xlink:href="#DejaVuSans-38" x="95.410156"/>
      </g>
     </g>
    </g>
    <g id="xtick_3">
     <g id="line2d_3">
      <g>
       <use xlink:href="#m4011b1373f" x="322.869421" y="384.48" style="stroke: #000000; stroke-width: 0.8"/>
      </g>
     </g>
     <g id="text_3">
      <!-- 2.9 -->
      <g transform="translate(314.917859 399.078438)scale(0.1 -0.1)">
       <defs>
        <path id="DejaVuSans-39" d="M 703 97 
L 703 672 
Q 941 559 1184 500 
Q 1428 441 1663 441 
Q 2288 441 2617 861 
Q 2947 1281 2994 2138 
Q 2813 1869 2534 1725 
Q 2256 1581 1919 1581 
Q 1219 1581 811 2004 
Q 403 2428 403 3163 
Q 403 3881 828 4315 
Q 1253 4750 1959 4750 
Q 2769 4750 3195 4129 
Q 3622 3509 3622 2328 
Q 3622 1225 3098 567 
Q 2575 -91 1691 -91 
Q 1453 -91 1209 -44 
Q 966 3 703 97 
z
M 1959 2075 
Q 2384 2075 2632 2365 
Q 2881 2656 2881 3163 
Q 2881 3666 2632 3958 
Q 2384 4250 1959 4250 
Q 1534 4250 1286 3958 
Q 1038 3666 1038 3163 
Q 1038 2656 1286 2365 
Q 1534 2075 1959 2075 
z
" transform="scale(0.015625)"/>
       </defs>
       <use xlink:href="#DejaVuSans-32"/>
       <use xlink:href="#DejaVuSans-2e" x="63.623047"/>
       <use xlink:href="#DejaVuSans-39" x="95.410156"/>
      </g>
     </g>
    </g>
    <g id="xtick_4">
     <g id="line2d_4">
      <g>
       <use xlink:href="#m4011b1373f" x="415.100826" y="384.48" style="stroke: #000000; stroke-width: 0.8"/>
      </g>
     </g>
     <g id="text_4">
      <!-- 3.0 -->
      <g transform="translate(407.149264 399.078438)scale(0.1 -0.1)">
       <defs>
        <path id="DejaVuSans-33" d="M 2597 2516 
Q 3050 2419 3304 2112 
Q 3559 1806 3559 1356 
Q 3559 666 3084 287 
Q 2609 -91 1734 -91 
Q 1441 -91 1130 -33 
Q 819 25 488 141 
L 488 750 
Q 750 597 1062 519 
Q 1375 441 1716 441 
Q 2309 441 2620 675 
Q 2931 909 2931 1356 
Q 2931 1769 2642 2001 
Q 2353 2234 1838 2234 
L 1294 2234 
L 1294 2753 
L 1863 2753 
Q 2328 2753 2575 2939 
Q 2822 3125 2822 3475 
Q 2822 3834 2567 4026 
Q 2313 4219 1838 4219 
Q 1578 4219 1281 4162 
Q 984 4106 628 3988 
L 628 4550 
Q 988 4650 1302 4700 
Q 1616 4750 1894 4750 
Q 2613 4750 3031 4423 
Q 3450 4097 3450 3541 
Q 3450 3153 3228 2886 
Q 3006 2619 2597 2516 
z
" transform="scale(0.015625)"/>
        <path id="DejaVuSans-30" d="M 2034 4250 
Q 1547 4250 1301 3770 
Q 1056 3291 1056 2328 
Q 1056 1369 1301 889 
Q 1547 409 2034 409 
Q 2525 409 2770 889 
Q 3016 1369 3016 2328 
Q 3016 3291 2770 3770 
Q 2525 4250 2034 4250 
z
M 2034 4750 
Q 2819 4750 3233 4129 
Q 3647 3509 3647 2328 
Q 3647 1150 3233 529 
Q 2819 -91 2034 -91 
Q 1250 -91 836 529 
Q 422 1150 422 2328 
Q 422 3509 836 4129 
Q 1250 4750 2034 4750 
z
" transform="scale(0.015625)"/>
       </defs>
       <use xlink:href="#DejaVuSans-33"/>
       <use xlink:href="#DejaVuSans-2e" x="63.623047"/>
       <use xlink:href="#DejaVuSans-30" x="95.410156"/>
      </g>
     </g>
    </g>
    <g id="xtick_5">
     <g id="line2d_5">
      <g>
       <use xlink:href="#m4011b1373f" x="507.332231" y="384.48" style="stroke: #000000; stroke-width: 0.8"/>
      </g>
     </g>
     <g id="text_5">
      <!-- 3.1 -->
      <g transform="translate(499.380669 399.078438)scale(0.1 -0.1)">
       <defs>
        <path id="DejaVuSans-31" d="M 794 531 
L 1825 531 
L 1825 4091 
L 703 3866 
L 703 4441 
L 1819 4666 
L 2450 4666 
L 2450 531 
L 3481 531 
L 3481 0 
L 794 0 
L 794 531 
z
" transform="scale(0.015625)"/>
       </defs>
       <use xlink:href="#DejaVuSans-33"/>
       <use xlink:href="#DejaVuSans-2e" x="63.623047"/>
       <use xlink:href="#DejaVuSans-31" x="95.410156"/>
      </g>
     </g>
    </g>
    <g id="text_6">
     <!-- [GHz] -->
     <g transform="translate(281.039844 412.756563)scale(0.1 -0.1)">
      <defs>
       <path id="DejaVuSans-5b" d="M 550 4863 
L 1875 4863 
L 1875 4416 
L 1125 4416 
L 1125 -397 
L 1875 -397 
L 1875 -844 
L 550 -844 
L 550 4863 
z
" transform="scale(0.015625)"/>
       <path id="DejaVuSans-47" d="M 3809 666 
L 3809 1919 
L 2778 1919 
L 2778 2438 
L 4434 2438 
L 4434 434 
Q 4069 175 3628 42 
Q 3188 -91 2688 -91 
Q 1594 -91 976 548 
Q 359 1188 359 2328 
Q 359 3472 976 4111 
Q 1594 4750 2688 4750 
Q 3144 4750 3555 4637 
Q 3966 4525 4313 4306 
L 4313 3634 
Q 3963 3931 3569 4081 
Q 3175 4231 2741 4231 
Q 1884 4231 1454 3753 
Q 1025 3275 1025 2328 
Q 1025 1384 1454 906 
Q 1884 428 2741 428 
Q 3075 428 3337 486 
Q 3600 544 3809 666 
z
" transform="scale(0.015625)"/>
       <path id="DejaVuSans-48" d="M 628 4666 
L 1259 4666 
L 1259 2753 
L 3553 2753 
L 3553 4666 
L 4184 4666 
L 4184 0 
L 3553 0 
L 3553 2222 
L 1259 2222 
L 1259 0 
L 628 0 
L 628 4666 
z
" transform="scale(0.015625)"/>
       <path id="DejaVuSans-7a" d="M 353 3500 
L 3084 3500 
L 3084 2975 
L 922 459 
L 3084 459 
L 3084 0 
L 275 0 
L 275 525 
L 2438 3041 
L 353 3041 
L 353 3500 
z
" transform="scale(0.015625)"/>
       <path id="DejaVuSans-5d" d="M 1947 4863 
L 1947 -844 
L 622 -844 
L 622 -397 
L 1369 -397 
L 1369 4416 
L 622 4416 
L 622 4863 
L 1947 4863 
z
" transform="scale(0.015625)"/>
      </defs>
      <use xlink:href="#DejaVuSans-5b"/>
      <use xlink:href="#DejaVuSans-47" x="39.013672"/>
      <use xlink:href="#DejaVuSans-48" x="116.503906"/>
      <use xlink:href="#DejaVuSans-7a" x="191.699219"/>
      <use xlink:href="#DejaVuSans-5d" x="244.189453"/>
     </g>
    </g>
   </g>
   <g id="matplotlib.axis_2">
    <g id="ytick_1">
     <g id="line2d_6">
      <defs>
       <path id="macd75637ad" d="M 0 0 
L -3.5 0 
" style="stroke: #000000; stroke-width: 0.8"/>
      </defs>
      <g>
       <use xlink:href="#macd75637ad" x="72" y="375.092356" style="stroke: #000000; stroke-width: 0.8"/>
      </g>
     </g>
     <g id="text_7">
      <!-- 0.988 -->
      <g transform="translate(36.371875 378.891575)scale(0.1 -0.1)">
       <use xlink:href="#DejaVuSans-30"/>
       <use xlink:href="#DejaVuSans-2e" x="63.623047"/>
       <use xlink:href="#DejaVuSans-39" x="95.410156"/>
       <use xlink:href="#DejaVuSans-38" x="159.033203"/>
       <use xlink:href="#DejaVuSans-38" x="222.65625"/>
      </g>
     </g>
    </g>
    <g id="ytick_2">
     <g id="line2d_7">
      <g>
       <use xlink:href="#macd75637ad" x="72" y="326.912962" style="stroke: #000000; stroke-width: 0.8"/>
      </g>
     </g>
     <g id="text_8">
      <!-- 0.990 -->
      <g transform="translate(36.371875 330.712181)scale(0.1 -0.1)">
       <use xlink:href="#DejaVuSans-30"/>
       <use xlink:href="#DejaVuSans-2e" x="63.623047"/>
       <use xlink:href="#DejaVuSans-39" x="95.410156"/>
       <use xlink:href="#DejaVuSans-39" x="159.033203"/>
       <use xlink:href="#DejaVuSans-30" x="222.65625"/>
      </g>
     </g>
    </g>
    <g id="ytick_3">
     <g id="line2d_8">
      <g>
       <use xlink:href="#macd75637ad" x="72" y="278.733569" style="stroke: #000000; stroke-width: 0.8"/>
      </g>
     </g>
     <g id="text_9">
      <!-- 0.992 -->
      <g transform="translate(36.371875 282.532788)scale(0.1 -0.1)">
       <use xlink:href="#DejaVuSans-30"/>
       <use xlink:href="#DejaVuSans-2e" x="63.623047"/>
       <use xlink:href="#DejaVuSans-39" x="95.410156"/>
       <use xlink:href="#DejaVuSans-39" x="159.033203"/>
       <use xlink:href="#DejaVuSans-32" x="222.65625"/>
      </g>
     </g>
    </g>
    <g id="ytick_4">
     <g id="line2d_9">
      <g>
       <use xlink:href="#macd75637ad" x="72" y="230.554175" style="stroke: #000000; stroke-width: 0.8"/>
      </g>
     </g>
     <g id="text_10">
      <!-- 0.994 -->
      <g transform="translate(36.371875 234.353394)scale(0.1 -0.1)">
       <defs>
        <path id="DejaVuSans-34" d="M 2419 4116 
L 825 1625 
L 2419 1625 
L 2419 4116 
z
M 2253 4666 
L 3047 4666 
L 3047 1625 
L 3713 1625 
L 3713 1100 
L 3047 1100 
L 3047 0 
L 2419 0 
L 2419 1100 
L 313 1100 
L 313 1709 
L 2253 4666 
z
" transform="scale(0.015625)"/>
       </defs>
       <use xlink:href="#DejaVuSans-30"/>
       <use xlink:href="#DejaVuSans-2e" x="63.623047"/>
       <use xlink:href="#DejaVuSans-39" x="95.410156"/>
       <use xlink:href="#DejaVuSans-39" x="159.033203"/>
       <use xlink:href="#DejaVuSans-34" x="222.65625"/>
      </g>
     </g>
    </g>
    <g id="ytick_5">
     <g id="line2d_10">
      <g>
       <use xlink:href="#macd75637ad" x="72" y="182.374782" style="stroke: #000000; stroke-width: 0.8"/>
      </g>
     </g>
     <g id="text_11">
      <!-- 0.996 -->
      <g transform="translate(36.371875 186.174)scale(0.1 -0.1)">
       <defs>
        <path id="DejaVuSans-36" d="M 2113 2584 
Q 1688 2584 1439 2293 
Q 1191 2003 1191 1497 
Q 1191 994 1439 701 
Q 1688 409 2113 409 
Q 2538 409 2786 701 
Q 3034 994 3034 1497 
Q 3034 2003 2786 2293 
Q 2538 2584 2113 2584 
z
M 3366 4563 
L 3366 3988 
Q 3128 4100 2886 4159 
Q 2644 4219 2406 4219 
Q 1781 4219 1451 3797 
Q 1122 3375 1075 2522 
Q 1259 2794 1537 2939 
Q 1816 3084 2150 3084 
Q 2853 3084 3261 2657 
Q 3669 2231 3669 1497 
Q 3669 778 3244 343 
Q 2819 -91 2113 -91 
Q 1303 -91 875 529 
Q 447 1150 447 2328 
Q 447 3434 972 4092 
Q 1497 4750 2381 4750 
Q 2619 4750 2861 4703 
Q 3103 4656 3366 4563 
z
" transform="scale(0.015625)"/>
       </defs>
       <use xlink:href="#DejaVuSans-30"/>
       <use xlink:href="#DejaVuSans-2e" x="63.623047"/>
       <use xlink:href="#DejaVuSans-39" x="95.410156"/>
       <use xlink:href="#DejaVuSans-39" x="159.033203"/>
       <use xlink:href="#DejaVuSans-36" x="222.65625"/>
      </g>
     </g>
    </g>
    <g id="ytick_6">
     <g id="line2d_11">
      <g>
       <use xlink:href="#macd75637ad" x="72" y="134.195388" style="stroke: #000000; stroke-width: 0.8"/>
      </g>
     </g>
     <g id="text_12">
      <!-- 0.998 -->
      <g transform="translate(36.371875 137.994607)scale(0.1 -0.1)">
       <use xlink:href="#DejaVuSans-30"/>
       <use xlink:href="#DejaVuSans-2e" x="63.623047"/>
       <use xlink:href="#DejaVuSans-39" x="95.410156"/>
       <use xlink:href="#DejaVuSans-39" x="159.033203"/>
       <use xlink:href="#DejaVuSans-38" x="222.65625"/>
      </g>
     </g>
    </g>
    <g id="ytick_7">
     <g id="line2d_12">
      <g>
       <use xlink:href="#macd75637ad" x="72" y="86.015995" style="stroke: #000000; stroke-width: 0.8"/>
      </g>
     </g>
     <g id="text_13">
      <!-- 1.000 -->
      <g transform="translate(36.371875 89.815213)scale(0.1 -0.1)">
       <use xlink:href="#DejaVuSans-31"/>
       <use xlink:href="#DejaVuSans-2e" x="63.623047"/>
       <use xlink:href="#DejaVuSans-30" x="95.410156"/>
       <use xlink:href="#DejaVuSans-30" x="159.033203"/>
       <use xlink:href="#DejaVuSans-30" x="222.65625"/>
      </g>
     </g>
    </g>
    <g id="text_14">
     <!-- [Normalized Counts / s] -->
     <g transform="translate(30.292187 276.926406)rotate(-90)scale(0.1 -0.1)">
      <defs>
       <path id="DejaVuSans-4e" d="M 628 4666 
L 1478 4666 
L 3547 763 
L 3547 4666 
L 4159 4666 
L 4159 0 
L 3309 0 
L 1241 3903 
L 1241 0 
L 628 0 
L 628 4666 
z
" transform="scale(0.015625)"/>
       <path id="DejaVuSans-6f" d="M 1959 3097 
Q 1497 3097 1228 2736 
Q 959 2375 959 1747 
Q 959 1119 1226 758 
Q 1494 397 1959 397 
Q 2419 397 2687 759 
Q 2956 1122 2956 1747 
Q 2956 2369 2687 2733 
Q 2419 3097 1959 3097 
z
M 1959 3584 
Q 2709 3584 3137 3096 
Q 3566 2609 3566 1747 
Q 3566 888 3137 398 
Q 2709 -91 1959 -91 
Q 1206 -91 779 398 
Q 353 888 353 1747 
Q 353 2609 779 3096 
Q 1206 3584 1959 3584 
z
" transform="scale(0.015625)"/>
       <path id="DejaVuSans-72" d="M 2631 2963 
Q 2534 3019 2420 3045 
Q 2306 3072 2169 3072 
Q 1681 3072 1420 2755 
Q 1159 2438 1159 1844 
L 1159 0 
L 581 0 
L 581 3500 
L 1159 3500 
L 1159 2956 
Q 1341 3275 1631 3429 
Q 1922 3584 2338 3584 
Q 2397 3584 2469 3576 
Q 2541 3569 2628 3553 
L 2631 2963 
z
" transform="scale(0.015625)"/>
       <path id="DejaVuSans-6d" d="M 3328 2828 
Q 3544 3216 3844 3400 
Q 4144 3584 4550 3584 
Q 5097 3584 5394 3201 
Q 5691 2819 5691 2113 
L 5691 0 
L 5113 0 
L 5113 2094 
Q 5113 2597 4934 2840 
Q 4756 3084 4391 3084 
Q 3944 3084 3684 2787 
Q 3425 2491 3425 1978 
L 3425 0 
L 2847 0 
L 2847 2094 
Q 2847 2600 2669 2842 
Q 2491 3084 2119 3084 
Q 1678 3084 1418 2786 
Q 1159 2488 1159 1978 
L 1159 0 
L 581 0 
L 581 3500 
L 1159 3500 
L 1159 2956 
Q 1356 3278 1631 3431 
Q 1906 3584 2284 3584 
Q 2666 3584 2933 3390 
Q 3200 3197 3328 2828 
z
" transform="scale(0.015625)"/>
       <path id="DejaVuSans-61" d="M 2194 1759 
Q 1497 1759 1228 1600 
Q 959 1441 959 1056 
Q 959 750 1161 570 
Q 1363 391 1709 391 
Q 2188 391 2477 730 
Q 2766 1069 2766 1631 
L 2766 1759 
L 2194 1759 
z
M 3341 1997 
L 3341 0 
L 2766 0 
L 2766 531 
Q 2569 213 2275 61 
Q 1981 -91 1556 -91 
Q 1019 -91 701 211 
Q 384 513 384 1019 
Q 384 1609 779 1909 
Q 1175 2209 1959 2209 
L 2766 2209 
L 2766 2266 
Q 2766 2663 2505 2880 
Q 2244 3097 1772 3097 
Q 1472 3097 1187 3025 
Q 903 2953 641 2809 
L 641 3341 
Q 956 3463 1253 3523 
Q 1550 3584 1831 3584 
Q 2591 3584 2966 3190 
Q 3341 2797 3341 1997 
z
" transform="scale(0.015625)"/>
       <path id="DejaVuSans-6c" d="M 603 4863 
L 1178 4863 
L 1178 0 
L 603 0 
L 603 4863 
z
" transform="scale(0.015625)"/>
       <path id="DejaVuSans-69" d="M 603 3500 
L 1178 3500 
L 1178 0 
L 603 0 
L 603 3500 
z
M 603 4863 
L 1178 4863 
L 1178 4134 
L 603 4134 
L 603 4863 
z
" transform="scale(0.015625)"/>
       <path id="DejaVuSans-65" d="M 3597 1894 
L 3597 1613 
L 953 1613 
Q 991 1019 1311 708 
Q 1631 397 2203 397 
Q 2534 397 2845 478 
Q 3156 559 3463 722 
L 3463 178 
Q 3153 47 2828 -22 
Q 2503 -91 2169 -91 
Q 1331 -91 842 396 
Q 353 884 353 1716 
Q 353 2575 817 3079 
Q 1281 3584 2069 3584 
Q 2775 3584 3186 3129 
Q 3597 2675 3597 1894 
z
M 3022 2063 
Q 3016 2534 2758 2815 
Q 2500 3097 2075 3097 
Q 1594 3097 1305 2825 
Q 1016 2553 972 2059 
L 3022 2063 
z
" transform="scale(0.015625)"/>
       <path id="DejaVuSans-64" d="M 2906 2969 
L 2906 4863 
L 3481 4863 
L 3481 0 
L 2906 0 
L 2906 525 
Q 2725 213 2448 61 
Q 2172 -91 1784 -91 
Q 1150 -91 751 415 
Q 353 922 353 1747 
Q 353 2572 751 3078 
Q 1150 3584 1784 3584 
Q 2172 3584 2448 3432 
Q 2725 3281 2906 2969 
z
M 947 1747 
Q 947 1113 1208 752 
Q 1469 391 1925 391 
Q 2381 391 2643 752 
Q 2906 1113 2906 1747 
Q 2906 2381 2643 2742 
Q 2381 3103 1925 3103 
Q 1469 3103 1208 2742 
Q 947 2381 947 1747 
z
" transform="scale(0.015625)"/>
       <path id="DejaVuSans-20" transform="scale(0.015625)"/>
       <path id="DejaVuSans-43" d="M 4122 4306 
L 4122 3641 
Q 3803 3938 3442 4084 
Q 3081 4231 2675 4231 
Q 1875 4231 1450 3742 
Q 1025 3253 1025 2328 
Q 1025 1406 1450 917 
Q 1875 428 2675 428 
Q 3081 428 3442 575 
Q 3803 722 4122 1019 
L 4122 359 
Q 3791 134 3420 21 
Q 3050 -91 2638 -91 
Q 1578 -91 968 557 
Q 359 1206 359 2328 
Q 359 3453 968 4101 
Q 1578 4750 2638 4750 
Q 3056 4750 3426 4639 
Q 3797 4528 4122 4306 
z
" transform="scale(0.015625)"/>
       <path id="DejaVuSans-75" d="M 544 1381 
L 544 3500 
L 1119 3500 
L 1119 1403 
Q 1119 906 1312 657 
Q 1506 409 1894 409 
Q 2359 409 2629 706 
Q 2900 1003 2900 1516 
L 2900 3500 
L 3475 3500 
L 3475 0 
L 2900 0 
L 2900 538 
Q 2691 219 2414 64 
Q 2138 -91 1772 -91 
Q 1169 -91 856 284 
Q 544 659 544 1381 
z
M 1991 3584 
L 1991 3584 
z
" transform="scale(0.015625)"/>
       <path id="DejaVuSans-6e" d="M 3513 2113 
L 3513 0 
L 2938 0 
L 2938 2094 
Q 2938 2591 2744 2837 
Q 2550 3084 2163 3084 
Q 1697 3084 1428 2787 
Q 1159 2491 1159 1978 
L 1159 0 
L 581 0 
L 581 3500 
L 1159 3500 
L 1159 2956 
Q 1366 3272 1645 3428 
Q 1925 3584 2291 3584 
Q 2894 3584 3203 3211 
Q 3513 2838 3513 2113 
z
" transform="scale(0.015625)"/>
       <path id="DejaVuSans-74" d="M 1172 4494 
L 1172 3500 
L 2356 3500 
L 2356 3053 
L 1172 3053 
L 1172 1153 
Q 1172 725 1289 603 
Q 1406 481 1766 481 
L 2356 481 
L 2356 0 
L 1766 0 
Q 1100 0 847 248 
Q 594 497 594 1153 
L 594 3053 
L 172 3053 
L 172 3500 
L 594 3500 
L 594 4494 
L 1172 4494 
z
" transform="scale(0.015625)"/>
       <path id="DejaVuSans-73" d="M 2834 3397 
L 2834 2853 
Q 2591 2978 2328 3040 
Q 2066 3103 1784 3103 
Q 1356 3103 1142 2972 
Q 928 2841 928 2578 
Q 928 2378 1081 2264 
Q 1234 2150 1697 2047 
L 1894 2003 
Q 2506 1872 2764 1633 
Q 3022 1394 3022 966 
Q 3022 478 2636 193 
Q 2250 -91 1575 -91 
Q 1294 -91 989 -36 
Q 684 19 347 128 
L 347 722 
Q 666 556 975 473 
Q 1284 391 1588 391 
Q 1994 391 2212 530 
Q 2431 669 2431 922 
Q 2431 1156 2273 1281 
Q 2116 1406 1581 1522 
L 1381 1569 
Q 847 1681 609 1914 
Q 372 2147 372 2553 
Q 372 3047 722 3315 
Q 1072 3584 1716 3584 
Q 2034 3584 2315 3537 
Q 2597 3491 2834 3397 
z
" transform="scale(0.015625)"/>
       <path id="DejaVuSans-2f" d="M 1625 4666 
L 2156 4666 
L 531 -594 
L 0 -594 
L 1625 4666 
z
" transform="scale(0.015625)"/>
      </defs>
      <use xlink:href="#DejaVuSans-5b"/>
      <use xlink:href="#DejaVuSans-4e" x="39.013672"/>
      <use xlink:href="#DejaVuSans-6f" x="113.818359"/>
      <use xlink:href="#DejaVuSans-72" x="175"/>
      <use xlink:href="#DejaVuSans-6d" x="214.363281"/>
      <use xlink:href="#DejaVuSans-61" x="311.775391"/>
      <use xlink:href="#DejaVuSans-6c" x="373.054688"/>
      <use xlink:href="#DejaVuSans-69" x="400.837891"/>
      <use xlink:href="#DejaVuSans-7a" x="428.621094"/>
      <use xlink:href="#DejaVuSans-65" x="481.111328"/>
      <use xlink:href="#DejaVuSans-64" x="542.634766"/>
      <use xlink:href="#DejaVuSans-20" x="606.111328"/>
      <use xlink:href="#DejaVuSans-43" x="637.898438"/>
      <use xlink:href="#DejaVuSans-6f" x="707.722656"/>
      <use xlink:href="#DejaVuSans-75" x="768.904297"/>
      <use xlink:href="#DejaVuSans-6e" x="832.283203"/>
      <use xlink:href="#DejaVuSans-74" x="895.662109"/>
      <use xlink:href="#DejaVuSans-73" x="934.871094"/>
      <use xlink:href="#DejaVuSans-20" x="986.970703"/>
      <use xlink:href="#DejaVuSans-2f" x="1018.757812"/>
      <use xlink:href="#DejaVuSans-20" x="1052.449219"/>
      <use xlink:href="#DejaVuSans-73" x="1084.236328"/>
      <use xlink:href="#DejaVuSans-5d" x="1136.335938"/>
     </g>
    </g>
   </g>
   <g id="line2d_13">
    <path d="M 92.290909 86.613248 
L 110.73719 86.959457 
L 119.960331 87.30479 
L 127.338843 87.787718 
L 132.872727 88.406999 
L 136.561983 89.060693 
L 138.406612 89.508909 
L 140.25124 90.077416 
L 142.095868 90.814163 
L 143.940496 91.79344 
L 145.785124 93.135116 
L 147.629752 95.042182 
L 149.47438 97.878937 
L 151.319008 102.346822 
L 153.163636 109.915551 
L 155.008264 123.973351 
L 156.852893 152.927323 
L 158.697521 214.153883 
L 160.542149 284.691254 
L 162.386777 235.776609 
L 164.231405 164.763369 
L 166.076033 129.559677 
L 167.920661 112.869767 
L 169.765289 104.142481 
L 171.609917 99.123961 
L 173.454545 96.012591 
L 175.299174 93.968875 
L 177.143802 92.565706 
L 178.98843 91.569225 
L 180.833058 90.843426 
L 182.677686 90.305203 
L 186.366942 89.598077 
L 190.056198 89.204161 
L 193.745455 89.010341 
L 199.279339 88.987188 
L 204.813223 89.24881 
L 208.502479 89.609937 
L 212.191736 90.186678 
L 215.880992 91.109407 
L 217.72562 91.781 
L 219.570248 92.674863 
L 221.414876 93.905819 
L 223.259504 95.681247 
L 225.104132 98.408134 
L 226.94876 102.970167 
L 228.793388 111.511862 
L 230.638017 129.514937 
L 232.482645 164.3375 
L 234.327273 176.353346 
L 236.171901 145.055427 
L 238.016529 128.400629 
L 239.861157 126.422695 
L 241.705785 134.583638 
L 243.550413 154.751276 
L 245.395041 192.477789 
L 247.239669 238.692879 
L 249.084298 238.156113 
L 250.928926 190.736002 
L 252.773554 151.380815 
L 254.618182 128.649931 
L 256.46281 115.865314 
L 258.307438 108.34206 
L 260.152066 103.690117 
L 261.996694 100.705223 
L 263.841322 98.754475 
L 265.68595 97.489722 
L 267.530579 96.713393 
L 269.375207 96.313434 
L 271.219835 96.23097 
L 273.064463 96.444721 
L 274.909091 96.965261 
L 276.753719 97.836675 
L 278.598347 99.146163 
L 280.442975 101.045446 
L 282.287603 103.793539 
L 284.132231 107.84303 
L 285.97686 114.022518 
L 287.821488 123.947749 
L 289.666116 141.007611 
L 291.510744 172.754016 
L 293.355372 234.995991 
L 295.2 336.430195 
L 297.044628 368.913375 
L 298.889256 273.845978 
L 300.733884 196.614903 
L 302.578512 157.934064 
L 304.42314 139.790814 
L 306.267769 132.517464 
L 308.112397 132.739693 
L 309.957025 140.918839 
L 311.801653 161.985465 
L 313.646281 209.651711 
L 315.490909 304.660112 
L 317.335537 369.36 
L 319.180165 277.021019 
L 321.024793 190.57283 
L 322.869421 147.840688 
L 324.71405 126.617425 
L 326.558678 115.046903 
L 328.403306 108.18343 
L 330.247934 103.846674 
L 332.092562 100.988595 
L 333.93719 99.065983 
L 335.781818 97.781732 
L 337.626446 96.969906 
L 339.471074 96.542029 
L 341.315702 96.462365 
L 343.160331 96.739408 
L 345.004959 97.429765 
L 346.849587 98.656703 
L 348.694215 100.653815 
L 350.538843 103.861587 
L 352.383471 109.150566 
L 354.228099 118.380085 
L 356.072727 135.923733 
L 357.917355 172.877182 
L 361.606612 331.508536 
L 363.45124 259.335643 
L 365.295868 181.108144 
L 367.140496 148.108456 
L 368.985124 141.035935 
L 370.829752 155.83053 
L 372.67438 178.655781 
L 374.519008 152.975763 
L 376.363636 123.247663 
L 378.208264 108.874943 
L 380.052893 101.785366 
L 381.897521 97.838162 
L 383.742149 95.40645 
L 385.586777 93.79354 
L 387.431405 92.666084 
L 389.276033 91.848741 
L 391.120661 91.242118 
L 394.809917 90.444988 
L 398.499174 90.017753 
L 402.18843 89.862187 
L 405.877686 89.963555 
L 409.566942 90.382287 
L 411.41157 90.759478 
L 413.256198 91.299066 
L 415.100826 92.067781 
L 416.945455 93.175829 
L 418.790083 94.813573 
L 420.634711 97.329627 
L 422.479339 101.411343 
L 424.323967 108.543438 
L 426.168595 122.291193 
L 428.013223 151.958938 
L 429.857851 216.644545 
L 431.702479 274.422842 
L 433.547107 207.878135 
L 435.391736 147.442866 
L 437.236364 120.103361 
L 439.080992 107.248438 
L 440.92562 100.460828 
L 442.770248 96.501939 
L 444.614876 94.007324 
L 446.459504 92.33819 
L 448.304132 91.167187 
L 450.14876 90.313681 
L 451.993388 89.671784 
L 455.682645 88.785112 
L 459.371901 88.213219 
L 464.905785 87.668172 
L 472.284298 87.238562 
L 483.352066 86.88115 
L 498.109091 86.628305 
L 498.109091 86.628305 
" clip-path="url(#p7fb600350a)" style="fill: none; stroke: #ffa500; stroke-width: 1.5; stroke-linecap: square"/>
   </g>
   <g id="patch_3">
    <path d="M 72 384.48 
L 72 51.84 
" style="fill: none; stroke: #000000; stroke-width: 0.8; stroke-linejoin: miter; stroke-linecap: square"/>
   </g>
   <g id="patch_4">
    <path d="M 518.4 384.48 
L 518.4 51.84 
" style="fill: none; stroke: #000000; stroke-width: 0.8; stroke-linejoin: miter; stroke-linecap: square"/>
   </g>
   <g id="patch_5">
    <path d="M 72 384.48 
L 518.4 384.48 
" style="fill: none; stroke: #000000; stroke-width: 0.8; stroke-linejoin: miter; stroke-linecap: square"/>
   </g>
   <g id="patch_6">
    <path d="M 72 51.84 
L 518.4 51.84 
" style="fill: none; stroke: #000000; stroke-width: 0.8; stroke-linejoin: miter; stroke-linecap: square"/>
   </g>
  </g>
 </g>
 <defs>
  <clipPath id="p7fb600350a">
   <rect x="72" y="51.84" width="446.4" height="332.64"/>
  </clipPath>
 </defs>
</svg>
