<?xml version="1.0" encoding="utf-8" standalone="no"?>
<!DOCTYPE svg PUBLIC "-//W3C//DTD SVG 1.1//EN"
  "http://www.w3.org/Graphics/SVG/1.1/DTD/svg11.dtd">
<svg xmlns:xlink="http://www.w3.org/1999/xlink" width="576pt" height="432pt" viewBox="0 0 576 432" xmlns="http://www.w3.org/2000/svg" version="1.1">
 <metadata>
  <rdf:RDF xmlns:dc="http://purl.org/dc/elements/1.1/" xmlns:cc="http://creativecommons.org/ns#" xmlns:rdf="http://www.w3.org/1999/02/22-rdf-syntax-ns#">
   <cc:Work>
    <dc:type rdf:resource="http://purl.org/dc/dcmitype/StillImage"/>
    <dc:date>2022-10-09T17:13:24.829707</dc:date>
    <dc:format>image/svg+xml</dc:format>
    <dc:creator>
     <cc:Agent>
      <dc:title>Matplotlib v3.5.3, https://matplotlib.org/</dc:title>
     </cc:Agent>
    </dc:creator>
   </cc:Work>
  </rdf:RDF>
 </metadata>
 <defs>
  <style type="text/css">*{stroke-linejoin: round; stroke-linecap: butt}</style>
 </defs>
 <g id="figure_1">
  <g id="patch_1">
   <path d="M 0 432 
L 576 432 
L 576 0 
L 0 0 
z
" style="fill: #ffffff"/>
  </g>
  <g id="axes_1">
   <g id="patch_2">
    <path d="M 72 384.48 
L 518.4 384.48 
L 518.4 51.84 
L 72 51.84 
z
" style="fill: #ffffff"/>
   </g>
   <g id="PathCollection_1">
    <defs>
     <path id="m95b6f8bcd3" d="M 0 1 
C 0.265203 1 0.51958 0.894634 0.707107 0.707107 
C 0.894634 0.51958 1 0.265203 1 0 
C 1 -0.265203 0.894634 -0.51958 0.707107 -0.707107 
C 0.51958 -0.894634 0.265203 -1 0 -1 
C -0.265203 -1 -0.51958 -0.894634 -0.707107 -0.707107 
C -0.894634 -0.51958 -1 -0.265203 -1 0 
C -1 0.265203 -0.894634 0.51958 -0.707107 0.707107 
C -0.51958 0.894634 -0.265203 1 0 1 
z
" style="stroke: #1f77b4"/>
    </defs>
    <g clip-path="url(#pad37d39372)">
     <use xlink:href="#m95b6f8bcd3" x="92.290909" y="70.200753" style="fill: #1f77b4; stroke: #1f77b4"/>
     <use xlink:href="#m95b6f8bcd3" x="95.672727" y="73.631667" style="fill: #1f77b4; stroke: #1f77b4"/>
     <use xlink:href="#m95b6f8bcd3" x="99.054545" y="68.477289" style="fill: #1f77b4; stroke: #1f77b4"/>
     <use xlink:href="#m95b6f8bcd3" x="102.436364" y="71.235632" style="fill: #1f77b4; stroke: #1f77b4"/>
     <use xlink:href="#m95b6f8bcd3" x="105.818182" y="69.249945" style="fill: #1f77b4; stroke: #1f77b4"/>
     <use xlink:href="#m95b6f8bcd3" x="109.2" y="72.470681" style="fill: #1f77b4; stroke: #1f77b4"/>
     <use xlink:href="#m95b6f8bcd3" x="112.581818" y="74.124085" style="fill: #1f77b4; stroke: #1f77b4"/>
     <use xlink:href="#m95b6f8bcd3" x="115.963636" y="71.03346" style="fill: #1f77b4; stroke: #1f77b4"/>
     <use xlink:href="#m95b6f8bcd3" x="119.345455" y="69.818428" style="fill: #1f77b4; stroke: #1f77b4"/>
     <use xlink:href="#m95b6f8bcd3" x="122.727273" y="68.521326" style="fill: #1f77b4; stroke: #1f77b4"/>
     <use xlink:href="#m95b6f8bcd3" x="126.109091" y="70.995428" style="fill: #1f77b4; stroke: #1f77b4"/>
     <use xlink:href="#m95b6f8bcd3" x="129.490909" y="73.911905" style="fill: #1f77b4; stroke: #1f77b4"/>
     <use xlink:href="#m95b6f8bcd3" x="132.872727" y="72.548747" style="fill: #1f77b4; stroke: #1f77b4"/>
     <use xlink:href="#m95b6f8bcd3" x="136.254545" y="72.070341" style="fill: #1f77b4; stroke: #1f77b4"/>
     <use xlink:href="#m95b6f8bcd3" x="139.636364" y="74.202151" style="fill: #1f77b4; stroke: #1f77b4"/>
     <use xlink:href="#m95b6f8bcd3" x="143.018182" y="74.696571" style="fill: #1f77b4; stroke: #1f77b4"/>
     <use xlink:href="#m95b6f8bcd3" x="146.4" y="74.928768" style="fill: #1f77b4; stroke: #1f77b4"/>
     <use xlink:href="#m95b6f8bcd3" x="149.781818" y="76.778339" style="fill: #1f77b4; stroke: #1f77b4"/>
     <use xlink:href="#m95b6f8bcd3" x="153.163636" y="76.478084" style="fill: #1f77b4; stroke: #1f77b4"/>
     <use xlink:href="#m95b6f8bcd3" x="156.545455" y="73.229325" style="fill: #1f77b4; stroke: #1f77b4"/>
     <use xlink:href="#m95b6f8bcd3" x="159.927273" y="78.577868" style="fill: #1f77b4; stroke: #1f77b4"/>
     <use xlink:href="#m95b6f8bcd3" x="163.309091" y="78.319648" style="fill: #1f77b4; stroke: #1f77b4"/>
     <use xlink:href="#m95b6f8bcd3" x="166.690909" y="74.348275" style="fill: #1f77b4; stroke: #1f77b4"/>
     <use xlink:href="#m95b6f8bcd3" x="170.072727" y="75.81352" style="fill: #1f77b4; stroke: #1f77b4"/>
     <use xlink:href="#m95b6f8bcd3" x="173.454545" y="75.223018" style="fill: #1f77b4; stroke: #1f77b4"/>
     <use xlink:href="#m95b6f8bcd3" x="176.836364" y="77.83924" style="fill: #1f77b4; stroke: #1f77b4"/>
     <use xlink:href="#m95b6f8bcd3" x="180.218182" y="76.546142" style="fill: #1f77b4; stroke: #1f77b4"/>
     <use xlink:href="#m95b6f8bcd3" x="183.6" y="77.212708" style="fill: #1f77b4; stroke: #1f77b4"/>
     <use xlink:href="#m95b6f8bcd3" x="186.981818" y="82.497197" style="fill: #1f77b4; stroke: #1f77b4"/>
     <use xlink:href="#m95b6f8bcd3" x="190.363636" y="79.798905" style="fill: #1f77b4; stroke: #1f77b4"/>
     <use xlink:href="#m95b6f8bcd3" x="193.745455" y="80.599585" style="fill: #1f77b4; stroke: #1f77b4"/>
     <use xlink:href="#m95b6f8bcd3" x="197.127273" y="80.525522" style="fill: #1f77b4; stroke: #1f77b4"/>
     <use xlink:href="#m95b6f8bcd3" x="200.509091" y="78.68596" style="fill: #1f77b4; stroke: #1f77b4"/>
     <use xlink:href="#m95b6f8bcd3" x="203.890909" y="81.798603" style="fill: #1f77b4; stroke: #1f77b4"/>
     <use xlink:href="#m95b6f8bcd3" x="207.272727" y="83.375943" style="fill: #1f77b4; stroke: #1f77b4"/>
     <use xlink:href="#m95b6f8bcd3" x="210.654545" y="81.126032" style="fill: #1f77b4; stroke: #1f77b4"/>
     <use xlink:href="#m95b6f8bcd3" x="214.036364" y="79.312492" style="fill: #1f77b4; stroke: #1f77b4"/>
     <use xlink:href="#m95b6f8bcd3" x="217.418182" y="80.419432" style="fill: #1f77b4; stroke: #1f77b4"/>
     <use xlink:href="#m95b6f8bcd3" x="220.8" y="74.94278" style="fill: #1f77b4; stroke: #1f77b4"/>
     <use xlink:href="#m95b6f8bcd3" x="224.181818" y="72.400621" style="fill: #1f77b4; stroke: #1f77b4"/>
     <use xlink:href="#m95b6f8bcd3" x="227.563636" y="73.493549" style="fill: #1f77b4; stroke: #1f77b4"/>
     <use xlink:href="#m95b6f8bcd3" x="230.945455" y="73.451514" style="fill: #1f77b4; stroke: #1f77b4"/>
     <use xlink:href="#m95b6f8bcd3" x="234.327273" y="73.757774" style="fill: #1f77b4; stroke: #1f77b4"/>
     <use xlink:href="#m95b6f8bcd3" x="237.709091" y="72.360587" style="fill: #1f77b4; stroke: #1f77b4"/>
     <use xlink:href="#m95b6f8bcd3" x="241.090909" y="73.601641" style="fill: #1f77b4; stroke: #1f77b4"/>
     <use xlink:href="#m95b6f8bcd3" x="244.472727" y="73.909903" style="fill: #1f77b4; stroke: #1f77b4"/>
     <use xlink:href="#m95b6f8bcd3" x="247.854545" y="71.247642" style="fill: #1f77b4; stroke: #1f77b4"/>
     <use xlink:href="#m95b6f8bcd3" x="251.236364" y="74.356282" style="fill: #1f77b4; stroke: #1f77b4"/>
     <use xlink:href="#m95b6f8bcd3" x="254.618182" y="78.093456" style="fill: #1f77b4; stroke: #1f77b4"/>
     <use xlink:href="#m95b6f8bcd3" x="258" y="75.497251" style="fill: #1f77b4; stroke: #1f77b4"/>
     <use xlink:href="#m95b6f8bcd3" x="261.381818" y="77.206703" style="fill: #1f77b4; stroke: #1f77b4"/>
     <use xlink:href="#m95b6f8bcd3" x="264.763636" y="79.082296" style="fill: #1f77b4; stroke: #1f77b4"/>
     <use xlink:href="#m95b6f8bcd3" x="268.145455" y="84.647023" style="fill: #1f77b4; stroke: #1f77b4"/>
     <use xlink:href="#m95b6f8bcd3" x="271.527273" y="96.557139" style="fill: #1f77b4; stroke: #1f77b4"/>
     <use xlink:href="#m95b6f8bcd3" x="274.909091" y="115.891561" style="fill: #1f77b4; stroke: #1f77b4"/>
     <use xlink:href="#m95b6f8bcd3" x="278.290909" y="153.679656" style="fill: #1f77b4; stroke: #1f77b4"/>
     <use xlink:href="#m95b6f8bcd3" x="281.672727" y="277.474803" style="fill: #1f77b4; stroke: #1f77b4"/>
     <use xlink:href="#m95b6f8bcd3" x="285.054545" y="320.777583" style="fill: #1f77b4; stroke: #1f77b4"/>
     <use xlink:href="#m95b6f8bcd3" x="288.436364" y="353.161088" style="fill: #1f77b4; stroke: #1f77b4"/>
     <use xlink:href="#m95b6f8bcd3" x="291.818182" y="332.461507" style="fill: #1f77b4; stroke: #1f77b4"/>
     <use xlink:href="#m95b6f8bcd3" x="295.2" y="289.693181" style="fill: #1f77b4; stroke: #1f77b4"/>
     <use xlink:href="#m95b6f8bcd3" x="298.581818" y="317.348671" style="fill: #1f77b4; stroke: #1f77b4"/>
     <use xlink:href="#m95b6f8bcd3" x="301.963636" y="333.011975" style="fill: #1f77b4; stroke: #1f77b4"/>
     <use xlink:href="#m95b6f8bcd3" x="305.345455" y="292.719752" style="fill: #1f77b4; stroke: #1f77b4"/>
     <use xlink:href="#m95b6f8bcd3" x="308.727273" y="256.368877" style="fill: #1f77b4; stroke: #1f77b4"/>
     <use xlink:href="#m95b6f8bcd3" x="312.109091" y="159.162313" style="fill: #1f77b4; stroke: #1f77b4"/>
     <use xlink:href="#m95b6f8bcd3" x="315.490909" y="115.084875" style="fill: #1f77b4; stroke: #1f77b4"/>
     <use xlink:href="#m95b6f8bcd3" x="318.872727" y="99.461606" style="fill: #1f77b4; stroke: #1f77b4"/>
     <use xlink:href="#m95b6f8bcd3" x="322.254545" y="87.553491" style="fill: #1f77b4; stroke: #1f77b4"/>
     <use xlink:href="#m95b6f8bcd3" x="325.636364" y="83.69021" style="fill: #1f77b4; stroke: #1f77b4"/>
     <use xlink:href="#m95b6f8bcd3" x="329.018182" y="79.230422" style="fill: #1f77b4; stroke: #1f77b4"/>
     <use xlink:href="#m95b6f8bcd3" x="332.4" y="77.160664" style="fill: #1f77b4; stroke: #1f77b4"/>
     <use xlink:href="#m95b6f8bcd3" x="335.781818" y="76.035709" style="fill: #1f77b4; stroke: #1f77b4"/>
     <use xlink:href="#m95b6f8bcd3" x="339.163636" y="77.432895" style="fill: #1f77b4; stroke: #1f77b4"/>
     <use xlink:href="#m95b6f8bcd3" x="342.545455" y="77.52097" style="fill: #1f77b4; stroke: #1f77b4"/>
     <use xlink:href="#m95b6f8bcd3" x="345.927273" y="74.338267" style="fill: #1f77b4; stroke: #1f77b4"/>
     <use xlink:href="#m95b6f8bcd3" x="349.309091" y="76.542139" style="fill: #1f77b4; stroke: #1f77b4"/>
     <use xlink:href="#m95b6f8bcd3" x="352.690909" y="74.414331" style="fill: #1f77b4; stroke: #1f77b4"/>
     <use xlink:href="#m95b6f8bcd3" x="356.072727" y="73.457519" style="fill: #1f77b4; stroke: #1f77b4"/>
     <use xlink:href="#m95b6f8bcd3" x="359.454545" y="72.250494" style="fill: #1f77b4; stroke: #1f77b4"/>
     <use xlink:href="#m95b6f8bcd3" x="362.836364" y="73.007136" style="fill: #1f77b4; stroke: #1f77b4"/>
     <use xlink:href="#m95b6f8bcd3" x="366.218182" y="72.748917" style="fill: #1f77b4; stroke: #1f77b4"/>
     <use xlink:href="#m95b6f8bcd3" x="369.6" y="71.429796" style="fill: #1f77b4; stroke: #1f77b4"/>
     <use xlink:href="#m95b6f8bcd3" x="372.981818" y="71.573919" style="fill: #1f77b4; stroke: #1f77b4"/>
     <use xlink:href="#m95b6f8bcd3" x="376.363636" y="71.663995" style="fill: #1f77b4; stroke: #1f77b4"/>
     <use xlink:href="#m95b6f8bcd3" x="379.745455" y="68.501309" style="fill: #1f77b4; stroke: #1f77b4"/>
     <use xlink:href="#m95b6f8bcd3" x="383.127273" y="68.441258" style="fill: #1f77b4; stroke: #1f77b4"/>
     <use xlink:href="#m95b6f8bcd3" x="386.509091" y="71.209609" style="fill: #1f77b4; stroke: #1f77b4"/>
     <use xlink:href="#m95b6f8bcd3" x="389.890909" y="71.065487" style="fill: #1f77b4; stroke: #1f77b4"/>
     <use xlink:href="#m95b6f8bcd3" x="393.272727" y="73.495551" style="fill: #1f77b4; stroke: #1f77b4"/>
     <use xlink:href="#m95b6f8bcd3" x="396.654545" y="71.680009" style="fill: #1f77b4; stroke: #1f77b4"/>
     <use xlink:href="#m95b6f8bcd3" x="400.036364" y="70.482992" style="fill: #1f77b4; stroke: #1f77b4"/>
     <use xlink:href="#m95b6f8bcd3" x="403.418182" y="72.606796" style="fill: #1f77b4; stroke: #1f77b4"/>
     <use xlink:href="#m95b6f8bcd3" x="406.8" y="74.952789" style="fill: #1f77b4; stroke: #1f77b4"/>
     <use xlink:href="#m95b6f8bcd3" x="410.181818" y="72.7289" style="fill: #1f77b4; stroke: #1f77b4"/>
     <use xlink:href="#m95b6f8bcd3" x="413.563636" y="74.140099" style="fill: #1f77b4; stroke: #1f77b4"/>
     <use xlink:href="#m95b6f8bcd3" x="416.945455" y="75.054875" style="fill: #1f77b4; stroke: #1f77b4"/>
     <use xlink:href="#m95b6f8bcd3" x="420.327273" y="78.073439" style="fill: #1f77b4; stroke: #1f77b4"/>
     <use xlink:href="#m95b6f8bcd3" x="423.709091" y="74.898743" style="fill: #1f77b4; stroke: #1f77b4"/>
     <use xlink:href="#m95b6f8bcd3" x="427.090909" y="75.595335" style="fill: #1f77b4; stroke: #1f77b4"/>
     <use xlink:href="#m95b6f8bcd3" x="430.472727" y="71.511866" style="fill: #1f77b4; stroke: #1f77b4"/>
     <use xlink:href="#m95b6f8bcd3" x="433.854545" y="76.315947" style="fill: #1f77b4; stroke: #1f77b4"/>
     <use xlink:href="#m95b6f8bcd3" x="437.236364" y="67.646583" style="fill: #1f77b4; stroke: #1f77b4"/>
     <use xlink:href="#m95b6f8bcd3" x="440.618182" y="71.161569" style="fill: #1f77b4; stroke: #1f77b4"/>
     <use xlink:href="#m95b6f8bcd3" x="444" y="67.312299" style="fill: #1f77b4; stroke: #1f77b4"/>
     <use xlink:href="#m95b6f8bcd3" x="447.381818" y="70.823281" style="fill: #1f77b4; stroke: #1f77b4"/>
     <use xlink:href="#m95b6f8bcd3" x="450.763636" y="70.777242" style="fill: #1f77b4; stroke: #1f77b4"/>
     <use xlink:href="#m95b6f8bcd3" x="454.145455" y="72.15241" style="fill: #1f77b4; stroke: #1f77b4"/>
     <use xlink:href="#m95b6f8bcd3" x="457.527273" y="70.264807" style="fill: #1f77b4; stroke: #1f77b4"/>
     <use xlink:href="#m95b6f8bcd3" x="460.909091" y="70.565062" style="fill: #1f77b4; stroke: #1f77b4"/>
     <use xlink:href="#m95b6f8bcd3" x="464.290909" y="71.051475" style="fill: #1f77b4; stroke: #1f77b4"/>
     <use xlink:href="#m95b6f8bcd3" x="467.672727" y="69.097816" style="fill: #1f77b4; stroke: #1f77b4"/>
     <use xlink:href="#m95b6f8bcd3" x="471.054545" y="70.56306" style="fill: #1f77b4; stroke: #1f77b4"/>
     <use xlink:href="#m95b6f8bcd3" x="474.436364" y="66.96" style="fill: #1f77b4; stroke: #1f77b4"/>
     <use xlink:href="#m95b6f8bcd3" x="477.818182" y="73.869869" style="fill: #1f77b4; stroke: #1f77b4"/>
     <use xlink:href="#m95b6f8bcd3" x="481.2" y="71.113528" style="fill: #1f77b4; stroke: #1f77b4"/>
     <use xlink:href="#m95b6f8bcd3" x="484.581818" y="71.553902" style="fill: #1f77b4; stroke: #1f77b4"/>
     <use xlink:href="#m95b6f8bcd3" x="487.963636" y="70.779244" style="fill: #1f77b4; stroke: #1f77b4"/>
     <use xlink:href="#m95b6f8bcd3" x="491.345455" y="69.101819" style="fill: #1f77b4; stroke: #1f77b4"/>
     <use xlink:href="#m95b6f8bcd3" x="494.727273" y="70.697174" style="fill: #1f77b4; stroke: #1f77b4"/>
     <use xlink:href="#m95b6f8bcd3" x="498.109091" y="68.665449" style="fill: #1f77b4; stroke: #1f77b4"/>
    </g>
   </g>
   <g id="matplotlib.axis_1">
    <g id="xtick_1">
     <g id="line2d_1">
      <defs>
       <path id="m40de3957b3" d="M 0 0 
L 0 3.5 
" style="stroke: #000000; stroke-width: 0.8"/>
      </defs>
      <g>
       <use xlink:href="#m40de3957b3" x="92.290909" y="384.48" style="stroke: #000000; stroke-width: 0.8"/>
      </g>
     </g>
     <g id="text_1">
      <!-- 2.75 -->
      <g transform="translate(81.158097 399.078438)scale(0.1 -0.1)">
       <defs>
        <path id="DejaVuSans-32" d="M 1228 531 
L 3431 531 
L 3431 0 
L 469 0 
L 469 531 
Q 828 903 1448 1529 
Q 2069 2156 2228 2338 
Q 2531 2678 2651 2914 
Q 2772 3150 2772 3378 
Q 2772 3750 2511 3984 
Q 2250 4219 1831 4219 
Q 1534 4219 1204 4116 
Q 875 4013 500 3803 
L 500 4441 
Q 881 4594 1212 4672 
Q 1544 4750 1819 4750 
Q 2544 4750 2975 4387 
Q 3406 4025 3406 3419 
Q 3406 3131 3298 2873 
Q 3191 2616 2906 2266 
Q 2828 2175 2409 1742 
Q 1991 1309 1228 531 
z
" transform="scale(0.015625)"/>
        <path id="DejaVuSans-2e" d="M 684 794 
L 1344 794 
L 1344 0 
L 684 0 
L 684 794 
z
" transform="scale(0.015625)"/>
        <path id="DejaVuSans-37" d="M 525 4666 
L 3525 4666 
L 3525 4397 
L 1831 0 
L 1172 0 
L 2766 4134 
L 525 4134 
L 525 4666 
z
" transform="scale(0.015625)"/>
        <path id="DejaVuSans-35" d="M 691 4666 
L 3169 4666 
L 3169 4134 
L 1269 4134 
L 1269 2991 
Q 1406 3038 1543 3061 
Q 1681 3084 1819 3084 
Q 2600 3084 3056 2656 
Q 3513 2228 3513 1497 
Q 3513 744 3044 326 
Q 2575 -91 1722 -91 
Q 1428 -91 1123 -41 
Q 819 9 494 109 
L 494 744 
Q 775 591 1075 516 
Q 1375 441 1709 441 
Q 2250 441 2565 725 
Q 2881 1009 2881 1497 
Q 2881 1984 2565 2268 
Q 2250 2553 1709 2553 
Q 1456 2553 1204 2497 
Q 953 2441 691 2322 
L 691 4666 
z
" transform="scale(0.015625)"/>
       </defs>
       <use xlink:href="#DejaVuSans-32"/>
       <use xlink:href="#DejaVuSans-2e" x="63.623047"/>
       <use xlink:href="#DejaVuSans-37" x="95.410156"/>
       <use xlink:href="#DejaVuSans-35" x="159.033203"/>
      </g>
     </g>
    </g>
    <g id="xtick_2">
     <g id="line2d_2">
      <g>
       <use xlink:href="#m40de3957b3" x="176.836364" y="384.48" style="stroke: #000000; stroke-width: 0.8"/>
      </g>
     </g>
     <g id="text_2">
      <!-- 2.80 -->
      <g transform="translate(165.703551 399.078438)scale(0.1 -0.1)">
       <defs>
        <path id="DejaVuSans-38" d="M 2034 2216 
Q 1584 2216 1326 1975 
Q 1069 1734 1069 1313 
Q 1069 891 1326 650 
Q 1584 409 2034 409 
Q 2484 409 2743 651 
Q 3003 894 3003 1313 
Q 3003 1734 2745 1975 
Q 2488 2216 2034 2216 
z
M 1403 2484 
Q 997 2584 770 2862 
Q 544 3141 544 3541 
Q 544 4100 942 4425 
Q 1341 4750 2034 4750 
Q 2731 4750 3128 4425 
Q 3525 4100 3525 3541 
Q 3525 3141 3298 2862 
Q 3072 2584 2669 2484 
Q 3125 2378 3379 2068 
Q 3634 1759 3634 1313 
Q 3634 634 3220 271 
Q 2806 -91 2034 -91 
Q 1263 -91 848 271 
Q 434 634 434 1313 
Q 434 1759 690 2068 
Q 947 2378 1403 2484 
z
M 1172 3481 
Q 1172 3119 1398 2916 
Q 1625 2713 2034 2713 
Q 2441 2713 2670 2916 
Q 2900 3119 2900 3481 
Q 2900 3844 2670 4047 
Q 2441 4250 2034 4250 
Q 1625 4250 1398 4047 
Q 1172 3844 1172 3481 
z
" transform="scale(0.015625)"/>
        <path id="DejaVuSans-30" d="M 2034 4250 
Q 1547 4250 1301 3770 
Q 1056 3291 1056 2328 
Q 1056 1369 1301 889 
Q 1547 409 2034 409 
Q 2525 409 2770 889 
Q 3016 1369 3016 2328 
Q 3016 3291 2770 3770 
Q 2525 4250 2034 4250 
z
M 2034 4750 
Q 2819 4750 3233 4129 
Q 3647 3509 3647 2328 
Q 3647 1150 3233 529 
Q 2819 -91 2034 -91 
Q 1250 -91 836 529 
Q 422 1150 422 2328 
Q 422 3509 836 4129 
Q 1250 4750 2034 4750 
z
" transform="scale(0.015625)"/>
       </defs>
       <use xlink:href="#DejaVuSans-32"/>
       <use xlink:href="#DejaVuSans-2e" x="63.623047"/>
       <use xlink:href="#DejaVuSans-38" x="95.410156"/>
       <use xlink:href="#DejaVuSans-30" x="159.033203"/>
      </g>
     </g>
    </g>
    <g id="xtick_3">
     <g id="line2d_3">
      <g>
       <use xlink:href="#m40de3957b3" x="261.381818" y="384.48" style="stroke: #000000; stroke-width: 0.8"/>
      </g>
     </g>
     <g id="text_3">
      <!-- 2.85 -->
      <g transform="translate(250.249006 399.078438)scale(0.1 -0.1)">
       <use xlink:href="#DejaVuSans-32"/>
       <use xlink:href="#DejaVuSans-2e" x="63.623047"/>
       <use xlink:href="#DejaVuSans-38" x="95.410156"/>
       <use xlink:href="#DejaVuSans-35" x="159.033203"/>
      </g>
     </g>
    </g>
    <g id="xtick_4">
     <g id="line2d_4">
      <g>
       <use xlink:href="#m40de3957b3" x="345.927273" y="384.48" style="stroke: #000000; stroke-width: 0.8"/>
      </g>
     </g>
     <g id="text_4">
      <!-- 2.90 -->
      <g transform="translate(334.79446 399.078438)scale(0.1 -0.1)">
       <defs>
        <path id="DejaVuSans-39" d="M 703 97 
L 703 672 
Q 941 559 1184 500 
Q 1428 441 1663 441 
Q 2288 441 2617 861 
Q 2947 1281 2994 2138 
Q 2813 1869 2534 1725 
Q 2256 1581 1919 1581 
Q 1219 1581 811 2004 
Q 403 2428 403 3163 
Q 403 3881 828 4315 
Q 1253 4750 1959 4750 
Q 2769 4750 3195 4129 
Q 3622 3509 3622 2328 
Q 3622 1225 3098 567 
Q 2575 -91 1691 -91 
Q 1453 -91 1209 -44 
Q 966 3 703 97 
z
M 1959 2075 
Q 2384 2075 2632 2365 
Q 2881 2656 2881 3163 
Q 2881 3666 2632 3958 
Q 2384 4250 1959 4250 
Q 1534 4250 1286 3958 
Q 1038 3666 1038 3163 
Q 1038 2656 1286 2365 
Q 1534 2075 1959 2075 
z
" transform="scale(0.015625)"/>
       </defs>
       <use xlink:href="#DejaVuSans-32"/>
       <use xlink:href="#DejaVuSans-2e" x="63.623047"/>
       <use xlink:href="#DejaVuSans-39" x="95.410156"/>
       <use xlink:href="#DejaVuSans-30" x="159.033203"/>
      </g>
     </g>
    </g>
    <g id="xtick_5">
     <g id="line2d_5">
      <g>
       <use xlink:href="#m40de3957b3" x="430.472727" y="384.48" style="stroke: #000000; stroke-width: 0.8"/>
      </g>
     </g>
     <g id="text_5">
      <!-- 2.95 -->
      <g transform="translate(419.339915 399.078438)scale(0.1 -0.1)">
       <use xlink:href="#DejaVuSans-32"/>
       <use xlink:href="#DejaVuSans-2e" x="63.623047"/>
       <use xlink:href="#DejaVuSans-39" x="95.410156"/>
       <use xlink:href="#DejaVuSans-35" x="159.033203"/>
      </g>
     </g>
    </g>
    <g id="xtick_6">
     <g id="line2d_6">
      <g>
       <use xlink:href="#m40de3957b3" x="515.018182" y="384.48" style="stroke: #000000; stroke-width: 0.8"/>
      </g>
     </g>
     <g id="text_6">
      <!-- 3.00 -->
      <g transform="translate(503.885369 399.078438)scale(0.1 -0.1)">
       <defs>
        <path id="DejaVuSans-33" d="M 2597 2516 
Q 3050 2419 3304 2112 
Q 3559 1806 3559 1356 
Q 3559 666 3084 287 
Q 2609 -91 1734 -91 
Q 1441 -91 1130 -33 
Q 819 25 488 141 
L 488 750 
Q 750 597 1062 519 
Q 1375 441 1716 441 
Q 2309 441 2620 675 
Q 2931 909 2931 1356 
Q 2931 1769 2642 2001 
Q 2353 2234 1838 2234 
L 1294 2234 
L 1294 2753 
L 1863 2753 
Q 2328 2753 2575 2939 
Q 2822 3125 2822 3475 
Q 2822 3834 2567 4026 
Q 2313 4219 1838 4219 
Q 1578 4219 1281 4162 
Q 984 4106 628 3988 
L 628 4550 
Q 988 4650 1302 4700 
Q 1616 4750 1894 4750 
Q 2613 4750 3031 4423 
Q 3450 4097 3450 3541 
Q 3450 3153 3228 2886 
Q 3006 2619 2597 2516 
z
" transform="scale(0.015625)"/>
       </defs>
       <use xlink:href="#DejaVuSans-33"/>
       <use xlink:href="#DejaVuSans-2e" x="63.623047"/>
       <use xlink:href="#DejaVuSans-30" x="95.410156"/>
       <use xlink:href="#DejaVuSans-30" x="159.033203"/>
      </g>
     </g>
    </g>
    <g id="text_7">
     <!-- $[GHz]$ -->
     <g transform="translate(281 412.756563)scale(0.1 -0.1)">
      <defs>
       <path id="DejaVuSans-5b" d="M 550 4863 
L 1875 4863 
L 1875 4416 
L 1125 4416 
L 1125 -397 
L 1875 -397 
L 1875 -844 
L 550 -844 
L 550 4863 
z
" transform="scale(0.015625)"/>
       <path id="DejaVuSans-Oblique-47" d="M 3494 697 
L 3738 1919 
L 2700 1919 
L 2797 2438 
L 4453 2438 
L 4050 384 
Q 3634 156 3143 32 
Q 2653 -91 2156 -91 
Q 1278 -91 783 396 
Q 288 884 288 1753 
Q 288 2475 589 3126 
Q 891 3778 1422 4213 
Q 1756 4484 2153 4617 
Q 2550 4750 3034 4750 
Q 3472 4750 3873 4639 
Q 4275 4528 4641 4306 
L 4513 3634 
Q 4231 3928 3853 4083 
Q 3475 4238 3047 4238 
Q 2550 4238 2172 4048 
Q 1794 3859 1497 3463 
Q 1244 3125 1098 2667 
Q 953 2209 953 1734 
Q 953 1081 1287 751 
Q 1622 422 2284 422 
Q 2616 422 2925 492 
Q 3234 563 3494 697 
z
" transform="scale(0.015625)"/>
       <path id="DejaVuSans-Oblique-48" d="M 1081 4666 
L 1716 4666 
L 1344 2753 
L 3634 2753 
L 4006 4666 
L 4641 4666 
L 3731 0 
L 3097 0 
L 3531 2222 
L 1241 2222 
L 806 0 
L 172 0 
L 1081 4666 
z
" transform="scale(0.015625)"/>
       <path id="DejaVuSans-Oblique-7a" d="M 744 3500 
L 3475 3500 
L 3372 2975 
L 738 459 
L 2913 459 
L 2822 0 
L -19 0 
L 84 525 
L 2719 3041 
L 653 3041 
L 744 3500 
z
" transform="scale(0.015625)"/>
       <path id="DejaVuSans-5d" d="M 1947 4863 
L 1947 -844 
L 622 -844 
L 622 -397 
L 1369 -397 
L 1369 4416 
L 622 4416 
L 622 4863 
L 1947 4863 
z
" transform="scale(0.015625)"/>
      </defs>
      <use xlink:href="#DejaVuSans-5b" transform="translate(0 0.015625)"/>
      <use xlink:href="#DejaVuSans-Oblique-47" transform="translate(39.013672 0.015625)"/>
      <use xlink:href="#DejaVuSans-Oblique-48" transform="translate(116.503906 0.015625)"/>
      <use xlink:href="#DejaVuSans-Oblique-7a" transform="translate(191.699219 0.015625)"/>
      <use xlink:href="#DejaVuSans-5d" transform="translate(244.189453 0.015625)"/>
     </g>
    </g>
   </g>
   <g id="matplotlib.axis_2">
    <g id="ytick_1">
     <g id="line2d_7">
      <defs>
       <path id="m371158e7ed" d="M 0 0 
L -3.5 0 
" style="stroke: #000000; stroke-width: 0.8"/>
      </defs>
      <g>
       <use xlink:href="#m371158e7ed" x="72" y="381.796442" style="stroke: #000000; stroke-width: 0.8"/>
      </g>
     </g>
     <g id="text_8">
      <!-- 0.9825 -->
      <g transform="translate(30.009375 385.595661)scale(0.1 -0.1)">
       <use xlink:href="#DejaVuSans-30"/>
       <use xlink:href="#DejaVuSans-2e" x="63.623047"/>
       <use xlink:href="#DejaVuSans-39" x="95.410156"/>
       <use xlink:href="#DejaVuSans-38" x="159.033203"/>
       <use xlink:href="#DejaVuSans-32" x="222.65625"/>
       <use xlink:href="#DejaVuSans-35" x="286.279297"/>
      </g>
     </g>
    </g>
    <g id="ytick_2">
     <g id="line2d_8">
      <g>
       <use xlink:href="#m371158e7ed" x="72" y="337.44908" style="stroke: #000000; stroke-width: 0.8"/>
      </g>
     </g>
     <g id="text_9">
      <!-- 0.9850 -->
      <g transform="translate(30.009375 341.248299)scale(0.1 -0.1)">
       <use xlink:href="#DejaVuSans-30"/>
       <use xlink:href="#DejaVuSans-2e" x="63.623047"/>
       <use xlink:href="#DejaVuSans-39" x="95.410156"/>
       <use xlink:href="#DejaVuSans-38" x="159.033203"/>
       <use xlink:href="#DejaVuSans-35" x="222.65625"/>
       <use xlink:href="#DejaVuSans-30" x="286.279297"/>
      </g>
     </g>
    </g>
    <g id="ytick_3">
     <g id="line2d_9">
      <g>
       <use xlink:href="#m371158e7ed" x="72" y="293.101718" style="stroke: #000000; stroke-width: 0.8"/>
      </g>
     </g>
     <g id="text_10">
      <!-- 0.9875 -->
      <g transform="translate(30.009375 296.900937)scale(0.1 -0.1)">
       <use xlink:href="#DejaVuSans-30"/>
       <use xlink:href="#DejaVuSans-2e" x="63.623047"/>
       <use xlink:href="#DejaVuSans-39" x="95.410156"/>
       <use xlink:href="#DejaVuSans-38" x="159.033203"/>
       <use xlink:href="#DejaVuSans-37" x="222.65625"/>
       <use xlink:href="#DejaVuSans-35" x="286.279297"/>
      </g>
     </g>
    </g>
    <g id="ytick_4">
     <g id="line2d_10">
      <g>
       <use xlink:href="#m371158e7ed" x="72" y="248.754356" style="stroke: #000000; stroke-width: 0.8"/>
      </g>
     </g>
     <g id="text_11">
      <!-- 0.9900 -->
      <g transform="translate(30.009375 252.553575)scale(0.1 -0.1)">
       <use xlink:href="#DejaVuSans-30"/>
       <use xlink:href="#DejaVuSans-2e" x="63.623047"/>
       <use xlink:href="#DejaVuSans-39" x="95.410156"/>
       <use xlink:href="#DejaVuSans-39" x="159.033203"/>
       <use xlink:href="#DejaVuSans-30" x="222.65625"/>
       <use xlink:href="#DejaVuSans-30" x="286.279297"/>
      </g>
     </g>
    </g>
    <g id="ytick_5">
     <g id="line2d_11">
      <g>
       <use xlink:href="#m371158e7ed" x="72" y="204.406994" style="stroke: #000000; stroke-width: 0.8"/>
      </g>
     </g>
     <g id="text_12">
      <!-- 0.9925 -->
      <g transform="translate(30.009375 208.206213)scale(0.1 -0.1)">
       <use xlink:href="#DejaVuSans-30"/>
       <use xlink:href="#DejaVuSans-2e" x="63.623047"/>
       <use xlink:href="#DejaVuSans-39" x="95.410156"/>
       <use xlink:href="#DejaVuSans-39" x="159.033203"/>
       <use xlink:href="#DejaVuSans-32" x="222.65625"/>
       <use xlink:href="#DejaVuSans-35" x="286.279297"/>
      </g>
     </g>
    </g>
    <g id="ytick_6">
     <g id="line2d_12">
      <g>
       <use xlink:href="#m371158e7ed" x="72" y="160.059632" style="stroke: #000000; stroke-width: 0.8"/>
      </g>
     </g>
     <g id="text_13">
      <!-- 0.9950 -->
      <g transform="translate(30.009375 163.858851)scale(0.1 -0.1)">
       <use xlink:href="#DejaVuSans-30"/>
       <use xlink:href="#DejaVuSans-2e" x="63.623047"/>
       <use xlink:href="#DejaVuSans-39" x="95.410156"/>
       <use xlink:href="#DejaVuSans-39" x="159.033203"/>
       <use xlink:href="#DejaVuSans-35" x="222.65625"/>
       <use xlink:href="#DejaVuSans-30" x="286.279297"/>
      </g>
     </g>
    </g>
    <g id="ytick_7">
     <g id="line2d_13">
      <g>
       <use xlink:href="#m371158e7ed" x="72" y="115.71227" style="stroke: #000000; stroke-width: 0.8"/>
      </g>
     </g>
     <g id="text_14">
      <!-- 0.9975 -->
      <g transform="translate(30.009375 119.511489)scale(0.1 -0.1)">
       <use xlink:href="#DejaVuSans-30"/>
       <use xlink:href="#DejaVuSans-2e" x="63.623047"/>
       <use xlink:href="#DejaVuSans-39" x="95.410156"/>
       <use xlink:href="#DejaVuSans-39" x="159.033203"/>
       <use xlink:href="#DejaVuSans-37" x="222.65625"/>
       <use xlink:href="#DejaVuSans-35" x="286.279297"/>
      </g>
     </g>
    </g>
    <g id="ytick_8">
     <g id="line2d_14">
      <g>
       <use xlink:href="#m371158e7ed" x="72" y="71.364908" style="stroke: #000000; stroke-width: 0.8"/>
      </g>
     </g>
     <g id="text_15">
      <!-- 1.0000 -->
      <g transform="translate(30.009375 75.164127)scale(0.1 -0.1)">
       <defs>
        <path id="DejaVuSans-31" d="M 794 531 
L 1825 531 
L 1825 4091 
L 703 3866 
L 703 4441 
L 1819 4666 
L 2450 4666 
L 2450 531 
L 3481 531 
L 3481 0 
L 794 0 
L 794 531 
z
" transform="scale(0.015625)"/>
       </defs>
       <use xlink:href="#DejaVuSans-31"/>
       <use xlink:href="#DejaVuSans-2e" x="63.623047"/>
       <use xlink:href="#DejaVuSans-30" x="95.410156"/>
       <use xlink:href="#DejaVuSans-30" x="159.033203"/>
       <use xlink:href="#DejaVuSans-30" x="222.65625"/>
       <use xlink:href="#DejaVuSans-30" x="286.279297"/>
      </g>
     </g>
    </g>
    <g id="text_16">
     <!-- $[Normalized \ Counts / s]$ -->
     <g transform="translate(23.929687 273.91)rotate(-90)scale(0.1 -0.1)">
      <defs>
       <path id="DejaVuSans-Oblique-4e" d="M 1081 4666 
L 1931 4666 
L 3219 666 
L 4000 4666 
L 4616 4666 
L 3706 0 
L 2853 0 
L 1569 4025 
L 788 0 
L 172 0 
L 1081 4666 
z
" transform="scale(0.015625)"/>
       <path id="DejaVuSans-Oblique-6f" d="M 1625 -91 
Q 1009 -91 651 289 
Q 294 669 294 1325 
Q 294 1706 417 2101 
Q 541 2497 738 2766 
Q 1047 3184 1428 3384 
Q 1809 3584 2291 3584 
Q 2888 3584 3255 3212 
Q 3622 2841 3622 2241 
Q 3622 1825 3500 1412 
Q 3378 1000 3181 728 
Q 2875 309 2494 109 
Q 2113 -91 1625 -91 
z
M 891 1344 
Q 891 869 1089 633 
Q 1288 397 1691 397 
Q 2269 397 2648 901 
Q 3028 1406 3028 2181 
Q 3028 2634 2825 2865 
Q 2622 3097 2228 3097 
Q 1903 3097 1650 2945 
Q 1397 2794 1197 2484 
Q 1050 2253 970 1956 
Q 891 1659 891 1344 
z
" transform="scale(0.015625)"/>
       <path id="DejaVuSans-Oblique-72" d="M 2853 2969 
Q 2766 3016 2653 3041 
Q 2541 3066 2413 3066 
Q 1953 3066 1609 2717 
Q 1266 2369 1153 1784 
L 800 0 
L 225 0 
L 909 3500 
L 1484 3500 
L 1375 2956 
Q 1603 3259 1920 3421 
Q 2238 3584 2597 3584 
Q 2691 3584 2781 3573 
Q 2872 3563 2963 3538 
L 2853 2969 
z
" transform="scale(0.015625)"/>
       <path id="DejaVuSans-Oblique-6d" d="M 5747 2113 
L 5338 0 
L 4763 0 
L 5166 2094 
Q 5191 2228 5203 2325 
Q 5216 2422 5216 2491 
Q 5216 2772 5059 2928 
Q 4903 3084 4622 3084 
Q 4203 3084 3875 2770 
Q 3547 2456 3450 1953 
L 3066 0 
L 2491 0 
L 2900 2094 
Q 2925 2209 2937 2307 
Q 2950 2406 2950 2484 
Q 2950 2769 2794 2926 
Q 2638 3084 2363 3084 
Q 1938 3084 1609 2770 
Q 1281 2456 1184 1953 
L 800 0 
L 225 0 
L 909 3500 
L 1484 3500 
L 1375 2956 
Q 1609 3263 1923 3423 
Q 2238 3584 2597 3584 
Q 2978 3584 3223 3384 
Q 3469 3184 3519 2828 
Q 3781 3197 4126 3390 
Q 4472 3584 4856 3584 
Q 5306 3584 5551 3325 
Q 5797 3066 5797 2591 
Q 5797 2488 5784 2364 
Q 5772 2241 5747 2113 
z
" transform="scale(0.015625)"/>
       <path id="DejaVuSans-Oblique-61" d="M 3438 1997 
L 3047 0 
L 2472 0 
L 2578 531 
Q 2325 219 2001 64 
Q 1678 -91 1281 -91 
Q 834 -91 548 182 
Q 263 456 263 884 
Q 263 1497 752 1853 
Q 1241 2209 2100 2209 
L 2900 2209 
L 2931 2363 
Q 2938 2388 2941 2417 
Q 2944 2447 2944 2509 
Q 2944 2788 2717 2942 
Q 2491 3097 2081 3097 
Q 1800 3097 1504 3025 
Q 1209 2953 897 2809 
L 997 3341 
Q 1322 3463 1633 3523 
Q 1944 3584 2234 3584 
Q 2853 3584 3176 3315 
Q 3500 3047 3500 2534 
Q 3500 2431 3484 2292 
Q 3469 2153 3438 1997 
z
M 2816 1759 
L 2241 1759 
Q 1534 1759 1195 1570 
Q 856 1381 856 984 
Q 856 709 1029 553 
Q 1203 397 1509 397 
Q 1978 397 2328 733 
Q 2678 1069 2791 1631 
L 2816 1759 
z
" transform="scale(0.015625)"/>
       <path id="DejaVuSans-Oblique-6c" d="M 1172 4863 
L 1747 4863 
L 800 0 
L 225 0 
L 1172 4863 
z
" transform="scale(0.015625)"/>
       <path id="DejaVuSans-Oblique-69" d="M 1172 4863 
L 1747 4863 
L 1606 4134 
L 1031 4134 
L 1172 4863 
z
M 909 3500 
L 1484 3500 
L 800 0 
L 225 0 
L 909 3500 
z
" transform="scale(0.015625)"/>
       <path id="DejaVuSans-Oblique-65" d="M 3078 2063 
Q 3088 2113 3092 2166 
Q 3097 2219 3097 2272 
Q 3097 2653 2873 2875 
Q 2650 3097 2266 3097 
Q 1838 3097 1509 2826 
Q 1181 2556 1013 2059 
L 3078 2063 
z
M 3578 1613 
L 903 1613 
Q 884 1494 878 1425 
Q 872 1356 872 1306 
Q 872 872 1139 634 
Q 1406 397 1894 397 
Q 2269 397 2603 481 
Q 2938 566 3225 728 
L 3116 159 
Q 2806 34 2476 -28 
Q 2147 -91 1806 -91 
Q 1078 -91 686 257 
Q 294 606 294 1247 
Q 294 1794 489 2264 
Q 684 2734 1063 3103 
Q 1306 3334 1642 3459 
Q 1978 3584 2356 3584 
Q 2950 3584 3301 3228 
Q 3653 2872 3653 2272 
Q 3653 2128 3634 1964 
Q 3616 1800 3578 1613 
z
" transform="scale(0.015625)"/>
       <path id="DejaVuSans-Oblique-64" d="M 2675 525 
Q 2444 222 2128 65 
Q 1813 -91 1428 -91 
Q 903 -91 598 267 
Q 294 625 294 1247 
Q 294 1766 478 2236 
Q 663 2706 1013 3078 
Q 1244 3325 1534 3454 
Q 1825 3584 2144 3584 
Q 2481 3584 2739 3421 
Q 2997 3259 3138 2956 
L 3513 4863 
L 4091 4863 
L 3144 0 
L 2566 0 
L 2675 525 
z
M 891 1350 
Q 891 897 1095 644 
Q 1300 391 1663 391 
Q 1931 391 2161 520 
Q 2391 650 2566 903 
Q 2750 1166 2856 1509 
Q 2963 1853 2963 2188 
Q 2963 2622 2758 2865 
Q 2553 3109 2194 3109 
Q 1922 3109 1687 2981 
Q 1453 2853 1288 2613 
Q 1106 2353 998 2009 
Q 891 1666 891 1350 
z
" transform="scale(0.015625)"/>
       <path id="DejaVuSans-Oblique-43" d="M 4447 4306 
L 4319 3641 
Q 4019 3944 3683 4091 
Q 3347 4238 2956 4238 
Q 2422 4238 2017 3981 
Q 1613 3725 1319 3200 
Q 1131 2863 1032 2486 
Q 934 2109 934 1728 
Q 934 1091 1264 756 
Q 1594 422 2222 422 
Q 2656 422 3056 561 
Q 3456 700 3834 978 
L 3688 231 
Q 3316 72 2936 -9 
Q 2556 -91 2175 -91 
Q 1278 -91 773 396 
Q 269 884 269 1753 
Q 269 2309 461 2846 
Q 653 3384 1013 3828 
Q 1394 4300 1883 4525 
Q 2372 4750 3022 4750 
Q 3422 4750 3780 4639 
Q 4138 4528 4447 4306 
z
" transform="scale(0.015625)"/>
       <path id="DejaVuSans-Oblique-75" d="M 428 1388 
L 838 3500 
L 1416 3500 
L 1006 1409 
Q 975 1256 961 1147 
Q 947 1038 947 966 
Q 947 700 1109 554 
Q 1272 409 1569 409 
Q 2031 409 2368 721 
Q 2706 1034 2809 1563 
L 3194 3500 
L 3769 3500 
L 3091 0 
L 2516 0 
L 2631 550 
Q 2388 244 2052 76 
Q 1716 -91 1338 -91 
Q 878 -91 622 161 
Q 366 413 366 863 
Q 366 956 381 1097 
Q 397 1238 428 1388 
z
" transform="scale(0.015625)"/>
       <path id="DejaVuSans-Oblique-6e" d="M 3566 2113 
L 3156 0 
L 2578 0 
L 2988 2091 
Q 3016 2238 3031 2350 
Q 3047 2463 3047 2528 
Q 3047 2791 2881 2937 
Q 2716 3084 2419 3084 
Q 1956 3084 1622 2776 
Q 1288 2469 1184 1941 
L 800 0 
L 225 0 
L 903 3500 
L 1478 3500 
L 1363 2950 
Q 1603 3253 1940 3418 
Q 2278 3584 2650 3584 
Q 3113 3584 3367 3334 
Q 3622 3084 3622 2631 
Q 3622 2519 3608 2391 
Q 3594 2263 3566 2113 
z
" transform="scale(0.015625)"/>
       <path id="DejaVuSans-Oblique-74" d="M 2706 3500 
L 2619 3053 
L 1472 3053 
L 1100 1153 
Q 1081 1047 1072 975 
Q 1063 903 1063 863 
Q 1063 663 1183 572 
Q 1303 481 1569 481 
L 2150 481 
L 2053 0 
L 1503 0 
Q 991 0 739 200 
Q 488 400 488 806 
Q 488 878 497 964 
Q 506 1050 525 1153 
L 897 3053 
L 409 3053 
L 500 3500 
L 978 3500 
L 1172 4494 
L 1747 4494 
L 1556 3500 
L 2706 3500 
z
" transform="scale(0.015625)"/>
       <path id="DejaVuSans-Oblique-73" d="M 3200 3397 
L 3091 2853 
Q 2863 2978 2609 3040 
Q 2356 3103 2088 3103 
Q 1634 3103 1373 2948 
Q 1113 2794 1113 2528 
Q 1113 2219 1719 2053 
Q 1766 2041 1788 2034 
L 1972 1978 
Q 2547 1819 2739 1644 
Q 2931 1469 2931 1166 
Q 2931 609 2489 259 
Q 2047 -91 1331 -91 
Q 1053 -91 747 -37 
Q 441 16 72 128 
L 184 722 
Q 500 559 806 475 
Q 1113 391 1394 391 
Q 1816 391 2080 572 
Q 2344 753 2344 1031 
Q 2344 1331 1650 1516 
L 1591 1531 
L 1394 1581 
Q 956 1697 753 1886 
Q 550 2075 550 2369 
Q 550 2928 970 3256 
Q 1391 3584 2113 3584 
Q 2397 3584 2667 3537 
Q 2938 3491 3200 3397 
z
" transform="scale(0.015625)"/>
       <path id="DejaVuSans-2f" d="M 1625 4666 
L 2156 4666 
L 531 -594 
L 0 -594 
L 1625 4666 
z
" transform="scale(0.015625)"/>
      </defs>
      <use xlink:href="#DejaVuSans-5b" transform="translate(0 0.015625)"/>
      <use xlink:href="#DejaVuSans-Oblique-4e" transform="translate(39.013672 0.015625)"/>
      <use xlink:href="#DejaVuSans-Oblique-6f" transform="translate(113.818359 0.015625)"/>
      <use xlink:href="#DejaVuSans-Oblique-72" transform="translate(175 0.015625)"/>
      <use xlink:href="#DejaVuSans-Oblique-6d" transform="translate(216.113281 0.015625)"/>
      <use xlink:href="#DejaVuSans-Oblique-61" transform="translate(313.525391 0.015625)"/>
      <use xlink:href="#DejaVuSans-Oblique-6c" transform="translate(374.804688 0.015625)"/>
      <use xlink:href="#DejaVuSans-Oblique-69" transform="translate(402.587891 0.015625)"/>
      <use xlink:href="#DejaVuSans-Oblique-7a" transform="translate(430.371094 0.015625)"/>
      <use xlink:href="#DejaVuSans-Oblique-65" transform="translate(482.861328 0.015625)"/>
      <use xlink:href="#DejaVuSans-Oblique-64" transform="translate(544.384766 0.015625)"/>
      <use xlink:href="#DejaVuSans-Oblique-43" transform="translate(640.331707 0.015625)"/>
      <use xlink:href="#DejaVuSans-Oblique-6f" transform="translate(710.155925 0.015625)"/>
      <use xlink:href="#DejaVuSans-Oblique-75" transform="translate(771.337566 0.015625)"/>
      <use xlink:href="#DejaVuSans-Oblique-6e" transform="translate(834.716472 0.015625)"/>
      <use xlink:href="#DejaVuSans-Oblique-74" transform="translate(898.095378 0.015625)"/>
      <use xlink:href="#DejaVuSans-Oblique-73" transform="translate(937.304363 0.015625)"/>
      <use xlink:href="#DejaVuSans-2f" transform="translate(989.403972 0.015625)"/>
      <use xlink:href="#DejaVuSans-Oblique-73" transform="translate(1023.095378 0.015625)"/>
      <use xlink:href="#DejaVuSans-5d" transform="translate(1075.194988 0.015625)"/>
     </g>
    </g>
   </g>
   <g id="line2d_15">
    <path d="M 288.436364 384.48 
L 288.436364 51.84 
" clip-path="url(#pad37d39372)" style="fill: none; stroke-dasharray: 1.5,2.475; stroke-dashoffset: 0; stroke: #000000; stroke-width: 1.5"/>
   </g>
   <g id="line2d_16">
    <path d="M 301.963636 384.48 
L 301.963636 51.84 
" clip-path="url(#pad37d39372)" style="fill: none; stroke-dasharray: 1.5,2.475; stroke-dashoffset: 0; stroke: #000000; stroke-width: 1.5"/>
   </g>
   <g id="line2d_17">
    <path d="M 92.290909 71.873941 
L 95.672727 71.89141 
L 99.054545 71.909795 
L 102.436364 71.929161 
L 105.818182 71.949579 
L 109.2 71.971128 
L 112.581818 71.993891 
L 115.963636 72.017963 
L 119.345455 72.043446 
L 122.727273 72.070452 
L 126.109091 72.099105 
L 129.490909 72.129543 
L 132.872727 72.161916 
L 136.254545 72.196393 
L 139.636364 72.233161 
L 143.018182 72.272426 
L 146.4 72.314422 
L 149.781818 72.359408 
L 153.163636 72.407675 
L 156.545455 72.45955 
L 159.927273 72.515405 
L 163.309091 72.575656 
L 166.690909 72.640779 
L 170.072727 72.711315 
L 173.454545 72.787883 
L 176.836364 72.871192 
L 180.218182 72.962061 
L 183.6 73.061434 
L 186.981818 73.170413 
L 190.363636 73.290278 
L 193.745455 73.422537 
L 197.127273 73.568964 
L 200.509091 73.731669 
L 203.890909 73.913165 
L 207.272727 74.116478 
L 210.654545 74.345267 
L 214.036364 74.603998 
L 217.418182 74.898162 
L 220.8 75.234582 
L 224.181818 75.621811 
L 227.563636 76.070696 
L 230.945455 76.595163 
L 234.327273 77.21333 
L 237.709091 77.94913 
L 241.090909 78.834717 
L 244.472727 79.914122 
L 247.854545 81.248963 
L 251.236364 82.927641 
L 254.618182 85.08067 
L 258 87.907269 
L 261.381818 91.723626 
L 264.763636 97.055095 
L 268.145455 104.822603 
L 271.527273 116.742113 
L 274.909091 136.219223 
L 278.290909 170.2819 
L 281.672727 231.913306 
L 285.054545 325.047438 
L 288.436364 369.36 
L 291.818182 316.430119 
L 295.2 283.417788 
L 298.581818 308.587393 
L 301.963636 344.733381 
L 305.345455 298.780326 
L 308.727273 218.33141 
L 312.109091 164.103588 
L 315.490909 133.171559 
L 318.872727 115.070849 
L 322.254545 103.819432 
L 325.636364 96.408342 
L 329.018182 91.282654 
L 332.4 87.592994 
L 335.781818 84.848585 
L 339.163636 82.751207 
L 342.545455 81.111575 
L 345.927273 79.804957 
L 349.309091 78.746476 
L 352.690909 77.876741 
L 356.072727 77.153179 
L 359.454545 76.544615 
L 362.836364 76.027794 
L 366.218182 75.585074 
L 369.6 75.202875 
L 372.981818 74.8706 
L 376.363636 74.579882 
L 379.745455 74.324044 
L 383.127273 74.097699 
L 386.509091 73.896466 
L 389.890909 73.716752 
L 393.272727 73.555584 
L 396.654545 73.410487 
L 400.036364 73.279388 
L 403.418182 73.160537 
L 406.8 73.05245 
L 410.181818 72.953863 
L 413.563636 72.863692 
L 416.945455 72.781003 
L 420.327273 72.704988 
L 423.709091 72.634947 
L 427.090909 72.570269 
L 430.472727 72.510418 
L 433.854545 72.454926 
L 437.236364 72.403378 
L 440.618182 72.355408 
L 444 72.310692 
L 447.381818 72.268943 
L 450.763636 72.229902 
L 454.145455 72.193341 
L 457.527273 72.159052 
L 460.909091 72.126853 
L 464.290909 72.096575 
L 467.672727 72.068069 
L 471.054545 72.041199 
L 474.436364 72.015843 
L 477.818182 71.991888 
L 481.2 71.969232 
L 484.581818 71.947784 
L 487.963636 71.927459 
L 491.345455 71.908181 
L 494.727273 71.889877 
L 498.109091 71.872484 
" clip-path="url(#pad37d39372)" style="fill: none; stroke: #ffa500; stroke-width: 1.5; stroke-linecap: square"/>
   </g>
   <g id="patch_3">
    <path d="M 72 384.48 
L 72 51.84 
" style="fill: none; stroke: #000000; stroke-width: 0.8; stroke-linejoin: miter; stroke-linecap: square"/>
   </g>
   <g id="patch_4">
    <path d="M 518.4 384.48 
L 518.4 51.84 
" style="fill: none; stroke: #000000; stroke-width: 0.8; stroke-linejoin: miter; stroke-linecap: square"/>
   </g>
   <g id="patch_5">
    <path d="M 72 384.48 
L 518.4 384.48 
" style="fill: none; stroke: #000000; stroke-width: 0.8; stroke-linejoin: miter; stroke-linecap: square"/>
   </g>
   <g id="patch_6">
    <path d="M 72 51.84 
L 518.4 51.84 
" style="fill: none; stroke: #000000; stroke-width: 0.8; stroke-linejoin: miter; stroke-linecap: square"/>
   </g>
   <g id="legend_1">
    <g id="patch_7">
     <path d="M 79 379.48 
L 227.9 379.48 
Q 229.9 379.48 229.9 377.48 
L 229.9 352.282188 
Q 229.9 350.282188 227.9 350.282188 
L 79 350.282188 
Q 77 350.282188 77 352.282188 
L 77 377.48 
Q 77 379.48 79 379.48 
z
" style="fill: #ffffff; opacity: 0.8; stroke: #cccccc; stroke-linejoin: miter"/>
    </g>
    <g id="line2d_18">
     <path d="M 81 365.180313 
L 91 365.180313 
L 101 365.180313 
" style="fill: none; stroke: #ffa500; stroke-width: 1.5; stroke-linecap: square"/>
    </g>
    <g id="text_17">
     <!-- $\mid B \mid=[0.27 \pm 0.17]mT$ -->
     <g transform="translate(109 362.082188)scale(0.1 -0.1)">
      <defs>
       <path id="DejaVuSans-2223" d="M 1350 4934 
L 1850 4934 
L 1850 -1369 
L 1350 -1369 
L 1350 4934 
z
" transform="scale(0.015625)"/>
       <path id="DejaVuSans-Oblique-42" d="M 1081 4666 
L 2694 4666 
Q 3350 4666 3675 4422 
Q 4000 4178 4000 3688 
Q 4000 3238 3720 2911 
Q 3441 2584 2988 2516 
Q 3375 2428 3569 2181 
Q 3763 1934 3763 1522 
Q 3763 819 3242 409 
Q 2722 0 1819 0 
L 172 0 
L 1081 4666 
z
M 1234 2228 
L 903 519 
L 1919 519 
Q 2491 519 2800 781 
Q 3109 1044 3109 1522 
Q 3109 1891 2904 2059 
Q 2700 2228 2247 2228 
L 1234 2228 
z
M 1606 4147 
L 1331 2741 
L 2272 2741 
Q 2775 2741 3058 2959 
Q 3341 3178 3341 3566 
Q 3341 3869 3150 4008 
Q 2959 4147 2541 4147 
L 1606 4147 
z
" transform="scale(0.015625)"/>
       <path id="DejaVuSans-3d" d="M 678 2906 
L 4684 2906 
L 4684 2381 
L 678 2381 
L 678 2906 
z
M 678 1631 
L 4684 1631 
L 4684 1100 
L 678 1100 
L 678 1631 
z
" transform="scale(0.015625)"/>
       <path id="DejaVuSans-b1" d="M 2944 4013 
L 2944 2803 
L 4684 2803 
L 4684 2272 
L 2944 2272 
L 2944 1063 
L 2419 1063 
L 2419 2272 
L 678 2272 
L 678 2803 
L 2419 2803 
L 2419 4013 
L 2944 4013 
z
M 678 531 
L 4684 531 
L 4684 0 
L 678 0 
L 678 531 
z
" transform="scale(0.015625)"/>
       <path id="DejaVuSans-Oblique-54" d="M 378 4666 
L 4325 4666 
L 4225 4134 
L 2559 4134 
L 1759 0 
L 1125 0 
L 1925 4134 
L 275 4134 
L 378 4666 
z
" transform="scale(0.015625)"/>
      </defs>
      <use xlink:href="#DejaVuSans-2223" transform="translate(19.482422 0.90625)"/>
      <use xlink:href="#DejaVuSans-Oblique-42" transform="translate(88.964844 0.90625)"/>
      <use xlink:href="#DejaVuSans-2223" transform="translate(177.050781 0.90625)"/>
      <use xlink:href="#DejaVuSans-3d" transform="translate(266.015625 0.90625)"/>
      <use xlink:href="#DejaVuSans-5b" transform="translate(369.287109 0.90625)"/>
      <use xlink:href="#DejaVuSans-30" transform="translate(408.300781 0.90625)"/>
      <use xlink:href="#DejaVuSans-2e" transform="translate(471.923828 0.90625)"/>
      <use xlink:href="#DejaVuSans-32" transform="translate(498.210938 0.90625)"/>
      <use xlink:href="#DejaVuSans-37" transform="translate(561.833984 0.90625)"/>
      <use xlink:href="#DejaVuSans-b1" transform="translate(644.939453 0.90625)"/>
      <use xlink:href="#DejaVuSans-30" transform="translate(748.210938 0.90625)"/>
      <use xlink:href="#DejaVuSans-2e" transform="translate(811.833984 0.90625)"/>
      <use xlink:href="#DejaVuSans-31" transform="translate(843.621094 0.90625)"/>
      <use xlink:href="#DejaVuSans-37" transform="translate(907.244141 0.90625)"/>
      <use xlink:href="#DejaVuSans-5d" transform="translate(970.867188 0.90625)"/>
      <use xlink:href="#DejaVuSans-Oblique-6d" transform="translate(1009.880859 0.90625)"/>
      <use xlink:href="#DejaVuSans-Oblique-54" transform="translate(1107.292969 0.90625)"/>
     </g>
     <!-- $\ \ B_i = [ 0.16 \pm 0.09 ] mT$ -->
     <g transform="translate(109 373.400312)scale(0.1 -0.1)">
      <defs>
       <path id="DejaVuSans-36" d="M 2113 2584 
Q 1688 2584 1439 2293 
Q 1191 2003 1191 1497 
Q 1191 994 1439 701 
Q 1688 409 2113 409 
Q 2538 409 2786 701 
Q 3034 994 3034 1497 
Q 3034 2003 2786 2293 
Q 2538 2584 2113 2584 
z
M 3366 4563 
L 3366 3988 
Q 3128 4100 2886 4159 
Q 2644 4219 2406 4219 
Q 1781 4219 1451 3797 
Q 1122 3375 1075 2522 
Q 1259 2794 1537 2939 
Q 1816 3084 2150 3084 
Q 2853 3084 3261 2657 
Q 3669 2231 3669 1497 
Q 3669 778 3244 343 
Q 2819 -91 2113 -91 
Q 1303 -91 875 529 
Q 447 1150 447 2328 
Q 447 3434 972 4092 
Q 1497 4750 2381 4750 
Q 2619 4750 2861 4703 
Q 3103 4656 3366 4563 
z
" transform="scale(0.015625)"/>
      </defs>
      <use xlink:href="#DejaVuSans-Oblique-42" transform="translate(64.940757 0.015625)"/>
      <use xlink:href="#DejaVuSans-Oblique-69" transform="translate(133.544272 -16.390625)scale(0.7)"/>
      <use xlink:href="#DejaVuSans-3d" transform="translate(175.209312 0.015625)"/>
      <use xlink:href="#DejaVuSans-5b" transform="translate(278.480796 0.015625)"/>
      <use xlink:href="#DejaVuSans-30" transform="translate(317.494468 0.015625)"/>
      <use xlink:href="#DejaVuSans-2e" transform="translate(381.117515 0.015625)"/>
      <use xlink:href="#DejaVuSans-31" transform="translate(412.904624 0.015625)"/>
      <use xlink:href="#DejaVuSans-36" transform="translate(476.527671 0.015625)"/>
      <use xlink:href="#DejaVuSans-b1" transform="translate(559.63314 0.015625)"/>
      <use xlink:href="#DejaVuSans-30" transform="translate(662.904624 0.015625)"/>
      <use xlink:href="#DejaVuSans-2e" transform="translate(726.527671 0.015625)"/>
      <use xlink:href="#DejaVuSans-30" transform="translate(758.31478 0.015625)"/>
      <use xlink:href="#DejaVuSans-39" transform="translate(821.937827 0.015625)"/>
      <use xlink:href="#DejaVuSans-5d" transform="translate(885.560874 0.015625)"/>
      <use xlink:href="#DejaVuSans-Oblique-6d" transform="translate(924.574546 0.015625)"/>
      <use xlink:href="#DejaVuSans-Oblique-54" transform="translate(1021.986655 0.015625)"/>
     </g>
    </g>
   </g>
  </g>
 </g>
 <defs>
  <clipPath id="pad37d39372">
   <rect x="72" y="51.84" width="446.4" height="332.64"/>
  </clipPath>
 </defs>
</svg>
