<?xml version="1.0" encoding="utf-8" standalone="no"?>
<!DOCTYPE svg PUBLIC "-//W3C//DTD SVG 1.1//EN"
  "http://www.w3.org/Graphics/SVG/1.1/DTD/svg11.dtd">
<svg xmlns:xlink="http://www.w3.org/1999/xlink" width="576pt" height="432pt" viewBox="0 0 576 432" xmlns="http://www.w3.org/2000/svg" version="1.1">
 <metadata>
  <rdf:RDF xmlns:dc="http://purl.org/dc/elements/1.1/" xmlns:cc="http://creativecommons.org/ns#" xmlns:rdf="http://www.w3.org/1999/02/22-rdf-syntax-ns#">
   <cc:Work>
    <dc:type rdf:resource="http://purl.org/dc/dcmitype/StillImage"/>
    <dc:date>2022-09-09T11:04:22.063375</dc:date>
    <dc:format>image/svg+xml</dc:format>
    <dc:creator>
     <cc:Agent>
      <dc:title>Matplotlib v3.5.3, https://matplotlib.org/</dc:title>
     </cc:Agent>
    </dc:creator>
   </cc:Work>
  </rdf:RDF>
 </metadata>
 <defs>
  <style type="text/css">*{stroke-linejoin: round; stroke-linecap: butt}</style>
 </defs>
 <g id="figure_1">
  <g id="patch_1">
   <path d="M 0 432 
L 576 432 
L 576 0 
L 0 0 
z
" style="fill: #ffffff"/>
  </g>
  <g id="axes_1">
   <g id="patch_2">
    <path d="M 72 384.48 
L 518.4 384.48 
L 518.4 51.84 
L 72 51.84 
z
" style="fill: #ffffff"/>
   </g>
   <g id="PathCollection_1">
    <defs>
     <path id="m32a6001eff" d="M 0 1 
C 0.265203 1 0.51958 0.894634 0.707107 0.707107 
C 0.894634 0.51958 1 0.265203 1 0 
C 1 -0.265203 0.894634 -0.51958 0.707107 -0.707107 
C 0.51958 -0.894634 0.265203 -1 0 -1 
C -0.265203 -1 -0.51958 -0.894634 -0.707107 -0.707107 
C -0.894634 -0.51958 -1 -0.265203 -1 0 
C -1 0.265203 -0.894634 0.51958 -0.707107 0.707107 
C -0.51958 0.894634 -0.265203 1 0 1 
z
" style="stroke: #1f77b4"/>
    </defs>
    <g clip-path="url(#p47bb347cdd)">
     <use xlink:href="#m32a6001eff" x="92.290909" y="86.737863" style="fill: #1f77b4; stroke: #1f77b4"/>
     <use xlink:href="#m32a6001eff" x="94.135537" y="94.427401" style="fill: #1f77b4; stroke: #1f77b4"/>
     <use xlink:href="#m32a6001eff" x="95.980165" y="92.337499" style="fill: #1f77b4; stroke: #1f77b4"/>
     <use xlink:href="#m32a6001eff" x="97.824793" y="88.92556" style="fill: #1f77b4; stroke: #1f77b4"/>
     <use xlink:href="#m32a6001eff" x="99.669421" y="79.913985" style="fill: #1f77b4; stroke: #1f77b4"/>
     <use xlink:href="#m32a6001eff" x="101.51405" y="92.337499" style="fill: #1f77b4; stroke: #1f77b4"/>
     <use xlink:href="#m32a6001eff" x="103.358678" y="89.9687" style="fill: #1f77b4; stroke: #1f77b4"/>
     <use xlink:href="#m32a6001eff" x="105.203306" y="85.531731" style="fill: #1f77b4; stroke: #1f77b4"/>
     <use xlink:href="#m32a6001eff" x="107.047934" y="90.798142" style="fill: #1f77b4; stroke: #1f77b4"/>
     <use xlink:href="#m32a6001eff" x="108.892562" y="92.866313" style="fill: #1f77b4; stroke: #1f77b4"/>
     <use xlink:href="#m32a6001eff" x="110.73719" y="96.502816" style="fill: #1f77b4; stroke: #1f77b4"/>
     <use xlink:href="#m32a6001eff" x="112.581818" y="87.230457" style="fill: #1f77b4; stroke: #1f77b4"/>
     <use xlink:href="#m32a6001eff" x="114.426446" y="87.809979" style="fill: #1f77b4; stroke: #1f77b4"/>
     <use xlink:href="#m32a6001eff" x="116.271074" y="91.678292" style="fill: #1f77b4; stroke: #1f77b4"/>
     <use xlink:href="#m32a6001eff" x="118.115702" y="89.570279" style="fill: #1f77b4; stroke: #1f77b4"/>
     <use xlink:href="#m32a6001eff" x="119.960331" y="90.073739" style="fill: #1f77b4; stroke: #1f77b4"/>
     <use xlink:href="#m32a6001eff" x="121.804959" y="87.335495" style="fill: #1f77b4; stroke: #1f77b4"/>
     <use xlink:href="#m32a6001eff" x="123.649587" y="97.017143" style="fill: #1f77b4; stroke: #1f77b4"/>
     <use xlink:href="#m32a6001eff" x="125.494215" y="90.696726" style="fill: #1f77b4; stroke: #1f77b4"/>
     <use xlink:href="#m32a6001eff" x="127.338843" y="87.16526" style="fill: #1f77b4; stroke: #1f77b4"/>
     <use xlink:href="#m32a6001eff" x="129.183471" y="90.910424" style="fill: #1f77b4; stroke: #1f77b4"/>
     <use xlink:href="#m32a6001eff" x="131.028099" y="90.34539" style="fill: #1f77b4; stroke: #1f77b4"/>
     <use xlink:href="#m32a6001eff" x="132.872727" y="97.154779" style="fill: #1f77b4; stroke: #1f77b4"/>
     <use xlink:href="#m32a6001eff" x="134.717355" y="86.669044" style="fill: #1f77b4; stroke: #1f77b4"/>
     <use xlink:href="#m32a6001eff" x="136.561983" y="88.443832" style="fill: #1f77b4; stroke: #1f77b4"/>
     <use xlink:href="#m32a6001eff" x="138.406612" y="82.731914" style="fill: #1f77b4; stroke: #1f77b4"/>
     <use xlink:href="#m32a6001eff" x="140.25124" y="88.726349" style="fill: #1f77b4; stroke: #1f77b4"/>
     <use xlink:href="#m32a6001eff" x="142.095868" y="92.822849" style="fill: #1f77b4; stroke: #1f77b4"/>
     <use xlink:href="#m32a6001eff" x="143.940496" y="78.827381" style="fill: #1f77b4; stroke: #1f77b4"/>
     <use xlink:href="#m32a6001eff" x="145.785124" y="81.685151" style="fill: #1f77b4; stroke: #1f77b4"/>
     <use xlink:href="#m32a6001eff" x="147.629752" y="93.101744" style="fill: #1f77b4; stroke: #1f77b4"/>
     <use xlink:href="#m32a6001eff" x="149.47438" y="93.938429" style="fill: #1f77b4; stroke: #1f77b4"/>
     <use xlink:href="#m32a6001eff" x="151.319008" y="90.519247" style="fill: #1f77b4; stroke: #1f77b4"/>
     <use xlink:href="#m32a6001eff" x="153.163636" y="104.438652" style="fill: #1f77b4; stroke: #1f77b4"/>
     <use xlink:href="#m32a6001eff" x="155.008264" y="106.553909" style="fill: #1f77b4; stroke: #1f77b4"/>
     <use xlink:href="#m32a6001eff" x="156.852893" y="151.488633" style="fill: #1f77b4; stroke: #1f77b4"/>
     <use xlink:href="#m32a6001eff" x="158.697521" y="245.226394" style="fill: #1f77b4; stroke: #1f77b4"/>
     <use xlink:href="#m32a6001eff" x="160.542149" y="272.203165" style="fill: #1f77b4; stroke: #1f77b4"/>
     <use xlink:href="#m32a6001eff" x="162.386777" y="254.908041" style="fill: #1f77b4; stroke: #1f77b4"/>
     <use xlink:href="#m32a6001eff" x="164.231405" y="169.794299" style="fill: #1f77b4; stroke: #1f77b4"/>
     <use xlink:href="#m32a6001eff" x="166.076033" y="124.406824" style="fill: #1f77b4; stroke: #1f77b4"/>
     <use xlink:href="#m32a6001eff" x="167.920661" y="109.965848" style="fill: #1f77b4; stroke: #1f77b4"/>
     <use xlink:href="#m32a6001eff" x="169.765289" y="101.349073" style="fill: #1f77b4; stroke: #1f77b4"/>
     <use xlink:href="#m32a6001eff" x="171.609917" y="90.167911" style="fill: #1f77b4; stroke: #1f77b4"/>
     <use xlink:href="#m32a6001eff" x="173.454545" y="95.206135" style="fill: #1f77b4; stroke: #1f77b4"/>
     <use xlink:href="#m32a6001eff" x="175.299174" y="89.150125" style="fill: #1f77b4; stroke: #1f77b4"/>
     <use xlink:href="#m32a6001eff" x="177.143802" y="96.0066" style="fill: #1f77b4; stroke: #1f77b4"/>
     <use xlink:href="#m32a6001eff" x="178.98843" y="87.813601" style="fill: #1f77b4; stroke: #1f77b4"/>
     <use xlink:href="#m32a6001eff" x="180.833058" y="91.163966" style="fill: #1f77b4; stroke: #1f77b4"/>
     <use xlink:href="#m32a6001eff" x="182.677686" y="79.218559" style="fill: #1f77b4; stroke: #1f77b4"/>
     <use xlink:href="#m32a6001eff" x="184.522314" y="84.633472" style="fill: #1f77b4; stroke: #1f77b4"/>
     <use xlink:href="#m32a6001eff" x="186.366942" y="89.092173" style="fill: #1f77b4; stroke: #1f77b4"/>
     <use xlink:href="#m32a6001eff" x="188.21157" y="84.821816" style="fill: #1f77b4; stroke: #1f77b4"/>
     <use xlink:href="#m32a6001eff" x="190.056198" y="91.399397" style="fill: #1f77b4; stroke: #1f77b4"/>
     <use xlink:href="#m32a6001eff" x="191.900826" y="93.391505" style="fill: #1f77b4; stroke: #1f77b4"/>
     <use xlink:href="#m32a6001eff" x="193.745455" y="90.204131" style="fill: #1f77b4; stroke: #1f77b4"/>
     <use xlink:href="#m32a6001eff" x="195.590083" y="90.895936" style="fill: #1f77b4; stroke: #1f77b4"/>
     <use xlink:href="#m32a6001eff" x="197.434711" y="85.698344" style="fill: #1f77b4; stroke: #1f77b4"/>
     <use xlink:href="#m32a6001eff" x="199.279339" y="87.726673" style="fill: #1f77b4; stroke: #1f77b4"/>
     <use xlink:href="#m32a6001eff" x="201.123967" y="81.254131" style="fill: #1f77b4; stroke: #1f77b4"/>
     <use xlink:href="#m32a6001eff" x="202.968595" y="95.470542" style="fill: #1f77b4; stroke: #1f77b4"/>
     <use xlink:href="#m32a6001eff" x="204.813223" y="94.58677" style="fill: #1f77b4; stroke: #1f77b4"/>
     <use xlink:href="#m32a6001eff" x="206.657851" y="86.614714" style="fill: #1f77b4; stroke: #1f77b4"/>
     <use xlink:href="#m32a6001eff" x="208.502479" y="89.42902" style="fill: #1f77b4; stroke: #1f77b4"/>
     <use xlink:href="#m32a6001eff" x="210.347107" y="94.608502" style="fill: #1f77b4; stroke: #1f77b4"/>
     <use xlink:href="#m32a6001eff" x="212.191736" y="91.808684" style="fill: #1f77b4; stroke: #1f77b4"/>
     <use xlink:href="#m32a6001eff" x="214.036364" y="94.970704" style="fill: #1f77b4; stroke: #1f77b4"/>
     <use xlink:href="#m32a6001eff" x="215.880992" y="90.247596" style="fill: #1f77b4; stroke: #1f77b4"/>
     <use xlink:href="#m32a6001eff" x="217.72562" y="94.144884" style="fill: #1f77b4; stroke: #1f77b4"/>
     <use xlink:href="#m32a6001eff" x="219.570248" y="90.305548" style="fill: #1f77b4; stroke: #1f77b4"/>
     <use xlink:href="#m32a6001eff" x="221.414876" y="97.44454" style="fill: #1f77b4; stroke: #1f77b4"/>
     <use xlink:href="#m32a6001eff" x="223.259504" y="89.570279" style="fill: #1f77b4; stroke: #1f77b4"/>
     <use xlink:href="#m32a6001eff" x="225.104132" y="97.44454" style="fill: #1f77b4; stroke: #1f77b4"/>
     <use xlink:href="#m32a6001eff" x="226.94876" y="100.918053" style="fill: #1f77b4; stroke: #1f77b4"/>
     <use xlink:href="#m32a6001eff" x="228.793388" y="112.80913" style="fill: #1f77b4; stroke: #1f77b4"/>
     <use xlink:href="#m32a6001eff" x="230.638017" y="128.119389" style="fill: #1f77b4; stroke: #1f77b4"/>
     <use xlink:href="#m32a6001eff" x="232.482645" y="173.724186" style="fill: #1f77b4; stroke: #1f77b4"/>
     <use xlink:href="#m32a6001eff" x="234.327273" y="169.794299" style="fill: #1f77b4; stroke: #1f77b4"/>
     <use xlink:href="#m32a6001eff" x="236.171901" y="166.150552" style="fill: #1f77b4; stroke: #1f77b4"/>
     <use xlink:href="#m32a6001eff" x="238.016529" y="119.846706" style="fill: #1f77b4; stroke: #1f77b4"/>
     <use xlink:href="#m32a6001eff" x="239.861157" y="122.204638" style="fill: #1f77b4; stroke: #1f77b4"/>
     <use xlink:href="#m32a6001eff" x="241.705785" y="134.244218" style="fill: #1f77b4; stroke: #1f77b4"/>
     <use xlink:href="#m32a6001eff" x="243.550413" y="137.109232" style="fill: #1f77b4; stroke: #1f77b4"/>
     <use xlink:href="#m32a6001eff" x="245.395041" y="220.314171" style="fill: #1f77b4; stroke: #1f77b4"/>
     <use xlink:href="#m32a6001eff" x="247.239669" y="238.257636" style="fill: #1f77b4; stroke: #1f77b4"/>
     <use xlink:href="#m32a6001eff" x="249.084298" y="234.689951" style="fill: #1f77b4; stroke: #1f77b4"/>
     <use xlink:href="#m32a6001eff" x="250.928926" y="201.472447" style="fill: #1f77b4; stroke: #1f77b4"/>
     <use xlink:href="#m32a6001eff" x="252.773554" y="168.89604" style="fill: #1f77b4; stroke: #1f77b4"/>
     <use xlink:href="#m32a6001eff" x="254.618182" y="122.60306" style="fill: #1f77b4; stroke: #1f77b4"/>
     <use xlink:href="#m32a6001eff" x="256.46281" y="116.452878" style="fill: #1f77b4; stroke: #1f77b4"/>
     <use xlink:href="#m32a6001eff" x="258.307438" y="98.534767" style="fill: #1f77b4; stroke: #1f77b4"/>
     <use xlink:href="#m32a6001eff" x="260.152066" y="101.827179" style="fill: #1f77b4; stroke: #1f77b4"/>
     <use xlink:href="#m32a6001eff" x="261.996694" y="100.233492" style="fill: #1f77b4; stroke: #1f77b4"/>
     <use xlink:href="#m32a6001eff" x="263.841322" y="97.44454" style="fill: #1f77b4; stroke: #1f77b4"/>
     <use xlink:href="#m32a6001eff" x="265.68595" y="93.434969" style="fill: #1f77b4; stroke: #1f77b4"/>
     <use xlink:href="#m32a6001eff" x="267.530579" y="94.228191" style="fill: #1f77b4; stroke: #1f77b4"/>
     <use xlink:href="#m32a6001eff" x="269.375207" y="95.716839" style="fill: #1f77b4; stroke: #1f77b4"/>
     <use xlink:href="#m32a6001eff" x="271.219835" y="100.559474" style="fill: #1f77b4; stroke: #1f77b4"/>
     <use xlink:href="#m32a6001eff" x="273.064463" y="103.678029" style="fill: #1f77b4; stroke: #1f77b4"/>
     <use xlink:href="#m32a6001eff" x="274.909091" y="99.74452" style="fill: #1f77b4; stroke: #1f77b4"/>
     <use xlink:href="#m32a6001eff" x="276.753719" y="94.757005" style="fill: #1f77b4; stroke: #1f77b4"/>
     <use xlink:href="#m32a6001eff" x="278.598347" y="101.718519" style="fill: #1f77b4; stroke: #1f77b4"/>
     <use xlink:href="#m32a6001eff" x="280.442975" y="93.721108" style="fill: #1f77b4; stroke: #1f77b4"/>
     <use xlink:href="#m32a6001eff" x="282.287603" y="106.351076" style="fill: #1f77b4; stroke: #1f77b4"/>
     <use xlink:href="#m32a6001eff" x="284.132231" y="109.806479" style="fill: #1f77b4; stroke: #1f77b4"/>
     <use xlink:href="#m32a6001eff" x="285.97686" y="113.305346" style="fill: #1f77b4; stroke: #1f77b4"/>
     <use xlink:href="#m32a6001eff" x="287.821488" y="122.733452" style="fill: #1f77b4; stroke: #1f77b4"/>
     <use xlink:href="#m32a6001eff" x="289.666116" y="141.988087" style="fill: #1f77b4; stroke: #1f77b4"/>
     <use xlink:href="#m32a6001eff" x="291.510744" y="161.901928" style="fill: #1f77b4; stroke: #1f77b4"/>
     <use xlink:href="#m32a6001eff" x="293.355372" y="252.756564" style="fill: #1f77b4; stroke: #1f77b4"/>
     <use xlink:href="#m32a6001eff" x="295.2" y="352.083094" style="fill: #1f77b4; stroke: #1f77b4"/>
     <use xlink:href="#m32a6001eff" x="297.044628" y="355.368262" style="fill: #1f77b4; stroke: #1f77b4"/>
     <use xlink:href="#m32a6001eff" x="298.889256" y="308.499382" style="fill: #1f77b4; stroke: #1f77b4"/>
     <use xlink:href="#m32a6001eff" x="300.733884" y="209.741508" style="fill: #1f77b4; stroke: #1f77b4"/>
     <use xlink:href="#m32a6001eff" x="302.578512" y="151.398083" style="fill: #1f77b4; stroke: #1f77b4"/>
     <use xlink:href="#m32a6001eff" x="304.42314" y="116.753505" style="fill: #1f77b4; stroke: #1f77b4"/>
     <use xlink:href="#m32a6001eff" x="306.267769" y="117.601056" style="fill: #1f77b4; stroke: #1f77b4"/>
     <use xlink:href="#m32a6001eff" x="308.112397" y="111.349458" style="fill: #1f77b4; stroke: #1f77b4"/>
     <use xlink:href="#m32a6001eff" x="309.957025" y="127.83325" style="fill: #1f77b4; stroke: #1f77b4"/>
     <use xlink:href="#m32a6001eff" x="311.801653" y="151.025015" style="fill: #1f77b4; stroke: #1f77b4"/>
     <use xlink:href="#m32a6001eff" x="313.646281" y="224.736652" style="fill: #1f77b4; stroke: #1f77b4"/>
     <use xlink:href="#m32a6001eff" x="315.490909" y="332.39744" style="fill: #1f77b4; stroke: #1f77b4"/>
     <use xlink:href="#m32a6001eff" x="317.335537" y="352.528602" style="fill: #1f77b4; stroke: #1f77b4"/>
     <use xlink:href="#m32a6001eff" x="319.180165" y="306.876719" style="fill: #1f77b4; stroke: #1f77b4"/>
     <use xlink:href="#m32a6001eff" x="321.024793" y="206.916336" style="fill: #1f77b4; stroke: #1f77b4"/>
     <use xlink:href="#m32a6001eff" x="322.869421" y="139.851098" style="fill: #1f77b4; stroke: #1f77b4"/>
     <use xlink:href="#m32a6001eff" x="324.71405" y="118.799944" style="fill: #1f77b4; stroke: #1f77b4"/>
     <use xlink:href="#m32a6001eff" x="326.558678" y="105.829506" style="fill: #1f77b4; stroke: #1f77b4"/>
     <use xlink:href="#m32a6001eff" x="328.403306" y="99.592396" style="fill: #1f77b4; stroke: #1f77b4"/>
     <use xlink:href="#m32a6001eff" x="330.247934" y="93.623314" style="fill: #1f77b4; stroke: #1f77b4"/>
     <use xlink:href="#m32a6001eff" x="332.092562" y="96.702027" style="fill: #1f77b4; stroke: #1f77b4"/>
     <use xlink:href="#m32a6001eff" x="333.93719" y="95.372748" style="fill: #1f77b4; stroke: #1f77b4"/>
     <use xlink:href="#m32a6001eff" x="335.781818" y="101.421513" style="fill: #1f77b4; stroke: #1f77b4"/>
     <use xlink:href="#m32a6001eff" x="337.626446" y="78.339391" style="fill: #1f77b4; stroke: #1f77b4"/>
     <use xlink:href="#m32a6001eff" x="339.471074" y="85.337125" style="fill: #1f77b4; stroke: #1f77b4"/>
     <use xlink:href="#m32a6001eff" x="341.315702" y="90.806368" style="fill: #1f77b4; stroke: #1f77b4"/>
     <use xlink:href="#m32a6001eff" x="343.160331" y="80.845825" style="fill: #1f77b4; stroke: #1f77b4"/>
     <use xlink:href="#m32a6001eff" x="345.004959" y="76.166181" style="fill: #1f77b4; stroke: #1f77b4"/>
     <use xlink:href="#m32a6001eff" x="346.849587" y="80.740787" style="fill: #1f77b4; stroke: #1f77b4"/>
     <use xlink:href="#m32a6001eff" x="348.694215" y="86.025308" style="fill: #1f77b4; stroke: #1f77b4"/>
     <use xlink:href="#m32a6001eff" x="350.538843" y="82.75825" style="fill: #1f77b4; stroke: #1f77b4"/>
     <use xlink:href="#m32a6001eff" x="352.383471" y="103.099488" style="fill: #1f77b4; stroke: #1f77b4"/>
     <use xlink:href="#m32a6001eff" x="354.228099" y="106.80481" style="fill: #1f77b4; stroke: #1f77b4"/>
     <use xlink:href="#m32a6001eff" x="356.072727" y="115.475915" style="fill: #1f77b4; stroke: #1f77b4"/>
     <use xlink:href="#m32a6001eff" x="357.917355" y="148.653577" style="fill: #1f77b4; stroke: #1f77b4"/>
     <use xlink:href="#m32a6001eff" x="359.761983" y="309.637677" style="fill: #1f77b4; stroke: #1f77b4"/>
     <use xlink:href="#m32a6001eff" x="361.606612" y="304.896458" style="fill: #1f77b4; stroke: #1f77b4"/>
     <use xlink:href="#m32a6001eff" x="363.45124" y="295.982678" style="fill: #1f77b4; stroke: #1f77b4"/>
     <use xlink:href="#m32a6001eff" x="365.295868" y="175.152242" style="fill: #1f77b4; stroke: #1f77b4"/>
     <use xlink:href="#m32a6001eff" x="367.140496" y="152.73921" style="fill: #1f77b4; stroke: #1f77b4"/>
     <use xlink:href="#m32a6001eff" x="368.985124" y="138.167842" style="fill: #1f77b4; stroke: #1f77b4"/>
     <use xlink:href="#m32a6001eff" x="370.829752" y="169.657645" style="fill: #1f77b4; stroke: #1f77b4"/>
     <use xlink:href="#m32a6001eff" x="372.67438" y="174.543744" style="fill: #1f77b4; stroke: #1f77b4"/>
     <use xlink:href="#m32a6001eff" x="374.519008" y="157.954913" style="fill: #1f77b4; stroke: #1f77b4"/>
     <use xlink:href="#m32a6001eff" x="376.363636" y="136.63573" style="fill: #1f77b4; stroke: #1f77b4"/>
     <use xlink:href="#m32a6001eff" x="378.208264" y="114.296673" style="fill: #1f77b4; stroke: #1f77b4"/>
     <use xlink:href="#m32a6001eff" x="380.052893" y="95.074637" style="fill: #1f77b4; stroke: #1f77b4"/>
     <use xlink:href="#m32a6001eff" x="381.897521" y="93.531658" style="fill: #1f77b4; stroke: #1f77b4"/>
     <use xlink:href="#m32a6001eff" x="383.742149" y="90.431213" style="fill: #1f77b4; stroke: #1f77b4"/>
     <use xlink:href="#m32a6001eff" x="385.586777" y="82.629392" style="fill: #1f77b4; stroke: #1f77b4"/>
     <use xlink:href="#m32a6001eff" x="387.431405" y="82.118687" style="fill: #1f77b4; stroke: #1f77b4"/>
     <use xlink:href="#m32a6001eff" x="389.276033" y="78.717615" style="fill: #1f77b4; stroke: #1f77b4"/>
     <use xlink:href="#m32a6001eff" x="391.120661" y="83.860877" style="fill: #1f77b4; stroke: #1f77b4"/>
     <use xlink:href="#m32a6001eff" x="392.965289" y="76.12063" style="fill: #1f77b4; stroke: #1f77b4"/>
     <use xlink:href="#m32a6001eff" x="394.809917" y="83.951427" style="fill: #1f77b4; stroke: #1f77b4"/>
     <use xlink:href="#m32a6001eff" x="396.654545" y="77.453532" style="fill: #1f77b4; stroke: #1f77b4"/>
     <use xlink:href="#m32a6001eff" x="398.499174" y="78.9784" style="fill: #1f77b4; stroke: #1f77b4"/>
     <use xlink:href="#m32a6001eff" x="400.343802" y="81.991917" style="fill: #1f77b4; stroke: #1f77b4"/>
     <use xlink:href="#m32a6001eff" x="402.18843" y="81.133499" style="fill: #1f77b4; stroke: #1f77b4"/>
     <use xlink:href="#m32a6001eff" x="404.033058" y="79.384066" style="fill: #1f77b4; stroke: #1f77b4"/>
     <use xlink:href="#m32a6001eff" x="405.877686" y="82.241836" style="fill: #1f77b4; stroke: #1f77b4"/>
     <use xlink:href="#m32a6001eff" x="407.722314" y="77.377469" style="fill: #1f77b4; stroke: #1f77b4"/>
     <use xlink:href="#m32a6001eff" x="409.566942" y="72.965854" style="fill: #1f77b4; stroke: #1f77b4"/>
     <use xlink:href="#m32a6001eff" x="411.41157" y="78.732103" style="fill: #1f77b4; stroke: #1f77b4"/>
     <use xlink:href="#m32a6001eff" x="413.256198" y="81.876012" style="fill: #1f77b4; stroke: #1f77b4"/>
     <use xlink:href="#m32a6001eff" x="415.100826" y="83.534896" style="fill: #1f77b4; stroke: #1f77b4"/>
     <use xlink:href="#m32a6001eff" x="416.945455" y="89.388073" style="fill: #1f77b4; stroke: #1f77b4"/>
     <use xlink:href="#m32a6001eff" x="418.790083" y="84.498352" style="fill: #1f77b4; stroke: #1f77b4"/>
     <use xlink:href="#m32a6001eff" x="420.634711" y="98.776337" style="fill: #1f77b4; stroke: #1f77b4"/>
     <use xlink:href="#m32a6001eff" x="422.479339" y="89.033115" style="fill: #1f77b4; stroke: #1f77b4"/>
     <use xlink:href="#m32a6001eff" x="424.323967" y="99.446409" style="fill: #1f77b4; stroke: #1f77b4"/>
     <use xlink:href="#m32a6001eff" x="426.168595" y="127.437345" style="fill: #1f77b4; stroke: #1f77b4"/>
     <use xlink:href="#m32a6001eff" x="428.013223" y="149.087666" style="fill: #1f77b4; stroke: #1f77b4"/>
     <use xlink:href="#m32a6001eff" x="429.857851" y="244.129352" style="fill: #1f77b4; stroke: #1f77b4"/>
     <use xlink:href="#m32a6001eff" x="431.702479" y="259.515674" style="fill: #1f77b4; stroke: #1f77b4"/>
     <use xlink:href="#m32a6001eff" x="433.547107" y="233.227086" style="fill: #1f77b4; stroke: #1f77b4"/>
     <use xlink:href="#m32a6001eff" x="435.391736" y="163.963284" style="fill: #1f77b4; stroke: #1f77b4"/>
     <use xlink:href="#m32a6001eff" x="437.236364" y="111.056504" style="fill: #1f77b4; stroke: #1f77b4"/>
     <use xlink:href="#m32a6001eff" x="439.080992" y="95.920101" style="fill: #1f77b4; stroke: #1f77b4"/>
     <use xlink:href="#m32a6001eff" x="440.92562" y="83.243047" style="fill: #1f77b4; stroke: #1f77b4"/>
     <use xlink:href="#m32a6001eff" x="442.770248" y="81.544322" style="fill: #1f77b4; stroke: #1f77b4"/>
     <use xlink:href="#m32a6001eff" x="444.614876" y="71.301262" style="fill: #1f77b4; stroke: #1f77b4"/>
     <use xlink:href="#m32a6001eff" x="446.459504" y="84.713585" style="fill: #1f77b4; stroke: #1f77b4"/>
     <use xlink:href="#m32a6001eff" x="448.304132" y="83.315487" style="fill: #1f77b4; stroke: #1f77b4"/>
     <use xlink:href="#m32a6001eff" x="450.14876" y="78.476475" style="fill: #1f77b4; stroke: #1f77b4"/>
     <use xlink:href="#m32a6001eff" x="451.993388" y="76.622003" style="fill: #1f77b4; stroke: #1f77b4"/>
     <use xlink:href="#m32a6001eff" x="453.838017" y="73.459983" style="fill: #1f77b4; stroke: #1f77b4"/>
     <use xlink:href="#m32a6001eff" x="455.682645" y="74.553832" style="fill: #1f77b4; stroke: #1f77b4"/>
     <use xlink:href="#m32a6001eff" x="457.527273" y="74.615406" style="fill: #1f77b4; stroke: #1f77b4"/>
     <use xlink:href="#m32a6001eff" x="459.371901" y="78.001991" style="fill: #1f77b4; stroke: #1f77b4"/>
     <use xlink:href="#m32a6001eff" x="461.216529" y="72.815264" style="fill: #1f77b4; stroke: #1f77b4"/>
     <use xlink:href="#m32a6001eff" x="463.061157" y="73.891003" style="fill: #1f77b4; stroke: #1f77b4"/>
     <use xlink:href="#m32a6001eff" x="464.905785" y="73.793209" style="fill: #1f77b4; stroke: #1f77b4"/>
     <use xlink:href="#m32a6001eff" x="466.750413" y="81.660226" style="fill: #1f77b4; stroke: #1f77b4"/>
     <use xlink:href="#m32a6001eff" x="468.595041" y="81.227119" style="fill: #1f77b4; stroke: #1f77b4"/>
     <use xlink:href="#m32a6001eff" x="470.439669" y="76.326532" style="fill: #1f77b4; stroke: #1f77b4"/>
     <use xlink:href="#m32a6001eff" x="472.284298" y="74.979142" style="fill: #1f77b4; stroke: #1f77b4"/>
     <use xlink:href="#m32a6001eff" x="474.128926" y="73.526714" style="fill: #1f77b4; stroke: #1f77b4"/>
     <use xlink:href="#m32a6001eff" x="475.973554" y="76.417082" style="fill: #1f77b4; stroke: #1f77b4"/>
     <use xlink:href="#m32a6001eff" x="477.818182" y="74.671271" style="fill: #1f77b4; stroke: #1f77b4"/>
     <use xlink:href="#m32a6001eff" x="479.66281" y="66.96" style="fill: #1f77b4; stroke: #1f77b4"/>
     <use xlink:href="#m32a6001eff" x="481.507438" y="69.901077" style="fill: #1f77b4; stroke: #1f77b4"/>
     <use xlink:href="#m32a6001eff" x="483.352066" y="75.993307" style="fill: #1f77b4; stroke: #1f77b4"/>
     <use xlink:href="#m32a6001eff" x="485.196694" y="68.796362" style="fill: #1f77b4; stroke: #1f77b4"/>
     <use xlink:href="#m32a6001eff" x="487.041322" y="73.993954" style="fill: #1f77b4; stroke: #1f77b4"/>
     <use xlink:href="#m32a6001eff" x="488.88595" y="70.730518" style="fill: #1f77b4; stroke: #1f77b4"/>
     <use xlink:href="#m32a6001eff" x="490.730579" y="75.363076" style="fill: #1f77b4; stroke: #1f77b4"/>
     <use xlink:href="#m32a6001eff" x="492.575207" y="82.599863" style="fill: #1f77b4; stroke: #1f77b4"/>
     <use xlink:href="#m32a6001eff" x="494.419835" y="74.700247" style="fill: #1f77b4; stroke: #1f77b4"/>
     <use xlink:href="#m32a6001eff" x="496.264463" y="72.871129" style="fill: #1f77b4; stroke: #1f77b4"/>
     <use xlink:href="#m32a6001eff" x="498.109091" y="69.79966" style="fill: #1f77b4; stroke: #1f77b4"/>
    </g>
   </g>
   <g id="matplotlib.axis_1">
    <g id="xtick_1">
     <g id="line2d_1">
      <defs>
       <path id="md7b6bdfeb3" d="M 0 0 
L 0 3.5 
" style="stroke: #000000; stroke-width: 0.8"/>
      </defs>
      <g>
       <use xlink:href="#md7b6bdfeb3" x="138.406612" y="384.48" style="stroke: #000000; stroke-width: 0.8"/>
      </g>
     </g>
     <g id="text_1">
      <!-- 2.7 -->
      <g transform="translate(130.455049 399.078438)scale(0.1 -0.1)">
       <defs>
        <path id="DejaVuSans-32" d="M 1228 531 
L 3431 531 
L 3431 0 
L 469 0 
L 469 531 
Q 828 903 1448 1529 
Q 2069 2156 2228 2338 
Q 2531 2678 2651 2914 
Q 2772 3150 2772 3378 
Q 2772 3750 2511 3984 
Q 2250 4219 1831 4219 
Q 1534 4219 1204 4116 
Q 875 4013 500 3803 
L 500 4441 
Q 881 4594 1212 4672 
Q 1544 4750 1819 4750 
Q 2544 4750 2975 4387 
Q 3406 4025 3406 3419 
Q 3406 3131 3298 2873 
Q 3191 2616 2906 2266 
Q 2828 2175 2409 1742 
Q 1991 1309 1228 531 
z
" transform="scale(0.015625)"/>
        <path id="DejaVuSans-2e" d="M 684 794 
L 1344 794 
L 1344 0 
L 684 0 
L 684 794 
z
" transform="scale(0.015625)"/>
        <path id="DejaVuSans-37" d="M 525 4666 
L 3525 4666 
L 3525 4397 
L 1831 0 
L 1172 0 
L 2766 4134 
L 525 4134 
L 525 4666 
z
" transform="scale(0.015625)"/>
       </defs>
       <use xlink:href="#DejaVuSans-32"/>
       <use xlink:href="#DejaVuSans-2e" x="63.623047"/>
       <use xlink:href="#DejaVuSans-37" x="95.410156"/>
      </g>
     </g>
    </g>
    <g id="xtick_2">
     <g id="line2d_2">
      <g>
       <use xlink:href="#md7b6bdfeb3" x="230.638017" y="384.48" style="stroke: #000000; stroke-width: 0.8"/>
      </g>
     </g>
     <g id="text_2">
      <!-- 2.8 -->
      <g transform="translate(222.686454 399.078438)scale(0.1 -0.1)">
       <defs>
        <path id="DejaVuSans-38" d="M 2034 2216 
Q 1584 2216 1326 1975 
Q 1069 1734 1069 1313 
Q 1069 891 1326 650 
Q 1584 409 2034 409 
Q 2484 409 2743 651 
Q 3003 894 3003 1313 
Q 3003 1734 2745 1975 
Q 2488 2216 2034 2216 
z
M 1403 2484 
Q 997 2584 770 2862 
Q 544 3141 544 3541 
Q 544 4100 942 4425 
Q 1341 4750 2034 4750 
Q 2731 4750 3128 4425 
Q 3525 4100 3525 3541 
Q 3525 3141 3298 2862 
Q 3072 2584 2669 2484 
Q 3125 2378 3379 2068 
Q 3634 1759 3634 1313 
Q 3634 634 3220 271 
Q 2806 -91 2034 -91 
Q 1263 -91 848 271 
Q 434 634 434 1313 
Q 434 1759 690 2068 
Q 947 2378 1403 2484 
z
M 1172 3481 
Q 1172 3119 1398 2916 
Q 1625 2713 2034 2713 
Q 2441 2713 2670 2916 
Q 2900 3119 2900 3481 
Q 2900 3844 2670 4047 
Q 2441 4250 2034 4250 
Q 1625 4250 1398 4047 
Q 1172 3844 1172 3481 
z
" transform="scale(0.015625)"/>
       </defs>
       <use xlink:href="#DejaVuSans-32"/>
       <use xlink:href="#DejaVuSans-2e" x="63.623047"/>
       <use xlink:href="#DejaVuSans-38" x="95.410156"/>
      </g>
     </g>
    </g>
    <g id="xtick_3">
     <g id="line2d_3">
      <g>
       <use xlink:href="#md7b6bdfeb3" x="322.869421" y="384.48" style="stroke: #000000; stroke-width: 0.8"/>
      </g>
     </g>
     <g id="text_3">
      <!-- 2.9 -->
      <g transform="translate(314.917859 399.078438)scale(0.1 -0.1)">
       <defs>
        <path id="DejaVuSans-39" d="M 703 97 
L 703 672 
Q 941 559 1184 500 
Q 1428 441 1663 441 
Q 2288 441 2617 861 
Q 2947 1281 2994 2138 
Q 2813 1869 2534 1725 
Q 2256 1581 1919 1581 
Q 1219 1581 811 2004 
Q 403 2428 403 3163 
Q 403 3881 828 4315 
Q 1253 4750 1959 4750 
Q 2769 4750 3195 4129 
Q 3622 3509 3622 2328 
Q 3622 1225 3098 567 
Q 2575 -91 1691 -91 
Q 1453 -91 1209 -44 
Q 966 3 703 97 
z
M 1959 2075 
Q 2384 2075 2632 2365 
Q 2881 2656 2881 3163 
Q 2881 3666 2632 3958 
Q 2384 4250 1959 4250 
Q 1534 4250 1286 3958 
Q 1038 3666 1038 3163 
Q 1038 2656 1286 2365 
Q 1534 2075 1959 2075 
z
" transform="scale(0.015625)"/>
       </defs>
       <use xlink:href="#DejaVuSans-32"/>
       <use xlink:href="#DejaVuSans-2e" x="63.623047"/>
       <use xlink:href="#DejaVuSans-39" x="95.410156"/>
      </g>
     </g>
    </g>
    <g id="xtick_4">
     <g id="line2d_4">
      <g>
       <use xlink:href="#md7b6bdfeb3" x="415.100826" y="384.48" style="stroke: #000000; stroke-width: 0.8"/>
      </g>
     </g>
     <g id="text_4">
      <!-- 3.0 -->
      <g transform="translate(407.149264 399.078438)scale(0.1 -0.1)">
       <defs>
        <path id="DejaVuSans-33" d="M 2597 2516 
Q 3050 2419 3304 2112 
Q 3559 1806 3559 1356 
Q 3559 666 3084 287 
Q 2609 -91 1734 -91 
Q 1441 -91 1130 -33 
Q 819 25 488 141 
L 488 750 
Q 750 597 1062 519 
Q 1375 441 1716 441 
Q 2309 441 2620 675 
Q 2931 909 2931 1356 
Q 2931 1769 2642 2001 
Q 2353 2234 1838 2234 
L 1294 2234 
L 1294 2753 
L 1863 2753 
Q 2328 2753 2575 2939 
Q 2822 3125 2822 3475 
Q 2822 3834 2567 4026 
Q 2313 4219 1838 4219 
Q 1578 4219 1281 4162 
Q 984 4106 628 3988 
L 628 4550 
Q 988 4650 1302 4700 
Q 1616 4750 1894 4750 
Q 2613 4750 3031 4423 
Q 3450 4097 3450 3541 
Q 3450 3153 3228 2886 
Q 3006 2619 2597 2516 
z
" transform="scale(0.015625)"/>
        <path id="DejaVuSans-30" d="M 2034 4250 
Q 1547 4250 1301 3770 
Q 1056 3291 1056 2328 
Q 1056 1369 1301 889 
Q 1547 409 2034 409 
Q 2525 409 2770 889 
Q 3016 1369 3016 2328 
Q 3016 3291 2770 3770 
Q 2525 4250 2034 4250 
z
M 2034 4750 
Q 2819 4750 3233 4129 
Q 3647 3509 3647 2328 
Q 3647 1150 3233 529 
Q 2819 -91 2034 -91 
Q 1250 -91 836 529 
Q 422 1150 422 2328 
Q 422 3509 836 4129 
Q 1250 4750 2034 4750 
z
" transform="scale(0.015625)"/>
       </defs>
       <use xlink:href="#DejaVuSans-33"/>
       <use xlink:href="#DejaVuSans-2e" x="63.623047"/>
       <use xlink:href="#DejaVuSans-30" x="95.410156"/>
      </g>
     </g>
    </g>
    <g id="xtick_5">
     <g id="line2d_5">
      <g>
       <use xlink:href="#md7b6bdfeb3" x="507.332231" y="384.48" style="stroke: #000000; stroke-width: 0.8"/>
      </g>
     </g>
     <g id="text_5">
      <!-- 3.1 -->
      <g transform="translate(499.380669 399.078438)scale(0.1 -0.1)">
       <defs>
        <path id="DejaVuSans-31" d="M 794 531 
L 1825 531 
L 1825 4091 
L 703 3866 
L 703 4441 
L 1819 4666 
L 2450 4666 
L 2450 531 
L 3481 531 
L 3481 0 
L 794 0 
L 794 531 
z
" transform="scale(0.015625)"/>
       </defs>
       <use xlink:href="#DejaVuSans-33"/>
       <use xlink:href="#DejaVuSans-2e" x="63.623047"/>
       <use xlink:href="#DejaVuSans-31" x="95.410156"/>
      </g>
     </g>
    </g>
    <g id="text_6">
     <!-- [GHz] -->
     <g transform="translate(281.039844 412.756563)scale(0.1 -0.1)">
      <defs>
       <path id="DejaVuSans-5b" d="M 550 4863 
L 1875 4863 
L 1875 4416 
L 1125 4416 
L 1125 -397 
L 1875 -397 
L 1875 -844 
L 550 -844 
L 550 4863 
z
" transform="scale(0.015625)"/>
       <path id="DejaVuSans-47" d="M 3809 666 
L 3809 1919 
L 2778 1919 
L 2778 2438 
L 4434 2438 
L 4434 434 
Q 4069 175 3628 42 
Q 3188 -91 2688 -91 
Q 1594 -91 976 548 
Q 359 1188 359 2328 
Q 359 3472 976 4111 
Q 1594 4750 2688 4750 
Q 3144 4750 3555 4637 
Q 3966 4525 4313 4306 
L 4313 3634 
Q 3963 3931 3569 4081 
Q 3175 4231 2741 4231 
Q 1884 4231 1454 3753 
Q 1025 3275 1025 2328 
Q 1025 1384 1454 906 
Q 1884 428 2741 428 
Q 3075 428 3337 486 
Q 3600 544 3809 666 
z
" transform="scale(0.015625)"/>
       <path id="DejaVuSans-48" d="M 628 4666 
L 1259 4666 
L 1259 2753 
L 3553 2753 
L 3553 4666 
L 4184 4666 
L 4184 0 
L 3553 0 
L 3553 2222 
L 1259 2222 
L 1259 0 
L 628 0 
L 628 4666 
z
" transform="scale(0.015625)"/>
       <path id="DejaVuSans-7a" d="M 353 3500 
L 3084 3500 
L 3084 2975 
L 922 459 
L 3084 459 
L 3084 0 
L 275 0 
L 275 525 
L 2438 3041 
L 353 3041 
L 353 3500 
z
" transform="scale(0.015625)"/>
       <path id="DejaVuSans-5d" d="M 1947 4863 
L 1947 -844 
L 622 -844 
L 622 -397 
L 1369 -397 
L 1369 4416 
L 622 4416 
L 622 4863 
L 1947 4863 
z
" transform="scale(0.015625)"/>
      </defs>
      <use xlink:href="#DejaVuSans-5b"/>
      <use xlink:href="#DejaVuSans-47" x="39.013672"/>
      <use xlink:href="#DejaVuSans-48" x="116.503906"/>
      <use xlink:href="#DejaVuSans-7a" x="191.699219"/>
      <use xlink:href="#DejaVuSans-5d" x="244.189453"/>
     </g>
    </g>
   </g>
   <g id="matplotlib.axis_2">
    <g id="ytick_1">
     <g id="line2d_6">
      <defs>
       <path id="mc2989965f4" d="M 0 0 
L -3.5 0 
" style="stroke: #000000; stroke-width: 0.8"/>
      </defs>
      <g>
       <use xlink:href="#mc2989965f4" x="72" y="383.19321" style="stroke: #000000; stroke-width: 0.8"/>
      </g>
     </g>
     <g id="text_7">
      <!-- 0.988 -->
      <g transform="translate(36.371875 386.992429)scale(0.1 -0.1)">
       <use xlink:href="#DejaVuSans-30"/>
       <use xlink:href="#DejaVuSans-2e" x="63.623047"/>
       <use xlink:href="#DejaVuSans-39" x="95.410156"/>
       <use xlink:href="#DejaVuSans-38" x="159.033203"/>
       <use xlink:href="#DejaVuSans-38" x="222.65625"/>
      </g>
     </g>
    </g>
    <g id="ytick_2">
     <g id="line2d_7">
      <g>
       <use xlink:href="#mc2989965f4" x="72" y="333.747172" style="stroke: #000000; stroke-width: 0.8"/>
      </g>
     </g>
     <g id="text_8">
      <!-- 0.990 -->
      <g transform="translate(36.371875 337.546391)scale(0.1 -0.1)">
       <use xlink:href="#DejaVuSans-30"/>
       <use xlink:href="#DejaVuSans-2e" x="63.623047"/>
       <use xlink:href="#DejaVuSans-39" x="95.410156"/>
       <use xlink:href="#DejaVuSans-39" x="159.033203"/>
       <use xlink:href="#DejaVuSans-30" x="222.65625"/>
      </g>
     </g>
    </g>
    <g id="ytick_3">
     <g id="line2d_8">
      <g>
       <use xlink:href="#mc2989965f4" x="72" y="284.301134" style="stroke: #000000; stroke-width: 0.8"/>
      </g>
     </g>
     <g id="text_9">
      <!-- 0.992 -->
      <g transform="translate(36.371875 288.100352)scale(0.1 -0.1)">
       <use xlink:href="#DejaVuSans-30"/>
       <use xlink:href="#DejaVuSans-2e" x="63.623047"/>
       <use xlink:href="#DejaVuSans-39" x="95.410156"/>
       <use xlink:href="#DejaVuSans-39" x="159.033203"/>
       <use xlink:href="#DejaVuSans-32" x="222.65625"/>
      </g>
     </g>
    </g>
    <g id="ytick_4">
     <g id="line2d_9">
      <g>
       <use xlink:href="#mc2989965f4" x="72" y="234.855095" style="stroke: #000000; stroke-width: 0.8"/>
      </g>
     </g>
     <g id="text_10">
      <!-- 0.994 -->
      <g transform="translate(36.371875 238.654314)scale(0.1 -0.1)">
       <defs>
        <path id="DejaVuSans-34" d="M 2419 4116 
L 825 1625 
L 2419 1625 
L 2419 4116 
z
M 2253 4666 
L 3047 4666 
L 3047 1625 
L 3713 1625 
L 3713 1100 
L 3047 1100 
L 3047 0 
L 2419 0 
L 2419 1100 
L 313 1100 
L 313 1709 
L 2253 4666 
z
" transform="scale(0.015625)"/>
       </defs>
       <use xlink:href="#DejaVuSans-30"/>
       <use xlink:href="#DejaVuSans-2e" x="63.623047"/>
       <use xlink:href="#DejaVuSans-39" x="95.410156"/>
       <use xlink:href="#DejaVuSans-39" x="159.033203"/>
       <use xlink:href="#DejaVuSans-34" x="222.65625"/>
      </g>
     </g>
    </g>
    <g id="ytick_5">
     <g id="line2d_10">
      <g>
       <use xlink:href="#mc2989965f4" x="72" y="185.409057" style="stroke: #000000; stroke-width: 0.8"/>
      </g>
     </g>
     <g id="text_11">
      <!-- 0.996 -->
      <g transform="translate(36.371875 189.208276)scale(0.1 -0.1)">
       <defs>
        <path id="DejaVuSans-36" d="M 2113 2584 
Q 1688 2584 1439 2293 
Q 1191 2003 1191 1497 
Q 1191 994 1439 701 
Q 1688 409 2113 409 
Q 2538 409 2786 701 
Q 3034 994 3034 1497 
Q 3034 2003 2786 2293 
Q 2538 2584 2113 2584 
z
M 3366 4563 
L 3366 3988 
Q 3128 4100 2886 4159 
Q 2644 4219 2406 4219 
Q 1781 4219 1451 3797 
Q 1122 3375 1075 2522 
Q 1259 2794 1537 2939 
Q 1816 3084 2150 3084 
Q 2853 3084 3261 2657 
Q 3669 2231 3669 1497 
Q 3669 778 3244 343 
Q 2819 -91 2113 -91 
Q 1303 -91 875 529 
Q 447 1150 447 2328 
Q 447 3434 972 4092 
Q 1497 4750 2381 4750 
Q 2619 4750 2861 4703 
Q 3103 4656 3366 4563 
z
" transform="scale(0.015625)"/>
       </defs>
       <use xlink:href="#DejaVuSans-30"/>
       <use xlink:href="#DejaVuSans-2e" x="63.623047"/>
       <use xlink:href="#DejaVuSans-39" x="95.410156"/>
       <use xlink:href="#DejaVuSans-39" x="159.033203"/>
       <use xlink:href="#DejaVuSans-36" x="222.65625"/>
      </g>
     </g>
    </g>
    <g id="ytick_6">
     <g id="line2d_11">
      <g>
       <use xlink:href="#mc2989965f4" x="72" y="135.963018" style="stroke: #000000; stroke-width: 0.8"/>
      </g>
     </g>
     <g id="text_12">
      <!-- 0.998 -->
      <g transform="translate(36.371875 139.762237)scale(0.1 -0.1)">
       <use xlink:href="#DejaVuSans-30"/>
       <use xlink:href="#DejaVuSans-2e" x="63.623047"/>
       <use xlink:href="#DejaVuSans-39" x="95.410156"/>
       <use xlink:href="#DejaVuSans-39" x="159.033203"/>
       <use xlink:href="#DejaVuSans-38" x="222.65625"/>
      </g>
     </g>
    </g>
    <g id="ytick_7">
     <g id="line2d_12">
      <g>
       <use xlink:href="#mc2989965f4" x="72" y="86.51698" style="stroke: #000000; stroke-width: 0.8"/>
      </g>
     </g>
     <g id="text_13">
      <!-- 1.000 -->
      <g transform="translate(36.371875 90.316199)scale(0.1 -0.1)">
       <use xlink:href="#DejaVuSans-31"/>
       <use xlink:href="#DejaVuSans-2e" x="63.623047"/>
       <use xlink:href="#DejaVuSans-30" x="95.410156"/>
       <use xlink:href="#DejaVuSans-30" x="159.033203"/>
       <use xlink:href="#DejaVuSans-30" x="222.65625"/>
      </g>
     </g>
    </g>
    <g id="text_14">
     <!-- [Normalized Counts / s] -->
     <g transform="translate(30.292187 276.926406)rotate(-90)scale(0.1 -0.1)">
      <defs>
       <path id="DejaVuSans-4e" d="M 628 4666 
L 1478 4666 
L 3547 763 
L 3547 4666 
L 4159 4666 
L 4159 0 
L 3309 0 
L 1241 3903 
L 1241 0 
L 628 0 
L 628 4666 
z
" transform="scale(0.015625)"/>
       <path id="DejaVuSans-6f" d="M 1959 3097 
Q 1497 3097 1228 2736 
Q 959 2375 959 1747 
Q 959 1119 1226 758 
Q 1494 397 1959 397 
Q 2419 397 2687 759 
Q 2956 1122 2956 1747 
Q 2956 2369 2687 2733 
Q 2419 3097 1959 3097 
z
M 1959 3584 
Q 2709 3584 3137 3096 
Q 3566 2609 3566 1747 
Q 3566 888 3137 398 
Q 2709 -91 1959 -91 
Q 1206 -91 779 398 
Q 353 888 353 1747 
Q 353 2609 779 3096 
Q 1206 3584 1959 3584 
z
" transform="scale(0.015625)"/>
       <path id="DejaVuSans-72" d="M 2631 2963 
Q 2534 3019 2420 3045 
Q 2306 3072 2169 3072 
Q 1681 3072 1420 2755 
Q 1159 2438 1159 1844 
L 1159 0 
L 581 0 
L 581 3500 
L 1159 3500 
L 1159 2956 
Q 1341 3275 1631 3429 
Q 1922 3584 2338 3584 
Q 2397 3584 2469 3576 
Q 2541 3569 2628 3553 
L 2631 2963 
z
" transform="scale(0.015625)"/>
       <path id="DejaVuSans-6d" d="M 3328 2828 
Q 3544 3216 3844 3400 
Q 4144 3584 4550 3584 
Q 5097 3584 5394 3201 
Q 5691 2819 5691 2113 
L 5691 0 
L 5113 0 
L 5113 2094 
Q 5113 2597 4934 2840 
Q 4756 3084 4391 3084 
Q 3944 3084 3684 2787 
Q 3425 2491 3425 1978 
L 3425 0 
L 2847 0 
L 2847 2094 
Q 2847 2600 2669 2842 
Q 2491 3084 2119 3084 
Q 1678 3084 1418 2786 
Q 1159 2488 1159 1978 
L 1159 0 
L 581 0 
L 581 3500 
L 1159 3500 
L 1159 2956 
Q 1356 3278 1631 3431 
Q 1906 3584 2284 3584 
Q 2666 3584 2933 3390 
Q 3200 3197 3328 2828 
z
" transform="scale(0.015625)"/>
       <path id="DejaVuSans-61" d="M 2194 1759 
Q 1497 1759 1228 1600 
Q 959 1441 959 1056 
Q 959 750 1161 570 
Q 1363 391 1709 391 
Q 2188 391 2477 730 
Q 2766 1069 2766 1631 
L 2766 1759 
L 2194 1759 
z
M 3341 1997 
L 3341 0 
L 2766 0 
L 2766 531 
Q 2569 213 2275 61 
Q 1981 -91 1556 -91 
Q 1019 -91 701 211 
Q 384 513 384 1019 
Q 384 1609 779 1909 
Q 1175 2209 1959 2209 
L 2766 2209 
L 2766 2266 
Q 2766 2663 2505 2880 
Q 2244 3097 1772 3097 
Q 1472 3097 1187 3025 
Q 903 2953 641 2809 
L 641 3341 
Q 956 3463 1253 3523 
Q 1550 3584 1831 3584 
Q 2591 3584 2966 3190 
Q 3341 2797 3341 1997 
z
" transform="scale(0.015625)"/>
       <path id="DejaVuSans-6c" d="M 603 4863 
L 1178 4863 
L 1178 0 
L 603 0 
L 603 4863 
z
" transform="scale(0.015625)"/>
       <path id="DejaVuSans-69" d="M 603 3500 
L 1178 3500 
L 1178 0 
L 603 0 
L 603 3500 
z
M 603 4863 
L 1178 4863 
L 1178 4134 
L 603 4134 
L 603 4863 
z
" transform="scale(0.015625)"/>
       <path id="DejaVuSans-65" d="M 3597 1894 
L 3597 1613 
L 953 1613 
Q 991 1019 1311 708 
Q 1631 397 2203 397 
Q 2534 397 2845 478 
Q 3156 559 3463 722 
L 3463 178 
Q 3153 47 2828 -22 
Q 2503 -91 2169 -91 
Q 1331 -91 842 396 
Q 353 884 353 1716 
Q 353 2575 817 3079 
Q 1281 3584 2069 3584 
Q 2775 3584 3186 3129 
Q 3597 2675 3597 1894 
z
M 3022 2063 
Q 3016 2534 2758 2815 
Q 2500 3097 2075 3097 
Q 1594 3097 1305 2825 
Q 1016 2553 972 2059 
L 3022 2063 
z
" transform="scale(0.015625)"/>
       <path id="DejaVuSans-64" d="M 2906 2969 
L 2906 4863 
L 3481 4863 
L 3481 0 
L 2906 0 
L 2906 525 
Q 2725 213 2448 61 
Q 2172 -91 1784 -91 
Q 1150 -91 751 415 
Q 353 922 353 1747 
Q 353 2572 751 3078 
Q 1150 3584 1784 3584 
Q 2172 3584 2448 3432 
Q 2725 3281 2906 2969 
z
M 947 1747 
Q 947 1113 1208 752 
Q 1469 391 1925 391 
Q 2381 391 2643 752 
Q 2906 1113 2906 1747 
Q 2906 2381 2643 2742 
Q 2381 3103 1925 3103 
Q 1469 3103 1208 2742 
Q 947 2381 947 1747 
z
" transform="scale(0.015625)"/>
       <path id="DejaVuSans-20" transform="scale(0.015625)"/>
       <path id="DejaVuSans-43" d="M 4122 4306 
L 4122 3641 
Q 3803 3938 3442 4084 
Q 3081 4231 2675 4231 
Q 1875 4231 1450 3742 
Q 1025 3253 1025 2328 
Q 1025 1406 1450 917 
Q 1875 428 2675 428 
Q 3081 428 3442 575 
Q 3803 722 4122 1019 
L 4122 359 
Q 3791 134 3420 21 
Q 3050 -91 2638 -91 
Q 1578 -91 968 557 
Q 359 1206 359 2328 
Q 359 3453 968 4101 
Q 1578 4750 2638 4750 
Q 3056 4750 3426 4639 
Q 3797 4528 4122 4306 
z
" transform="scale(0.015625)"/>
       <path id="DejaVuSans-75" d="M 544 1381 
L 544 3500 
L 1119 3500 
L 1119 1403 
Q 1119 906 1312 657 
Q 1506 409 1894 409 
Q 2359 409 2629 706 
Q 2900 1003 2900 1516 
L 2900 3500 
L 3475 3500 
L 3475 0 
L 2900 0 
L 2900 538 
Q 2691 219 2414 64 
Q 2138 -91 1772 -91 
Q 1169 -91 856 284 
Q 544 659 544 1381 
z
M 1991 3584 
L 1991 3584 
z
" transform="scale(0.015625)"/>
       <path id="DejaVuSans-6e" d="M 3513 2113 
L 3513 0 
L 2938 0 
L 2938 2094 
Q 2938 2591 2744 2837 
Q 2550 3084 2163 3084 
Q 1697 3084 1428 2787 
Q 1159 2491 1159 1978 
L 1159 0 
L 581 0 
L 581 3500 
L 1159 3500 
L 1159 2956 
Q 1366 3272 1645 3428 
Q 1925 3584 2291 3584 
Q 2894 3584 3203 3211 
Q 3513 2838 3513 2113 
z
" transform="scale(0.015625)"/>
       <path id="DejaVuSans-74" d="M 1172 4494 
L 1172 3500 
L 2356 3500 
L 2356 3053 
L 1172 3053 
L 1172 1153 
Q 1172 725 1289 603 
Q 1406 481 1766 481 
L 2356 481 
L 2356 0 
L 1766 0 
Q 1100 0 847 248 
Q 594 497 594 1153 
L 594 3053 
L 172 3053 
L 172 3500 
L 594 3500 
L 594 4494 
L 1172 4494 
z
" transform="scale(0.015625)"/>
       <path id="DejaVuSans-73" d="M 2834 3397 
L 2834 2853 
Q 2591 2978 2328 3040 
Q 2066 3103 1784 3103 
Q 1356 3103 1142 2972 
Q 928 2841 928 2578 
Q 928 2378 1081 2264 
Q 1234 2150 1697 2047 
L 1894 2003 
Q 2506 1872 2764 1633 
Q 3022 1394 3022 966 
Q 3022 478 2636 193 
Q 2250 -91 1575 -91 
Q 1294 -91 989 -36 
Q 684 19 347 128 
L 347 722 
Q 666 556 975 473 
Q 1284 391 1588 391 
Q 1994 391 2212 530 
Q 2431 669 2431 922 
Q 2431 1156 2273 1281 
Q 2116 1406 1581 1522 
L 1381 1569 
Q 847 1681 609 1914 
Q 372 2147 372 2553 
Q 372 3047 722 3315 
Q 1072 3584 1716 3584 
Q 2034 3584 2315 3537 
Q 2597 3491 2834 3397 
z
" transform="scale(0.015625)"/>
       <path id="DejaVuSans-2f" d="M 1625 4666 
L 2156 4666 
L 531 -594 
L 0 -594 
L 1625 4666 
z
" transform="scale(0.015625)"/>
      </defs>
      <use xlink:href="#DejaVuSans-5b"/>
      <use xlink:href="#DejaVuSans-4e" x="39.013672"/>
      <use xlink:href="#DejaVuSans-6f" x="113.818359"/>
      <use xlink:href="#DejaVuSans-72" x="175"/>
      <use xlink:href="#DejaVuSans-6d" x="214.363281"/>
      <use xlink:href="#DejaVuSans-61" x="311.775391"/>
      <use xlink:href="#DejaVuSans-6c" x="373.054688"/>
      <use xlink:href="#DejaVuSans-69" x="400.837891"/>
      <use xlink:href="#DejaVuSans-7a" x="428.621094"/>
      <use xlink:href="#DejaVuSans-65" x="481.111328"/>
      <use xlink:href="#DejaVuSans-64" x="542.634766"/>
      <use xlink:href="#DejaVuSans-20" x="606.111328"/>
      <use xlink:href="#DejaVuSans-43" x="637.898438"/>
      <use xlink:href="#DejaVuSans-6f" x="707.722656"/>
      <use xlink:href="#DejaVuSans-75" x="768.904297"/>
      <use xlink:href="#DejaVuSans-6e" x="832.283203"/>
      <use xlink:href="#DejaVuSans-74" x="895.662109"/>
      <use xlink:href="#DejaVuSans-73" x="934.871094"/>
      <use xlink:href="#DejaVuSans-20" x="986.970703"/>
      <use xlink:href="#DejaVuSans-2f" x="1018.757812"/>
      <use xlink:href="#DejaVuSans-20" x="1052.449219"/>
      <use xlink:href="#DejaVuSans-73" x="1084.236328"/>
      <use xlink:href="#DejaVuSans-5d" x="1136.335938"/>
     </g>
    </g>
   </g>
   <g id="line2d_13">
    <path d="M 92.290909 86.850804 
L 110.73719 87.141392 
L 119.960331 87.454024 
L 127.338843 87.910058 
L 132.872727 88.511461 
L 136.561983 89.157043 
L 138.406612 89.60354 
L 140.25124 90.172873 
L 142.095868 90.91421 
L 143.940496 91.90375 
L 145.785124 93.264465 
L 147.629752 95.204631 
L 149.47438 98.098067 
L 151.319008 102.66459 
L 153.163636 110.412485 
L 155.008264 124.818981 
L 156.852893 154.512118 
L 158.697521 217.325049 
L 160.542149 289.692225 
L 162.386777 239.465508 
L 164.231405 166.557629 
L 166.076033 130.399007 
L 167.920661 113.239007 
L 169.765289 104.248902 
L 171.609917 99.062798 
L 173.454545 95.831486 
L 175.299174 93.693143 
L 177.143802 92.209139 
L 178.98843 91.139131 
L 180.833058 90.34315 
L 182.677686 89.735461 
L 186.366942 88.8843 
L 190.056198 88.330255 
L 195.590083 87.802926 
L 202.968595 87.394236 
L 214.036364 87.068395 
L 230.638017 86.837821 
L 261.996694 86.669942 
L 333.93719 86.569272 
L 498.109091 86.530761 
L 498.109091 86.530761 
" clip-path="url(#p47bb347cdd)" style="fill: none; stroke: #1f77b4; stroke-width: 1.5; stroke-linecap: square"/>
   </g>
   <g id="line2d_14">
    <path d="M 92.290909 86.546415 
L 175.299174 86.689311 
L 195.590083 86.920661 
L 204.813223 87.217278 
L 210.347107 87.58406 
L 214.036364 88.01462 
L 215.880992 88.334015 
L 217.72562 88.766512 
L 219.570248 89.371787 
L 221.414876 90.253961 
L 223.259504 91.606952 
L 225.104132 93.821927 
L 226.94876 97.767835 
L 228.793388 105.589847 
L 230.638017 122.829584 
L 232.482645 156.906953 
L 234.327273 166.9399 
L 236.171901 131.517958 
L 238.016529 109.469085 
L 239.861157 99.592975 
L 241.705785 94.785351 
L 243.550413 92.167675 
L 245.395041 90.606027 
L 247.239669 89.606242 
L 249.084298 88.930062 
L 250.928926 88.452438 
L 254.618182 87.839934 
L 258.307438 87.477287 
L 263.841322 87.159568 
L 273.064463 86.894977 
L 289.666116 86.704437 
L 324.71405 86.587971 
L 435.391736 86.531448 
L 498.109091 86.525399 
L 498.109091 86.525399 
" clip-path="url(#p47bb347cdd)" style="fill: none; stroke: #ff7f0e; stroke-width: 1.5; stroke-linecap: square"/>
   </g>
   <g id="line2d_15">
    <path d="M 92.290909 86.607556 
L 158.697521 86.791609 
L 184.522314 87.058816 
L 197.434711 87.368121 
L 206.657851 87.785123 
L 212.191736 88.200937 
L 217.72562 88.859227 
L 221.414876 89.536959 
L 225.104132 90.55447 
L 226.94876 91.265546 
L 228.793388 92.179755 
L 230.638017 93.381126 
L 232.482645 95.001052 
L 234.327273 97.253274 
L 236.171901 100.501667 
L 238.016529 105.398347 
L 239.861157 113.17764 
L 241.705785 126.285797 
L 243.550413 149.517396 
L 245.395041 189.70345 
L 247.239669 238.028108 
L 249.084298 238.035396 
L 250.928926 189.713592 
L 252.773554 149.523697 
L 254.618182 126.289312 
L 256.46281 113.179672 
L 258.307438 105.399592 
L 260.152066 100.502474 
L 261.996694 97.253823 
L 263.841322 95.001441 
L 265.68595 93.38141 
L 267.530579 92.179969 
L 269.375207 91.265711 
L 271.219835 90.5546 
L 274.909091 89.537043 
L 278.598347 88.859284 
L 284.132231 88.200973 
L 289.666116 87.785146 
L 298.889256 87.368134 
L 311.801653 87.058822 
L 332.092562 86.828948 
L 368.985124 86.66767 
L 453.838017 86.569014 
L 498.109091 86.552217 
L 498.109091 86.552217 
" clip-path="url(#p47bb347cdd)" style="fill: none; stroke: #2ca02c; stroke-width: 1.5; stroke-linecap: square"/>
   </g>
   <g id="line2d_16">
    <path d="M 92.290909 86.586296 
L 188.21157 86.763372 
L 221.414876 87.029076 
L 238.016529 87.360235 
L 249.084298 87.798102 
L 256.46281 88.310897 
L 261.996694 88.927703 
L 265.68595 89.533571 
L 269.375207 90.398916 
L 271.219835 90.977555 
L 273.064463 91.695014 
L 274.909091 92.599158 
L 276.753719 93.760194 
L 278.598347 95.284303 
L 280.442975 97.337886 
L 282.287603 100.192815 
L 284.132231 104.315698 
L 285.97686 110.555366 
L 287.821488 120.564622 
L 289.666116 137.811508 
L 291.510744 170.030756 
L 293.355372 233.423358 
L 295.2 336.879444 
L 297.044628 369.36 
L 298.889256 270.644467 
L 300.733884 189.815532 
L 302.578512 147.925051 
L 304.42314 126.132708 
L 306.267769 113.873271 
L 308.112397 106.428971 
L 309.957025 101.613257 
L 311.801653 98.335053 
L 313.646281 96.009599 
L 315.490909 94.303443 
L 317.335537 93.016176 
L 319.180165 92.021874 
L 321.024793 91.23837 
L 324.71405 90.099212 
L 328.403306 89.326555 
L 332.092562 88.778847 
L 337.626446 88.214631 
L 345.004959 87.739589 
L 354.228099 87.381296 
L 368.985124 87.065858 
L 392.965289 86.82718 
L 435.391736 86.666714 
L 498.109091 86.58807 
L 498.109091 86.58807 
" clip-path="url(#p47bb347cdd)" style="fill: none; stroke: #d62728; stroke-width: 1.5; stroke-linecap: square"/>
   </g>
   <g id="line2d_17">
    <path d="M 92.290909 86.563799 
L 210.347107 86.724436 
L 243.550413 86.953568 
L 260.152066 87.244313 
L 271.219835 87.635736 
L 278.598347 88.102629 
L 284.132231 88.674721 
L 287.821488 89.246617 
L 291.510744 90.078867 
L 293.355372 90.644729 
L 295.2 91.356071 
L 297.044628 92.266988 
L 298.889256 93.459009 
L 300.733884 95.059444 
L 302.578512 97.275541 
L 304.42314 100.461828 
L 306.267769 105.261908 
L 308.112397 112.930565 
L 309.957025 126.127688 
L 311.801653 151.004226 
L 313.646281 202.217057 
L 315.490909 301.386757 
L 317.335537 369.020619 
L 319.180165 275.181137 
L 321.024793 187.161903 
L 322.869421 143.835826 
L 324.71405 122.447533 
L 326.558678 110.852903 
L 328.403306 103.991427 
L 330.247934 99.634114 
L 332.092562 96.708502 
L 333.93719 94.654986 
L 335.781818 93.160857 
L 337.626446 92.041119 
L 339.471074 91.180992 
L 341.315702 90.506344 
L 345.004959 89.530764 
L 348.694215 88.872968 
L 354.228099 88.226457 
L 361.606612 87.708514 
L 370.829752 87.335453 
L 383.742149 87.049439 
L 405.877686 86.817201 
L 446.459504 86.658432 
L 498.109091 86.589233 
L 498.109091 86.589233 
" clip-path="url(#p47bb347cdd)" style="fill: none; stroke: #9467bd; stroke-width: 1.5; stroke-linecap: square"/>
   </g>
   <g id="line2d_18">
    <path d="M 92.290909 86.541556 
L 256.46281 86.678041 
L 293.355372 86.898697 
L 309.957025 87.182467 
L 321.024793 87.592635 
L 328.403306 88.119561 
L 332.092562 88.541048 
L 335.781818 89.152857 
L 339.471074 90.088778 
L 341.315702 90.754437 
L 343.160331 91.623545 
L 345.004959 92.787425 
L 346.849587 94.394316 
L 348.694215 96.697086 
L 350.538843 100.153715 
L 352.383471 105.656448 
L 354.228099 115.103956 
L 356.072727 132.963659 
L 357.917355 170.58341 
L 361.606612 331.945525 
L 363.45124 256.343359 
L 365.295868 173.334457 
L 367.140496 134.216299 
L 368.985124 115.733602 
L 370.829752 106.007986 
L 372.67438 100.367294 
L 374.519008 96.83567 
L 376.363636 94.489 
L 378.208264 92.854834 
L 380.052893 91.673169 
L 381.897521 90.791992 
L 383.742149 90.117866 
L 387.431405 89.171317 
L 391.120661 88.553478 
L 396.654545 87.963935 
L 404.033058 87.505817 
L 413.256198 87.184812 
L 428.013223 86.921253 
L 453.838017 86.726641 
L 498.109091 86.612712 
L 498.109091 86.612712 
" clip-path="url(#p47bb347cdd)" style="fill: none; stroke: #8c564b; stroke-width: 1.5; stroke-linecap: square"/>
   </g>
   <g id="line2d_19">
    <path d="M 92.290909 86.523969 
L 306.267769 86.640915 
L 332.092562 86.846927 
L 343.160331 87.136607 
L 348.694215 87.449456 
L 352.383471 87.810153 
L 356.072727 88.426649 
L 357.917355 88.912843 
L 359.761983 89.608251 
L 361.606612 90.64977 
L 363.45124 92.303572 
L 365.295868 95.13547 
L 367.140496 100.480292 
L 368.985124 111.786612 
L 370.829752 136.767102 
L 372.67438 165.894556 
L 374.519008 143.123229 
L 376.363636 115.003695 
L 378.208264 101.922314 
L 380.052893 95.854799 
L 381.897521 92.703548 
L 383.742149 90.8922 
L 385.586777 89.765319 
L 387.431405 89.020048 
L 389.276033 88.502919 
L 392.965289 87.852608 
L 396.654545 87.475418 
L 402.18843 87.150645 
L 411.41157 86.885062 
L 428.013223 86.697299 
L 463.061157 86.584509 
L 498.109091 86.552023 
L 498.109091 86.552023 
" clip-path="url(#p47bb347cdd)" style="fill: none; stroke: #e377c2; stroke-width: 1.5; stroke-linecap: square"/>
   </g>
   <g id="line2d_20">
    <path d="M 92.290909 86.5284 
L 333.93719 86.654722 
L 370.829752 86.872299 
L 385.586777 87.135866 
L 394.809917 87.48325 
L 400.343802 87.85303 
L 404.033058 88.231076 
L 407.722314 88.794768 
L 411.41157 89.688068 
L 413.256198 90.344351 
L 415.100826 91.225562 
L 416.945455 92.44621 
L 418.790083 94.202827 
L 420.634711 96.854165 
L 422.479339 101.106462 
L 424.323967 108.484159 
L 426.168595 122.646859 
L 428.013223 153.144006 
L 429.857851 219.575992 
L 431.702479 278.915802 
L 433.547107 210.661186 
L 435.391736 148.673965 
L 437.236364 120.65019 
L 439.080992 107.489606 
L 440.92562 100.553849 
L 442.770248 96.519355 
L 444.614876 93.98596 
L 446.459504 92.298214 
L 448.304132 91.120282 
L 450.14876 90.266894 
L 451.993388 89.629474 
L 455.682645 88.75894 
L 459.371901 88.207617 
L 464.905785 87.695542 
L 472.284298 87.308361 
L 483.352066 87.006801 
L 498.109091 86.813834 
L 498.109091 86.813834 
" clip-path="url(#p47bb347cdd)" style="fill: none; stroke: #7f7f7f; stroke-width: 1.5; stroke-linecap: square"/>
   </g>
   <g id="patch_3">
    <path d="M 72 384.48 
L 72 51.84 
" style="fill: none; stroke: #000000; stroke-width: 0.8; stroke-linejoin: miter; stroke-linecap: square"/>
   </g>
   <g id="patch_4">
    <path d="M 518.4 384.48 
L 518.4 51.84 
" style="fill: none; stroke: #000000; stroke-width: 0.8; stroke-linejoin: miter; stroke-linecap: square"/>
   </g>
   <g id="patch_5">
    <path d="M 72 384.48 
L 518.4 384.48 
" style="fill: none; stroke: #000000; stroke-width: 0.8; stroke-linejoin: miter; stroke-linecap: square"/>
   </g>
   <g id="patch_6">
    <path d="M 72 51.84 
L 518.4 51.84 
" style="fill: none; stroke: #000000; stroke-width: 0.8; stroke-linejoin: miter; stroke-linecap: square"/>
   </g>
  </g>
 </g>
 <defs>
  <clipPath id="p47bb347cdd">
   <rect x="72" y="51.84" width="446.4" height="332.64"/>
  </clipPath>
 </defs>
</svg>
