<?xml version="1.0" encoding="utf-8" standalone="no"?>
<!DOCTYPE svg PUBLIC "-//W3C//DTD SVG 1.1//EN"
  "http://www.w3.org/Graphics/SVG/1.1/DTD/svg11.dtd">
<svg xmlns:xlink="http://www.w3.org/1999/xlink" width="576pt" height="432pt" viewBox="0 0 576 432" xmlns="http://www.w3.org/2000/svg" version="1.1">
 <metadata>
  <rdf:RDF xmlns:dc="http://purl.org/dc/elements/1.1/" xmlns:cc="http://creativecommons.org/ns#" xmlns:rdf="http://www.w3.org/1999/02/22-rdf-syntax-ns#">
   <cc:Work>
    <dc:type rdf:resource="http://purl.org/dc/dcmitype/StillImage"/>
    <dc:date>2022-10-07T21:33:17.130114</dc:date>
    <dc:format>image/svg+xml</dc:format>
    <dc:creator>
     <cc:Agent>
      <dc:title>Matplotlib v3.5.3, https://matplotlib.org/</dc:title>
     </cc:Agent>
    </dc:creator>
   </cc:Work>
  </rdf:RDF>
 </metadata>
 <defs>
  <style type="text/css">*{stroke-linejoin: round; stroke-linecap: butt}</style>
 </defs>
 <g id="figure_1">
  <g id="patch_1">
   <path d="M 0 432 
L 576 432 
L 576 0 
L 0 0 
z
" style="fill: #ffffff"/>
  </g>
  <g id="axes_1">
   <g id="patch_2">
    <path d="M 72 384.48 
L 518.4 384.48 
L 518.4 51.84 
L 72 51.84 
z
" style="fill: #ffffff"/>
   </g>
   <g id="PathCollection_1">
    <defs>
     <path id="m3f2a2a9526" d="M 0 1 
C 0.265203 1 0.51958 0.894634 0.707107 0.707107 
C 0.894634 0.51958 1 0.265203 1 0 
C 1 -0.265203 0.894634 -0.51958 0.707107 -0.707107 
C 0.51958 -0.894634 0.265203 -1 0 -1 
C -0.265203 -1 -0.51958 -0.894634 -0.707107 -0.707107 
C -0.894634 -0.51958 -1 -0.265203 -1 0 
C -1 0.265203 -0.894634 0.51958 -0.707107 0.707107 
C -0.51958 0.894634 -0.265203 1 0 1 
z
" style="stroke: #1f77b4"/>
    </defs>
    <g clip-path="url(#p5b1a6bb31d)">
     <use xlink:href="#m3f2a2a9526" x="92.290909" y="80.940437" style="fill: #1f77b4; stroke: #1f77b4"/>
     <use xlink:href="#m3f2a2a9526" x="94.135537" y="81.960295" style="fill: #1f77b4; stroke: #1f77b4"/>
     <use xlink:href="#m3f2a2a9526" x="95.980165" y="83.734902" style="fill: #1f77b4; stroke: #1f77b4"/>
     <use xlink:href="#m3f2a2a9526" x="97.824793" y="76.963804" style="fill: #1f77b4; stroke: #1f77b4"/>
     <use xlink:href="#m3f2a2a9526" x="99.669421" y="80.5563" style="fill: #1f77b4; stroke: #1f77b4"/>
     <use xlink:href="#m3f2a2a9526" x="101.51405" y="74.374934" style="fill: #1f77b4; stroke: #1f77b4"/>
     <use xlink:href="#m3f2a2a9526" x="103.358678" y="70.628242" style="fill: #1f77b4; stroke: #1f77b4"/>
     <use xlink:href="#m3f2a2a9526" x="105.203306" y="76.517447" style="fill: #1f77b4; stroke: #1f77b4"/>
     <use xlink:href="#m3f2a2a9526" x="107.047934" y="76.866417" style="fill: #1f77b4; stroke: #1f77b4"/>
     <use xlink:href="#m3f2a2a9526" x="108.892562" y="74.472321" style="fill: #1f77b4; stroke: #1f77b4"/>
     <use xlink:href="#m3f2a2a9526" x="110.73719" y="77.418276" style="fill: #1f77b4; stroke: #1f77b4"/>
     <use xlink:href="#m3f2a2a9526" x="112.581818" y="78.319105" style="fill: #1f77b4; stroke: #1f77b4"/>
     <use xlink:href="#m3f2a2a9526" x="114.426446" y="76.782556" style="fill: #1f77b4; stroke: #1f77b4"/>
     <use xlink:href="#m3f2a2a9526" x="116.271074" y="79.044097" style="fill: #1f77b4; stroke: #1f77b4"/>
     <use xlink:href="#m3f2a2a9526" x="118.115702" y="76.14413" style="fill: #1f77b4; stroke: #1f77b4"/>
     <use xlink:href="#m3f2a2a9526" x="119.960331" y="75.946651" style="fill: #1f77b4; stroke: #1f77b4"/>
     <use xlink:href="#m3f2a2a9526" x="121.804959" y="82.163185" style="fill: #1f77b4; stroke: #1f77b4"/>
     <use xlink:href="#m3f2a2a9526" x="123.649587" y="79.861065" style="fill: #1f77b4; stroke: #1f77b4"/>
     <use xlink:href="#m3f2a2a9526" x="125.494215" y="72.478594" style="fill: #1f77b4; stroke: #1f77b4"/>
     <use xlink:href="#m3f2a2a9526" x="127.338843" y="66.96" style="fill: #1f77b4; stroke: #1f77b4"/>
     <use xlink:href="#m3f2a2a9526" x="129.183471" y="81.697891" style="fill: #1f77b4; stroke: #1f77b4"/>
     <use xlink:href="#m3f2a2a9526" x="131.028099" y="76.517447" style="fill: #1f77b4; stroke: #1f77b4"/>
     <use xlink:href="#m3f2a2a9526" x="132.872727" y="74.042195" style="fill: #1f77b4; stroke: #1f77b4"/>
     <use xlink:href="#m3f2a2a9526" x="134.717355" y="71.786064" style="fill: #1f77b4; stroke: #1f77b4"/>
     <use xlink:href="#m3f2a2a9526" x="136.561983" y="77.226207" style="fill: #1f77b4; stroke: #1f77b4"/>
     <use xlink:href="#m3f2a2a9526" x="138.406612" y="76.203644" style="fill: #1f77b4; stroke: #1f77b4"/>
     <use xlink:href="#m3f2a2a9526" x="140.25124" y="76.70681" style="fill: #1f77b4; stroke: #1f77b4"/>
     <use xlink:href="#m3f2a2a9526" x="142.095868" y="83.023436" style="fill: #1f77b4; stroke: #1f77b4"/>
     <use xlink:href="#m3f2a2a9526" x="143.940496" y="75.811392" style="fill: #1f77b4; stroke: #1f77b4"/>
     <use xlink:href="#m3f2a2a9526" x="145.785124" y="79.171241" style="fill: #1f77b4; stroke: #1f77b4"/>
     <use xlink:href="#m3f2a2a9526" x="147.629752" y="71.818527" style="fill: #1f77b4; stroke: #1f77b4"/>
     <use xlink:href="#m3f2a2a9526" x="149.47438" y="81.419257" style="fill: #1f77b4; stroke: #1f77b4"/>
     <use xlink:href="#m3f2a2a9526" x="151.319008" y="80.093712" style="fill: #1f77b4; stroke: #1f77b4"/>
     <use xlink:href="#m3f2a2a9526" x="153.163636" y="75.594976" style="fill: #1f77b4; stroke: #1f77b4"/>
     <use xlink:href="#m3f2a2a9526" x="155.008264" y="77.875454" style="fill: #1f77b4; stroke: #1f77b4"/>
     <use xlink:href="#m3f2a2a9526" x="156.852893" y="84.419316" style="fill: #1f77b4; stroke: #1f77b4"/>
     <use xlink:href="#m3f2a2a9526" x="158.697521" y="80.594173" style="fill: #1f77b4; stroke: #1f77b4"/>
     <use xlink:href="#m3f2a2a9526" x="160.542149" y="84.538344" style="fill: #1f77b4; stroke: #1f77b4"/>
     <use xlink:href="#m3f2a2a9526" x="162.386777" y="75.037706" style="fill: #1f77b4; stroke: #1f77b4"/>
     <use xlink:href="#m3f2a2a9526" x="164.231405" y="76.520152" style="fill: #1f77b4; stroke: #1f77b4"/>
     <use xlink:href="#m3f2a2a9526" x="166.076033" y="75.530051" style="fill: #1f77b4; stroke: #1f77b4"/>
     <use xlink:href="#m3f2a2a9526" x="167.920661" y="76.906995" style="fill: #1f77b4; stroke: #1f77b4"/>
     <use xlink:href="#m3f2a2a9526" x="169.765289" y="77.534599" style="fill: #1f77b4; stroke: #1f77b4"/>
     <use xlink:href="#m3f2a2a9526" x="171.609917" y="81.908897" style="fill: #1f77b4; stroke: #1f77b4"/>
     <use xlink:href="#m3f2a2a9526" x="173.454545" y="74.345177" style="fill: #1f77b4; stroke: #1f77b4"/>
     <use xlink:href="#m3f2a2a9526" x="175.299174" y="81.81692" style="fill: #1f77b4; stroke: #1f77b4"/>
     <use xlink:href="#m3f2a2a9526" x="177.143802" y="77.434507" style="fill: #1f77b4; stroke: #1f77b4"/>
     <use xlink:href="#m3f2a2a9526" x="178.98843" y="77.989072" style="fill: #1f77b4; stroke: #1f77b4"/>
     <use xlink:href="#m3f2a2a9526" x="180.833058" y="75.824917" style="fill: #1f77b4; stroke: #1f77b4"/>
     <use xlink:href="#m3f2a2a9526" x="182.677686" y="81.027004" style="fill: #1f77b4; stroke: #1f77b4"/>
     <use xlink:href="#m3f2a2a9526" x="184.522314" y="80.220856" style="fill: #1f77b4; stroke: #1f77b4"/>
     <use xlink:href="#m3f2a2a9526" x="186.366942" y="80.932322" style="fill: #1f77b4; stroke: #1f77b4"/>
     <use xlink:href="#m3f2a2a9526" x="188.21157" y="83.469793" style="fill: #1f77b4; stroke: #1f77b4"/>
     <use xlink:href="#m3f2a2a9526" x="190.056198" y="83.28584" style="fill: #1f77b4; stroke: #1f77b4"/>
     <use xlink:href="#m3f2a2a9526" x="191.900826" y="81.270471" style="fill: #1f77b4; stroke: #1f77b4"/>
     <use xlink:href="#m3f2a2a9526" x="193.745455" y="83.637515" style="fill: #1f77b4; stroke: #1f77b4"/>
     <use xlink:href="#m3f2a2a9526" x="195.590083" y="80.991836" style="fill: #1f77b4; stroke: #1f77b4"/>
     <use xlink:href="#m3f2a2a9526" x="197.434711" y="87.284115" style="fill: #1f77b4; stroke: #1f77b4"/>
     <use xlink:href="#m3f2a2a9526" x="199.279339" y="92.023613" style="fill: #1f77b4; stroke: #1f77b4"/>
     <use xlink:href="#m3f2a2a9526" x="201.123967" y="102.887668" style="fill: #1f77b4; stroke: #1f77b4"/>
     <use xlink:href="#m3f2a2a9526" x="202.968595" y="124.596842" style="fill: #1f77b4; stroke: #1f77b4"/>
     <use xlink:href="#m3f2a2a9526" x="204.813223" y="184.865837" style="fill: #1f77b4; stroke: #1f77b4"/>
     <use xlink:href="#m3f2a2a9526" x="206.657851" y="239.245627" style="fill: #1f77b4; stroke: #1f77b4"/>
     <use xlink:href="#m3f2a2a9526" x="208.502479" y="246.143869" style="fill: #1f77b4; stroke: #1f77b4"/>
     <use xlink:href="#m3f2a2a9526" x="210.347107" y="214.503932" style="fill: #1f77b4; stroke: #1f77b4"/>
     <use xlink:href="#m3f2a2a9526" x="212.191736" y="140.503377" style="fill: #1f77b4; stroke: #1f77b4"/>
     <use xlink:href="#m3f2a2a9526" x="214.036364" y="117.685074" style="fill: #1f77b4; stroke: #1f77b4"/>
     <use xlink:href="#m3f2a2a9526" x="215.880992" y="104.031965" style="fill: #1f77b4; stroke: #1f77b4"/>
     <use xlink:href="#m3f2a2a9526" x="217.72562" y="96.784753" style="fill: #1f77b4; stroke: #1f77b4"/>
     <use xlink:href="#m3f2a2a9526" x="219.570248" y="92.513253" style="fill: #1f77b4; stroke: #1f77b4"/>
     <use xlink:href="#m3f2a2a9526" x="221.414876" y="89.534836" style="fill: #1f77b4; stroke: #1f77b4"/>
     <use xlink:href="#m3f2a2a9526" x="223.259504" y="88.655648" style="fill: #1f77b4; stroke: #1f77b4"/>
     <use xlink:href="#m3f2a2a9526" x="225.104132" y="90.213839" style="fill: #1f77b4; stroke: #1f77b4"/>
     <use xlink:href="#m3f2a2a9526" x="226.94876" y="82.7962" style="fill: #1f77b4; stroke: #1f77b4"/>
     <use xlink:href="#m3f2a2a9526" x="228.793388" y="85.823311" style="fill: #1f77b4; stroke: #1f77b4"/>
     <use xlink:href="#m3f2a2a9526" x="230.638017" y="82.082029" style="fill: #1f77b4; stroke: #1f77b4"/>
     <use xlink:href="#m3f2a2a9526" x="232.482645" y="75.741056" style="fill: #1f77b4; stroke: #1f77b4"/>
     <use xlink:href="#m3f2a2a9526" x="234.327273" y="87.876552" style="fill: #1f77b4; stroke: #1f77b4"/>
     <use xlink:href="#m3f2a2a9526" x="236.171901" y="77.448033" style="fill: #1f77b4; stroke: #1f77b4"/>
     <use xlink:href="#m3f2a2a9526" x="238.016529" y="77.347941" style="fill: #1f77b4; stroke: #1f77b4"/>
     <use xlink:href="#m3f2a2a9526" x="239.861157" y="79.035982" style="fill: #1f77b4; stroke: #1f77b4"/>
     <use xlink:href="#m3f2a2a9526" x="241.705785" y="77.813234" style="fill: #1f77b4; stroke: #1f77b4"/>
     <use xlink:href="#m3f2a2a9526" x="243.550413" y="79.379541" style="fill: #1f77b4; stroke: #1f77b4"/>
     <use xlink:href="#m3f2a2a9526" x="245.395041" y="83.964843" style="fill: #1f77b4; stroke: #1f77b4"/>
     <use xlink:href="#m3f2a2a9526" x="247.239669" y="79.22805" style="fill: #1f77b4; stroke: #1f77b4"/>
     <use xlink:href="#m3f2a2a9526" x="249.084298" y="87.503236" style="fill: #1f77b4; stroke: #1f77b4"/>
     <use xlink:href="#m3f2a2a9526" x="250.928926" y="95.791947" style="fill: #1f77b4; stroke: #1f77b4"/>
     <use xlink:href="#m3f2a2a9526" x="252.773554" y="110.510902" style="fill: #1f77b4; stroke: #1f77b4"/>
     <use xlink:href="#m3f2a2a9526" x="254.618182" y="161.844645" style="fill: #1f77b4; stroke: #1f77b4"/>
     <use xlink:href="#m3f2a2a9526" x="256.46281" y="248.153827" style="fill: #1f77b4; stroke: #1f77b4"/>
     <use xlink:href="#m3f2a2a9526" x="258.307438" y="274.093923" style="fill: #1f77b4; stroke: #1f77b4"/>
     <use xlink:href="#m3f2a2a9526" x="260.152066" y="263.281267" style="fill: #1f77b4; stroke: #1f77b4"/>
     <use xlink:href="#m3f2a2a9526" x="261.996694" y="166.654478" style="fill: #1f77b4; stroke: #1f77b4"/>
     <use xlink:href="#m3f2a2a9526" x="263.841322" y="138.23913" style="fill: #1f77b4; stroke: #1f77b4"/>
     <use xlink:href="#m3f2a2a9526" x="265.68595" y="129.834096" style="fill: #1f77b4; stroke: #1f77b4"/>
     <use xlink:href="#m3f2a2a9526" x="267.530579" y="133.015403" style="fill: #1f77b4; stroke: #1f77b4"/>
     <use xlink:href="#m3f2a2a9526" x="269.375207" y="163.984452" style="fill: #1f77b4; stroke: #1f77b4"/>
     <use xlink:href="#m3f2a2a9526" x="271.219835" y="229.139026" style="fill: #1f77b4; stroke: #1f77b4"/>
     <use xlink:href="#m3f2a2a9526" x="273.064463" y="277.413195" style="fill: #1f77b4; stroke: #1f77b4"/>
     <use xlink:href="#m3f2a2a9526" x="274.909091" y="307.96835" style="fill: #1f77b4; stroke: #1f77b4"/>
     <use xlink:href="#m3f2a2a9526" x="276.753719" y="360.016263" style="fill: #1f77b4; stroke: #1f77b4"/>
     <use xlink:href="#m3f2a2a9526" x="278.598347" y="369.36" style="fill: #1f77b4; stroke: #1f77b4"/>
     <use xlink:href="#m3f2a2a9526" x="280.442975" y="344.282861" style="fill: #1f77b4; stroke: #1f77b4"/>
     <use xlink:href="#m3f2a2a9526" x="282.287603" y="263.659994" style="fill: #1f77b4; stroke: #1f77b4"/>
     <use xlink:href="#m3f2a2a9526" x="284.132231" y="174.999998" style="fill: #1f77b4; stroke: #1f77b4"/>
     <use xlink:href="#m3f2a2a9526" x="285.97686" y="137.465445" style="fill: #1f77b4; stroke: #1f77b4"/>
     <use xlink:href="#m3f2a2a9526" x="287.821488" y="112.964512" style="fill: #1f77b4; stroke: #1f77b4"/>
     <use xlink:href="#m3f2a2a9526" x="289.666116" y="103.493632" style="fill: #1f77b4; stroke: #1f77b4"/>
     <use xlink:href="#m3f2a2a9526" x="291.510744" y="91.20394" style="fill: #1f77b4; stroke: #1f77b4"/>
     <use xlink:href="#m3f2a2a9526" x="293.355372" y="88.504157" style="fill: #1f77b4; stroke: #1f77b4"/>
     <use xlink:href="#m3f2a2a9526" x="295.2" y="90.868496" style="fill: #1f77b4; stroke: #1f77b4"/>
     <use xlink:href="#m3f2a2a9526" x="297.044628" y="91.509627" style="fill: #1f77b4; stroke: #1f77b4"/>
     <use xlink:href="#m3f2a2a9526" x="298.889256" y="89.096594" style="fill: #1f77b4; stroke: #1f77b4"/>
     <use xlink:href="#m3f2a2a9526" x="300.733884" y="79.969273" style="fill: #1f77b4; stroke: #1f77b4"/>
     <use xlink:href="#m3f2a2a9526" x="302.578512" y="83.797121" style="fill: #1f77b4; stroke: #1f77b4"/>
     <use xlink:href="#m3f2a2a9526" x="304.42314" y="83.513076" style="fill: #1f77b4; stroke: #1f77b4"/>
     <use xlink:href="#m3f2a2a9526" x="306.267769" y="90.16244" style="fill: #1f77b4; stroke: #1f77b4"/>
     <use xlink:href="#m3f2a2a9526" x="308.112397" y="92.873044" style="fill: #1f77b4; stroke: #1f77b4"/>
     <use xlink:href="#m3f2a2a9526" x="309.957025" y="96.276177" style="fill: #1f77b4; stroke: #1f77b4"/>
     <use xlink:href="#m3f2a2a9526" x="311.801653" y="109.861656" style="fill: #1f77b4; stroke: #1f77b4"/>
     <use xlink:href="#m3f2a2a9526" x="313.646281" y="151.989627" style="fill: #1f77b4; stroke: #1f77b4"/>
     <use xlink:href="#m3f2a2a9526" x="315.490909" y="180.932486" style="fill: #1f77b4; stroke: #1f77b4"/>
     <use xlink:href="#m3f2a2a9526" x="317.335537" y="276.033547" style="fill: #1f77b4; stroke: #1f77b4"/>
     <use xlink:href="#m3f2a2a9526" x="319.180165" y="351.927736" style="fill: #1f77b4; stroke: #1f77b4"/>
     <use xlink:href="#m3f2a2a9526" x="321.024793" y="361.798986" style="fill: #1f77b4; stroke: #1f77b4"/>
     <use xlink:href="#m3f2a2a9526" x="322.869421" y="348.667979" style="fill: #1f77b4; stroke: #1f77b4"/>
     <use xlink:href="#m3f2a2a9526" x="324.71405" y="284.368246" style="fill: #1f77b4; stroke: #1f77b4"/>
     <use xlink:href="#m3f2a2a9526" x="326.558678" y="218.991847" style="fill: #1f77b4; stroke: #1f77b4"/>
     <use xlink:href="#m3f2a2a9526" x="328.403306" y="174.242544" style="fill: #1f77b4; stroke: #1f77b4"/>
     <use xlink:href="#m3f2a2a9526" x="330.247934" y="143.498026" style="fill: #1f77b4; stroke: #1f77b4"/>
     <use xlink:href="#m3f2a2a9526" x="332.092562" y="125.072956" style="fill: #1f77b4; stroke: #1f77b4"/>
     <use xlink:href="#m3f2a2a9526" x="333.93719" y="123.714949" style="fill: #1f77b4; stroke: #1f77b4"/>
     <use xlink:href="#m3f2a2a9526" x="335.781818" y="140.457389" style="fill: #1f77b4; stroke: #1f77b4"/>
     <use xlink:href="#m3f2a2a9526" x="337.626446" y="248.989732" style="fill: #1f77b4; stroke: #1f77b4"/>
     <use xlink:href="#m3f2a2a9526" x="339.471074" y="263.18388" style="fill: #1f77b4; stroke: #1f77b4"/>
     <use xlink:href="#m3f2a2a9526" x="341.315702" y="242.564899" style="fill: #1f77b4; stroke: #1f77b4"/>
     <use xlink:href="#m3f2a2a9526" x="343.160331" y="167.279377" style="fill: #1f77b4; stroke: #1f77b4"/>
     <use xlink:href="#m3f2a2a9526" x="345.004959" y="125.235268" style="fill: #1f77b4; stroke: #1f77b4"/>
     <use xlink:href="#m3f2a2a9526" x="346.849587" y="100.972392" style="fill: #1f77b4; stroke: #1f77b4"/>
     <use xlink:href="#m3f2a2a9526" x="348.694215" y="95.984016" style="fill: #1f77b4; stroke: #1f77b4"/>
     <use xlink:href="#m3f2a2a9526" x="350.538843" y="90.048822" style="fill: #1f77b4; stroke: #1f77b4"/>
     <use xlink:href="#m3f2a2a9526" x="352.383471" y="82.082029" style="fill: #1f77b4; stroke: #1f77b4"/>
     <use xlink:href="#m3f2a2a9526" x="354.228099" y="86.488788" style="fill: #1f77b4; stroke: #1f77b4"/>
     <use xlink:href="#m3f2a2a9526" x="356.072727" y="79.63924" style="fill: #1f77b4; stroke: #1f77b4"/>
     <use xlink:href="#m3f2a2a9526" x="357.917355" y="81.871024" style="fill: #1f77b4; stroke: #1f77b4"/>
     <use xlink:href="#m3f2a2a9526" x="359.761983" y="84.259709" style="fill: #1f77b4; stroke: #1f77b4"/>
     <use xlink:href="#m3f2a2a9526" x="361.606612" y="84.340865" style="fill: #1f77b4; stroke: #1f77b4"/>
     <use xlink:href="#m3f2a2a9526" x="363.45124" y="84.6195" style="fill: #1f77b4; stroke: #1f77b4"/>
     <use xlink:href="#m3f2a2a9526" x="365.295868" y="89.556477" style="fill: #1f77b4; stroke: #1f77b4"/>
     <use xlink:href="#m3f2a2a9526" x="367.140496" y="85.079383" style="fill: #1f77b4; stroke: #1f77b4"/>
     <use xlink:href="#m3f2a2a9526" x="368.985124" y="83.78089" style="fill: #1f77b4; stroke: #1f77b4"/>
     <use xlink:href="#m3f2a2a9526" x="370.829752" y="88.190355" style="fill: #1f77b4; stroke: #1f77b4"/>
     <use xlink:href="#m3f2a2a9526" x="372.67438" y="99.925482" style="fill: #1f77b4; stroke: #1f77b4"/>
     <use xlink:href="#m3f2a2a9526" x="374.519008" y="107.751605" style="fill: #1f77b4; stroke: #1f77b4"/>
     <use xlink:href="#m3f2a2a9526" x="376.363636" y="128.28402" style="fill: #1f77b4; stroke: #1f77b4"/>
     <use xlink:href="#m3f2a2a9526" x="378.208264" y="148.034634" style="fill: #1f77b4; stroke: #1f77b4"/>
     <use xlink:href="#m3f2a2a9526" x="380.052893" y="216.968362" style="fill: #1f77b4; stroke: #1f77b4"/>
     <use xlink:href="#m3f2a2a9526" x="381.897521" y="267.504073" style="fill: #1f77b4; stroke: #1f77b4"/>
     <use xlink:href="#m3f2a2a9526" x="383.742149" y="263.933218" style="fill: #1f77b4; stroke: #1f77b4"/>
     <use xlink:href="#m3f2a2a9526" x="385.586777" y="221.045088" style="fill: #1f77b4; stroke: #1f77b4"/>
     <use xlink:href="#m3f2a2a9526" x="387.431405" y="141.0363" style="fill: #1f77b4; stroke: #1f77b4"/>
     <use xlink:href="#m3f2a2a9526" x="389.276033" y="113.056489" style="fill: #1f77b4; stroke: #1f77b4"/>
     <use xlink:href="#m3f2a2a9526" x="391.120661" y="96.671135" style="fill: #1f77b4; stroke: #1f77b4"/>
     <use xlink:href="#m3f2a2a9526" x="392.965289" y="85.801669" style="fill: #1f77b4; stroke: #1f77b4"/>
     <use xlink:href="#m3f2a2a9526" x="394.809917" y="83.824173" style="fill: #1f77b4; stroke: #1f77b4"/>
     <use xlink:href="#m3f2a2a9526" x="396.654545" y="86.951376" style="fill: #1f77b4; stroke: #1f77b4"/>
     <use xlink:href="#m3f2a2a9526" x="398.499174" y="89.45368" style="fill: #1f77b4; stroke: #1f77b4"/>
     <use xlink:href="#m3f2a2a9526" x="400.343802" y="82.963922" style="fill: #1f77b4; stroke: #1f77b4"/>
     <use xlink:href="#m3f2a2a9526" x="402.18843" y="84.852147" style="fill: #1f77b4; stroke: #1f77b4"/>
     <use xlink:href="#m3f2a2a9526" x="404.033058" y="79.969273" style="fill: #1f77b4; stroke: #1f77b4"/>
     <use xlink:href="#m3f2a2a9526" x="405.877686" y="82.328201" style="fill: #1f77b4; stroke: #1f77b4"/>
     <use xlink:href="#m3f2a2a9526" x="407.722314" y="81.627556" style="fill: #1f77b4; stroke: #1f77b4"/>
     <use xlink:href="#m3f2a2a9526" x="409.566942" y="77.650923" style="fill: #1f77b4; stroke: #1f77b4"/>
     <use xlink:href="#m3f2a2a9526" x="411.41157" y="78.17573" style="fill: #1f77b4; stroke: #1f77b4"/>
     <use xlink:href="#m3f2a2a9526" x="413.256198" y="83.066719" style="fill: #1f77b4; stroke: #1f77b4"/>
     <use xlink:href="#m3f2a2a9526" x="415.100826" y="85.433763" style="fill: #1f77b4; stroke: #1f77b4"/>
     <use xlink:href="#m3f2a2a9526" x="416.945455" y="78.219013" style="fill: #1f77b4; stroke: #1f77b4"/>
     <use xlink:href="#m3f2a2a9526" x="418.790083" y="80.136995" style="fill: #1f77b4; stroke: #1f77b4"/>
     <use xlink:href="#m3f2a2a9526" x="420.634711" y="84.541049" style="fill: #1f77b4; stroke: #1f77b4"/>
     <use xlink:href="#m3f2a2a9526" x="422.479339" y="78.38403" style="fill: #1f77b4; stroke: #1f77b4"/>
     <use xlink:href="#m3f2a2a9526" x="424.323967" y="82.017104" style="fill: #1f77b4; stroke: #1f77b4"/>
     <use xlink:href="#m3f2a2a9526" x="426.168595" y="79.195588" style="fill: #1f77b4; stroke: #1f77b4"/>
     <use xlink:href="#m3f2a2a9526" x="428.013223" y="78.914248" style="fill: #1f77b4; stroke: #1f77b4"/>
     <use xlink:href="#m3f2a2a9526" x="429.857851" y="74.588644" style="fill: #1f77b4; stroke: #1f77b4"/>
     <use xlink:href="#m3f2a2a9526" x="431.702479" y="84.243478" style="fill: #1f77b4; stroke: #1f77b4"/>
     <use xlink:href="#m3f2a2a9526" x="433.547107" y="82.247046" style="fill: #1f77b4; stroke: #1f77b4"/>
     <use xlink:href="#m3f2a2a9526" x="435.391736" y="79.587841" style="fill: #1f77b4; stroke: #1f77b4"/>
     <use xlink:href="#m3f2a2a9526" x="437.236364" y="82.536501" style="fill: #1f77b4; stroke: #1f77b4"/>
     <use xlink:href="#m3f2a2a9526" x="439.080992" y="81.692481" style="fill: #1f77b4; stroke: #1f77b4"/>
     <use xlink:href="#m3f2a2a9526" x="440.92562" y="82.133428" style="fill: #1f77b4; stroke: #1f77b4"/>
     <use xlink:href="#m3f2a2a9526" x="442.770248" y="76.395713" style="fill: #1f77b4; stroke: #1f77b4"/>
     <use xlink:href="#m3f2a2a9526" x="444.614876" y="79.549968" style="fill: #1f77b4; stroke: #1f77b4"/>
     <use xlink:href="#m3f2a2a9526" x="446.459504" y="80.594173" style="fill: #1f77b4; stroke: #1f77b4"/>
     <use xlink:href="#m3f2a2a9526" x="448.304132" y="80.529248" style="fill: #1f77b4; stroke: #1f77b4"/>
     <use xlink:href="#m3f2a2a9526" x="450.14876" y="79.99903" style="fill: #1f77b4; stroke: #1f77b4"/>
     <use xlink:href="#m3f2a2a9526" x="451.993388" y="79.006224" style="fill: #1f77b4; stroke: #1f77b4"/>
     <use xlink:href="#m3f2a2a9526" x="453.838017" y="78.056702" style="fill: #1f77b4; stroke: #1f77b4"/>
     <use xlink:href="#m3f2a2a9526" x="455.682645" y="80.851166" style="fill: #1f77b4; stroke: #1f77b4"/>
     <use xlink:href="#m3f2a2a9526" x="457.527273" y="80.870102" style="fill: #1f77b4; stroke: #1f77b4"/>
     <use xlink:href="#m3f2a2a9526" x="459.371901" y="83.599642" style="fill: #1f77b4; stroke: #1f77b4"/>
     <use xlink:href="#m3f2a2a9526" x="461.216529" y="76.717631" style="fill: #1f77b4; stroke: #1f77b4"/>
     <use xlink:href="#m3f2a2a9526" x="463.061157" y="78.797925" style="fill: #1f77b4; stroke: #1f77b4"/>
     <use xlink:href="#m3f2a2a9526" x="464.905785" y="80.935027" style="fill: #1f77b4; stroke: #1f77b4"/>
     <use xlink:href="#m3f2a2a9526" x="466.750413" y="83.818763" style="fill: #1f77b4; stroke: #1f77b4"/>
     <use xlink:href="#m3f2a2a9526" x="468.595041" y="78.730295" style="fill: #1f77b4; stroke: #1f77b4"/>
     <use xlink:href="#m3f2a2a9526" x="470.439669" y="74.285663" style="fill: #1f77b4; stroke: #1f77b4"/>
     <use xlink:href="#m3f2a2a9526" x="472.284298" y="77.775362" style="fill: #1f77b4; stroke: #1f77b4"/>
     <use xlink:href="#m3f2a2a9526" x="474.128926" y="74.772597" style="fill: #1f77b4; stroke: #1f77b4"/>
     <use xlink:href="#m3f2a2a9526" x="475.973554" y="75.57604" style="fill: #1f77b4; stroke: #1f77b4"/>
     <use xlink:href="#m3f2a2a9526" x="477.818182" y="76.739273" style="fill: #1f77b4; stroke: #1f77b4"/>
     <use xlink:href="#m3f2a2a9526" x="479.66281" y="79.141484" style="fill: #1f77b4; stroke: #1f77b4"/>
     <use xlink:href="#m3f2a2a9526" x="481.507438" y="71.718434" style="fill: #1f77b4; stroke: #1f77b4"/>
     <use xlink:href="#m3f2a2a9526" x="483.352066" y="78.976467" style="fill: #1f77b4; stroke: #1f77b4"/>
     <use xlink:href="#m3f2a2a9526" x="485.196694" y="80.015261" style="fill: #1f77b4; stroke: #1f77b4"/>
     <use xlink:href="#m3f2a2a9526" x="487.041322" y="75.873611" style="fill: #1f77b4; stroke: #1f77b4"/>
     <use xlink:href="#m3f2a2a9526" x="488.88595" y="76.62836" style="fill: #1f77b4; stroke: #1f77b4"/>
     <use xlink:href="#m3f2a2a9526" x="490.730579" y="79.098201" style="fill: #1f77b4; stroke: #1f77b4"/>
     <use xlink:href="#m3f2a2a9526" x="492.575207" y="78.016124" style="fill: #1f77b4; stroke: #1f77b4"/>
     <use xlink:href="#m3f2a2a9526" x="494.419835" y="79.880002" style="fill: #1f77b4; stroke: #1f77b4"/>
     <use xlink:href="#m3f2a2a9526" x="496.264463" y="76.062974" style="fill: #1f77b4; stroke: #1f77b4"/>
     <use xlink:href="#m3f2a2a9526" x="498.109091" y="82.44182" style="fill: #1f77b4; stroke: #1f77b4"/>
    </g>
   </g>
   <g id="matplotlib.axis_1">
    <g id="xtick_1">
     <g id="line2d_1">
      <defs>
       <path id="mb880c7f505" d="M 0 0 
L 0 3.5 
" style="stroke: #000000; stroke-width: 0.8"/>
      </defs>
      <g>
       <use xlink:href="#mb880c7f505" x="138.406612" y="384.48" style="stroke: #000000; stroke-width: 0.8"/>
      </g>
     </g>
     <g id="text_1">
      <!-- 2.7 -->
      <g transform="translate(130.455049 399.078438)scale(0.1 -0.1)">
       <defs>
        <path id="DejaVuSans-32" d="M 1228 531 
L 3431 531 
L 3431 0 
L 469 0 
L 469 531 
Q 828 903 1448 1529 
Q 2069 2156 2228 2338 
Q 2531 2678 2651 2914 
Q 2772 3150 2772 3378 
Q 2772 3750 2511 3984 
Q 2250 4219 1831 4219 
Q 1534 4219 1204 4116 
Q 875 4013 500 3803 
L 500 4441 
Q 881 4594 1212 4672 
Q 1544 4750 1819 4750 
Q 2544 4750 2975 4387 
Q 3406 4025 3406 3419 
Q 3406 3131 3298 2873 
Q 3191 2616 2906 2266 
Q 2828 2175 2409 1742 
Q 1991 1309 1228 531 
z
" transform="scale(0.015625)"/>
        <path id="DejaVuSans-2e" d="M 684 794 
L 1344 794 
L 1344 0 
L 684 0 
L 684 794 
z
" transform="scale(0.015625)"/>
        <path id="DejaVuSans-37" d="M 525 4666 
L 3525 4666 
L 3525 4397 
L 1831 0 
L 1172 0 
L 2766 4134 
L 525 4134 
L 525 4666 
z
" transform="scale(0.015625)"/>
       </defs>
       <use xlink:href="#DejaVuSans-32"/>
       <use xlink:href="#DejaVuSans-2e" x="63.623047"/>
       <use xlink:href="#DejaVuSans-37" x="95.410156"/>
      </g>
     </g>
    </g>
    <g id="xtick_2">
     <g id="line2d_2">
      <g>
       <use xlink:href="#mb880c7f505" x="230.638017" y="384.48" style="stroke: #000000; stroke-width: 0.8"/>
      </g>
     </g>
     <g id="text_2">
      <!-- 2.8 -->
      <g transform="translate(222.686454 399.078438)scale(0.1 -0.1)">
       <defs>
        <path id="DejaVuSans-38" d="M 2034 2216 
Q 1584 2216 1326 1975 
Q 1069 1734 1069 1313 
Q 1069 891 1326 650 
Q 1584 409 2034 409 
Q 2484 409 2743 651 
Q 3003 894 3003 1313 
Q 3003 1734 2745 1975 
Q 2488 2216 2034 2216 
z
M 1403 2484 
Q 997 2584 770 2862 
Q 544 3141 544 3541 
Q 544 4100 942 4425 
Q 1341 4750 2034 4750 
Q 2731 4750 3128 4425 
Q 3525 4100 3525 3541 
Q 3525 3141 3298 2862 
Q 3072 2584 2669 2484 
Q 3125 2378 3379 2068 
Q 3634 1759 3634 1313 
Q 3634 634 3220 271 
Q 2806 -91 2034 -91 
Q 1263 -91 848 271 
Q 434 634 434 1313 
Q 434 1759 690 2068 
Q 947 2378 1403 2484 
z
M 1172 3481 
Q 1172 3119 1398 2916 
Q 1625 2713 2034 2713 
Q 2441 2713 2670 2916 
Q 2900 3119 2900 3481 
Q 2900 3844 2670 4047 
Q 2441 4250 2034 4250 
Q 1625 4250 1398 4047 
Q 1172 3844 1172 3481 
z
" transform="scale(0.015625)"/>
       </defs>
       <use xlink:href="#DejaVuSans-32"/>
       <use xlink:href="#DejaVuSans-2e" x="63.623047"/>
       <use xlink:href="#DejaVuSans-38" x="95.410156"/>
      </g>
     </g>
    </g>
    <g id="xtick_3">
     <g id="line2d_3">
      <g>
       <use xlink:href="#mb880c7f505" x="322.869421" y="384.48" style="stroke: #000000; stroke-width: 0.8"/>
      </g>
     </g>
     <g id="text_3">
      <!-- 2.9 -->
      <g transform="translate(314.917859 399.078438)scale(0.1 -0.1)">
       <defs>
        <path id="DejaVuSans-39" d="M 703 97 
L 703 672 
Q 941 559 1184 500 
Q 1428 441 1663 441 
Q 2288 441 2617 861 
Q 2947 1281 2994 2138 
Q 2813 1869 2534 1725 
Q 2256 1581 1919 1581 
Q 1219 1581 811 2004 
Q 403 2428 403 3163 
Q 403 3881 828 4315 
Q 1253 4750 1959 4750 
Q 2769 4750 3195 4129 
Q 3622 3509 3622 2328 
Q 3622 1225 3098 567 
Q 2575 -91 1691 -91 
Q 1453 -91 1209 -44 
Q 966 3 703 97 
z
M 1959 2075 
Q 2384 2075 2632 2365 
Q 2881 2656 2881 3163 
Q 2881 3666 2632 3958 
Q 2384 4250 1959 4250 
Q 1534 4250 1286 3958 
Q 1038 3666 1038 3163 
Q 1038 2656 1286 2365 
Q 1534 2075 1959 2075 
z
" transform="scale(0.015625)"/>
       </defs>
       <use xlink:href="#DejaVuSans-32"/>
       <use xlink:href="#DejaVuSans-2e" x="63.623047"/>
       <use xlink:href="#DejaVuSans-39" x="95.410156"/>
      </g>
     </g>
    </g>
    <g id="xtick_4">
     <g id="line2d_4">
      <g>
       <use xlink:href="#mb880c7f505" x="415.100826" y="384.48" style="stroke: #000000; stroke-width: 0.8"/>
      </g>
     </g>
     <g id="text_4">
      <!-- 3.0 -->
      <g transform="translate(407.149264 399.078438)scale(0.1 -0.1)">
       <defs>
        <path id="DejaVuSans-33" d="M 2597 2516 
Q 3050 2419 3304 2112 
Q 3559 1806 3559 1356 
Q 3559 666 3084 287 
Q 2609 -91 1734 -91 
Q 1441 -91 1130 -33 
Q 819 25 488 141 
L 488 750 
Q 750 597 1062 519 
Q 1375 441 1716 441 
Q 2309 441 2620 675 
Q 2931 909 2931 1356 
Q 2931 1769 2642 2001 
Q 2353 2234 1838 2234 
L 1294 2234 
L 1294 2753 
L 1863 2753 
Q 2328 2753 2575 2939 
Q 2822 3125 2822 3475 
Q 2822 3834 2567 4026 
Q 2313 4219 1838 4219 
Q 1578 4219 1281 4162 
Q 984 4106 628 3988 
L 628 4550 
Q 988 4650 1302 4700 
Q 1616 4750 1894 4750 
Q 2613 4750 3031 4423 
Q 3450 4097 3450 3541 
Q 3450 3153 3228 2886 
Q 3006 2619 2597 2516 
z
" transform="scale(0.015625)"/>
        <path id="DejaVuSans-30" d="M 2034 4250 
Q 1547 4250 1301 3770 
Q 1056 3291 1056 2328 
Q 1056 1369 1301 889 
Q 1547 409 2034 409 
Q 2525 409 2770 889 
Q 3016 1369 3016 2328 
Q 3016 3291 2770 3770 
Q 2525 4250 2034 4250 
z
M 2034 4750 
Q 2819 4750 3233 4129 
Q 3647 3509 3647 2328 
Q 3647 1150 3233 529 
Q 2819 -91 2034 -91 
Q 1250 -91 836 529 
Q 422 1150 422 2328 
Q 422 3509 836 4129 
Q 1250 4750 2034 4750 
z
" transform="scale(0.015625)"/>
       </defs>
       <use xlink:href="#DejaVuSans-33"/>
       <use xlink:href="#DejaVuSans-2e" x="63.623047"/>
       <use xlink:href="#DejaVuSans-30" x="95.410156"/>
      </g>
     </g>
    </g>
    <g id="xtick_5">
     <g id="line2d_5">
      <g>
       <use xlink:href="#mb880c7f505" x="507.332231" y="384.48" style="stroke: #000000; stroke-width: 0.8"/>
      </g>
     </g>
     <g id="text_5">
      <!-- 3.1 -->
      <g transform="translate(499.380669 399.078438)scale(0.1 -0.1)">
       <defs>
        <path id="DejaVuSans-31" d="M 794 531 
L 1825 531 
L 1825 4091 
L 703 3866 
L 703 4441 
L 1819 4666 
L 2450 4666 
L 2450 531 
L 3481 531 
L 3481 0 
L 794 0 
L 794 531 
z
" transform="scale(0.015625)"/>
       </defs>
       <use xlink:href="#DejaVuSans-33"/>
       <use xlink:href="#DejaVuSans-2e" x="63.623047"/>
       <use xlink:href="#DejaVuSans-31" x="95.410156"/>
      </g>
     </g>
    </g>
    <g id="text_6">
     <!-- [GHz] -->
     <g transform="translate(281.039844 412.756563)scale(0.1 -0.1)">
      <defs>
       <path id="DejaVuSans-5b" d="M 550 4863 
L 1875 4863 
L 1875 4416 
L 1125 4416 
L 1125 -397 
L 1875 -397 
L 1875 -844 
L 550 -844 
L 550 4863 
z
" transform="scale(0.015625)"/>
       <path id="DejaVuSans-47" d="M 3809 666 
L 3809 1919 
L 2778 1919 
L 2778 2438 
L 4434 2438 
L 4434 434 
Q 4069 175 3628 42 
Q 3188 -91 2688 -91 
Q 1594 -91 976 548 
Q 359 1188 359 2328 
Q 359 3472 976 4111 
Q 1594 4750 2688 4750 
Q 3144 4750 3555 4637 
Q 3966 4525 4313 4306 
L 4313 3634 
Q 3963 3931 3569 4081 
Q 3175 4231 2741 4231 
Q 1884 4231 1454 3753 
Q 1025 3275 1025 2328 
Q 1025 1384 1454 906 
Q 1884 428 2741 428 
Q 3075 428 3337 486 
Q 3600 544 3809 666 
z
" transform="scale(0.015625)"/>
       <path id="DejaVuSans-48" d="M 628 4666 
L 1259 4666 
L 1259 2753 
L 3553 2753 
L 3553 4666 
L 4184 4666 
L 4184 0 
L 3553 0 
L 3553 2222 
L 1259 2222 
L 1259 0 
L 628 0 
L 628 4666 
z
" transform="scale(0.015625)"/>
       <path id="DejaVuSans-7a" d="M 353 3500 
L 3084 3500 
L 3084 2975 
L 922 459 
L 3084 459 
L 3084 0 
L 275 0 
L 275 525 
L 2438 3041 
L 353 3041 
L 353 3500 
z
" transform="scale(0.015625)"/>
       <path id="DejaVuSans-5d" d="M 1947 4863 
L 1947 -844 
L 622 -844 
L 622 -397 
L 1369 -397 
L 1369 4416 
L 622 4416 
L 622 4863 
L 1947 4863 
z
" transform="scale(0.015625)"/>
      </defs>
      <use xlink:href="#DejaVuSans-5b"/>
      <use xlink:href="#DejaVuSans-47" x="39.013672"/>
      <use xlink:href="#DejaVuSans-48" x="116.503906"/>
      <use xlink:href="#DejaVuSans-7a" x="191.699219"/>
      <use xlink:href="#DejaVuSans-5d" x="244.189453"/>
     </g>
    </g>
   </g>
   <g id="matplotlib.axis_2">
    <g id="ytick_1">
     <g id="line2d_6">
      <defs>
       <path id="m35e4b65504" d="M 0 0 
L -3.5 0 
" style="stroke: #000000; stroke-width: 0.8"/>
      </defs>
      <g>
       <use xlink:href="#m35e4b65504" x="72" y="373.116801" style="stroke: #000000; stroke-width: 0.8"/>
      </g>
     </g>
     <g id="text_7">
      <!-- 0.984 -->
      <g transform="translate(36.371875 376.916019)scale(0.1 -0.1)">
       <defs>
        <path id="DejaVuSans-34" d="M 2419 4116 
L 825 1625 
L 2419 1625 
L 2419 4116 
z
M 2253 4666 
L 3047 4666 
L 3047 1625 
L 3713 1625 
L 3713 1100 
L 3047 1100 
L 3047 0 
L 2419 0 
L 2419 1100 
L 313 1100 
L 313 1709 
L 2253 4666 
z
" transform="scale(0.015625)"/>
       </defs>
       <use xlink:href="#DejaVuSans-30"/>
       <use xlink:href="#DejaVuSans-2e" x="63.623047"/>
       <use xlink:href="#DejaVuSans-39" x="95.410156"/>
       <use xlink:href="#DejaVuSans-38" x="159.033203"/>
       <use xlink:href="#DejaVuSans-34" x="222.65625"/>
      </g>
     </g>
    </g>
    <g id="ytick_2">
     <g id="line2d_7">
      <g>
       <use xlink:href="#m35e4b65504" x="72" y="336.002256" style="stroke: #000000; stroke-width: 0.8"/>
      </g>
     </g>
     <g id="text_8">
      <!-- 0.986 -->
      <g transform="translate(36.371875 339.801475)scale(0.1 -0.1)">
       <defs>
        <path id="DejaVuSans-36" d="M 2113 2584 
Q 1688 2584 1439 2293 
Q 1191 2003 1191 1497 
Q 1191 994 1439 701 
Q 1688 409 2113 409 
Q 2538 409 2786 701 
Q 3034 994 3034 1497 
Q 3034 2003 2786 2293 
Q 2538 2584 2113 2584 
z
M 3366 4563 
L 3366 3988 
Q 3128 4100 2886 4159 
Q 2644 4219 2406 4219 
Q 1781 4219 1451 3797 
Q 1122 3375 1075 2522 
Q 1259 2794 1537 2939 
Q 1816 3084 2150 3084 
Q 2853 3084 3261 2657 
Q 3669 2231 3669 1497 
Q 3669 778 3244 343 
Q 2819 -91 2113 -91 
Q 1303 -91 875 529 
Q 447 1150 447 2328 
Q 447 3434 972 4092 
Q 1497 4750 2381 4750 
Q 2619 4750 2861 4703 
Q 3103 4656 3366 4563 
z
" transform="scale(0.015625)"/>
       </defs>
       <use xlink:href="#DejaVuSans-30"/>
       <use xlink:href="#DejaVuSans-2e" x="63.623047"/>
       <use xlink:href="#DejaVuSans-39" x="95.410156"/>
       <use xlink:href="#DejaVuSans-38" x="159.033203"/>
       <use xlink:href="#DejaVuSans-36" x="222.65625"/>
      </g>
     </g>
    </g>
    <g id="ytick_3">
     <g id="line2d_8">
      <g>
       <use xlink:href="#m35e4b65504" x="72" y="298.887711" style="stroke: #000000; stroke-width: 0.8"/>
      </g>
     </g>
     <g id="text_9">
      <!-- 0.988 -->
      <g transform="translate(36.371875 302.68693)scale(0.1 -0.1)">
       <use xlink:href="#DejaVuSans-30"/>
       <use xlink:href="#DejaVuSans-2e" x="63.623047"/>
       <use xlink:href="#DejaVuSans-39" x="95.410156"/>
       <use xlink:href="#DejaVuSans-38" x="159.033203"/>
       <use xlink:href="#DejaVuSans-38" x="222.65625"/>
      </g>
     </g>
    </g>
    <g id="ytick_4">
     <g id="line2d_9">
      <g>
       <use xlink:href="#m35e4b65504" x="72" y="261.773167" style="stroke: #000000; stroke-width: 0.8"/>
      </g>
     </g>
     <g id="text_10">
      <!-- 0.990 -->
      <g transform="translate(36.371875 265.572385)scale(0.1 -0.1)">
       <use xlink:href="#DejaVuSans-30"/>
       <use xlink:href="#DejaVuSans-2e" x="63.623047"/>
       <use xlink:href="#DejaVuSans-39" x="95.410156"/>
       <use xlink:href="#DejaVuSans-39" x="159.033203"/>
       <use xlink:href="#DejaVuSans-30" x="222.65625"/>
      </g>
     </g>
    </g>
    <g id="ytick_5">
     <g id="line2d_10">
      <g>
       <use xlink:href="#m35e4b65504" x="72" y="224.658622" style="stroke: #000000; stroke-width: 0.8"/>
      </g>
     </g>
     <g id="text_11">
      <!-- 0.992 -->
      <g transform="translate(36.371875 228.457841)scale(0.1 -0.1)">
       <use xlink:href="#DejaVuSans-30"/>
       <use xlink:href="#DejaVuSans-2e" x="63.623047"/>
       <use xlink:href="#DejaVuSans-39" x="95.410156"/>
       <use xlink:href="#DejaVuSans-39" x="159.033203"/>
       <use xlink:href="#DejaVuSans-32" x="222.65625"/>
      </g>
     </g>
    </g>
    <g id="ytick_6">
     <g id="line2d_11">
      <g>
       <use xlink:href="#m35e4b65504" x="72" y="187.544077" style="stroke: #000000; stroke-width: 0.8"/>
      </g>
     </g>
     <g id="text_12">
      <!-- 0.994 -->
      <g transform="translate(36.371875 191.343296)scale(0.1 -0.1)">
       <use xlink:href="#DejaVuSans-30"/>
       <use xlink:href="#DejaVuSans-2e" x="63.623047"/>
       <use xlink:href="#DejaVuSans-39" x="95.410156"/>
       <use xlink:href="#DejaVuSans-39" x="159.033203"/>
       <use xlink:href="#DejaVuSans-34" x="222.65625"/>
      </g>
     </g>
    </g>
    <g id="ytick_7">
     <g id="line2d_12">
      <g>
       <use xlink:href="#m35e4b65504" x="72" y="150.429533" style="stroke: #000000; stroke-width: 0.8"/>
      </g>
     </g>
     <g id="text_13">
      <!-- 0.996 -->
      <g transform="translate(36.371875 154.228751)scale(0.1 -0.1)">
       <use xlink:href="#DejaVuSans-30"/>
       <use xlink:href="#DejaVuSans-2e" x="63.623047"/>
       <use xlink:href="#DejaVuSans-39" x="95.410156"/>
       <use xlink:href="#DejaVuSans-39" x="159.033203"/>
       <use xlink:href="#DejaVuSans-36" x="222.65625"/>
      </g>
     </g>
    </g>
    <g id="ytick_8">
     <g id="line2d_13">
      <g>
       <use xlink:href="#m35e4b65504" x="72" y="113.314988" style="stroke: #000000; stroke-width: 0.8"/>
      </g>
     </g>
     <g id="text_14">
      <!-- 0.998 -->
      <g transform="translate(36.371875 117.114207)scale(0.1 -0.1)">
       <use xlink:href="#DejaVuSans-30"/>
       <use xlink:href="#DejaVuSans-2e" x="63.623047"/>
       <use xlink:href="#DejaVuSans-39" x="95.410156"/>
       <use xlink:href="#DejaVuSans-39" x="159.033203"/>
       <use xlink:href="#DejaVuSans-38" x="222.65625"/>
      </g>
     </g>
    </g>
    <g id="ytick_9">
     <g id="line2d_14">
      <g>
       <use xlink:href="#m35e4b65504" x="72" y="76.200443" style="stroke: #000000; stroke-width: 0.8"/>
      </g>
     </g>
     <g id="text_15">
      <!-- 1.000 -->
      <g transform="translate(36.371875 79.999662)scale(0.1 -0.1)">
       <use xlink:href="#DejaVuSans-31"/>
       <use xlink:href="#DejaVuSans-2e" x="63.623047"/>
       <use xlink:href="#DejaVuSans-30" x="95.410156"/>
       <use xlink:href="#DejaVuSans-30" x="159.033203"/>
       <use xlink:href="#DejaVuSans-30" x="222.65625"/>
      </g>
     </g>
    </g>
    <g id="text_16">
     <!-- [Normalized Counts / s] -->
     <g transform="translate(30.292187 276.926406)rotate(-90)scale(0.1 -0.1)">
      <defs>
       <path id="DejaVuSans-4e" d="M 628 4666 
L 1478 4666 
L 3547 763 
L 3547 4666 
L 4159 4666 
L 4159 0 
L 3309 0 
L 1241 3903 
L 1241 0 
L 628 0 
L 628 4666 
z
" transform="scale(0.015625)"/>
       <path id="DejaVuSans-6f" d="M 1959 3097 
Q 1497 3097 1228 2736 
Q 959 2375 959 1747 
Q 959 1119 1226 758 
Q 1494 397 1959 397 
Q 2419 397 2687 759 
Q 2956 1122 2956 1747 
Q 2956 2369 2687 2733 
Q 2419 3097 1959 3097 
z
M 1959 3584 
Q 2709 3584 3137 3096 
Q 3566 2609 3566 1747 
Q 3566 888 3137 398 
Q 2709 -91 1959 -91 
Q 1206 -91 779 398 
Q 353 888 353 1747 
Q 353 2609 779 3096 
Q 1206 3584 1959 3584 
z
" transform="scale(0.015625)"/>
       <path id="DejaVuSans-72" d="M 2631 2963 
Q 2534 3019 2420 3045 
Q 2306 3072 2169 3072 
Q 1681 3072 1420 2755 
Q 1159 2438 1159 1844 
L 1159 0 
L 581 0 
L 581 3500 
L 1159 3500 
L 1159 2956 
Q 1341 3275 1631 3429 
Q 1922 3584 2338 3584 
Q 2397 3584 2469 3576 
Q 2541 3569 2628 3553 
L 2631 2963 
z
" transform="scale(0.015625)"/>
       <path id="DejaVuSans-6d" d="M 3328 2828 
Q 3544 3216 3844 3400 
Q 4144 3584 4550 3584 
Q 5097 3584 5394 3201 
Q 5691 2819 5691 2113 
L 5691 0 
L 5113 0 
L 5113 2094 
Q 5113 2597 4934 2840 
Q 4756 3084 4391 3084 
Q 3944 3084 3684 2787 
Q 3425 2491 3425 1978 
L 3425 0 
L 2847 0 
L 2847 2094 
Q 2847 2600 2669 2842 
Q 2491 3084 2119 3084 
Q 1678 3084 1418 2786 
Q 1159 2488 1159 1978 
L 1159 0 
L 581 0 
L 581 3500 
L 1159 3500 
L 1159 2956 
Q 1356 3278 1631 3431 
Q 1906 3584 2284 3584 
Q 2666 3584 2933 3390 
Q 3200 3197 3328 2828 
z
" transform="scale(0.015625)"/>
       <path id="DejaVuSans-61" d="M 2194 1759 
Q 1497 1759 1228 1600 
Q 959 1441 959 1056 
Q 959 750 1161 570 
Q 1363 391 1709 391 
Q 2188 391 2477 730 
Q 2766 1069 2766 1631 
L 2766 1759 
L 2194 1759 
z
M 3341 1997 
L 3341 0 
L 2766 0 
L 2766 531 
Q 2569 213 2275 61 
Q 1981 -91 1556 -91 
Q 1019 -91 701 211 
Q 384 513 384 1019 
Q 384 1609 779 1909 
Q 1175 2209 1959 2209 
L 2766 2209 
L 2766 2266 
Q 2766 2663 2505 2880 
Q 2244 3097 1772 3097 
Q 1472 3097 1187 3025 
Q 903 2953 641 2809 
L 641 3341 
Q 956 3463 1253 3523 
Q 1550 3584 1831 3584 
Q 2591 3584 2966 3190 
Q 3341 2797 3341 1997 
z
" transform="scale(0.015625)"/>
       <path id="DejaVuSans-6c" d="M 603 4863 
L 1178 4863 
L 1178 0 
L 603 0 
L 603 4863 
z
" transform="scale(0.015625)"/>
       <path id="DejaVuSans-69" d="M 603 3500 
L 1178 3500 
L 1178 0 
L 603 0 
L 603 3500 
z
M 603 4863 
L 1178 4863 
L 1178 4134 
L 603 4134 
L 603 4863 
z
" transform="scale(0.015625)"/>
       <path id="DejaVuSans-65" d="M 3597 1894 
L 3597 1613 
L 953 1613 
Q 991 1019 1311 708 
Q 1631 397 2203 397 
Q 2534 397 2845 478 
Q 3156 559 3463 722 
L 3463 178 
Q 3153 47 2828 -22 
Q 2503 -91 2169 -91 
Q 1331 -91 842 396 
Q 353 884 353 1716 
Q 353 2575 817 3079 
Q 1281 3584 2069 3584 
Q 2775 3584 3186 3129 
Q 3597 2675 3597 1894 
z
M 3022 2063 
Q 3016 2534 2758 2815 
Q 2500 3097 2075 3097 
Q 1594 3097 1305 2825 
Q 1016 2553 972 2059 
L 3022 2063 
z
" transform="scale(0.015625)"/>
       <path id="DejaVuSans-64" d="M 2906 2969 
L 2906 4863 
L 3481 4863 
L 3481 0 
L 2906 0 
L 2906 525 
Q 2725 213 2448 61 
Q 2172 -91 1784 -91 
Q 1150 -91 751 415 
Q 353 922 353 1747 
Q 353 2572 751 3078 
Q 1150 3584 1784 3584 
Q 2172 3584 2448 3432 
Q 2725 3281 2906 2969 
z
M 947 1747 
Q 947 1113 1208 752 
Q 1469 391 1925 391 
Q 2381 391 2643 752 
Q 2906 1113 2906 1747 
Q 2906 2381 2643 2742 
Q 2381 3103 1925 3103 
Q 1469 3103 1208 2742 
Q 947 2381 947 1747 
z
" transform="scale(0.015625)"/>
       <path id="DejaVuSans-20" transform="scale(0.015625)"/>
       <path id="DejaVuSans-43" d="M 4122 4306 
L 4122 3641 
Q 3803 3938 3442 4084 
Q 3081 4231 2675 4231 
Q 1875 4231 1450 3742 
Q 1025 3253 1025 2328 
Q 1025 1406 1450 917 
Q 1875 428 2675 428 
Q 3081 428 3442 575 
Q 3803 722 4122 1019 
L 4122 359 
Q 3791 134 3420 21 
Q 3050 -91 2638 -91 
Q 1578 -91 968 557 
Q 359 1206 359 2328 
Q 359 3453 968 4101 
Q 1578 4750 2638 4750 
Q 3056 4750 3426 4639 
Q 3797 4528 4122 4306 
z
" transform="scale(0.015625)"/>
       <path id="DejaVuSans-75" d="M 544 1381 
L 544 3500 
L 1119 3500 
L 1119 1403 
Q 1119 906 1312 657 
Q 1506 409 1894 409 
Q 2359 409 2629 706 
Q 2900 1003 2900 1516 
L 2900 3500 
L 3475 3500 
L 3475 0 
L 2900 0 
L 2900 538 
Q 2691 219 2414 64 
Q 2138 -91 1772 -91 
Q 1169 -91 856 284 
Q 544 659 544 1381 
z
M 1991 3584 
L 1991 3584 
z
" transform="scale(0.015625)"/>
       <path id="DejaVuSans-6e" d="M 3513 2113 
L 3513 0 
L 2938 0 
L 2938 2094 
Q 2938 2591 2744 2837 
Q 2550 3084 2163 3084 
Q 1697 3084 1428 2787 
Q 1159 2491 1159 1978 
L 1159 0 
L 581 0 
L 581 3500 
L 1159 3500 
L 1159 2956 
Q 1366 3272 1645 3428 
Q 1925 3584 2291 3584 
Q 2894 3584 3203 3211 
Q 3513 2838 3513 2113 
z
" transform="scale(0.015625)"/>
       <path id="DejaVuSans-74" d="M 1172 4494 
L 1172 3500 
L 2356 3500 
L 2356 3053 
L 1172 3053 
L 1172 1153 
Q 1172 725 1289 603 
Q 1406 481 1766 481 
L 2356 481 
L 2356 0 
L 1766 0 
Q 1100 0 847 248 
Q 594 497 594 1153 
L 594 3053 
L 172 3053 
L 172 3500 
L 594 3500 
L 594 4494 
L 1172 4494 
z
" transform="scale(0.015625)"/>
       <path id="DejaVuSans-73" d="M 2834 3397 
L 2834 2853 
Q 2591 2978 2328 3040 
Q 2066 3103 1784 3103 
Q 1356 3103 1142 2972 
Q 928 2841 928 2578 
Q 928 2378 1081 2264 
Q 1234 2150 1697 2047 
L 1894 2003 
Q 2506 1872 2764 1633 
Q 3022 1394 3022 966 
Q 3022 478 2636 193 
Q 2250 -91 1575 -91 
Q 1294 -91 989 -36 
Q 684 19 347 128 
L 347 722 
Q 666 556 975 473 
Q 1284 391 1588 391 
Q 1994 391 2212 530 
Q 2431 669 2431 922 
Q 2431 1156 2273 1281 
Q 2116 1406 1581 1522 
L 1381 1569 
Q 847 1681 609 1914 
Q 372 2147 372 2553 
Q 372 3047 722 3315 
Q 1072 3584 1716 3584 
Q 2034 3584 2315 3537 
Q 2597 3491 2834 3397 
z
" transform="scale(0.015625)"/>
       <path id="DejaVuSans-2f" d="M 1625 4666 
L 2156 4666 
L 531 -594 
L 0 -594 
L 1625 4666 
z
" transform="scale(0.015625)"/>
      </defs>
      <use xlink:href="#DejaVuSans-5b"/>
      <use xlink:href="#DejaVuSans-4e" x="39.013672"/>
      <use xlink:href="#DejaVuSans-6f" x="113.818359"/>
      <use xlink:href="#DejaVuSans-72" x="175"/>
      <use xlink:href="#DejaVuSans-6d" x="214.363281"/>
      <use xlink:href="#DejaVuSans-61" x="311.775391"/>
      <use xlink:href="#DejaVuSans-6c" x="373.054688"/>
      <use xlink:href="#DejaVuSans-69" x="400.837891"/>
      <use xlink:href="#DejaVuSans-7a" x="428.621094"/>
      <use xlink:href="#DejaVuSans-65" x="481.111328"/>
      <use xlink:href="#DejaVuSans-64" x="542.634766"/>
      <use xlink:href="#DejaVuSans-20" x="606.111328"/>
      <use xlink:href="#DejaVuSans-43" x="637.898438"/>
      <use xlink:href="#DejaVuSans-6f" x="707.722656"/>
      <use xlink:href="#DejaVuSans-75" x="768.904297"/>
      <use xlink:href="#DejaVuSans-6e" x="832.283203"/>
      <use xlink:href="#DejaVuSans-74" x="895.662109"/>
      <use xlink:href="#DejaVuSans-73" x="934.871094"/>
      <use xlink:href="#DejaVuSans-20" x="986.970703"/>
      <use xlink:href="#DejaVuSans-2f" x="1018.757812"/>
      <use xlink:href="#DejaVuSans-20" x="1052.449219"/>
      <use xlink:href="#DejaVuSans-73" x="1084.236328"/>
      <use xlink:href="#DejaVuSans-5d" x="1136.335938"/>
     </g>
    </g>
   </g>
   <g id="line2d_15">
    <path d="M 208.502479 384.48 
L 208.502479 51.84 
" clip-path="url(#p5b1a6bb31d)" style="fill: none; stroke-dasharray: 1.5,2.475; stroke-dashoffset: 0; stroke: #000000; stroke-width: 1.5"/>
   </g>
   <g id="line2d_16">
    <path d="M 258.307438 384.48 
L 258.307438 51.84 
" clip-path="url(#p5b1a6bb31d)" style="fill: none; stroke-dasharray: 1.5,2.475; stroke-dashoffset: 0; stroke: #000000; stroke-width: 1.5"/>
   </g>
   <g id="line2d_17">
    <path d="M 278.598347 384.48 
L 278.598347 51.84 
" clip-path="url(#p5b1a6bb31d)" style="fill: none; stroke-dasharray: 1.5,2.475; stroke-dashoffset: 0; stroke: #000000; stroke-width: 1.5"/>
   </g>
   <g id="line2d_18">
    <path d="M 321.024793 384.48 
L 321.024793 51.84 
" clip-path="url(#p5b1a6bb31d)" style="fill: none; stroke-dasharray: 1.5,2.475; stroke-dashoffset: 0; stroke: #000000; stroke-width: 1.5"/>
   </g>
   <g id="line2d_19">
    <path d="M 339.471074 384.48 
L 339.471074 51.84 
" clip-path="url(#p5b1a6bb31d)" style="fill: none; stroke-dasharray: 1.5,2.475; stroke-dashoffset: 0; stroke: #000000; stroke-width: 1.5"/>
   </g>
   <g id="line2d_20">
    <path d="M 381.897521 384.48 
L 381.897521 51.84 
" clip-path="url(#p5b1a6bb31d)" style="fill: none; stroke-dasharray: 1.5,2.475; stroke-dashoffset: 0; stroke: #000000; stroke-width: 1.5"/>
   </g>
   <g id="patch_3">
    <path d="M 72 384.48 
L 72 51.84 
" style="fill: none; stroke: #000000; stroke-width: 0.8; stroke-linejoin: miter; stroke-linecap: square"/>
   </g>
   <g id="patch_4">
    <path d="M 518.4 384.48 
L 518.4 51.84 
" style="fill: none; stroke: #000000; stroke-width: 0.8; stroke-linejoin: miter; stroke-linecap: square"/>
   </g>
   <g id="patch_5">
    <path d="M 72 384.48 
L 518.4 384.48 
" style="fill: none; stroke: #000000; stroke-width: 0.8; stroke-linejoin: miter; stroke-linecap: square"/>
   </g>
   <g id="patch_6">
    <path d="M 72 51.84 
L 518.4 51.84 
" style="fill: none; stroke: #000000; stroke-width: 0.8; stroke-linejoin: miter; stroke-linecap: square"/>
   </g>
  </g>
 </g>
 <defs>
  <clipPath id="p5b1a6bb31d">
   <rect x="72" y="51.84" width="446.4" height="332.64"/>
  </clipPath>
 </defs>
</svg>
