<?xml version="1.0" encoding="utf-8" standalone="no"?>
<!DOCTYPE svg PUBLIC "-//W3C//DTD SVG 1.1//EN"
  "http://www.w3.org/Graphics/SVG/1.1/DTD/svg11.dtd">
<svg xmlns:xlink="http://www.w3.org/1999/xlink" width="576pt" height="432pt" viewBox="0 0 576 432" xmlns="http://www.w3.org/2000/svg" version="1.1">
 <metadata>
  <rdf:RDF xmlns:dc="http://purl.org/dc/elements/1.1/" xmlns:cc="http://creativecommons.org/ns#" xmlns:rdf="http://www.w3.org/1999/02/22-rdf-syntax-ns#">
   <cc:Work>
    <dc:type rdf:resource="http://purl.org/dc/dcmitype/StillImage"/>
    <dc:date>2022-09-12T08:58:49.641423</dc:date>
    <dc:format>image/svg+xml</dc:format>
    <dc:creator>
     <cc:Agent>
      <dc:title>Matplotlib v3.5.3, https://matplotlib.org/</dc:title>
     </cc:Agent>
    </dc:creator>
   </cc:Work>
  </rdf:RDF>
 </metadata>
 <defs>
  <style type="text/css">*{stroke-linejoin: round; stroke-linecap: butt}</style>
 </defs>
 <g id="figure_1">
  <g id="patch_1">
   <path d="M 0 432 
L 576 432 
L 576 0 
L 0 0 
z
" style="fill: #ffffff"/>
  </g>
  <g id="axes_1">
   <g id="patch_2">
    <path d="M 72 384.48 
L 518.4 384.48 
L 518.4 51.84 
L 72 51.84 
z
" style="fill: #ffffff"/>
   </g>
   <g id="PathCollection_1">
    <defs>
     <path id="maf6eb9b0c3" d="M 0 1 
C 0.265203 1 0.51958 0.894634 0.707107 0.707107 
C 0.894634 0.51958 1 0.265203 1 0 
C 1 -0.265203 0.894634 -0.51958 0.707107 -0.707107 
C 0.51958 -0.894634 0.265203 -1 0 -1 
C -0.265203 -1 -0.51958 -0.894634 -0.707107 -0.707107 
C -0.894634 -0.51958 -1 -0.265203 -1 0 
C -1 0.265203 -0.894634 0.51958 -0.707107 0.707107 
C -0.51958 0.894634 -0.265203 1 0 1 
z
" style="stroke: #1f77b4"/>
    </defs>
    <g clip-path="url(#p297039f56e)">
     <use xlink:href="#maf6eb9b0c3" x="92.290909" y="80.606286" style="fill: #1f77b4; stroke: #1f77b4"/>
     <use xlink:href="#maf6eb9b0c3" x="95.672727" y="84.146832" style="fill: #1f77b4; stroke: #1f77b4"/>
     <use xlink:href="#maf6eb9b0c3" x="99.054545" y="83.315275" style="fill: #1f77b4; stroke: #1f77b4"/>
     <use xlink:href="#maf6eb9b0c3" x="102.436364" y="84.245419" style="fill: #1f77b4; stroke: #1f77b4"/>
     <use xlink:href="#maf6eb9b0c3" x="105.818182" y="82.946647" style="fill: #1f77b4; stroke: #1f77b4"/>
     <use xlink:href="#maf6eb9b0c3" x="109.2" y="77.044308" style="fill: #1f77b4; stroke: #1f77b4"/>
     <use xlink:href="#maf6eb9b0c3" x="112.581818" y="78.133048" style="fill: #1f77b4; stroke: #1f77b4"/>
     <use xlink:href="#maf6eb9b0c3" x="115.963636" y="80.055487" style="fill: #1f77b4; stroke: #1f77b4"/>
     <use xlink:href="#maf6eb9b0c3" x="119.345455" y="83.283128" style="fill: #1f77b4; stroke: #1f77b4"/>
     <use xlink:href="#maf6eb9b0c3" x="122.727273" y="82.520153" style="fill: #1f77b4; stroke: #1f77b4"/>
     <use xlink:href="#maf6eb9b0c3" x="126.109091" y="82.100088" style="fill: #1f77b4; stroke: #1f77b4"/>
     <use xlink:href="#maf6eb9b0c3" x="129.490909" y="80.859182" style="fill: #1f77b4; stroke: #1f77b4"/>
     <use xlink:href="#maf6eb9b0c3" x="132.872727" y="74.508917" style="fill: #1f77b4; stroke: #1f77b4"/>
     <use xlink:href="#maf6eb9b0c3" x="136.254545" y="78.9346" style="fill: #1f77b4; stroke: #1f77b4"/>
     <use xlink:href="#maf6eb9b0c3" x="139.636364" y="80.833464" style="fill: #1f77b4; stroke: #1f77b4"/>
     <use xlink:href="#maf6eb9b0c3" x="143.018182" y="79.738295" style="fill: #1f77b4; stroke: #1f77b4"/>
     <use xlink:href="#maf6eb9b0c3" x="146.4" y="81.244956" style="fill: #1f77b4; stroke: #1f77b4"/>
     <use xlink:href="#maf6eb9b0c3" x="149.781818" y="79.279653" style="fill: #1f77b4; stroke: #1f77b4"/>
     <use xlink:href="#maf6eb9b0c3" x="153.163636" y="79.656854" style="fill: #1f77b4; stroke: #1f77b4"/>
     <use xlink:href="#maf6eb9b0c3" x="156.545455" y="81.38855" style="fill: #1f77b4; stroke: #1f77b4"/>
     <use xlink:href="#maf6eb9b0c3" x="159.927273" y="78.235921" style="fill: #1f77b4; stroke: #1f77b4"/>
     <use xlink:href="#maf6eb9b0c3" x="163.309091" y="78.979607" style="fill: #1f77b4; stroke: #1f77b4"/>
     <use xlink:href="#maf6eb9b0c3" x="166.690909" y="79.813307" style="fill: #1f77b4; stroke: #1f77b4"/>
     <use xlink:href="#maf6eb9b0c3" x="170.072727" y="84.389013" style="fill: #1f77b4; stroke: #1f77b4"/>
     <use xlink:href="#maf6eb9b0c3" x="173.454545" y="81.885769" style="fill: #1f77b4; stroke: #1f77b4"/>
     <use xlink:href="#maf6eb9b0c3" x="176.836364" y="80.805603" style="fill: #1f77b4; stroke: #1f77b4"/>
     <use xlink:href="#maf6eb9b0c3" x="180.218182" y="79.877602" style="fill: #1f77b4; stroke: #1f77b4"/>
     <use xlink:href="#maf6eb9b0c3" x="183.6" y="78.173768" style="fill: #1f77b4; stroke: #1f77b4"/>
     <use xlink:href="#maf6eb9b0c3" x="186.981818" y="83.660329" style="fill: #1f77b4; stroke: #1f77b4"/>
     <use xlink:href="#maf6eb9b0c3" x="190.363636" y="86.369318" style="fill: #1f77b4; stroke: #1f77b4"/>
     <use xlink:href="#maf6eb9b0c3" x="193.745455" y="84.599045" style="fill: #1f77b4; stroke: #1f77b4"/>
     <use xlink:href="#maf6eb9b0c3" x="197.127273" y="81.808614" style="fill: #1f77b4; stroke: #1f77b4"/>
     <use xlink:href="#maf6eb9b0c3" x="200.509091" y="82.447284" style="fill: #1f77b4; stroke: #1f77b4"/>
     <use xlink:href="#maf6eb9b0c3" x="203.890909" y="82.989511" style="fill: #1f77b4; stroke: #1f77b4"/>
     <use xlink:href="#maf6eb9b0c3" x="207.272727" y="87.353041" style="fill: #1f77b4; stroke: #1f77b4"/>
     <use xlink:href="#maf6eb9b0c3" x="210.654545" y="84.17898" style="fill: #1f77b4; stroke: #1f77b4"/>
     <use xlink:href="#maf6eb9b0c3" x="214.036364" y="82.923072" style="fill: #1f77b4; stroke: #1f77b4"/>
     <use xlink:href="#maf6eb9b0c3" x="217.418182" y="81.127081" style="fill: #1f77b4; stroke: #1f77b4"/>
     <use xlink:href="#maf6eb9b0c3" x="220.8" y="79.217501" style="fill: #1f77b4; stroke: #1f77b4"/>
     <use xlink:href="#maf6eb9b0c3" x="224.181818" y="79.18321" style="fill: #1f77b4; stroke: #1f77b4"/>
     <use xlink:href="#maf6eb9b0c3" x="227.563636" y="81.697169" style="fill: #1f77b4; stroke: #1f77b4"/>
     <use xlink:href="#maf6eb9b0c3" x="230.945455" y="82.790194" style="fill: #1f77b4; stroke: #1f77b4"/>
     <use xlink:href="#maf6eb9b0c3" x="234.327273" y="81.054212" style="fill: #1f77b4; stroke: #1f77b4"/>
     <use xlink:href="#maf6eb9b0c3" x="237.709091" y="82.438712" style="fill: #1f77b4; stroke: #1f77b4"/>
     <use xlink:href="#maf6eb9b0c3" x="241.090909" y="82.282259" style="fill: #1f77b4; stroke: #1f77b4"/>
     <use xlink:href="#maf6eb9b0c3" x="244.472727" y="82.788051" style="fill: #1f77b4; stroke: #1f77b4"/>
     <use xlink:href="#maf6eb9b0c3" x="247.854545" y="84.590472" style="fill: #1f77b4; stroke: #1f77b4"/>
     <use xlink:href="#maf6eb9b0c3" x="251.236364" y="79.583986" style="fill: #1f77b4; stroke: #1f77b4"/>
     <use xlink:href="#maf6eb9b0c3" x="254.618182" y="83.79535" style="fill: #1f77b4; stroke: #1f77b4"/>
     <use xlink:href="#maf6eb9b0c3" x="258" y="84.609761" style="fill: #1f77b4; stroke: #1f77b4"/>
     <use xlink:href="#maf6eb9b0c3" x="261.381818" y="86.255729" style="fill: #1f77b4; stroke: #1f77b4"/>
     <use xlink:href="#maf6eb9b0c3" x="264.763636" y="87.445198" style="fill: #1f77b4; stroke: #1f77b4"/>
     <use xlink:href="#maf6eb9b0c3" x="268.145455" y="90.282779" style="fill: #1f77b4; stroke: #1f77b4"/>
     <use xlink:href="#maf6eb9b0c3" x="271.527273" y="104.329231" style="fill: #1f77b4; stroke: #1f77b4"/>
     <use xlink:href="#maf6eb9b0c3" x="274.909091" y="117.061909" style="fill: #1f77b4; stroke: #1f77b4"/>
     <use xlink:href="#maf6eb9b0c3" x="278.290909" y="157.516721" style="fill: #1f77b4; stroke: #1f77b4"/>
     <use xlink:href="#maf6eb9b0c3" x="281.672727" y="289.901426" style="fill: #1f77b4; stroke: #1f77b4"/>
     <use xlink:href="#maf6eb9b0c3" x="285.054545" y="326.440634" style="fill: #1f77b4; stroke: #1f77b4"/>
     <use xlink:href="#maf6eb9b0c3" x="288.436364" y="360.804506" style="fill: #1f77b4; stroke: #1f77b4"/>
     <use xlink:href="#maf6eb9b0c3" x="291.818182" y="318.268659" style="fill: #1f77b4; stroke: #1f77b4"/>
     <use xlink:href="#maf6eb9b0c3" x="295.2" y="293.585566" style="fill: #1f77b4; stroke: #1f77b4"/>
     <use xlink:href="#maf6eb9b0c3" x="298.581818" y="327.717974" style="fill: #1f77b4; stroke: #1f77b4"/>
     <use xlink:href="#maf6eb9b0c3" x="301.963636" y="358.837059" style="fill: #1f77b4; stroke: #1f77b4"/>
     <use xlink:href="#maf6eb9b0c3" x="305.345455" y="302.672682" style="fill: #1f77b4; stroke: #1f77b4"/>
     <use xlink:href="#maf6eb9b0c3" x="308.727273" y="266.787147" style="fill: #1f77b4; stroke: #1f77b4"/>
     <use xlink:href="#maf6eb9b0c3" x="312.109091" y="165.641545" style="fill: #1f77b4; stroke: #1f77b4"/>
     <use xlink:href="#maf6eb9b0c3" x="315.490909" y="117.844173" style="fill: #1f77b4; stroke: #1f77b4"/>
     <use xlink:href="#maf6eb9b0c3" x="318.872727" y="101.01372" style="fill: #1f77b4; stroke: #1f77b4"/>
     <use xlink:href="#maf6eb9b0c3" x="322.254545" y="95.822919" style="fill: #1f77b4; stroke: #1f77b4"/>
     <use xlink:href="#maf6eb9b0c3" x="325.636364" y="85.794944" style="fill: #1f77b4; stroke: #1f77b4"/>
     <use xlink:href="#maf6eb9b0c3" x="329.018182" y="84.866943" style="fill: #1f77b4; stroke: #1f77b4"/>
     <use xlink:href="#maf6eb9b0c3" x="332.4" y="86.305022" style="fill: #1f77b4; stroke: #1f77b4"/>
     <use xlink:href="#maf6eb9b0c3" x="335.781818" y="82.470859" style="fill: #1f77b4; stroke: #1f77b4"/>
     <use xlink:href="#maf6eb9b0c3" x="339.163636" y="78.07702" style="fill: #1f77b4; stroke: #1f77b4"/>
     <use xlink:href="#maf6eb9b0c3" x="342.545455" y="74.508612" style="fill: #1f77b4; stroke: #1f77b4"/>
     <use xlink:href="#maf6eb9b0c3" x="345.927273" y="75.323023" style="fill: #1f77b4; stroke: #1f77b4"/>
     <use xlink:href="#maf6eb9b0c3" x="349.309091" y="76.720382" style="fill: #1f77b4; stroke: #1f77b4"/>
     <use xlink:href="#maf6eb9b0c3" x="352.690909" y="81.148208" style="fill: #1f77b4; stroke: #1f77b4"/>
     <use xlink:href="#maf6eb9b0c3" x="356.072727" y="77.856271" style="fill: #1f77b4; stroke: #1f77b4"/>
     <use xlink:href="#maf6eb9b0c3" x="359.454545" y="79.609399" style="fill: #1f77b4; stroke: #1f77b4"/>
     <use xlink:href="#maf6eb9b0c3" x="362.836364" y="78.893574" style="fill: #1f77b4; stroke: #1f77b4"/>
     <use xlink:href="#maf6eb9b0c3" x="366.218182" y="76.148151" style="fill: #1f77b4; stroke: #1f77b4"/>
     <use xlink:href="#maf6eb9b0c3" x="369.6" y="74.433601" style="fill: #1f77b4; stroke: #1f77b4"/>
     <use xlink:href="#maf6eb9b0c3" x="372.981818" y="73.134829" style="fill: #1f77b4; stroke: #1f77b4"/>
     <use xlink:href="#maf6eb9b0c3" x="376.363636" y="75.100132" style="fill: #1f77b4; stroke: #1f77b4"/>
     <use xlink:href="#maf6eb9b0c3" x="379.745455" y="73.304753" style="fill: #1f77b4; stroke: #1f77b4"/>
     <use xlink:href="#maf6eb9b0c3" x="383.127273" y="74.777123" style="fill: #1f77b4; stroke: #1f77b4"/>
     <use xlink:href="#maf6eb9b0c3" x="386.509091" y="73.062573" style="fill: #1f77b4; stroke: #1f77b4"/>
     <use xlink:href="#maf6eb9b0c3" x="389.890909" y="74.607812" style="fill: #1f77b4; stroke: #1f77b4"/>
     <use xlink:href="#maf6eb9b0c3" x="393.272727" y="71.549483" style="fill: #1f77b4; stroke: #1f77b4"/>
     <use xlink:href="#maf6eb9b0c3" x="396.654545" y="73.10758" style="fill: #1f77b4; stroke: #1f77b4"/>
     <use xlink:href="#maf6eb9b0c3" x="400.036364" y="75.222906" style="fill: #1f77b4; stroke: #1f77b4"/>
     <use xlink:href="#maf6eb9b0c3" x="403.418182" y="80.231536" style="fill: #1f77b4; stroke: #1f77b4"/>
     <use xlink:href="#maf6eb9b0c3" x="406.8" y="77.646852" style="fill: #1f77b4; stroke: #1f77b4"/>
     <use xlink:href="#maf6eb9b0c3" x="410.181818" y="79.09779" style="fill: #1f77b4; stroke: #1f77b4"/>
     <use xlink:href="#maf6eb9b0c3" x="413.563636" y="80.085799" style="fill: #1f77b4; stroke: #1f77b4"/>
     <use xlink:href="#maf6eb9b0c3" x="416.945455" y="79.166372" style="fill: #1f77b4; stroke: #1f77b4"/>
     <use xlink:href="#maf6eb9b0c3" x="420.327273" y="79.562862" style="fill: #1f77b4; stroke: #1f77b4"/>
     <use xlink:href="#maf6eb9b0c3" x="423.709091" y="77.513974" style="fill: #1f77b4; stroke: #1f77b4"/>
     <use xlink:href="#maf6eb9b0c3" x="427.090909" y="74.897142" style="fill: #1f77b4; stroke: #1f77b4"/>
     <use xlink:href="#maf6eb9b0c3" x="430.472727" y="69.796968" style="fill: #1f77b4; stroke: #1f77b4"/>
     <use xlink:href="#maf6eb9b0c3" x="433.854545" y="72.578825" style="fill: #1f77b4; stroke: #1f77b4"/>
     <use xlink:href="#maf6eb9b0c3" x="437.236364" y="70.435638" style="fill: #1f77b4; stroke: #1f77b4"/>
     <use xlink:href="#maf6eb9b0c3" x="440.618182" y="71.642252" style="fill: #1f77b4; stroke: #1f77b4"/>
     <use xlink:href="#maf6eb9b0c3" x="444" y="68.268875" style="fill: #1f77b4; stroke: #1f77b4"/>
     <use xlink:href="#maf6eb9b0c3" x="447.381818" y="68.841106" style="fill: #1f77b4; stroke: #1f77b4"/>
     <use xlink:href="#maf6eb9b0c3" x="450.763636" y="69.578363" style="fill: #1f77b4; stroke: #1f77b4"/>
     <use xlink:href="#maf6eb9b0c3" x="454.145455" y="69.805541" style="fill: #1f77b4; stroke: #1f77b4"/>
     <use xlink:href="#maf6eb9b0c3" x="457.527273" y="70.690677" style="fill: #1f77b4; stroke: #1f77b4"/>
     <use xlink:href="#maf6eb9b0c3" x="460.909091" y="68.607499" style="fill: #1f77b4; stroke: #1f77b4"/>
     <use xlink:href="#maf6eb9b0c3" x="464.290909" y="67.184422" style="fill: #1f77b4; stroke: #1f77b4"/>
     <use xlink:href="#maf6eb9b0c3" x="467.672727" y="68.669651" style="fill: #1f77b4; stroke: #1f77b4"/>
     <use xlink:href="#maf6eb9b0c3" x="471.054545" y="70.404103" style="fill: #1f77b4; stroke: #1f77b4"/>
     <use xlink:href="#maf6eb9b0c3" x="474.436364" y="71.237803" style="fill: #1f77b4; stroke: #1f77b4"/>
     <use xlink:href="#maf6eb9b0c3" x="477.818182" y="69.495391" style="fill: #1f77b4; stroke: #1f77b4"/>
     <use xlink:href="#maf6eb9b0c3" x="481.2" y="67.866568" style="fill: #1f77b4; stroke: #1f77b4"/>
     <use xlink:href="#maf6eb9b0c3" x="484.581818" y="67.920148" style="fill: #1f77b4; stroke: #1f77b4"/>
     <use xlink:href="#maf6eb9b0c3" x="487.963636" y="71.145646" style="fill: #1f77b4; stroke: #1f77b4"/>
     <use xlink:href="#maf6eb9b0c3" x="491.345455" y="69.994754" style="fill: #1f77b4; stroke: #1f77b4"/>
     <use xlink:href="#maf6eb9b0c3" x="494.727273" y="66.96" style="fill: #1f77b4; stroke: #1f77b4"/>
     <use xlink:href="#maf6eb9b0c3" x="498.109091" y="67.185035" style="fill: #1f77b4; stroke: #1f77b4"/>
    </g>
   </g>
   <g id="matplotlib.axis_1">
    <g id="xtick_1">
     <g id="line2d_1">
      <defs>
       <path id="me7c180d213" d="M 0 0 
L 0 3.5 
" style="stroke: #000000; stroke-width: 0.8"/>
      </defs>
      <g>
       <use xlink:href="#me7c180d213" x="92.290909" y="384.48" style="stroke: #000000; stroke-width: 0.8"/>
      </g>
     </g>
     <g id="text_1">
      <!-- 2.75 -->
      <g transform="translate(81.158097 399.078438)scale(0.1 -0.1)">
       <defs>
        <path id="DejaVuSans-32" d="M 1228 531 
L 3431 531 
L 3431 0 
L 469 0 
L 469 531 
Q 828 903 1448 1529 
Q 2069 2156 2228 2338 
Q 2531 2678 2651 2914 
Q 2772 3150 2772 3378 
Q 2772 3750 2511 3984 
Q 2250 4219 1831 4219 
Q 1534 4219 1204 4116 
Q 875 4013 500 3803 
L 500 4441 
Q 881 4594 1212 4672 
Q 1544 4750 1819 4750 
Q 2544 4750 2975 4387 
Q 3406 4025 3406 3419 
Q 3406 3131 3298 2873 
Q 3191 2616 2906 2266 
Q 2828 2175 2409 1742 
Q 1991 1309 1228 531 
z
" transform="scale(0.015625)"/>
        <path id="DejaVuSans-2e" d="M 684 794 
L 1344 794 
L 1344 0 
L 684 0 
L 684 794 
z
" transform="scale(0.015625)"/>
        <path id="DejaVuSans-37" d="M 525 4666 
L 3525 4666 
L 3525 4397 
L 1831 0 
L 1172 0 
L 2766 4134 
L 525 4134 
L 525 4666 
z
" transform="scale(0.015625)"/>
        <path id="DejaVuSans-35" d="M 691 4666 
L 3169 4666 
L 3169 4134 
L 1269 4134 
L 1269 2991 
Q 1406 3038 1543 3061 
Q 1681 3084 1819 3084 
Q 2600 3084 3056 2656 
Q 3513 2228 3513 1497 
Q 3513 744 3044 326 
Q 2575 -91 1722 -91 
Q 1428 -91 1123 -41 
Q 819 9 494 109 
L 494 744 
Q 775 591 1075 516 
Q 1375 441 1709 441 
Q 2250 441 2565 725 
Q 2881 1009 2881 1497 
Q 2881 1984 2565 2268 
Q 2250 2553 1709 2553 
Q 1456 2553 1204 2497 
Q 953 2441 691 2322 
L 691 4666 
z
" transform="scale(0.015625)"/>
       </defs>
       <use xlink:href="#DejaVuSans-32"/>
       <use xlink:href="#DejaVuSans-2e" x="63.623047"/>
       <use xlink:href="#DejaVuSans-37" x="95.410156"/>
       <use xlink:href="#DejaVuSans-35" x="159.033203"/>
      </g>
     </g>
    </g>
    <g id="xtick_2">
     <g id="line2d_2">
      <g>
       <use xlink:href="#me7c180d213" x="176.836364" y="384.48" style="stroke: #000000; stroke-width: 0.8"/>
      </g>
     </g>
     <g id="text_2">
      <!-- 2.80 -->
      <g transform="translate(165.703551 399.078438)scale(0.1 -0.1)">
       <defs>
        <path id="DejaVuSans-38" d="M 2034 2216 
Q 1584 2216 1326 1975 
Q 1069 1734 1069 1313 
Q 1069 891 1326 650 
Q 1584 409 2034 409 
Q 2484 409 2743 651 
Q 3003 894 3003 1313 
Q 3003 1734 2745 1975 
Q 2488 2216 2034 2216 
z
M 1403 2484 
Q 997 2584 770 2862 
Q 544 3141 544 3541 
Q 544 4100 942 4425 
Q 1341 4750 2034 4750 
Q 2731 4750 3128 4425 
Q 3525 4100 3525 3541 
Q 3525 3141 3298 2862 
Q 3072 2584 2669 2484 
Q 3125 2378 3379 2068 
Q 3634 1759 3634 1313 
Q 3634 634 3220 271 
Q 2806 -91 2034 -91 
Q 1263 -91 848 271 
Q 434 634 434 1313 
Q 434 1759 690 2068 
Q 947 2378 1403 2484 
z
M 1172 3481 
Q 1172 3119 1398 2916 
Q 1625 2713 2034 2713 
Q 2441 2713 2670 2916 
Q 2900 3119 2900 3481 
Q 2900 3844 2670 4047 
Q 2441 4250 2034 4250 
Q 1625 4250 1398 4047 
Q 1172 3844 1172 3481 
z
" transform="scale(0.015625)"/>
        <path id="DejaVuSans-30" d="M 2034 4250 
Q 1547 4250 1301 3770 
Q 1056 3291 1056 2328 
Q 1056 1369 1301 889 
Q 1547 409 2034 409 
Q 2525 409 2770 889 
Q 3016 1369 3016 2328 
Q 3016 3291 2770 3770 
Q 2525 4250 2034 4250 
z
M 2034 4750 
Q 2819 4750 3233 4129 
Q 3647 3509 3647 2328 
Q 3647 1150 3233 529 
Q 2819 -91 2034 -91 
Q 1250 -91 836 529 
Q 422 1150 422 2328 
Q 422 3509 836 4129 
Q 1250 4750 2034 4750 
z
" transform="scale(0.015625)"/>
       </defs>
       <use xlink:href="#DejaVuSans-32"/>
       <use xlink:href="#DejaVuSans-2e" x="63.623047"/>
       <use xlink:href="#DejaVuSans-38" x="95.410156"/>
       <use xlink:href="#DejaVuSans-30" x="159.033203"/>
      </g>
     </g>
    </g>
    <g id="xtick_3">
     <g id="line2d_3">
      <g>
       <use xlink:href="#me7c180d213" x="261.381818" y="384.48" style="stroke: #000000; stroke-width: 0.8"/>
      </g>
     </g>
     <g id="text_3">
      <!-- 2.85 -->
      <g transform="translate(250.249006 399.078438)scale(0.1 -0.1)">
       <use xlink:href="#DejaVuSans-32"/>
       <use xlink:href="#DejaVuSans-2e" x="63.623047"/>
       <use xlink:href="#DejaVuSans-38" x="95.410156"/>
       <use xlink:href="#DejaVuSans-35" x="159.033203"/>
      </g>
     </g>
    </g>
    <g id="xtick_4">
     <g id="line2d_4">
      <g>
       <use xlink:href="#me7c180d213" x="345.927273" y="384.48" style="stroke: #000000; stroke-width: 0.8"/>
      </g>
     </g>
     <g id="text_4">
      <!-- 2.90 -->
      <g transform="translate(334.79446 399.078438)scale(0.1 -0.1)">
       <defs>
        <path id="DejaVuSans-39" d="M 703 97 
L 703 672 
Q 941 559 1184 500 
Q 1428 441 1663 441 
Q 2288 441 2617 861 
Q 2947 1281 2994 2138 
Q 2813 1869 2534 1725 
Q 2256 1581 1919 1581 
Q 1219 1581 811 2004 
Q 403 2428 403 3163 
Q 403 3881 828 4315 
Q 1253 4750 1959 4750 
Q 2769 4750 3195 4129 
Q 3622 3509 3622 2328 
Q 3622 1225 3098 567 
Q 2575 -91 1691 -91 
Q 1453 -91 1209 -44 
Q 966 3 703 97 
z
M 1959 2075 
Q 2384 2075 2632 2365 
Q 2881 2656 2881 3163 
Q 2881 3666 2632 3958 
Q 2384 4250 1959 4250 
Q 1534 4250 1286 3958 
Q 1038 3666 1038 3163 
Q 1038 2656 1286 2365 
Q 1534 2075 1959 2075 
z
" transform="scale(0.015625)"/>
       </defs>
       <use xlink:href="#DejaVuSans-32"/>
       <use xlink:href="#DejaVuSans-2e" x="63.623047"/>
       <use xlink:href="#DejaVuSans-39" x="95.410156"/>
       <use xlink:href="#DejaVuSans-30" x="159.033203"/>
      </g>
     </g>
    </g>
    <g id="xtick_5">
     <g id="line2d_5">
      <g>
       <use xlink:href="#me7c180d213" x="430.472727" y="384.48" style="stroke: #000000; stroke-width: 0.8"/>
      </g>
     </g>
     <g id="text_5">
      <!-- 2.95 -->
      <g transform="translate(419.339915 399.078438)scale(0.1 -0.1)">
       <use xlink:href="#DejaVuSans-32"/>
       <use xlink:href="#DejaVuSans-2e" x="63.623047"/>
       <use xlink:href="#DejaVuSans-39" x="95.410156"/>
       <use xlink:href="#DejaVuSans-35" x="159.033203"/>
      </g>
     </g>
    </g>
    <g id="xtick_6">
     <g id="line2d_6">
      <g>
       <use xlink:href="#me7c180d213" x="515.018182" y="384.48" style="stroke: #000000; stroke-width: 0.8"/>
      </g>
     </g>
     <g id="text_6">
      <!-- 3.00 -->
      <g transform="translate(503.885369 399.078438)scale(0.1 -0.1)">
       <defs>
        <path id="DejaVuSans-33" d="M 2597 2516 
Q 3050 2419 3304 2112 
Q 3559 1806 3559 1356 
Q 3559 666 3084 287 
Q 2609 -91 1734 -91 
Q 1441 -91 1130 -33 
Q 819 25 488 141 
L 488 750 
Q 750 597 1062 519 
Q 1375 441 1716 441 
Q 2309 441 2620 675 
Q 2931 909 2931 1356 
Q 2931 1769 2642 2001 
Q 2353 2234 1838 2234 
L 1294 2234 
L 1294 2753 
L 1863 2753 
Q 2328 2753 2575 2939 
Q 2822 3125 2822 3475 
Q 2822 3834 2567 4026 
Q 2313 4219 1838 4219 
Q 1578 4219 1281 4162 
Q 984 4106 628 3988 
L 628 4550 
Q 988 4650 1302 4700 
Q 1616 4750 1894 4750 
Q 2613 4750 3031 4423 
Q 3450 4097 3450 3541 
Q 3450 3153 3228 2886 
Q 3006 2619 2597 2516 
z
" transform="scale(0.015625)"/>
       </defs>
       <use xlink:href="#DejaVuSans-33"/>
       <use xlink:href="#DejaVuSans-2e" x="63.623047"/>
       <use xlink:href="#DejaVuSans-30" x="95.410156"/>
       <use xlink:href="#DejaVuSans-30" x="159.033203"/>
      </g>
     </g>
    </g>
    <g id="text_7">
     <!-- [GHz] -->
     <g transform="translate(281.039844 412.756563)scale(0.1 -0.1)">
      <defs>
       <path id="DejaVuSans-5b" d="M 550 4863 
L 1875 4863 
L 1875 4416 
L 1125 4416 
L 1125 -397 
L 1875 -397 
L 1875 -844 
L 550 -844 
L 550 4863 
z
" transform="scale(0.015625)"/>
       <path id="DejaVuSans-47" d="M 3809 666 
L 3809 1919 
L 2778 1919 
L 2778 2438 
L 4434 2438 
L 4434 434 
Q 4069 175 3628 42 
Q 3188 -91 2688 -91 
Q 1594 -91 976 548 
Q 359 1188 359 2328 
Q 359 3472 976 4111 
Q 1594 4750 2688 4750 
Q 3144 4750 3555 4637 
Q 3966 4525 4313 4306 
L 4313 3634 
Q 3963 3931 3569 4081 
Q 3175 4231 2741 4231 
Q 1884 4231 1454 3753 
Q 1025 3275 1025 2328 
Q 1025 1384 1454 906 
Q 1884 428 2741 428 
Q 3075 428 3337 486 
Q 3600 544 3809 666 
z
" transform="scale(0.015625)"/>
       <path id="DejaVuSans-48" d="M 628 4666 
L 1259 4666 
L 1259 2753 
L 3553 2753 
L 3553 4666 
L 4184 4666 
L 4184 0 
L 3553 0 
L 3553 2222 
L 1259 2222 
L 1259 0 
L 628 0 
L 628 4666 
z
" transform="scale(0.015625)"/>
       <path id="DejaVuSans-7a" d="M 353 3500 
L 3084 3500 
L 3084 2975 
L 922 459 
L 3084 459 
L 3084 0 
L 275 0 
L 275 525 
L 2438 3041 
L 353 3041 
L 353 3500 
z
" transform="scale(0.015625)"/>
       <path id="DejaVuSans-5d" d="M 1947 4863 
L 1947 -844 
L 622 -844 
L 622 -397 
L 1369 -397 
L 1369 4416 
L 622 4416 
L 622 4863 
L 1947 4863 
z
" transform="scale(0.015625)"/>
      </defs>
      <use xlink:href="#DejaVuSans-5b"/>
      <use xlink:href="#DejaVuSans-47" x="39.013672"/>
      <use xlink:href="#DejaVuSans-48" x="116.503906"/>
      <use xlink:href="#DejaVuSans-7a" x="191.699219"/>
      <use xlink:href="#DejaVuSans-5d" x="244.189453"/>
     </g>
    </g>
   </g>
   <g id="matplotlib.axis_2">
    <g id="ytick_1">
     <g id="line2d_7">
      <defs>
       <path id="ma210d1c888" d="M 0 0 
L -3.5 0 
" style="stroke: #000000; stroke-width: 0.8"/>
      </defs>
      <g>
       <use xlink:href="#ma210d1c888" x="72" y="347.832235" style="stroke: #000000; stroke-width: 0.8"/>
      </g>
     </g>
     <g id="text_8">
      <!-- 0.986 -->
      <g transform="translate(36.371875 351.631454)scale(0.1 -0.1)">
       <defs>
        <path id="DejaVuSans-36" d="M 2113 2584 
Q 1688 2584 1439 2293 
Q 1191 2003 1191 1497 
Q 1191 994 1439 701 
Q 1688 409 2113 409 
Q 2538 409 2786 701 
Q 3034 994 3034 1497 
Q 3034 2003 2786 2293 
Q 2538 2584 2113 2584 
z
M 3366 4563 
L 3366 3988 
Q 3128 4100 2886 4159 
Q 2644 4219 2406 4219 
Q 1781 4219 1451 3797 
Q 1122 3375 1075 2522 
Q 1259 2794 1537 2939 
Q 1816 3084 2150 3084 
Q 2853 3084 3261 2657 
Q 3669 2231 3669 1497 
Q 3669 778 3244 343 
Q 2819 -91 2113 -91 
Q 1303 -91 875 529 
Q 447 1150 447 2328 
Q 447 3434 972 4092 
Q 1497 4750 2381 4750 
Q 2619 4750 2861 4703 
Q 3103 4656 3366 4563 
z
" transform="scale(0.015625)"/>
       </defs>
       <use xlink:href="#DejaVuSans-30"/>
       <use xlink:href="#DejaVuSans-2e" x="63.623047"/>
       <use xlink:href="#DejaVuSans-39" x="95.410156"/>
       <use xlink:href="#DejaVuSans-38" x="159.033203"/>
       <use xlink:href="#DejaVuSans-36" x="222.65625"/>
      </g>
     </g>
    </g>
    <g id="ytick_2">
     <g id="line2d_8">
      <g>
       <use xlink:href="#ma210d1c888" x="72" y="309.567157" style="stroke: #000000; stroke-width: 0.8"/>
      </g>
     </g>
     <g id="text_9">
      <!-- 0.988 -->
      <g transform="translate(36.371875 313.366376)scale(0.1 -0.1)">
       <use xlink:href="#DejaVuSans-30"/>
       <use xlink:href="#DejaVuSans-2e" x="63.623047"/>
       <use xlink:href="#DejaVuSans-39" x="95.410156"/>
       <use xlink:href="#DejaVuSans-38" x="159.033203"/>
       <use xlink:href="#DejaVuSans-38" x="222.65625"/>
      </g>
     </g>
    </g>
    <g id="ytick_3">
     <g id="line2d_9">
      <g>
       <use xlink:href="#ma210d1c888" x="72" y="271.302079" style="stroke: #000000; stroke-width: 0.8"/>
      </g>
     </g>
     <g id="text_10">
      <!-- 0.990 -->
      <g transform="translate(36.371875 275.101298)scale(0.1 -0.1)">
       <use xlink:href="#DejaVuSans-30"/>
       <use xlink:href="#DejaVuSans-2e" x="63.623047"/>
       <use xlink:href="#DejaVuSans-39" x="95.410156"/>
       <use xlink:href="#DejaVuSans-39" x="159.033203"/>
       <use xlink:href="#DejaVuSans-30" x="222.65625"/>
      </g>
     </g>
    </g>
    <g id="ytick_4">
     <g id="line2d_10">
      <g>
       <use xlink:href="#ma210d1c888" x="72" y="233.037001" style="stroke: #000000; stroke-width: 0.8"/>
      </g>
     </g>
     <g id="text_11">
      <!-- 0.992 -->
      <g transform="translate(36.371875 236.83622)scale(0.1 -0.1)">
       <use xlink:href="#DejaVuSans-30"/>
       <use xlink:href="#DejaVuSans-2e" x="63.623047"/>
       <use xlink:href="#DejaVuSans-39" x="95.410156"/>
       <use xlink:href="#DejaVuSans-39" x="159.033203"/>
       <use xlink:href="#DejaVuSans-32" x="222.65625"/>
      </g>
     </g>
    </g>
    <g id="ytick_5">
     <g id="line2d_11">
      <g>
       <use xlink:href="#ma210d1c888" x="72" y="194.771923" style="stroke: #000000; stroke-width: 0.8"/>
      </g>
     </g>
     <g id="text_12">
      <!-- 0.994 -->
      <g transform="translate(36.371875 198.571142)scale(0.1 -0.1)">
       <defs>
        <path id="DejaVuSans-34" d="M 2419 4116 
L 825 1625 
L 2419 1625 
L 2419 4116 
z
M 2253 4666 
L 3047 4666 
L 3047 1625 
L 3713 1625 
L 3713 1100 
L 3047 1100 
L 3047 0 
L 2419 0 
L 2419 1100 
L 313 1100 
L 313 1709 
L 2253 4666 
z
" transform="scale(0.015625)"/>
       </defs>
       <use xlink:href="#DejaVuSans-30"/>
       <use xlink:href="#DejaVuSans-2e" x="63.623047"/>
       <use xlink:href="#DejaVuSans-39" x="95.410156"/>
       <use xlink:href="#DejaVuSans-39" x="159.033203"/>
       <use xlink:href="#DejaVuSans-34" x="222.65625"/>
      </g>
     </g>
    </g>
    <g id="ytick_6">
     <g id="line2d_12">
      <g>
       <use xlink:href="#ma210d1c888" x="72" y="156.506845" style="stroke: #000000; stroke-width: 0.8"/>
      </g>
     </g>
     <g id="text_13">
      <!-- 0.996 -->
      <g transform="translate(36.371875 160.306064)scale(0.1 -0.1)">
       <use xlink:href="#DejaVuSans-30"/>
       <use xlink:href="#DejaVuSans-2e" x="63.623047"/>
       <use xlink:href="#DejaVuSans-39" x="95.410156"/>
       <use xlink:href="#DejaVuSans-39" x="159.033203"/>
       <use xlink:href="#DejaVuSans-36" x="222.65625"/>
      </g>
     </g>
    </g>
    <g id="ytick_7">
     <g id="line2d_13">
      <g>
       <use xlink:href="#ma210d1c888" x="72" y="118.241767" style="stroke: #000000; stroke-width: 0.8"/>
      </g>
     </g>
     <g id="text_14">
      <!-- 0.998 -->
      <g transform="translate(36.371875 122.040986)scale(0.1 -0.1)">
       <use xlink:href="#DejaVuSans-30"/>
       <use xlink:href="#DejaVuSans-2e" x="63.623047"/>
       <use xlink:href="#DejaVuSans-39" x="95.410156"/>
       <use xlink:href="#DejaVuSans-39" x="159.033203"/>
       <use xlink:href="#DejaVuSans-38" x="222.65625"/>
      </g>
     </g>
    </g>
    <g id="ytick_8">
     <g id="line2d_14">
      <g>
       <use xlink:href="#ma210d1c888" x="72" y="79.976689" style="stroke: #000000; stroke-width: 0.8"/>
      </g>
     </g>
     <g id="text_15">
      <!-- 1.000 -->
      <g transform="translate(36.371875 83.775908)scale(0.1 -0.1)">
       <defs>
        <path id="DejaVuSans-31" d="M 794 531 
L 1825 531 
L 1825 4091 
L 703 3866 
L 703 4441 
L 1819 4666 
L 2450 4666 
L 2450 531 
L 3481 531 
L 3481 0 
L 794 0 
L 794 531 
z
" transform="scale(0.015625)"/>
       </defs>
       <use xlink:href="#DejaVuSans-31"/>
       <use xlink:href="#DejaVuSans-2e" x="63.623047"/>
       <use xlink:href="#DejaVuSans-30" x="95.410156"/>
       <use xlink:href="#DejaVuSans-30" x="159.033203"/>
       <use xlink:href="#DejaVuSans-30" x="222.65625"/>
      </g>
     </g>
    </g>
    <g id="text_16">
     <!-- [Normalized Counts / s] -->
     <g transform="translate(30.292187 276.926406)rotate(-90)scale(0.1 -0.1)">
      <defs>
       <path id="DejaVuSans-4e" d="M 628 4666 
L 1478 4666 
L 3547 763 
L 3547 4666 
L 4159 4666 
L 4159 0 
L 3309 0 
L 1241 3903 
L 1241 0 
L 628 0 
L 628 4666 
z
" transform="scale(0.015625)"/>
       <path id="DejaVuSans-6f" d="M 1959 3097 
Q 1497 3097 1228 2736 
Q 959 2375 959 1747 
Q 959 1119 1226 758 
Q 1494 397 1959 397 
Q 2419 397 2687 759 
Q 2956 1122 2956 1747 
Q 2956 2369 2687 2733 
Q 2419 3097 1959 3097 
z
M 1959 3584 
Q 2709 3584 3137 3096 
Q 3566 2609 3566 1747 
Q 3566 888 3137 398 
Q 2709 -91 1959 -91 
Q 1206 -91 779 398 
Q 353 888 353 1747 
Q 353 2609 779 3096 
Q 1206 3584 1959 3584 
z
" transform="scale(0.015625)"/>
       <path id="DejaVuSans-72" d="M 2631 2963 
Q 2534 3019 2420 3045 
Q 2306 3072 2169 3072 
Q 1681 3072 1420 2755 
Q 1159 2438 1159 1844 
L 1159 0 
L 581 0 
L 581 3500 
L 1159 3500 
L 1159 2956 
Q 1341 3275 1631 3429 
Q 1922 3584 2338 3584 
Q 2397 3584 2469 3576 
Q 2541 3569 2628 3553 
L 2631 2963 
z
" transform="scale(0.015625)"/>
       <path id="DejaVuSans-6d" d="M 3328 2828 
Q 3544 3216 3844 3400 
Q 4144 3584 4550 3584 
Q 5097 3584 5394 3201 
Q 5691 2819 5691 2113 
L 5691 0 
L 5113 0 
L 5113 2094 
Q 5113 2597 4934 2840 
Q 4756 3084 4391 3084 
Q 3944 3084 3684 2787 
Q 3425 2491 3425 1978 
L 3425 0 
L 2847 0 
L 2847 2094 
Q 2847 2600 2669 2842 
Q 2491 3084 2119 3084 
Q 1678 3084 1418 2786 
Q 1159 2488 1159 1978 
L 1159 0 
L 581 0 
L 581 3500 
L 1159 3500 
L 1159 2956 
Q 1356 3278 1631 3431 
Q 1906 3584 2284 3584 
Q 2666 3584 2933 3390 
Q 3200 3197 3328 2828 
z
" transform="scale(0.015625)"/>
       <path id="DejaVuSans-61" d="M 2194 1759 
Q 1497 1759 1228 1600 
Q 959 1441 959 1056 
Q 959 750 1161 570 
Q 1363 391 1709 391 
Q 2188 391 2477 730 
Q 2766 1069 2766 1631 
L 2766 1759 
L 2194 1759 
z
M 3341 1997 
L 3341 0 
L 2766 0 
L 2766 531 
Q 2569 213 2275 61 
Q 1981 -91 1556 -91 
Q 1019 -91 701 211 
Q 384 513 384 1019 
Q 384 1609 779 1909 
Q 1175 2209 1959 2209 
L 2766 2209 
L 2766 2266 
Q 2766 2663 2505 2880 
Q 2244 3097 1772 3097 
Q 1472 3097 1187 3025 
Q 903 2953 641 2809 
L 641 3341 
Q 956 3463 1253 3523 
Q 1550 3584 1831 3584 
Q 2591 3584 2966 3190 
Q 3341 2797 3341 1997 
z
" transform="scale(0.015625)"/>
       <path id="DejaVuSans-6c" d="M 603 4863 
L 1178 4863 
L 1178 0 
L 603 0 
L 603 4863 
z
" transform="scale(0.015625)"/>
       <path id="DejaVuSans-69" d="M 603 3500 
L 1178 3500 
L 1178 0 
L 603 0 
L 603 3500 
z
M 603 4863 
L 1178 4863 
L 1178 4134 
L 603 4134 
L 603 4863 
z
" transform="scale(0.015625)"/>
       <path id="DejaVuSans-65" d="M 3597 1894 
L 3597 1613 
L 953 1613 
Q 991 1019 1311 708 
Q 1631 397 2203 397 
Q 2534 397 2845 478 
Q 3156 559 3463 722 
L 3463 178 
Q 3153 47 2828 -22 
Q 2503 -91 2169 -91 
Q 1331 -91 842 396 
Q 353 884 353 1716 
Q 353 2575 817 3079 
Q 1281 3584 2069 3584 
Q 2775 3584 3186 3129 
Q 3597 2675 3597 1894 
z
M 3022 2063 
Q 3016 2534 2758 2815 
Q 2500 3097 2075 3097 
Q 1594 3097 1305 2825 
Q 1016 2553 972 2059 
L 3022 2063 
z
" transform="scale(0.015625)"/>
       <path id="DejaVuSans-64" d="M 2906 2969 
L 2906 4863 
L 3481 4863 
L 3481 0 
L 2906 0 
L 2906 525 
Q 2725 213 2448 61 
Q 2172 -91 1784 -91 
Q 1150 -91 751 415 
Q 353 922 353 1747 
Q 353 2572 751 3078 
Q 1150 3584 1784 3584 
Q 2172 3584 2448 3432 
Q 2725 3281 2906 2969 
z
M 947 1747 
Q 947 1113 1208 752 
Q 1469 391 1925 391 
Q 2381 391 2643 752 
Q 2906 1113 2906 1747 
Q 2906 2381 2643 2742 
Q 2381 3103 1925 3103 
Q 1469 3103 1208 2742 
Q 947 2381 947 1747 
z
" transform="scale(0.015625)"/>
       <path id="DejaVuSans-20" transform="scale(0.015625)"/>
       <path id="DejaVuSans-43" d="M 4122 4306 
L 4122 3641 
Q 3803 3938 3442 4084 
Q 3081 4231 2675 4231 
Q 1875 4231 1450 3742 
Q 1025 3253 1025 2328 
Q 1025 1406 1450 917 
Q 1875 428 2675 428 
Q 3081 428 3442 575 
Q 3803 722 4122 1019 
L 4122 359 
Q 3791 134 3420 21 
Q 3050 -91 2638 -91 
Q 1578 -91 968 557 
Q 359 1206 359 2328 
Q 359 3453 968 4101 
Q 1578 4750 2638 4750 
Q 3056 4750 3426 4639 
Q 3797 4528 4122 4306 
z
" transform="scale(0.015625)"/>
       <path id="DejaVuSans-75" d="M 544 1381 
L 544 3500 
L 1119 3500 
L 1119 1403 
Q 1119 906 1312 657 
Q 1506 409 1894 409 
Q 2359 409 2629 706 
Q 2900 1003 2900 1516 
L 2900 3500 
L 3475 3500 
L 3475 0 
L 2900 0 
L 2900 538 
Q 2691 219 2414 64 
Q 2138 -91 1772 -91 
Q 1169 -91 856 284 
Q 544 659 544 1381 
z
M 1991 3584 
L 1991 3584 
z
" transform="scale(0.015625)"/>
       <path id="DejaVuSans-6e" d="M 3513 2113 
L 3513 0 
L 2938 0 
L 2938 2094 
Q 2938 2591 2744 2837 
Q 2550 3084 2163 3084 
Q 1697 3084 1428 2787 
Q 1159 2491 1159 1978 
L 1159 0 
L 581 0 
L 581 3500 
L 1159 3500 
L 1159 2956 
Q 1366 3272 1645 3428 
Q 1925 3584 2291 3584 
Q 2894 3584 3203 3211 
Q 3513 2838 3513 2113 
z
" transform="scale(0.015625)"/>
       <path id="DejaVuSans-74" d="M 1172 4494 
L 1172 3500 
L 2356 3500 
L 2356 3053 
L 1172 3053 
L 1172 1153 
Q 1172 725 1289 603 
Q 1406 481 1766 481 
L 2356 481 
L 2356 0 
L 1766 0 
Q 1100 0 847 248 
Q 594 497 594 1153 
L 594 3053 
L 172 3053 
L 172 3500 
L 594 3500 
L 594 4494 
L 1172 4494 
z
" transform="scale(0.015625)"/>
       <path id="DejaVuSans-73" d="M 2834 3397 
L 2834 2853 
Q 2591 2978 2328 3040 
Q 2066 3103 1784 3103 
Q 1356 3103 1142 2972 
Q 928 2841 928 2578 
Q 928 2378 1081 2264 
Q 1234 2150 1697 2047 
L 1894 2003 
Q 2506 1872 2764 1633 
Q 3022 1394 3022 966 
Q 3022 478 2636 193 
Q 2250 -91 1575 -91 
Q 1294 -91 989 -36 
Q 684 19 347 128 
L 347 722 
Q 666 556 975 473 
Q 1284 391 1588 391 
Q 1994 391 2212 530 
Q 2431 669 2431 922 
Q 2431 1156 2273 1281 
Q 2116 1406 1581 1522 
L 1381 1569 
Q 847 1681 609 1914 
Q 372 2147 372 2553 
Q 372 3047 722 3315 
Q 1072 3584 1716 3584 
Q 2034 3584 2315 3537 
Q 2597 3491 2834 3397 
z
" transform="scale(0.015625)"/>
       <path id="DejaVuSans-2f" d="M 1625 4666 
L 2156 4666 
L 531 -594 
L 0 -594 
L 1625 4666 
z
" transform="scale(0.015625)"/>
      </defs>
      <use xlink:href="#DejaVuSans-5b"/>
      <use xlink:href="#DejaVuSans-4e" x="39.013672"/>
      <use xlink:href="#DejaVuSans-6f" x="113.818359"/>
      <use xlink:href="#DejaVuSans-72" x="175"/>
      <use xlink:href="#DejaVuSans-6d" x="214.363281"/>
      <use xlink:href="#DejaVuSans-61" x="311.775391"/>
      <use xlink:href="#DejaVuSans-6c" x="373.054688"/>
      <use xlink:href="#DejaVuSans-69" x="400.837891"/>
      <use xlink:href="#DejaVuSans-7a" x="428.621094"/>
      <use xlink:href="#DejaVuSans-65" x="481.111328"/>
      <use xlink:href="#DejaVuSans-64" x="542.634766"/>
      <use xlink:href="#DejaVuSans-20" x="606.111328"/>
      <use xlink:href="#DejaVuSans-43" x="637.898438"/>
      <use xlink:href="#DejaVuSans-6f" x="707.722656"/>
      <use xlink:href="#DejaVuSans-75" x="768.904297"/>
      <use xlink:href="#DejaVuSans-6e" x="832.283203"/>
      <use xlink:href="#DejaVuSans-74" x="895.662109"/>
      <use xlink:href="#DejaVuSans-73" x="934.871094"/>
      <use xlink:href="#DejaVuSans-20" x="986.970703"/>
      <use xlink:href="#DejaVuSans-2f" x="1018.757812"/>
      <use xlink:href="#DejaVuSans-20" x="1052.449219"/>
      <use xlink:href="#DejaVuSans-73" x="1084.236328"/>
      <use xlink:href="#DejaVuSans-5d" x="1136.335938"/>
     </g>
    </g>
   </g>
   <g id="line2d_15">
    <path d="M 92.290909 80.442436 
L 95.672727 80.458407 
L 99.054545 80.475215 
L 102.436364 80.492919 
L 105.818182 80.511585 
L 109.2 80.531283 
L 112.581818 80.552091 
L 115.963636 80.574094 
L 119.345455 80.597385 
L 122.727273 80.622068 
L 126.109091 80.648256 
L 129.490909 80.676073 
L 132.872727 80.705658 
L 136.254545 80.737164 
L 139.636364 80.770762 
L 143.018182 80.806641 
L 146.4 80.845013 
L 149.781818 80.886115 
L 153.163636 80.930213 
L 156.545455 80.977605 
L 159.927273 81.02863 
L 163.309091 81.083669 
L 166.690909 81.143155 
L 170.072727 81.207583 
L 173.454545 81.277516 
L 176.836364 81.353604 
L 180.218182 81.436591 
L 183.6 81.527342 
L 186.981818 81.62686 
L 190.363636 81.736315 
L 193.745455 81.857082 
L 197.127273 81.990783 
L 200.509091 82.139342 
L 203.890909 82.305056 
L 207.272727 82.490688 
L 210.654545 82.699582 
L 214.036364 82.935819 
L 217.418182 83.204422 
L 220.8 83.51163 
L 224.181818 83.865275 
L 227.563636 84.275293 
L 230.945455 84.754453 
L 234.327273 85.319389 
L 237.709091 85.992103 
L 241.090909 86.80221 
L 244.472727 87.790355 
L 247.854545 89.013585 
L 251.236364 90.55405 
L 254.618182 92.533629 
L 258 95.139563 
L 261.381818 98.67161 
L 264.763636 103.633756 
L 268.145455 110.924198 
L 271.527273 122.256695 
L 274.909091 141.153171 
L 278.290909 175.269171 
L 281.672727 239.794224 
L 285.054545 338.731142 
L 288.436364 369.36 
L 291.818182 305.668582 
L 295.2 282.209104 
L 298.581818 322.908143 
L 301.963636 368.193343 
L 305.345455 310.662247 
L 308.727273 223.136231 
L 312.109091 168.465696 
L 315.490909 138.351842 
L 318.872727 121.018496 
L 322.254545 110.339525 
L 325.636364 103.343993 
L 329.018182 98.523937 
L 332.4 95.06401 
L 335.781818 92.496148 
L 339.163636 90.537222 
L 342.545455 89.008128 
L 345.927273 87.791163 
L 349.309091 86.806404 
L 352.690909 85.998033 
L 356.072727 85.326099 
L 359.454545 84.76139 
L 362.836364 84.28214 
L 366.218182 83.871858 
L 369.6 83.517859 
L 372.981818 83.210256 
L 376.363636 82.94125 
L 379.745455 82.704618 
L 383.127273 82.495347 
L 386.509091 82.309361 
L 389.890909 82.143317 
L 393.272727 81.994455 
L 396.654545 81.860475 
L 400.036364 81.739452 
L 403.418182 81.629764 
L 406.8 81.530033 
L 410.181818 81.439088 
L 413.563636 81.355922 
L 416.945455 81.279672 
L 420.327273 81.20959 
L 423.709091 81.145026 
L 427.090909 81.085415 
L 430.472727 81.030262 
L 433.854545 80.979132 
L 437.236364 80.931643 
L 440.618182 80.887457 
L 444 80.846273 
L 447.381818 80.807825 
L 450.763636 80.771876 
L 454.145455 80.738214 
L 457.527273 80.706648 
L 460.909091 80.677007 
L 464.290909 80.649139 
L 467.672727 80.622903 
L 471.054545 80.598176 
L 474.436364 80.574843 
L 477.818182 80.552801 
L 481.2 80.531957 
L 484.581818 80.512225 
L 487.963636 80.493528 
L 491.345455 80.475794 
L 494.727273 80.458958 
L 498.109091 80.442961 
" clip-path="url(#p297039f56e)" style="fill: none; stroke: #ffa500; stroke-width: 1.5; stroke-linecap: square"/>
   </g>
   <g id="patch_3">
    <path d="M 72 384.48 
L 72 51.84 
" style="fill: none; stroke: #000000; stroke-width: 0.8; stroke-linejoin: miter; stroke-linecap: square"/>
   </g>
   <g id="patch_4">
    <path d="M 518.4 384.48 
L 518.4 51.84 
" style="fill: none; stroke: #000000; stroke-width: 0.8; stroke-linejoin: miter; stroke-linecap: square"/>
   </g>
   <g id="patch_5">
    <path d="M 72 384.48 
L 518.4 384.48 
" style="fill: none; stroke: #000000; stroke-width: 0.8; stroke-linejoin: miter; stroke-linecap: square"/>
   </g>
   <g id="patch_6">
    <path d="M 72 51.84 
L 518.4 51.84 
" style="fill: none; stroke: #000000; stroke-width: 0.8; stroke-linejoin: miter; stroke-linecap: square"/>
   </g>
  </g>
 </g>
 <defs>
  <clipPath id="p297039f56e">
   <rect x="72" y="51.84" width="446.4" height="332.64"/>
  </clipPath>
 </defs>
</svg>
