<?xml version="1.0" encoding="utf-8" standalone="no"?>
<!DOCTYPE svg PUBLIC "-//W3C//DTD SVG 1.1//EN"
  "http://www.w3.org/Graphics/SVG/1.1/DTD/svg11.dtd">
<svg xmlns:xlink="http://www.w3.org/1999/xlink" width="576pt" height="432pt" viewBox="0 0 576 432" xmlns="http://www.w3.org/2000/svg" version="1.1">
 <metadata>
  <rdf:RDF xmlns:dc="http://purl.org/dc/elements/1.1/" xmlns:cc="http://creativecommons.org/ns#" xmlns:rdf="http://www.w3.org/1999/02/22-rdf-syntax-ns#">
   <cc:Work>
    <dc:type rdf:resource="http://purl.org/dc/dcmitype/StillImage"/>
    <dc:date>2022-09-09T11:04:21.629122</dc:date>
    <dc:format>image/svg+xml</dc:format>
    <dc:creator>
     <cc:Agent>
      <dc:title>Matplotlib v3.5.3, https://matplotlib.org/</dc:title>
     </cc:Agent>
    </dc:creator>
   </cc:Work>
  </rdf:RDF>
 </metadata>
 <defs>
  <style type="text/css">*{stroke-linejoin: round; stroke-linecap: butt}</style>
 </defs>
 <g id="figure_1">
  <g id="patch_1">
   <path d="M 0 432 
L 576 432 
L 576 0 
L 0 0 
z
" style="fill: #ffffff"/>
  </g>
  <g id="axes_1">
   <g id="patch_2">
    <path d="M 72 384.48 
L 518.4 384.48 
L 518.4 51.84 
L 72 51.84 
z
" style="fill: #ffffff"/>
   </g>
   <g id="PathCollection_1">
    <defs>
     <path id="m5f78aef171" d="M 0 1 
C 0.265203 1 0.51958 0.894634 0.707107 0.707107 
C 0.894634 0.51958 1 0.265203 1 0 
C 1 -0.265203 0.894634 -0.51958 0.707107 -0.707107 
C 0.51958 -0.894634 0.265203 -1 0 -1 
C -0.265203 -1 -0.51958 -0.894634 -0.707107 -0.707107 
C -0.894634 -0.51958 -1 -0.265203 -1 0 
C -1 0.265203 -0.894634 0.51958 -0.707107 0.707107 
C -0.51958 0.894634 -0.265203 1 0 1 
z
" style="stroke: #1f77b4"/>
    </defs>
    <g clip-path="url(#pee13ea0928)">
     <use xlink:href="#m5f78aef171" x="92.290909" y="87.697359" style="fill: #1f77b4; stroke: #1f77b4"/>
     <use xlink:href="#m5f78aef171" x="94.135537" y="95.759945" style="fill: #1f77b4; stroke: #1f77b4"/>
     <use xlink:href="#m5f78aef171" x="95.980165" y="93.568654" style="fill: #1f77b4; stroke: #1f77b4"/>
     <use xlink:href="#m5f78aef171" x="97.824793" y="89.991189" style="fill: #1f77b4; stroke: #1f77b4"/>
     <use xlink:href="#m5f78aef171" x="99.669421" y="80.542431" style="fill: #1f77b4; stroke: #1f77b4"/>
     <use xlink:href="#m5f78aef171" x="101.51405" y="93.568654" style="fill: #1f77b4; stroke: #1f77b4"/>
     <use xlink:href="#m5f78aef171" x="103.358678" y="91.084937" style="fill: #1f77b4; stroke: #1f77b4"/>
     <use xlink:href="#m5f78aef171" x="105.203306" y="86.432714" style="fill: #1f77b4; stroke: #1f77b4"/>
     <use xlink:href="#m5f78aef171" x="107.047934" y="91.954617" style="fill: #1f77b4; stroke: #1f77b4"/>
     <use xlink:href="#m5f78aef171" x="108.892562" y="94.123123" style="fill: #1f77b4; stroke: #1f77b4"/>
     <use xlink:href="#m5f78aef171" x="110.73719" y="97.936046" style="fill: #1f77b4; stroke: #1f77b4"/>
     <use xlink:href="#m5f78aef171" x="112.581818" y="88.213851" style="fill: #1f77b4; stroke: #1f77b4"/>
     <use xlink:href="#m5f78aef171" x="114.426446" y="88.821488" style="fill: #1f77b4; stroke: #1f77b4"/>
     <use xlink:href="#m5f78aef171" x="116.271074" y="92.877466" style="fill: #1f77b4; stroke: #1f77b4"/>
     <use xlink:href="#m5f78aef171" x="118.115702" y="90.667186" style="fill: #1f77b4; stroke: #1f77b4"/>
     <use xlink:href="#m5f78aef171" x="119.960331" y="91.195071" style="fill: #1f77b4; stroke: #1f77b4"/>
     <use xlink:href="#m5f78aef171" x="121.804959" y="88.323985" style="fill: #1f77b4; stroke: #1f77b4"/>
     <use xlink:href="#m5f78aef171" x="123.649587" y="98.475324" style="fill: #1f77b4; stroke: #1f77b4"/>
     <use xlink:href="#m5f78aef171" x="125.494215" y="91.848281" style="fill: #1f77b4; stroke: #1f77b4"/>
     <use xlink:href="#m5f78aef171" x="127.338843" y="88.145491" style="fill: #1f77b4; stroke: #1f77b4"/>
     <use xlink:href="#m5f78aef171" x="129.183471" y="92.072347" style="fill: #1f77b4; stroke: #1f77b4"/>
     <use xlink:href="#m5f78aef171" x="131.028099" y="91.479901" style="fill: #1f77b4; stroke: #1f77b4"/>
     <use xlink:href="#m5f78aef171" x="132.872727" y="98.619638" style="fill: #1f77b4; stroke: #1f77b4"/>
     <use xlink:href="#m5f78aef171" x="134.717355" y="87.625202" style="fill: #1f77b4; stroke: #1f77b4"/>
     <use xlink:href="#m5f78aef171" x="136.561983" y="89.486091" style="fill: #1f77b4; stroke: #1f77b4"/>
     <use xlink:href="#m5f78aef171" x="138.406612" y="83.497067" style="fill: #1f77b4; stroke: #1f77b4"/>
     <use xlink:href="#m5f78aef171" x="140.25124" y="89.782314" style="fill: #1f77b4; stroke: #1f77b4"/>
     <use xlink:href="#m5f78aef171" x="142.095868" y="94.07755" style="fill: #1f77b4; stroke: #1f77b4"/>
     <use xlink:href="#m5f78aef171" x="143.940496" y="79.403111" style="fill: #1f77b4; stroke: #1f77b4"/>
     <use xlink:href="#m5f78aef171" x="145.785124" y="82.399522" style="fill: #1f77b4; stroke: #1f77b4"/>
     <use xlink:href="#m5f78aef171" x="147.629752" y="94.369975" style="fill: #1f77b4; stroke: #1f77b4"/>
     <use xlink:href="#m5f78aef171" x="149.47438" y="95.247252" style="fill: #1f77b4; stroke: #1f77b4"/>
     <use xlink:href="#m5f78aef171" x="151.319008" y="91.662192" style="fill: #1f77b4; stroke: #1f77b4"/>
     <use xlink:href="#m5f78aef171" x="153.163636" y="106.256879" style="fill: #1f77b4; stroke: #1f77b4"/>
     <use xlink:href="#m5f78aef171" x="155.008264" y="108.474754" style="fill: #1f77b4; stroke: #1f77b4"/>
     <use xlink:href="#m5f78aef171" x="156.852893" y="155.589426" style="fill: #1f77b4; stroke: #1f77b4"/>
     <use xlink:href="#m5f78aef171" x="158.697521" y="253.874747" style="fill: #1f77b4; stroke: #1f77b4"/>
     <use xlink:href="#m5f78aef171" x="160.542149" y="282.16026" style="fill: #1f77b4; stroke: #1f77b4"/>
     <use xlink:href="#m5f78aef171" x="162.386777" y="264.026087" style="fill: #1f77b4; stroke: #1f77b4"/>
     <use xlink:href="#m5f78aef171" x="164.231405" y="174.783167" style="fill: #1f77b4; stroke: #1f77b4"/>
     <use xlink:href="#m5f78aef171" x="166.076033" y="127.193779" style="fill: #1f77b4; stroke: #1f77b4"/>
     <use xlink:href="#m5f78aef171" x="167.920661" y="112.052219" style="fill: #1f77b4; stroke: #1f77b4"/>
     <use xlink:href="#m5f78aef171" x="169.765289" y="103.017413" style="fill: #1f77b4; stroke: #1f77b4"/>
     <use xlink:href="#m5f78aef171" x="171.609917" y="91.293812" style="fill: #1f77b4; stroke: #1f77b4"/>
     <use xlink:href="#m5f78aef171" x="173.454545" y="96.576458" style="fill: #1f77b4; stroke: #1f77b4"/>
     <use xlink:href="#m5f78aef171" x="175.299174" y="90.226649" style="fill: #1f77b4; stroke: #1f77b4"/>
     <use xlink:href="#m5f78aef171" x="177.143802" y="97.415757" style="fill: #1f77b4; stroke: #1f77b4"/>
     <use xlink:href="#m5f78aef171" x="178.98843" y="88.825286" style="fill: #1f77b4; stroke: #1f77b4"/>
     <use xlink:href="#m5f78aef171" x="180.833058" y="92.338188" style="fill: #1f77b4; stroke: #1f77b4"/>
     <use xlink:href="#m5f78aef171" x="182.677686" y="79.813266" style="fill: #1f77b4; stroke: #1f77b4"/>
     <use xlink:href="#m5f78aef171" x="184.522314" y="85.490876" style="fill: #1f77b4; stroke: #1f77b4"/>
     <use xlink:href="#m5f78aef171" x="186.366942" y="90.165885" style="fill: #1f77b4; stroke: #1f77b4"/>
     <use xlink:href="#m5f78aef171" x="188.21157" y="85.688358" style="fill: #1f77b4; stroke: #1f77b4"/>
     <use xlink:href="#m5f78aef171" x="190.056198" y="92.585041" style="fill: #1f77b4; stroke: #1f77b4"/>
     <use xlink:href="#m5f78aef171" x="191.900826" y="94.673794" style="fill: #1f77b4; stroke: #1f77b4"/>
     <use xlink:href="#m5f78aef171" x="193.745455" y="91.331789" style="fill: #1f77b4; stroke: #1f77b4"/>
     <use xlink:href="#m5f78aef171" x="195.590083" y="92.057156" style="fill: #1f77b4; stroke: #1f77b4"/>
     <use xlink:href="#m5f78aef171" x="197.434711" y="86.60741" style="fill: #1f77b4; stroke: #1f77b4"/>
     <use xlink:href="#m5f78aef171" x="199.279339" y="88.73414" style="fill: #1f77b4; stroke: #1f77b4"/>
     <use xlink:href="#m5f78aef171" x="201.123967" y="81.947592" style="fill: #1f77b4; stroke: #1f77b4"/>
     <use xlink:href="#m5f78aef171" x="202.968595" y="96.853692" style="fill: #1f77b4; stroke: #1f77b4"/>
     <use xlink:href="#m5f78aef171" x="204.813223" y="95.927046" style="fill: #1f77b4; stroke: #1f77b4"/>
     <use xlink:href="#m5f78aef171" x="206.657851" y="87.568236" style="fill: #1f77b4; stroke: #1f77b4"/>
     <use xlink:href="#m5f78aef171" x="208.502479" y="90.519074" style="fill: #1f77b4; stroke: #1f77b4"/>
     <use xlink:href="#m5f78aef171" x="210.347107" y="95.949832" style="fill: #1f77b4; stroke: #1f77b4"/>
     <use xlink:href="#m5f78aef171" x="212.191736" y="93.014185" style="fill: #1f77b4; stroke: #1f77b4"/>
     <use xlink:href="#m5f78aef171" x="214.036364" y="96.329605" style="fill: #1f77b4; stroke: #1f77b4"/>
     <use xlink:href="#m5f78aef171" x="215.880992" y="91.377362" style="fill: #1f77b4; stroke: #1f77b4"/>
     <use xlink:href="#m5f78aef171" x="217.72562" y="95.463722" style="fill: #1f77b4; stroke: #1f77b4"/>
     <use xlink:href="#m5f78aef171" x="219.570248" y="91.438126" style="fill: #1f77b4; stroke: #1f77b4"/>
     <use xlink:href="#m5f78aef171" x="221.414876" y="98.923457" style="fill: #1f77b4; stroke: #1f77b4"/>
     <use xlink:href="#m5f78aef171" x="223.259504" y="90.667186" style="fill: #1f77b4; stroke: #1f77b4"/>
     <use xlink:href="#m5f78aef171" x="225.104132" y="98.923457" style="fill: #1f77b4; stroke: #1f77b4"/>
     <use xlink:href="#m5f78aef171" x="226.94876" y="102.565482" style="fill: #1f77b4; stroke: #1f77b4"/>
     <use xlink:href="#m5f78aef171" x="228.793388" y="115.033439" style="fill: #1f77b4; stroke: #1f77b4"/>
     <use xlink:href="#m5f78aef171" x="230.638017" y="131.086455" style="fill: #1f77b4; stroke: #1f77b4"/>
     <use xlink:href="#m5f78aef171" x="232.482645" y="178.903707" style="fill: #1f77b4; stroke: #1f77b4"/>
     <use xlink:href="#m5f78aef171" x="234.327273" y="174.783167" style="fill: #1f77b4; stroke: #1f77b4"/>
     <use xlink:href="#m5f78aef171" x="236.171901" y="170.962648" style="fill: #1f77b4; stroke: #1f77b4"/>
     <use xlink:href="#m5f78aef171" x="238.016529" y="122.412433" style="fill: #1f77b4; stroke: #1f77b4"/>
     <use xlink:href="#m5f78aef171" x="239.861157" y="124.884757" style="fill: #1f77b4; stroke: #1f77b4"/>
     <use xlink:href="#m5f78aef171" x="241.705785" y="137.508421" style="fill: #1f77b4; stroke: #1f77b4"/>
     <use xlink:href="#m5f78aef171" x="243.550413" y="140.512427" style="fill: #1f77b4; stroke: #1f77b4"/>
     <use xlink:href="#m5f78aef171" x="245.395041" y="227.753942" style="fill: #1f77b4; stroke: #1f77b4"/>
     <use xlink:href="#m5f78aef171" x="247.239669" y="246.56791" style="fill: #1f77b4; stroke: #1f77b4"/>
     <use xlink:href="#m5f78aef171" x="249.084298" y="242.827143" style="fill: #1f77b4; stroke: #1f77b4"/>
     <use xlink:href="#m5f78aef171" x="250.928926" y="207.998137" style="fill: #1f77b4; stroke: #1f77b4"/>
     <use xlink:href="#m5f78aef171" x="252.773554" y="173.841329" style="fill: #1f77b4; stroke: #1f77b4"/>
     <use xlink:href="#m5f78aef171" x="254.618182" y="125.302508" style="fill: #1f77b4; stroke: #1f77b4"/>
     <use xlink:href="#m5f78aef171" x="256.46281" y="118.853958" style="fill: #1f77b4; stroke: #1f77b4"/>
     <use xlink:href="#m5f78aef171" x="258.307438" y="100.066574" style="fill: #1f77b4; stroke: #1f77b4"/>
     <use xlink:href="#m5f78aef171" x="260.152066" y="103.518713" style="fill: #1f77b4; stroke: #1f77b4"/>
     <use xlink:href="#m5f78aef171" x="261.996694" y="101.847711" style="fill: #1f77b4; stroke: #1f77b4"/>
     <use xlink:href="#m5f78aef171" x="263.841322" y="98.923457" style="fill: #1f77b4; stroke: #1f77b4"/>
     <use xlink:href="#m5f78aef171" x="265.68595" y="94.719367" style="fill: #1f77b4; stroke: #1f77b4"/>
     <use xlink:href="#m5f78aef171" x="267.530579" y="95.55107" style="fill: #1f77b4; stroke: #1f77b4"/>
     <use xlink:href="#m5f78aef171" x="269.375207" y="97.111938" style="fill: #1f77b4; stroke: #1f77b4"/>
     <use xlink:href="#m5f78aef171" x="271.219835" y="102.189507" style="fill: #1f77b4; stroke: #1f77b4"/>
     <use xlink:href="#m5f78aef171" x="273.064463" y="105.459355" style="fill: #1f77b4; stroke: #1f77b4"/>
     <use xlink:href="#m5f78aef171" x="274.909091" y="101.335017" style="fill: #1f77b4; stroke: #1f77b4"/>
     <use xlink:href="#m5f78aef171" x="276.753719" y="96.105539" style="fill: #1f77b4; stroke: #1f77b4"/>
     <use xlink:href="#m5f78aef171" x="278.598347" y="103.404781" style="fill: #1f77b4; stroke: #1f77b4"/>
     <use xlink:href="#m5f78aef171" x="280.442975" y="95.019388" style="fill: #1f77b4; stroke: #1f77b4"/>
     <use xlink:href="#m5f78aef171" x="282.287603" y="108.262081" style="fill: #1f77b4; stroke: #1f77b4"/>
     <use xlink:href="#m5f78aef171" x="284.132231" y="111.885118" style="fill: #1f77b4; stroke: #1f77b4"/>
     <use xlink:href="#m5f78aef171" x="285.97686" y="115.553728" style="fill: #1f77b4; stroke: #1f77b4"/>
     <use xlink:href="#m5f78aef171" x="287.821488" y="125.439226" style="fill: #1f77b4; stroke: #1f77b4"/>
     <use xlink:href="#m5f78aef171" x="289.666116" y="145.627973" style="fill: #1f77b4; stroke: #1f77b4"/>
     <use xlink:href="#m5f78aef171" x="291.510744" y="166.507907" style="fill: #1f77b4; stroke: #1f77b4"/>
     <use xlink:href="#m5f78aef171" x="293.355372" y="261.770234" style="fill: #1f77b4; stroke: #1f77b4"/>
     <use xlink:href="#m5f78aef171" x="295.2" y="365.915456" style="fill: #1f77b4; stroke: #1f77b4"/>
     <use xlink:href="#m5f78aef171" x="297.044628" y="369.36" style="fill: #1f77b4; stroke: #1f77b4"/>
     <use xlink:href="#m5f78aef171" x="298.889256" y="320.217339" style="fill: #1f77b4; stroke: #1f77b4"/>
     <use xlink:href="#m5f78aef171" x="300.733884" y="216.66836" style="fill: #1f77b4; stroke: #1f77b4"/>
     <use xlink:href="#m5f78aef171" x="302.578512" y="155.494483" style="fill: #1f77b4; stroke: #1f77b4"/>
     <use xlink:href="#m5f78aef171" x="304.42314" y="119.16917" style="fill: #1f77b4; stroke: #1f77b4"/>
     <use xlink:href="#m5f78aef171" x="306.267769" y="120.057839" style="fill: #1f77b4; stroke: #1f77b4"/>
     <use xlink:href="#m5f78aef171" x="308.112397" y="113.502952" style="fill: #1f77b4; stroke: #1f77b4"/>
     <use xlink:href="#m5f78aef171" x="309.957025" y="130.786434" style="fill: #1f77b4; stroke: #1f77b4"/>
     <use xlink:href="#m5f78aef171" x="311.801653" y="155.103316" style="fill: #1f77b4; stroke: #1f77b4"/>
     <use xlink:href="#m5f78aef171" x="313.646281" y="232.390974" style="fill: #1f77b4; stroke: #1f77b4"/>
     <use xlink:href="#m5f78aef171" x="315.490909" y="345.274779" style="fill: #1f77b4; stroke: #1f77b4"/>
     <use xlink:href="#m5f78aef171" x="317.335537" y="366.382578" style="fill: #1f77b4; stroke: #1f77b4"/>
     <use xlink:href="#m5f78aef171" x="319.180165" y="318.515955" style="fill: #1f77b4; stroke: #1f77b4"/>
     <use xlink:href="#m5f78aef171" x="321.024793" y="213.706129" style="fill: #1f77b4; stroke: #1f77b4"/>
     <use xlink:href="#m5f78aef171" x="322.869421" y="143.387311" style="fill: #1f77b4; stroke: #1f77b4"/>
     <use xlink:href="#m5f78aef171" x="324.71405" y="121.314889" style="fill: #1f77b4; stroke: #1f77b4"/>
     <use xlink:href="#m5f78aef171" x="326.558678" y="107.715208" style="fill: #1f77b4; stroke: #1f77b4"/>
     <use xlink:href="#m5f78aef171" x="328.403306" y="101.175512" style="fill: #1f77b4; stroke: #1f77b4"/>
     <use xlink:href="#m5f78aef171" x="330.247934" y="94.916849" style="fill: #1f77b4; stroke: #1f77b4"/>
     <use xlink:href="#m5f78aef171" x="332.092562" y="98.144922" style="fill: #1f77b4; stroke: #1f77b4"/>
     <use xlink:href="#m5f78aef171" x="333.93719" y="96.751154" style="fill: #1f77b4; stroke: #1f77b4"/>
     <use xlink:href="#m5f78aef171" x="335.781818" y="103.093367" style="fill: #1f77b4; stroke: #1f77b4"/>
     <use xlink:href="#m5f78aef171" x="337.626446" y="78.891446" style="fill: #1f77b4; stroke: #1f77b4"/>
     <use xlink:href="#m5f78aef171" x="339.471074" y="86.228666" style="fill: #1f77b4; stroke: #1f77b4"/>
     <use xlink:href="#m5f78aef171" x="341.315702" y="91.963242" style="fill: #1f77b4; stroke: #1f77b4"/>
     <use xlink:href="#m5f78aef171" x="343.160331" y="81.519477" style="fill: #1f77b4; stroke: #1f77b4"/>
     <use xlink:href="#m5f78aef171" x="345.004959" y="76.612807" style="fill: #1f77b4; stroke: #1f77b4"/>
     <use xlink:href="#m5f78aef171" x="346.849587" y="81.409343" style="fill: #1f77b4; stroke: #1f77b4"/>
     <use xlink:href="#m5f78aef171" x="348.694215" y="86.950235" style="fill: #1f77b4; stroke: #1f77b4"/>
     <use xlink:href="#m5f78aef171" x="350.538843" y="83.52468" style="fill: #1f77b4; stroke: #1f77b4"/>
     <use xlink:href="#m5f78aef171" x="352.383471" y="104.852747" style="fill: #1f77b4; stroke: #1f77b4"/>
     <use xlink:href="#m5f78aef171" x="354.228099" y="108.737828" style="fill: #1f77b4; stroke: #1f77b4"/>
     <use xlink:href="#m5f78aef171" x="356.072727" y="117.8296" style="fill: #1f77b4; stroke: #1f77b4"/>
     <use xlink:href="#m5f78aef171" x="357.917355" y="152.616831" style="fill: #1f77b4; stroke: #1f77b4"/>
     <use xlink:href="#m5f78aef171" x="359.761983" y="321.410857" style="fill: #1f77b4; stroke: #1f77b4"/>
     <use xlink:href="#m5f78aef171" x="361.606612" y="316.439625" style="fill: #1f77b4; stroke: #1f77b4"/>
     <use xlink:href="#m5f78aef171" x="363.45124" y="307.093405" style="fill: #1f77b4; stroke: #1f77b4"/>
     <use xlink:href="#m5f78aef171" x="365.295868" y="180.401043" style="fill: #1f77b4; stroke: #1f77b4"/>
     <use xlink:href="#m5f78aef171" x="367.140496" y="156.900673" style="fill: #1f77b4; stroke: #1f77b4"/>
     <use xlink:href="#m5f78aef171" x="368.985124" y="141.622395" style="fill: #1f77b4; stroke: #1f77b4"/>
     <use xlink:href="#m5f78aef171" x="370.829752" y="174.639882" style="fill: #1f77b4; stroke: #1f77b4"/>
     <use xlink:href="#m5f78aef171" x="372.67438" y="179.763024" style="fill: #1f77b4; stroke: #1f77b4"/>
     <use xlink:href="#m5f78aef171" x="374.519008" y="162.369408" style="fill: #1f77b4; stroke: #1f77b4"/>
     <use xlink:href="#m5f78aef171" x="376.363636" y="140.015954" style="fill: #1f77b4; stroke: #1f77b4"/>
     <use xlink:href="#m5f78aef171" x="378.208264" y="116.593148" style="fill: #1f77b4; stroke: #1f77b4"/>
     <use xlink:href="#m5f78aef171" x="380.052893" y="96.438581" style="fill: #1f77b4; stroke: #1f77b4"/>
     <use xlink:href="#m5f78aef171" x="381.897521" y="94.820746" style="fill: #1f77b4; stroke: #1f77b4"/>
     <use xlink:href="#m5f78aef171" x="383.742149" y="91.569887" style="fill: #1f77b4; stroke: #1f77b4"/>
     <use xlink:href="#m5f78aef171" x="385.586777" y="83.389571" style="fill: #1f77b4; stroke: #1f77b4"/>
     <use xlink:href="#m5f78aef171" x="387.431405" y="82.854091" style="fill: #1f77b4; stroke: #1f77b4"/>
     <use xlink:href="#m5f78aef171" x="389.276033" y="79.28802" style="fill: #1f77b4; stroke: #1f77b4"/>
     <use xlink:href="#m5f78aef171" x="391.120661" y="84.6808" style="fill: #1f77b4; stroke: #1f77b4"/>
     <use xlink:href="#m5f78aef171" x="392.965289" y="76.565045" style="fill: #1f77b4; stroke: #1f77b4"/>
     <use xlink:href="#m5f78aef171" x="394.809917" y="84.775743" style="fill: #1f77b4; stroke: #1f77b4"/>
     <use xlink:href="#m5f78aef171" x="396.654545" y="77.962611" style="fill: #1f77b4; stroke: #1f77b4"/>
     <use xlink:href="#m5f78aef171" x="398.499174" y="79.561457" style="fill: #1f77b4; stroke: #1f77b4"/>
     <use xlink:href="#m5f78aef171" x="400.343802" y="82.72117" style="fill: #1f77b4; stroke: #1f77b4"/>
     <use xlink:href="#m5f78aef171" x="402.18843" y="81.821107" style="fill: #1f77b4; stroke: #1f77b4"/>
     <use xlink:href="#m5f78aef171" x="404.033058" y="79.986803" style="fill: #1f77b4; stroke: #1f77b4"/>
     <use xlink:href="#m5f78aef171" x="405.877686" y="82.983214" style="fill: #1f77b4; stroke: #1f77b4"/>
     <use xlink:href="#m5f78aef171" x="407.722314" y="77.882859" style="fill: #1f77b4; stroke: #1f77b4"/>
     <use xlink:href="#m5f78aef171" x="409.566942" y="73.25722" style="fill: #1f77b4; stroke: #1f77b4"/>
     <use xlink:href="#m5f78aef171" x="411.41157" y="79.303211" style="fill: #1f77b4; stroke: #1f77b4"/>
     <use xlink:href="#m5f78aef171" x="413.256198" y="82.599643" style="fill: #1f77b4; stroke: #1f77b4"/>
     <use xlink:href="#m5f78aef171" x="415.100826" y="84.339004" style="fill: #1f77b4; stroke: #1f77b4"/>
     <use xlink:href="#m5f78aef171" x="416.945455" y="90.47614" style="fill: #1f77b4; stroke: #1f77b4"/>
     <use xlink:href="#m5f78aef171" x="418.790083" y="85.349201" style="fill: #1f77b4; stroke: #1f77b4"/>
     <use xlink:href="#m5f78aef171" x="420.634711" y="100.319863" style="fill: #1f77b4; stroke: #1f77b4"/>
     <use xlink:href="#m5f78aef171" x="422.479339" y="90.103962" style="fill: #1f77b4; stroke: #1f77b4"/>
     <use xlink:href="#m5f78aef171" x="424.323967" y="101.022444" style="fill: #1f77b4; stroke: #1f77b4"/>
     <use xlink:href="#m5f78aef171" x="426.168595" y="130.371322" style="fill: #1f77b4; stroke: #1f77b4"/>
     <use xlink:href="#m5f78aef171" x="428.013223" y="153.071979" style="fill: #1f77b4; stroke: #1f77b4"/>
     <use xlink:href="#m5f78aef171" x="429.857851" y="252.724484" style="fill: #1f77b4; stroke: #1f77b4"/>
     <use xlink:href="#m5f78aef171" x="431.702479" y="268.857253" style="fill: #1f77b4; stroke: #1f77b4"/>
     <use xlink:href="#m5f78aef171" x="433.547107" y="241.293309" style="fill: #1f77b4; stroke: #1f77b4"/>
     <use xlink:href="#m5f78aef171" x="435.391736" y="168.669267" style="fill: #1f77b4; stroke: #1f77b4"/>
     <use xlink:href="#m5f78aef171" x="437.236364" y="113.195786" style="fill: #1f77b4; stroke: #1f77b4"/>
     <use xlink:href="#m5f78aef171" x="439.080992" y="97.325061" style="fill: #1f77b4; stroke: #1f77b4"/>
     <use xlink:href="#m5f78aef171" x="440.92562" y="84.032997" style="fill: #1f77b4; stroke: #1f77b4"/>
     <use xlink:href="#m5f78aef171" x="442.770248" y="82.25186" style="fill: #1f77b4; stroke: #1f77b4"/>
     <use xlink:href="#m5f78aef171" x="444.614876" y="71.511872" style="fill: #1f77b4; stroke: #1f77b4"/>
     <use xlink:href="#m5f78aef171" x="446.459504" y="85.574876" style="fill: #1f77b4; stroke: #1f77b4"/>
     <use xlink:href="#m5f78aef171" x="448.304132" y="84.108952" style="fill: #1f77b4; stroke: #1f77b4"/>
     <use xlink:href="#m5f78aef171" x="450.14876" y="79.035181" style="fill: #1f77b4; stroke: #1f77b4"/>
     <use xlink:href="#m5f78aef171" x="451.993388" y="77.090742" style="fill: #1f77b4; stroke: #1f77b4"/>
     <use xlink:href="#m5f78aef171" x="453.838017" y="73.775321" style="fill: #1f77b4; stroke: #1f77b4"/>
     <use xlink:href="#m5f78aef171" x="455.682645" y="74.922236" style="fill: #1f77b4; stroke: #1f77b4"/>
     <use xlink:href="#m5f78aef171" x="457.527273" y="74.986798" style="fill: #1f77b4; stroke: #1f77b4"/>
     <use xlink:href="#m5f78aef171" x="459.371901" y="78.537678" style="fill: #1f77b4; stroke: #1f77b4"/>
     <use xlink:href="#m5f78aef171" x="461.216529" y="73.099325" style="fill: #1f77b4; stroke: #1f77b4"/>
     <use xlink:href="#m5f78aef171" x="463.061157" y="74.227251" style="fill: #1f77b4; stroke: #1f77b4"/>
     <use xlink:href="#m5f78aef171" x="464.905785" y="74.124712" style="fill: #1f77b4; stroke: #1f77b4"/>
     <use xlink:href="#m5f78aef171" x="466.750413" y="82.373388" style="fill: #1f77b4; stroke: #1f77b4"/>
     <use xlink:href="#m5f78aef171" x="468.595041" y="81.919269" style="fill: #1f77b4; stroke: #1f77b4"/>
     <use xlink:href="#m5f78aef171" x="470.439669" y="76.780937" style="fill: #1f77b4; stroke: #1f77b4"/>
     <use xlink:href="#m5f78aef171" x="472.284298" y="75.36818" style="fill: #1f77b4; stroke: #1f77b4"/>
     <use xlink:href="#m5f78aef171" x="474.128926" y="73.845289" style="fill: #1f77b4; stroke: #1f77b4"/>
     <use xlink:href="#m5f78aef171" x="475.973554" y="76.87588" style="fill: #1f77b4; stroke: #1f77b4"/>
     <use xlink:href="#m5f78aef171" x="477.818182" y="75.045373" style="fill: #1f77b4; stroke: #1f77b4"/>
     <use xlink:href="#m5f78aef171" x="479.66281" y="66.96" style="fill: #1f77b4; stroke: #1f77b4"/>
     <use xlink:href="#m5f78aef171" x="481.507438" y="70.043759" style="fill: #1f77b4; stroke: #1f77b4"/>
     <use xlink:href="#m5f78aef171" x="483.352066" y="76.431545" style="fill: #1f77b4; stroke: #1f77b4"/>
     <use xlink:href="#m5f78aef171" x="485.196694" y="68.88545" style="fill: #1f77b4; stroke: #1f77b4"/>
     <use xlink:href="#m5f78aef171" x="487.041322" y="74.335197" style="fill: #1f77b4; stroke: #1f77b4"/>
     <use xlink:href="#m5f78aef171" x="488.88595" y="70.91344" style="fill: #1f77b4; stroke: #1f77b4"/>
     <use xlink:href="#m5f78aef171" x="490.730579" y="75.77074" style="fill: #1f77b4; stroke: #1f77b4"/>
     <use xlink:href="#m5f78aef171" x="492.575207" y="83.35861" style="fill: #1f77b4; stroke: #1f77b4"/>
     <use xlink:href="#m5f78aef171" x="494.419835" y="75.075755" style="fill: #1f77b4; stroke: #1f77b4"/>
     <use xlink:href="#m5f78aef171" x="496.264463" y="73.1579" style="fill: #1f77b4; stroke: #1f77b4"/>
     <use xlink:href="#m5f78aef171" x="498.109091" y="69.937422" style="fill: #1f77b4; stroke: #1f77b4"/>
    </g>
   </g>
   <g id="matplotlib.axis_1">
    <g id="xtick_1">
     <g id="line2d_1">
      <defs>
       <path id="mcb1135ea29" d="M 0 0 
L 0 3.5 
" style="stroke: #000000; stroke-width: 0.8"/>
      </defs>
      <g>
       <use xlink:href="#mcb1135ea29" x="138.406612" y="384.48" style="stroke: #000000; stroke-width: 0.8"/>
      </g>
     </g>
     <g id="text_1">
      <!-- 2.7 -->
      <g transform="translate(130.455049 399.078438)scale(0.1 -0.1)">
       <defs>
        <path id="DejaVuSans-32" d="M 1228 531 
L 3431 531 
L 3431 0 
L 469 0 
L 469 531 
Q 828 903 1448 1529 
Q 2069 2156 2228 2338 
Q 2531 2678 2651 2914 
Q 2772 3150 2772 3378 
Q 2772 3750 2511 3984 
Q 2250 4219 1831 4219 
Q 1534 4219 1204 4116 
Q 875 4013 500 3803 
L 500 4441 
Q 881 4594 1212 4672 
Q 1544 4750 1819 4750 
Q 2544 4750 2975 4387 
Q 3406 4025 3406 3419 
Q 3406 3131 3298 2873 
Q 3191 2616 2906 2266 
Q 2828 2175 2409 1742 
Q 1991 1309 1228 531 
z
" transform="scale(0.015625)"/>
        <path id="DejaVuSans-2e" d="M 684 794 
L 1344 794 
L 1344 0 
L 684 0 
L 684 794 
z
" transform="scale(0.015625)"/>
        <path id="DejaVuSans-37" d="M 525 4666 
L 3525 4666 
L 3525 4397 
L 1831 0 
L 1172 0 
L 2766 4134 
L 525 4134 
L 525 4666 
z
" transform="scale(0.015625)"/>
       </defs>
       <use xlink:href="#DejaVuSans-32"/>
       <use xlink:href="#DejaVuSans-2e" x="63.623047"/>
       <use xlink:href="#DejaVuSans-37" x="95.410156"/>
      </g>
     </g>
    </g>
    <g id="xtick_2">
     <g id="line2d_2">
      <g>
       <use xlink:href="#mcb1135ea29" x="230.638017" y="384.48" style="stroke: #000000; stroke-width: 0.8"/>
      </g>
     </g>
     <g id="text_2">
      <!-- 2.8 -->
      <g transform="translate(222.686454 399.078438)scale(0.1 -0.1)">
       <defs>
        <path id="DejaVuSans-38" d="M 2034 2216 
Q 1584 2216 1326 1975 
Q 1069 1734 1069 1313 
Q 1069 891 1326 650 
Q 1584 409 2034 409 
Q 2484 409 2743 651 
Q 3003 894 3003 1313 
Q 3003 1734 2745 1975 
Q 2488 2216 2034 2216 
z
M 1403 2484 
Q 997 2584 770 2862 
Q 544 3141 544 3541 
Q 544 4100 942 4425 
Q 1341 4750 2034 4750 
Q 2731 4750 3128 4425 
Q 3525 4100 3525 3541 
Q 3525 3141 3298 2862 
Q 3072 2584 2669 2484 
Q 3125 2378 3379 2068 
Q 3634 1759 3634 1313 
Q 3634 634 3220 271 
Q 2806 -91 2034 -91 
Q 1263 -91 848 271 
Q 434 634 434 1313 
Q 434 1759 690 2068 
Q 947 2378 1403 2484 
z
M 1172 3481 
Q 1172 3119 1398 2916 
Q 1625 2713 2034 2713 
Q 2441 2713 2670 2916 
Q 2900 3119 2900 3481 
Q 2900 3844 2670 4047 
Q 2441 4250 2034 4250 
Q 1625 4250 1398 4047 
Q 1172 3844 1172 3481 
z
" transform="scale(0.015625)"/>
       </defs>
       <use xlink:href="#DejaVuSans-32"/>
       <use xlink:href="#DejaVuSans-2e" x="63.623047"/>
       <use xlink:href="#DejaVuSans-38" x="95.410156"/>
      </g>
     </g>
    </g>
    <g id="xtick_3">
     <g id="line2d_3">
      <g>
       <use xlink:href="#mcb1135ea29" x="322.869421" y="384.48" style="stroke: #000000; stroke-width: 0.8"/>
      </g>
     </g>
     <g id="text_3">
      <!-- 2.9 -->
      <g transform="translate(314.917859 399.078438)scale(0.1 -0.1)">
       <defs>
        <path id="DejaVuSans-39" d="M 703 97 
L 703 672 
Q 941 559 1184 500 
Q 1428 441 1663 441 
Q 2288 441 2617 861 
Q 2947 1281 2994 2138 
Q 2813 1869 2534 1725 
Q 2256 1581 1919 1581 
Q 1219 1581 811 2004 
Q 403 2428 403 3163 
Q 403 3881 828 4315 
Q 1253 4750 1959 4750 
Q 2769 4750 3195 4129 
Q 3622 3509 3622 2328 
Q 3622 1225 3098 567 
Q 2575 -91 1691 -91 
Q 1453 -91 1209 -44 
Q 966 3 703 97 
z
M 1959 2075 
Q 2384 2075 2632 2365 
Q 2881 2656 2881 3163 
Q 2881 3666 2632 3958 
Q 2384 4250 1959 4250 
Q 1534 4250 1286 3958 
Q 1038 3666 1038 3163 
Q 1038 2656 1286 2365 
Q 1534 2075 1959 2075 
z
" transform="scale(0.015625)"/>
       </defs>
       <use xlink:href="#DejaVuSans-32"/>
       <use xlink:href="#DejaVuSans-2e" x="63.623047"/>
       <use xlink:href="#DejaVuSans-39" x="95.410156"/>
      </g>
     </g>
    </g>
    <g id="xtick_4">
     <g id="line2d_4">
      <g>
       <use xlink:href="#mcb1135ea29" x="415.100826" y="384.48" style="stroke: #000000; stroke-width: 0.8"/>
      </g>
     </g>
     <g id="text_4">
      <!-- 3.0 -->
      <g transform="translate(407.149264 399.078438)scale(0.1 -0.1)">
       <defs>
        <path id="DejaVuSans-33" d="M 2597 2516 
Q 3050 2419 3304 2112 
Q 3559 1806 3559 1356 
Q 3559 666 3084 287 
Q 2609 -91 1734 -91 
Q 1441 -91 1130 -33 
Q 819 25 488 141 
L 488 750 
Q 750 597 1062 519 
Q 1375 441 1716 441 
Q 2309 441 2620 675 
Q 2931 909 2931 1356 
Q 2931 1769 2642 2001 
Q 2353 2234 1838 2234 
L 1294 2234 
L 1294 2753 
L 1863 2753 
Q 2328 2753 2575 2939 
Q 2822 3125 2822 3475 
Q 2822 3834 2567 4026 
Q 2313 4219 1838 4219 
Q 1578 4219 1281 4162 
Q 984 4106 628 3988 
L 628 4550 
Q 988 4650 1302 4700 
Q 1616 4750 1894 4750 
Q 2613 4750 3031 4423 
Q 3450 4097 3450 3541 
Q 3450 3153 3228 2886 
Q 3006 2619 2597 2516 
z
" transform="scale(0.015625)"/>
        <path id="DejaVuSans-30" d="M 2034 4250 
Q 1547 4250 1301 3770 
Q 1056 3291 1056 2328 
Q 1056 1369 1301 889 
Q 1547 409 2034 409 
Q 2525 409 2770 889 
Q 3016 1369 3016 2328 
Q 3016 3291 2770 3770 
Q 2525 4250 2034 4250 
z
M 2034 4750 
Q 2819 4750 3233 4129 
Q 3647 3509 3647 2328 
Q 3647 1150 3233 529 
Q 2819 -91 2034 -91 
Q 1250 -91 836 529 
Q 422 1150 422 2328 
Q 422 3509 836 4129 
Q 1250 4750 2034 4750 
z
" transform="scale(0.015625)"/>
       </defs>
       <use xlink:href="#DejaVuSans-33"/>
       <use xlink:href="#DejaVuSans-2e" x="63.623047"/>
       <use xlink:href="#DejaVuSans-30" x="95.410156"/>
      </g>
     </g>
    </g>
    <g id="xtick_5">
     <g id="line2d_5">
      <g>
       <use xlink:href="#mcb1135ea29" x="507.332231" y="384.48" style="stroke: #000000; stroke-width: 0.8"/>
      </g>
     </g>
     <g id="text_5">
      <!-- 3.1 -->
      <g transform="translate(499.380669 399.078438)scale(0.1 -0.1)">
       <defs>
        <path id="DejaVuSans-31" d="M 794 531 
L 1825 531 
L 1825 4091 
L 703 3866 
L 703 4441 
L 1819 4666 
L 2450 4666 
L 2450 531 
L 3481 531 
L 3481 0 
L 794 0 
L 794 531 
z
" transform="scale(0.015625)"/>
       </defs>
       <use xlink:href="#DejaVuSans-33"/>
       <use xlink:href="#DejaVuSans-2e" x="63.623047"/>
       <use xlink:href="#DejaVuSans-31" x="95.410156"/>
      </g>
     </g>
    </g>
    <g id="text_6">
     <!-- [GHz] -->
     <g transform="translate(281.039844 412.756563)scale(0.1 -0.1)">
      <defs>
       <path id="DejaVuSans-5b" d="M 550 4863 
L 1875 4863 
L 1875 4416 
L 1125 4416 
L 1125 -397 
L 1875 -397 
L 1875 -844 
L 550 -844 
L 550 4863 
z
" transform="scale(0.015625)"/>
       <path id="DejaVuSans-47" d="M 3809 666 
L 3809 1919 
L 2778 1919 
L 2778 2438 
L 4434 2438 
L 4434 434 
Q 4069 175 3628 42 
Q 3188 -91 2688 -91 
Q 1594 -91 976 548 
Q 359 1188 359 2328 
Q 359 3472 976 4111 
Q 1594 4750 2688 4750 
Q 3144 4750 3555 4637 
Q 3966 4525 4313 4306 
L 4313 3634 
Q 3963 3931 3569 4081 
Q 3175 4231 2741 4231 
Q 1884 4231 1454 3753 
Q 1025 3275 1025 2328 
Q 1025 1384 1454 906 
Q 1884 428 2741 428 
Q 3075 428 3337 486 
Q 3600 544 3809 666 
z
" transform="scale(0.015625)"/>
       <path id="DejaVuSans-48" d="M 628 4666 
L 1259 4666 
L 1259 2753 
L 3553 2753 
L 3553 4666 
L 4184 4666 
L 4184 0 
L 3553 0 
L 3553 2222 
L 1259 2222 
L 1259 0 
L 628 0 
L 628 4666 
z
" transform="scale(0.015625)"/>
       <path id="DejaVuSans-7a" d="M 353 3500 
L 3084 3500 
L 3084 2975 
L 922 459 
L 3084 459 
L 3084 0 
L 275 0 
L 275 525 
L 2438 3041 
L 353 3041 
L 353 3500 
z
" transform="scale(0.015625)"/>
       <path id="DejaVuSans-5d" d="M 1947 4863 
L 1947 -844 
L 622 -844 
L 622 -397 
L 1369 -397 
L 1369 4416 
L 622 4416 
L 622 4863 
L 1947 4863 
z
" transform="scale(0.015625)"/>
      </defs>
      <use xlink:href="#DejaVuSans-5b"/>
      <use xlink:href="#DejaVuSans-47" x="39.013672"/>
      <use xlink:href="#DejaVuSans-48" x="116.503906"/>
      <use xlink:href="#DejaVuSans-7a" x="191.699219"/>
      <use xlink:href="#DejaVuSans-5d" x="244.189453"/>
     </g>
    </g>
   </g>
   <g id="matplotlib.axis_2">
    <g id="ytick_1">
     <g id="line2d_6">
      <defs>
       <path id="m393ca52441" d="M 0 0 
L -3.5 0 
" style="stroke: #000000; stroke-width: 0.8"/>
      </defs>
      <g>
       <use xlink:href="#m393ca52441" x="72" y="346.689992" style="stroke: #000000; stroke-width: 0.8"/>
      </g>
     </g>
     <g id="text_7">
      <!-- 0.990 -->
      <g transform="translate(36.371875 350.489211)scale(0.1 -0.1)">
       <use xlink:href="#DejaVuSans-30"/>
       <use xlink:href="#DejaVuSans-2e" x="63.623047"/>
       <use xlink:href="#DejaVuSans-39" x="95.410156"/>
       <use xlink:href="#DejaVuSans-39" x="159.033203"/>
       <use xlink:href="#DejaVuSans-30" x="222.65625"/>
      </g>
     </g>
    </g>
    <g id="ytick_2">
     <g id="line2d_7">
      <g>
       <use xlink:href="#m393ca52441" x="72" y="294.845146" style="stroke: #000000; stroke-width: 0.8"/>
      </g>
     </g>
     <g id="text_8">
      <!-- 0.992 -->
      <g transform="translate(36.371875 298.644364)scale(0.1 -0.1)">
       <use xlink:href="#DejaVuSans-30"/>
       <use xlink:href="#DejaVuSans-2e" x="63.623047"/>
       <use xlink:href="#DejaVuSans-39" x="95.410156"/>
       <use xlink:href="#DejaVuSans-39" x="159.033203"/>
       <use xlink:href="#DejaVuSans-32" x="222.65625"/>
      </g>
     </g>
    </g>
    <g id="ytick_3">
     <g id="line2d_8">
      <g>
       <use xlink:href="#m393ca52441" x="72" y="243.000299" style="stroke: #000000; stroke-width: 0.8"/>
      </g>
     </g>
     <g id="text_9">
      <!-- 0.994 -->
      <g transform="translate(36.371875 246.799518)scale(0.1 -0.1)">
       <defs>
        <path id="DejaVuSans-34" d="M 2419 4116 
L 825 1625 
L 2419 1625 
L 2419 4116 
z
M 2253 4666 
L 3047 4666 
L 3047 1625 
L 3713 1625 
L 3713 1100 
L 3047 1100 
L 3047 0 
L 2419 0 
L 2419 1100 
L 313 1100 
L 313 1709 
L 2253 4666 
z
" transform="scale(0.015625)"/>
       </defs>
       <use xlink:href="#DejaVuSans-30"/>
       <use xlink:href="#DejaVuSans-2e" x="63.623047"/>
       <use xlink:href="#DejaVuSans-39" x="95.410156"/>
       <use xlink:href="#DejaVuSans-39" x="159.033203"/>
       <use xlink:href="#DejaVuSans-34" x="222.65625"/>
      </g>
     </g>
    </g>
    <g id="ytick_4">
     <g id="line2d_9">
      <g>
       <use xlink:href="#m393ca52441" x="72" y="191.155453" style="stroke: #000000; stroke-width: 0.8"/>
      </g>
     </g>
     <g id="text_10">
      <!-- 0.996 -->
      <g transform="translate(36.371875 194.954672)scale(0.1 -0.1)">
       <defs>
        <path id="DejaVuSans-36" d="M 2113 2584 
Q 1688 2584 1439 2293 
Q 1191 2003 1191 1497 
Q 1191 994 1439 701 
Q 1688 409 2113 409 
Q 2538 409 2786 701 
Q 3034 994 3034 1497 
Q 3034 2003 2786 2293 
Q 2538 2584 2113 2584 
z
M 3366 4563 
L 3366 3988 
Q 3128 4100 2886 4159 
Q 2644 4219 2406 4219 
Q 1781 4219 1451 3797 
Q 1122 3375 1075 2522 
Q 1259 2794 1537 2939 
Q 1816 3084 2150 3084 
Q 2853 3084 3261 2657 
Q 3669 2231 3669 1497 
Q 3669 778 3244 343 
Q 2819 -91 2113 -91 
Q 1303 -91 875 529 
Q 447 1150 447 2328 
Q 447 3434 972 4092 
Q 1497 4750 2381 4750 
Q 2619 4750 2861 4703 
Q 3103 4656 3366 4563 
z
" transform="scale(0.015625)"/>
       </defs>
       <use xlink:href="#DejaVuSans-30"/>
       <use xlink:href="#DejaVuSans-2e" x="63.623047"/>
       <use xlink:href="#DejaVuSans-39" x="95.410156"/>
       <use xlink:href="#DejaVuSans-39" x="159.033203"/>
       <use xlink:href="#DejaVuSans-36" x="222.65625"/>
      </g>
     </g>
    </g>
    <g id="ytick_5">
     <g id="line2d_10">
      <g>
       <use xlink:href="#m393ca52441" x="72" y="139.310607" style="stroke: #000000; stroke-width: 0.8"/>
      </g>
     </g>
     <g id="text_11">
      <!-- 0.998 -->
      <g transform="translate(36.371875 143.109826)scale(0.1 -0.1)">
       <use xlink:href="#DejaVuSans-30"/>
       <use xlink:href="#DejaVuSans-2e" x="63.623047"/>
       <use xlink:href="#DejaVuSans-39" x="95.410156"/>
       <use xlink:href="#DejaVuSans-39" x="159.033203"/>
       <use xlink:href="#DejaVuSans-38" x="222.65625"/>
      </g>
     </g>
    </g>
    <g id="ytick_6">
     <g id="line2d_11">
      <g>
       <use xlink:href="#m393ca52441" x="72" y="87.465761" style="stroke: #000000; stroke-width: 0.8"/>
      </g>
     </g>
     <g id="text_12">
      <!-- 1.000 -->
      <g transform="translate(36.371875 91.264979)scale(0.1 -0.1)">
       <use xlink:href="#DejaVuSans-31"/>
       <use xlink:href="#DejaVuSans-2e" x="63.623047"/>
       <use xlink:href="#DejaVuSans-30" x="95.410156"/>
       <use xlink:href="#DejaVuSans-30" x="159.033203"/>
       <use xlink:href="#DejaVuSans-30" x="222.65625"/>
      </g>
     </g>
    </g>
    <g id="text_13">
     <!-- [Normalized Counts / s] -->
     <g transform="translate(30.292187 276.926406)rotate(-90)scale(0.1 -0.1)">
      <defs>
       <path id="DejaVuSans-4e" d="M 628 4666 
L 1478 4666 
L 3547 763 
L 3547 4666 
L 4159 4666 
L 4159 0 
L 3309 0 
L 1241 3903 
L 1241 0 
L 628 0 
L 628 4666 
z
" transform="scale(0.015625)"/>
       <path id="DejaVuSans-6f" d="M 1959 3097 
Q 1497 3097 1228 2736 
Q 959 2375 959 1747 
Q 959 1119 1226 758 
Q 1494 397 1959 397 
Q 2419 397 2687 759 
Q 2956 1122 2956 1747 
Q 2956 2369 2687 2733 
Q 2419 3097 1959 3097 
z
M 1959 3584 
Q 2709 3584 3137 3096 
Q 3566 2609 3566 1747 
Q 3566 888 3137 398 
Q 2709 -91 1959 -91 
Q 1206 -91 779 398 
Q 353 888 353 1747 
Q 353 2609 779 3096 
Q 1206 3584 1959 3584 
z
" transform="scale(0.015625)"/>
       <path id="DejaVuSans-72" d="M 2631 2963 
Q 2534 3019 2420 3045 
Q 2306 3072 2169 3072 
Q 1681 3072 1420 2755 
Q 1159 2438 1159 1844 
L 1159 0 
L 581 0 
L 581 3500 
L 1159 3500 
L 1159 2956 
Q 1341 3275 1631 3429 
Q 1922 3584 2338 3584 
Q 2397 3584 2469 3576 
Q 2541 3569 2628 3553 
L 2631 2963 
z
" transform="scale(0.015625)"/>
       <path id="DejaVuSans-6d" d="M 3328 2828 
Q 3544 3216 3844 3400 
Q 4144 3584 4550 3584 
Q 5097 3584 5394 3201 
Q 5691 2819 5691 2113 
L 5691 0 
L 5113 0 
L 5113 2094 
Q 5113 2597 4934 2840 
Q 4756 3084 4391 3084 
Q 3944 3084 3684 2787 
Q 3425 2491 3425 1978 
L 3425 0 
L 2847 0 
L 2847 2094 
Q 2847 2600 2669 2842 
Q 2491 3084 2119 3084 
Q 1678 3084 1418 2786 
Q 1159 2488 1159 1978 
L 1159 0 
L 581 0 
L 581 3500 
L 1159 3500 
L 1159 2956 
Q 1356 3278 1631 3431 
Q 1906 3584 2284 3584 
Q 2666 3584 2933 3390 
Q 3200 3197 3328 2828 
z
" transform="scale(0.015625)"/>
       <path id="DejaVuSans-61" d="M 2194 1759 
Q 1497 1759 1228 1600 
Q 959 1441 959 1056 
Q 959 750 1161 570 
Q 1363 391 1709 391 
Q 2188 391 2477 730 
Q 2766 1069 2766 1631 
L 2766 1759 
L 2194 1759 
z
M 3341 1997 
L 3341 0 
L 2766 0 
L 2766 531 
Q 2569 213 2275 61 
Q 1981 -91 1556 -91 
Q 1019 -91 701 211 
Q 384 513 384 1019 
Q 384 1609 779 1909 
Q 1175 2209 1959 2209 
L 2766 2209 
L 2766 2266 
Q 2766 2663 2505 2880 
Q 2244 3097 1772 3097 
Q 1472 3097 1187 3025 
Q 903 2953 641 2809 
L 641 3341 
Q 956 3463 1253 3523 
Q 1550 3584 1831 3584 
Q 2591 3584 2966 3190 
Q 3341 2797 3341 1997 
z
" transform="scale(0.015625)"/>
       <path id="DejaVuSans-6c" d="M 603 4863 
L 1178 4863 
L 1178 0 
L 603 0 
L 603 4863 
z
" transform="scale(0.015625)"/>
       <path id="DejaVuSans-69" d="M 603 3500 
L 1178 3500 
L 1178 0 
L 603 0 
L 603 3500 
z
M 603 4863 
L 1178 4863 
L 1178 4134 
L 603 4134 
L 603 4863 
z
" transform="scale(0.015625)"/>
       <path id="DejaVuSans-65" d="M 3597 1894 
L 3597 1613 
L 953 1613 
Q 991 1019 1311 708 
Q 1631 397 2203 397 
Q 2534 397 2845 478 
Q 3156 559 3463 722 
L 3463 178 
Q 3153 47 2828 -22 
Q 2503 -91 2169 -91 
Q 1331 -91 842 396 
Q 353 884 353 1716 
Q 353 2575 817 3079 
Q 1281 3584 2069 3584 
Q 2775 3584 3186 3129 
Q 3597 2675 3597 1894 
z
M 3022 2063 
Q 3016 2534 2758 2815 
Q 2500 3097 2075 3097 
Q 1594 3097 1305 2825 
Q 1016 2553 972 2059 
L 3022 2063 
z
" transform="scale(0.015625)"/>
       <path id="DejaVuSans-64" d="M 2906 2969 
L 2906 4863 
L 3481 4863 
L 3481 0 
L 2906 0 
L 2906 525 
Q 2725 213 2448 61 
Q 2172 -91 1784 -91 
Q 1150 -91 751 415 
Q 353 922 353 1747 
Q 353 2572 751 3078 
Q 1150 3584 1784 3584 
Q 2172 3584 2448 3432 
Q 2725 3281 2906 2969 
z
M 947 1747 
Q 947 1113 1208 752 
Q 1469 391 1925 391 
Q 2381 391 2643 752 
Q 2906 1113 2906 1747 
Q 2906 2381 2643 2742 
Q 2381 3103 1925 3103 
Q 1469 3103 1208 2742 
Q 947 2381 947 1747 
z
" transform="scale(0.015625)"/>
       <path id="DejaVuSans-20" transform="scale(0.015625)"/>
       <path id="DejaVuSans-43" d="M 4122 4306 
L 4122 3641 
Q 3803 3938 3442 4084 
Q 3081 4231 2675 4231 
Q 1875 4231 1450 3742 
Q 1025 3253 1025 2328 
Q 1025 1406 1450 917 
Q 1875 428 2675 428 
Q 3081 428 3442 575 
Q 3803 722 4122 1019 
L 4122 359 
Q 3791 134 3420 21 
Q 3050 -91 2638 -91 
Q 1578 -91 968 557 
Q 359 1206 359 2328 
Q 359 3453 968 4101 
Q 1578 4750 2638 4750 
Q 3056 4750 3426 4639 
Q 3797 4528 4122 4306 
z
" transform="scale(0.015625)"/>
       <path id="DejaVuSans-75" d="M 544 1381 
L 544 3500 
L 1119 3500 
L 1119 1403 
Q 1119 906 1312 657 
Q 1506 409 1894 409 
Q 2359 409 2629 706 
Q 2900 1003 2900 1516 
L 2900 3500 
L 3475 3500 
L 3475 0 
L 2900 0 
L 2900 538 
Q 2691 219 2414 64 
Q 2138 -91 1772 -91 
Q 1169 -91 856 284 
Q 544 659 544 1381 
z
M 1991 3584 
L 1991 3584 
z
" transform="scale(0.015625)"/>
       <path id="DejaVuSans-6e" d="M 3513 2113 
L 3513 0 
L 2938 0 
L 2938 2094 
Q 2938 2591 2744 2837 
Q 2550 3084 2163 3084 
Q 1697 3084 1428 2787 
Q 1159 2491 1159 1978 
L 1159 0 
L 581 0 
L 581 3500 
L 1159 3500 
L 1159 2956 
Q 1366 3272 1645 3428 
Q 1925 3584 2291 3584 
Q 2894 3584 3203 3211 
Q 3513 2838 3513 2113 
z
" transform="scale(0.015625)"/>
       <path id="DejaVuSans-74" d="M 1172 4494 
L 1172 3500 
L 2356 3500 
L 2356 3053 
L 1172 3053 
L 1172 1153 
Q 1172 725 1289 603 
Q 1406 481 1766 481 
L 2356 481 
L 2356 0 
L 1766 0 
Q 1100 0 847 248 
Q 594 497 594 1153 
L 594 3053 
L 172 3053 
L 172 3500 
L 594 3500 
L 594 4494 
L 1172 4494 
z
" transform="scale(0.015625)"/>
       <path id="DejaVuSans-73" d="M 2834 3397 
L 2834 2853 
Q 2591 2978 2328 3040 
Q 2066 3103 1784 3103 
Q 1356 3103 1142 2972 
Q 928 2841 928 2578 
Q 928 2378 1081 2264 
Q 1234 2150 1697 2047 
L 1894 2003 
Q 2506 1872 2764 1633 
Q 3022 1394 3022 966 
Q 3022 478 2636 193 
Q 2250 -91 1575 -91 
Q 1294 -91 989 -36 
Q 684 19 347 128 
L 347 722 
Q 666 556 975 473 
Q 1284 391 1588 391 
Q 1994 391 2212 530 
Q 2431 669 2431 922 
Q 2431 1156 2273 1281 
Q 2116 1406 1581 1522 
L 1381 1569 
Q 847 1681 609 1914 
Q 372 2147 372 2553 
Q 372 3047 722 3315 
Q 1072 3584 1716 3584 
Q 2034 3584 2315 3537 
Q 2597 3491 2834 3397 
z
" transform="scale(0.015625)"/>
       <path id="DejaVuSans-2f" d="M 1625 4666 
L 2156 4666 
L 531 -594 
L 0 -594 
L 1625 4666 
z
" transform="scale(0.015625)"/>
      </defs>
      <use xlink:href="#DejaVuSans-5b"/>
      <use xlink:href="#DejaVuSans-4e" x="39.013672"/>
      <use xlink:href="#DejaVuSans-6f" x="113.818359"/>
      <use xlink:href="#DejaVuSans-72" x="175"/>
      <use xlink:href="#DejaVuSans-6d" x="214.363281"/>
      <use xlink:href="#DejaVuSans-61" x="311.775391"/>
      <use xlink:href="#DejaVuSans-6c" x="373.054688"/>
      <use xlink:href="#DejaVuSans-69" x="400.837891"/>
      <use xlink:href="#DejaVuSans-7a" x="428.621094"/>
      <use xlink:href="#DejaVuSans-65" x="481.111328"/>
      <use xlink:href="#DejaVuSans-64" x="542.634766"/>
      <use xlink:href="#DejaVuSans-20" x="606.111328"/>
      <use xlink:href="#DejaVuSans-43" x="637.898438"/>
      <use xlink:href="#DejaVuSans-6f" x="707.722656"/>
      <use xlink:href="#DejaVuSans-75" x="768.904297"/>
      <use xlink:href="#DejaVuSans-6e" x="832.283203"/>
      <use xlink:href="#DejaVuSans-74" x="895.662109"/>
      <use xlink:href="#DejaVuSans-73" x="934.871094"/>
      <use xlink:href="#DejaVuSans-20" x="986.970703"/>
      <use xlink:href="#DejaVuSans-2f" x="1018.757812"/>
      <use xlink:href="#DejaVuSans-20" x="1052.449219"/>
      <use xlink:href="#DejaVuSans-73" x="1084.236328"/>
      <use xlink:href="#DejaVuSans-5d" x="1136.335938"/>
     </g>
    </g>
   </g>
   <g id="line2d_12">
    <path d="M 160.542149 384.48 
L 160.542149 51.84 
" clip-path="url(#pee13ea0928)" style="fill: none; stroke-dasharray: 1.5,2.475; stroke-dashoffset: 0; stroke: #000000; stroke-width: 1.5"/>
   </g>
   <g id="line2d_13">
    <path d="M 232.482645 384.48 
L 232.482645 51.84 
" clip-path="url(#pee13ea0928)" style="fill: none; stroke-dasharray: 1.5,2.475; stroke-dashoffset: 0; stroke: #000000; stroke-width: 1.5"/>
   </g>
   <g id="line2d_14">
    <path d="M 247.239669 384.48 
L 247.239669 51.84 
" clip-path="url(#pee13ea0928)" style="fill: none; stroke-dasharray: 1.5,2.475; stroke-dashoffset: 0; stroke: #000000; stroke-width: 1.5"/>
   </g>
   <g id="line2d_15">
    <path d="M 297.044628 384.48 
L 297.044628 51.84 
" clip-path="url(#pee13ea0928)" style="fill: none; stroke-dasharray: 1.5,2.475; stroke-dashoffset: 0; stroke: #000000; stroke-width: 1.5"/>
   </g>
   <g id="line2d_16">
    <path d="M 317.335537 384.48 
L 317.335537 51.84 
" clip-path="url(#pee13ea0928)" style="fill: none; stroke-dasharray: 1.5,2.475; stroke-dashoffset: 0; stroke: #000000; stroke-width: 1.5"/>
   </g>
   <g id="line2d_17">
    <path d="M 359.761983 384.48 
L 359.761983 51.84 
" clip-path="url(#pee13ea0928)" style="fill: none; stroke-dasharray: 1.5,2.475; stroke-dashoffset: 0; stroke: #000000; stroke-width: 1.5"/>
   </g>
   <g id="line2d_18">
    <path d="M 372.67438 384.48 
L 372.67438 51.84 
" clip-path="url(#pee13ea0928)" style="fill: none; stroke-dasharray: 1.5,2.475; stroke-dashoffset: 0; stroke: #000000; stroke-width: 1.5"/>
   </g>
   <g id="line2d_19">
    <path d="M 431.702479 384.48 
L 431.702479 51.84 
" clip-path="url(#pee13ea0928)" style="fill: none; stroke-dasharray: 1.5,2.475; stroke-dashoffset: 0; stroke: #000000; stroke-width: 1.5"/>
   </g>
   <g id="patch_3">
    <path d="M 72 384.48 
L 72 51.84 
" style="fill: none; stroke: #000000; stroke-width: 0.8; stroke-linejoin: miter; stroke-linecap: square"/>
   </g>
   <g id="patch_4">
    <path d="M 518.4 384.48 
L 518.4 51.84 
" style="fill: none; stroke: #000000; stroke-width: 0.8; stroke-linejoin: miter; stroke-linecap: square"/>
   </g>
   <g id="patch_5">
    <path d="M 72 384.48 
L 518.4 384.48 
" style="fill: none; stroke: #000000; stroke-width: 0.8; stroke-linejoin: miter; stroke-linecap: square"/>
   </g>
   <g id="patch_6">
    <path d="M 72 51.84 
L 518.4 51.84 
" style="fill: none; stroke: #000000; stroke-width: 0.8; stroke-linejoin: miter; stroke-linecap: square"/>
   </g>
  </g>
 </g>
 <defs>
  <clipPath id="pee13ea0928">
   <rect x="72" y="51.84" width="446.4" height="332.64"/>
  </clipPath>
 </defs>
</svg>
