<?xml version="1.0" encoding="utf-8" standalone="no"?>
<!DOCTYPE svg PUBLIC "-//W3C//DTD SVG 1.1//EN"
  "http://www.w3.org/Graphics/SVG/1.1/DTD/svg11.dtd">
<svg xmlns:xlink="http://www.w3.org/1999/xlink" width="576pt" height="432pt" viewBox="0 0 576 432" xmlns="http://www.w3.org/2000/svg" version="1.1">
 <metadata>
  <rdf:RDF xmlns:dc="http://purl.org/dc/elements/1.1/" xmlns:cc="http://creativecommons.org/ns#" xmlns:rdf="http://www.w3.org/1999/02/22-rdf-syntax-ns#">
   <cc:Work>
    <dc:type rdf:resource="http://purl.org/dc/dcmitype/StillImage"/>
    <dc:date>2022-10-07T21:33:17.499444</dc:date>
    <dc:format>image/svg+xml</dc:format>
    <dc:creator>
     <cc:Agent>
      <dc:title>Matplotlib v3.5.3, https://matplotlib.org/</dc:title>
     </cc:Agent>
    </dc:creator>
   </cc:Work>
  </rdf:RDF>
 </metadata>
 <defs>
  <style type="text/css">*{stroke-linejoin: round; stroke-linecap: butt}</style>
 </defs>
 <g id="figure_1">
  <g id="patch_1">
   <path d="M 0 432 
L 576 432 
L 576 0 
L 0 0 
z
" style="fill: #ffffff"/>
  </g>
  <g id="axes_1">
   <g id="patch_2">
    <path d="M 72 384.48 
L 518.4 384.48 
L 518.4 51.84 
L 72 51.84 
z
" style="fill: #ffffff"/>
   </g>
   <g id="PathCollection_1">
    <defs>
     <path id="md5064a788b" d="M 0 1 
C 0.265203 1 0.51958 0.894634 0.707107 0.707107 
C 0.894634 0.51958 1 0.265203 1 0 
C 1 -0.265203 0.894634 -0.51958 0.707107 -0.707107 
C 0.51958 -0.894634 0.265203 -1 0 -1 
C -0.265203 -1 -0.51958 -0.894634 -0.707107 -0.707107 
C -0.894634 -0.51958 -1 -0.265203 -1 0 
C -1 0.265203 -0.894634 0.51958 -0.707107 0.707107 
C -0.51958 0.894634 -0.265203 1 0 1 
z
" style="stroke: #1f77b4"/>
    </defs>
    <g clip-path="url(#pd7e87de2b0)">
     <use xlink:href="#md5064a788b" x="92.290909" y="80.385891" style="fill: #1f77b4; stroke: #1f77b4"/>
     <use xlink:href="#md5064a788b" x="94.135537" y="81.365295" style="fill: #1f77b4; stroke: #1f77b4"/>
     <use xlink:href="#md5064a788b" x="95.980165" y="83.06951" style="fill: #1f77b4; stroke: #1f77b4"/>
     <use xlink:href="#md5064a788b" x="97.824793" y="76.566994" style="fill: #1f77b4; stroke: #1f77b4"/>
     <use xlink:href="#md5064a788b" x="99.669421" y="80.01699" style="fill: #1f77b4; stroke: #1f77b4"/>
     <use xlink:href="#md5064a788b" x="101.51405" y="74.080814" style="fill: #1f77b4; stroke: #1f77b4"/>
     <use xlink:href="#md5064a788b" x="103.358678" y="70.482738" style="fill: #1f77b4; stroke: #1f77b4"/>
     <use xlink:href="#md5064a788b" x="105.203306" y="76.138342" style="fill: #1f77b4; stroke: #1f77b4"/>
     <use xlink:href="#md5064a788b" x="107.047934" y="76.47347" style="fill: #1f77b4; stroke: #1f77b4"/>
     <use xlink:href="#md5064a788b" x="108.892562" y="74.174338" style="fill: #1f77b4; stroke: #1f77b4"/>
     <use xlink:href="#md5064a788b" x="110.73719" y="77.003439" style="fill: #1f77b4; stroke: #1f77b4"/>
     <use xlink:href="#md5064a788b" x="112.581818" y="77.868536" style="fill: #1f77b4; stroke: #1f77b4"/>
     <use xlink:href="#md5064a788b" x="114.426446" y="76.392935" style="fill: #1f77b4; stroke: #1f77b4"/>
     <use xlink:href="#md5064a788b" x="116.271074" y="78.56477" style="fill: #1f77b4; stroke: #1f77b4"/>
     <use xlink:href="#md5064a788b" x="118.115702" y="75.779833" style="fill: #1f77b4; stroke: #1f77b4"/>
     <use xlink:href="#md5064a788b" x="119.960331" y="75.590187" style="fill: #1f77b4; stroke: #1f77b4"/>
     <use xlink:href="#md5064a788b" x="121.804959" y="81.560136" style="fill: #1f77b4; stroke: #1f77b4"/>
     <use xlink:href="#md5064a788b" x="123.649587" y="79.349333" style="fill: #1f77b4; stroke: #1f77b4"/>
     <use xlink:href="#md5064a788b" x="125.494215" y="72.259694" style="fill: #1f77b4; stroke: #1f77b4"/>
     <use xlink:href="#md5064a788b" x="127.338843" y="66.96" style="fill: #1f77b4; stroke: #1f77b4"/>
     <use xlink:href="#md5064a788b" x="129.183471" y="81.113299" style="fill: #1f77b4; stroke: #1f77b4"/>
     <use xlink:href="#md5064a788b" x="131.028099" y="76.138342" style="fill: #1f77b4; stroke: #1f77b4"/>
     <use xlink:href="#md5064a788b" x="132.872727" y="73.761273" style="fill: #1f77b4; stroke: #1f77b4"/>
     <use xlink:href="#md5064a788b" x="134.717355" y="71.594634" style="fill: #1f77b4; stroke: #1f77b4"/>
     <use xlink:href="#md5064a788b" x="136.561983" y="76.818989" style="fill: #1f77b4; stroke: #1f77b4"/>
     <use xlink:href="#md5064a788b" x="138.406612" y="75.836987" style="fill: #1f77b4; stroke: #1f77b4"/>
     <use xlink:href="#md5064a788b" x="140.25124" y="76.320194" style="fill: #1f77b4; stroke: #1f77b4"/>
     <use xlink:href="#md5064a788b" x="142.095868" y="82.386265" style="fill: #1f77b4; stroke: #1f77b4"/>
     <use xlink:href="#md5064a788b" x="143.940496" y="75.460293" style="fill: #1f77b4; stroke: #1f77b4"/>
     <use xlink:href="#md5064a788b" x="145.785124" y="78.686871" style="fill: #1f77b4; stroke: #1f77b4"/>
     <use xlink:href="#md5064a788b" x="147.629752" y="71.625809" style="fill: #1f77b4; stroke: #1f77b4"/>
     <use xlink:href="#md5064a788b" x="149.47438" y="80.845717" style="fill: #1f77b4; stroke: #1f77b4"/>
     <use xlink:href="#md5064a788b" x="151.319008" y="79.572751" style="fill: #1f77b4; stroke: #1f77b4"/>
     <use xlink:href="#md5064a788b" x="153.163636" y="75.252462" style="fill: #1f77b4; stroke: #1f77b4"/>
     <use xlink:href="#md5064a788b" x="155.008264" y="77.442482" style="fill: #1f77b4; stroke: #1f77b4"/>
     <use xlink:href="#md5064a788b" x="156.852893" y="83.726776" style="fill: #1f77b4; stroke: #1f77b4"/>
     <use xlink:href="#md5064a788b" x="158.697521" y="80.053361" style="fill: #1f77b4; stroke: #1f77b4"/>
     <use xlink:href="#md5064a788b" x="160.542149" y="83.841083" style="fill: #1f77b4; stroke: #1f77b4"/>
     <use xlink:href="#md5064a788b" x="162.386777" y="74.717297" style="fill: #1f77b4; stroke: #1f77b4"/>
     <use xlink:href="#md5064a788b" x="164.231405" y="76.14094" style="fill: #1f77b4; stroke: #1f77b4"/>
     <use xlink:href="#md5064a788b" x="166.076033" y="75.190112" style="fill: #1f77b4; stroke: #1f77b4"/>
     <use xlink:href="#md5064a788b" x="167.920661" y="76.512438" style="fill: #1f77b4; stroke: #1f77b4"/>
     <use xlink:href="#md5064a788b" x="169.765289" y="77.115148" style="fill: #1f77b4; stroke: #1f77b4"/>
     <use xlink:href="#md5064a788b" x="171.609917" y="81.315935" style="fill: #1f77b4; stroke: #1f77b4"/>
     <use xlink:href="#md5064a788b" x="173.454545" y="74.052237" style="fill: #1f77b4; stroke: #1f77b4"/>
     <use xlink:href="#md5064a788b" x="175.299174" y="81.227607" style="fill: #1f77b4; stroke: #1f77b4"/>
     <use xlink:href="#md5064a788b" x="177.143802" y="77.019026" style="fill: #1f77b4; stroke: #1f77b4"/>
     <use xlink:href="#md5064a788b" x="178.98843" y="77.551594" style="fill: #1f77b4; stroke: #1f77b4"/>
     <use xlink:href="#md5064a788b" x="180.833058" y="75.473282" style="fill: #1f77b4; stroke: #1f77b4"/>
     <use xlink:href="#md5064a788b" x="182.677686" y="80.469023" style="fill: #1f77b4; stroke: #1f77b4"/>
     <use xlink:href="#md5064a788b" x="184.522314" y="79.694852" style="fill: #1f77b4; stroke: #1f77b4"/>
     <use xlink:href="#md5064a788b" x="186.366942" y="80.378097" style="fill: #1f77b4; stroke: #1f77b4"/>
     <use xlink:href="#md5064a788b" x="188.21157" y="82.814917" style="fill: #1f77b4; stroke: #1f77b4"/>
     <use xlink:href="#md5064a788b" x="190.056198" y="82.63826" style="fill: #1f77b4; stroke: #1f77b4"/>
     <use xlink:href="#md5064a788b" x="191.900826" y="80.702833" style="fill: #1f77b4; stroke: #1f77b4"/>
     <use xlink:href="#md5064a788b" x="193.745455" y="82.975986" style="fill: #1f77b4; stroke: #1f77b4"/>
     <use xlink:href="#md5064a788b" x="195.590083" y="80.43525" style="fill: #1f77b4; stroke: #1f77b4"/>
     <use xlink:href="#md5064a788b" x="197.434711" y="86.47794" style="fill: #1f77b4; stroke: #1f77b4"/>
     <use xlink:href="#md5064a788b" x="199.279339" y="91.029442" style="fill: #1f77b4; stroke: #1f77b4"/>
     <use xlink:href="#md5064a788b" x="201.123967" y="101.462564" style="fill: #1f77b4; stroke: #1f77b4"/>
     <use xlink:href="#md5064a788b" x="202.968595" y="122.310624" style="fill: #1f77b4; stroke: #1f77b4"/>
     <use xlink:href="#md5064a788b" x="204.813223" y="180.188993" style="fill: #1f77b4; stroke: #1f77b4"/>
     <use xlink:href="#md5064a788b" x="206.657851" y="232.411759" style="fill: #1f77b4; stroke: #1f77b4"/>
     <use xlink:href="#md5064a788b" x="208.502479" y="239.036376" style="fill: #1f77b4; stroke: #1f77b4"/>
     <use xlink:href="#md5064a788b" x="210.347107" y="208.651466" style="fill: #1f77b4; stroke: #1f77b4"/>
     <use xlink:href="#md5064a788b" x="212.191736" y="137.586211" style="fill: #1f77b4; stroke: #1f77b4"/>
     <use xlink:href="#md5064a788b" x="214.036364" y="115.673017" style="fill: #1f77b4; stroke: #1f77b4"/>
     <use xlink:href="#md5064a788b" x="215.880992" y="102.561471" style="fill: #1f77b4; stroke: #1f77b4"/>
     <use xlink:href="#md5064a788b" x="217.72562" y="95.601727" style="fill: #1f77b4; stroke: #1f77b4"/>
     <use xlink:href="#md5064a788b" x="219.570248" y="91.49966" style="fill: #1f77b4; stroke: #1f77b4"/>
     <use xlink:href="#md5064a788b" x="221.414876" y="88.639384" style="fill: #1f77b4; stroke: #1f77b4"/>
     <use xlink:href="#md5064a788b" x="223.259504" y="87.79507" style="fill: #1f77b4; stroke: #1f77b4"/>
     <use xlink:href="#md5064a788b" x="225.104132" y="89.291454" style="fill: #1f77b4; stroke: #1f77b4"/>
     <use xlink:href="#md5064a788b" x="226.94876" y="82.168042" style="fill: #1f77b4; stroke: #1f77b4"/>
     <use xlink:href="#md5064a788b" x="228.793388" y="85.07508" style="fill: #1f77b4; stroke: #1f77b4"/>
     <use xlink:href="#md5064a788b" x="230.638017" y="81.4822" style="fill: #1f77b4; stroke: #1f77b4"/>
     <use xlink:href="#md5064a788b" x="232.482645" y="75.392748" style="fill: #1f77b4; stroke: #1f77b4"/>
     <use xlink:href="#md5064a788b" x="234.327273" y="87.046878" style="fill: #1f77b4; stroke: #1f77b4"/>
     <use xlink:href="#md5064a788b" x="236.171901" y="77.032016" style="fill: #1f77b4; stroke: #1f77b4"/>
     <use xlink:href="#md5064a788b" x="238.016529" y="76.935894" style="fill: #1f77b4; stroke: #1f77b4"/>
     <use xlink:href="#md5064a788b" x="239.861157" y="78.556977" style="fill: #1f77b4; stroke: #1f77b4"/>
     <use xlink:href="#md5064a788b" x="241.705785" y="77.382731" style="fill: #1f77b4; stroke: #1f77b4"/>
     <use xlink:href="#md5064a788b" x="243.550413" y="78.886909" style="fill: #1f77b4; stroke: #1f77b4"/>
     <use xlink:href="#md5064a788b" x="245.395041" y="83.29033" style="fill: #1f77b4; stroke: #1f77b4"/>
     <use xlink:href="#md5064a788b" x="247.239669" y="78.741427" style="fill: #1f77b4; stroke: #1f77b4"/>
     <use xlink:href="#md5064a788b" x="249.084298" y="86.688369" style="fill: #1f77b4; stroke: #1f77b4"/>
     <use xlink:href="#md5064a788b" x="250.928926" y="94.648301" style="fill: #1f77b4; stroke: #1f77b4"/>
     <use xlink:href="#md5064a788b" x="252.773554" y="108.783416" style="fill: #1f77b4; stroke: #1f77b4"/>
     <use xlink:href="#md5064a788b" x="254.618182" y="158.080958" style="fill: #1f77b4; stroke: #1f77b4"/>
     <use xlink:href="#md5064a788b" x="256.46281" y="240.966607" style="fill: #1f77b4; stroke: #1f77b4"/>
     <use xlink:href="#md5064a788b" x="258.307438" y="265.877765" style="fill: #1f77b4; stroke: #1f77b4"/>
     <use xlink:href="#md5064a788b" x="260.152066" y="255.494003" style="fill: #1f77b4; stroke: #1f77b4"/>
     <use xlink:href="#md5064a788b" x="261.996694" y="162.700004" style="fill: #1f77b4; stroke: #1f77b4"/>
     <use xlink:href="#md5064a788b" x="263.841322" y="135.411778" style="fill: #1f77b4; stroke: #1f77b4"/>
     <use xlink:href="#md5064a788b" x="265.68595" y="127.340137" style="fill: #1f77b4; stroke: #1f77b4"/>
     <use xlink:href="#md5064a788b" x="267.530579" y="130.395254" style="fill: #1f77b4; stroke: #1f77b4"/>
     <use xlink:href="#md5064a788b" x="269.375207" y="160.135888" style="fill: #1f77b4; stroke: #1f77b4"/>
     <use xlink:href="#md5064a788b" x="271.219835" y="222.706045" style="fill: #1f77b4; stroke: #1f77b4"/>
     <use xlink:href="#md5064a788b" x="273.064463" y="269.065375" style="fill: #1f77b4; stroke: #1f77b4"/>
     <use xlink:href="#md5064a788b" x="274.909091" y="298.408532" style="fill: #1f77b4; stroke: #1f77b4"/>
     <use xlink:href="#md5064a788b" x="276.753719" y="348.391917" style="fill: #1f77b4; stroke: #1f77b4"/>
     <use xlink:href="#md5064a788b" x="278.598347" y="357.365025" style="fill: #1f77b4; stroke: #1f77b4"/>
     <use xlink:href="#md5064a788b" x="280.442975" y="333.282594" style="fill: #1f77b4; stroke: #1f77b4"/>
     <use xlink:href="#md5064a788b" x="282.287603" y="255.857707" style="fill: #1f77b4; stroke: #1f77b4"/>
     <use xlink:href="#md5064a788b" x="284.132231" y="170.714492" style="fill: #1f77b4; stroke: #1f77b4"/>
     <use xlink:href="#md5064a788b" x="285.97686" y="134.668782" style="fill: #1f77b4; stroke: #1f77b4"/>
     <use xlink:href="#md5064a788b" x="287.821488" y="111.139701" style="fill: #1f77b4; stroke: #1f77b4"/>
     <use xlink:href="#md5064a788b" x="289.666116" y="102.044491" style="fill: #1f77b4; stroke: #1f77b4"/>
     <use xlink:href="#md5064a788b" x="291.510744" y="90.242281" style="fill: #1f77b4; stroke: #1f77b4"/>
     <use xlink:href="#md5064a788b" x="293.355372" y="87.649588" style="fill: #1f77b4; stroke: #1f77b4"/>
     <use xlink:href="#md5064a788b" x="295.2" y="89.920143" style="fill: #1f77b4; stroke: #1f77b4"/>
     <use xlink:href="#md5064a788b" x="297.044628" y="90.535843" style="fill: #1f77b4; stroke: #1f77b4"/>
     <use xlink:href="#md5064a788b" x="298.889256" y="88.218526" style="fill: #1f77b4; stroke: #1f77b4"/>
     <use xlink:href="#md5064a788b" x="300.733884" y="79.453248" style="fill: #1f77b4; stroke: #1f77b4"/>
     <use xlink:href="#md5064a788b" x="302.578512" y="83.129261" style="fill: #1f77b4; stroke: #1f77b4"/>
     <use xlink:href="#md5064a788b" x="304.42314" y="82.856483" style="fill: #1f77b4; stroke: #1f77b4"/>
     <use xlink:href="#md5064a788b" x="306.267769" y="89.242094" style="fill: #1f77b4; stroke: #1f77b4"/>
     <use xlink:href="#md5064a788b" x="308.112397" y="91.845179" style="fill: #1f77b4; stroke: #1f77b4"/>
     <use xlink:href="#md5064a788b" x="309.957025" y="95.113323" style="fill: #1f77b4; stroke: #1f77b4"/>
     <use xlink:href="#md5064a788b" x="311.801653" y="108.159922" style="fill: #1f77b4; stroke: #1f77b4"/>
     <use xlink:href="#md5064a788b" x="313.646281" y="148.616848" style="fill: #1f77b4; stroke: #1f77b4"/>
     <use xlink:href="#md5064a788b" x="315.490909" y="176.411663" style="fill: #1f77b4; stroke: #1f77b4"/>
     <use xlink:href="#md5064a788b" x="317.335537" y="267.740452" style="fill: #1f77b4; stroke: #1f77b4"/>
     <use xlink:href="#md5064a788b" x="319.180165" y="340.624228" style="fill: #1f77b4; stroke: #1f77b4"/>
     <use xlink:href="#md5064a788b" x="321.024793" y="350.103925" style="fill: #1f77b4; stroke: #1f77b4"/>
     <use xlink:href="#md5064a788b" x="322.869421" y="337.493772" style="fill: #1f77b4; stroke: #1f77b4"/>
     <use xlink:href="#md5064a788b" x="324.71405" y="275.744548" style="fill: #1f77b4; stroke: #1f77b4"/>
     <use xlink:href="#md5064a788b" x="326.558678" y="212.961364" style="fill: #1f77b4; stroke: #1f77b4"/>
     <use xlink:href="#md5064a788b" x="328.403306" y="169.987083" style="fill: #1f77b4; stroke: #1f77b4"/>
     <use xlink:href="#md5064a788b" x="330.247934" y="140.462074" style="fill: #1f77b4; stroke: #1f77b4"/>
     <use xlink:href="#md5064a788b" x="332.092562" y="122.767852" style="fill: #1f77b4; stroke: #1f77b4"/>
     <use xlink:href="#md5064a788b" x="333.93719" y="121.463712" style="fill: #1f77b4; stroke: #1f77b4"/>
     <use xlink:href="#md5064a788b" x="335.781818" y="137.542047" style="fill: #1f77b4; stroke: #1f77b4"/>
     <use xlink:href="#md5064a788b" x="337.626446" y="241.769355" style="fill: #1f77b4; stroke: #1f77b4"/>
     <use xlink:href="#md5064a788b" x="339.471074" y="255.400479" style="fill: #1f77b4; stroke: #1f77b4"/>
     <use xlink:href="#md5064a788b" x="341.315702" y="235.599369" style="fill: #1f77b4; stroke: #1f77b4"/>
     <use xlink:href="#md5064a788b" x="343.160331" y="163.300117" style="fill: #1f77b4; stroke: #1f77b4"/>
     <use xlink:href="#md5064a788b" x="345.004959" y="122.923725" style="fill: #1f77b4; stroke: #1f77b4"/>
     <use xlink:href="#md5064a788b" x="346.849587" y="99.623259" style="fill: #1f77b4; stroke: #1f77b4"/>
     <use xlink:href="#md5064a788b" x="348.694215" y="94.832751" style="fill: #1f77b4; stroke: #1f77b4"/>
     <use xlink:href="#md5064a788b" x="350.538843" y="89.132983" style="fill: #1f77b4; stroke: #1f77b4"/>
     <use xlink:href="#md5064a788b" x="352.383471" y="81.4822" style="fill: #1f77b4; stroke: #1f77b4"/>
     <use xlink:href="#md5064a788b" x="354.228099" y="85.714161" style="fill: #1f77b4; stroke: #1f77b4"/>
     <use xlink:href="#md5064a788b" x="356.072727" y="79.136306" style="fill: #1f77b4; stroke: #1f77b4"/>
     <use xlink:href="#md5064a788b" x="357.917355" y="81.279564" style="fill: #1f77b4; stroke: #1f77b4"/>
     <use xlink:href="#md5064a788b" x="359.761983" y="83.5735" style="fill: #1f77b4; stroke: #1f77b4"/>
     <use xlink:href="#md5064a788b" x="361.606612" y="83.651437" style="fill: #1f77b4; stroke: #1f77b4"/>
     <use xlink:href="#md5064a788b" x="363.45124" y="83.91902" style="fill: #1f77b4; stroke: #1f77b4"/>
     <use xlink:href="#md5064a788b" x="365.295868" y="88.660167" style="fill: #1f77b4; stroke: #1f77b4"/>
     <use xlink:href="#md5064a788b" x="367.140496" y="84.360661" style="fill: #1f77b4; stroke: #1f77b4"/>
     <use xlink:href="#md5064a788b" x="368.985124" y="83.113674" style="fill: #1f77b4; stroke: #1f77b4"/>
     <use xlink:href="#md5064a788b" x="370.829752" y="87.348233" style="fill: #1f77b4; stroke: #1f77b4"/>
     <use xlink:href="#md5064a788b" x="372.67438" y="98.617876" style="fill: #1f77b4; stroke: #1f77b4"/>
     <use xlink:href="#md5064a788b" x="374.519008" y="106.133569" style="fill: #1f77b4; stroke: #1f77b4"/>
     <use xlink:href="#md5064a788b" x="376.363636" y="125.851546" style="fill: #1f77b4; stroke: #1f77b4"/>
     <use xlink:href="#md5064a788b" x="378.208264" y="144.818734" style="fill: #1f77b4; stroke: #1f77b4"/>
     <use xlink:href="#md5064a788b" x="380.052893" y="211.018143" style="fill: #1f77b4; stroke: #1f77b4"/>
     <use xlink:href="#md5064a788b" x="381.897521" y="259.549308" style="fill: #1f77b4; stroke: #1f77b4"/>
     <use xlink:href="#md5064a788b" x="383.742149" y="256.120094" style="fill: #1f77b4; stroke: #1f77b4"/>
     <use xlink:href="#md5064a788b" x="385.586777" y="214.933161" style="fill: #1f77b4; stroke: #1f77b4"/>
     <use xlink:href="#md5064a788b" x="387.431405" y="138.097995" style="fill: #1f77b4; stroke: #1f77b4"/>
     <use xlink:href="#md5064a788b" x="389.276033" y="111.228029" style="fill: #1f77b4; stroke: #1f77b4"/>
     <use xlink:href="#md5064a788b" x="391.120661" y="95.492615" style="fill: #1f77b4; stroke: #1f77b4"/>
     <use xlink:href="#md5064a788b" x="392.965289" y="85.054297" style="fill: #1f77b4; stroke: #1f77b4"/>
     <use xlink:href="#md5064a788b" x="394.809917" y="83.15524" style="fill: #1f77b4; stroke: #1f77b4"/>
     <use xlink:href="#md5064a788b" x="396.654545" y="86.1584" style="fill: #1f77b4; stroke: #1f77b4"/>
     <use xlink:href="#md5064a788b" x="398.499174" y="88.561447" style="fill: #1f77b4; stroke: #1f77b4"/>
     <use xlink:href="#md5064a788b" x="400.343802" y="82.329112" style="fill: #1f77b4; stroke: #1f77b4"/>
     <use xlink:href="#md5064a788b" x="402.18843" y="84.142438" style="fill: #1f77b4; stroke: #1f77b4"/>
     <use xlink:href="#md5064a788b" x="404.033058" y="79.453248" style="fill: #1f77b4; stroke: #1f77b4"/>
     <use xlink:href="#md5064a788b" x="405.877686" y="81.718608" style="fill: #1f77b4; stroke: #1f77b4"/>
     <use xlink:href="#md5064a788b" x="407.722314" y="81.045754" style="fill: #1f77b4; stroke: #1f77b4"/>
     <use xlink:href="#md5064a788b" x="409.566942" y="77.226857" style="fill: #1f77b4; stroke: #1f77b4"/>
     <use xlink:href="#md5064a788b" x="411.41157" y="77.730848" style="fill: #1f77b4; stroke: #1f77b4"/>
     <use xlink:href="#md5064a788b" x="413.256198" y="82.427831" style="fill: #1f77b4; stroke: #1f77b4"/>
     <use xlink:href="#md5064a788b" x="415.100826" y="84.700984" style="fill: #1f77b4; stroke: #1f77b4"/>
     <use xlink:href="#md5064a788b" x="416.945455" y="77.772414" style="fill: #1f77b4; stroke: #1f77b4"/>
     <use xlink:href="#md5064a788b" x="418.790083" y="79.614317" style="fill: #1f77b4; stroke: #1f77b4"/>
     <use xlink:href="#md5064a788b" x="420.634711" y="83.843681" style="fill: #1f77b4; stroke: #1f77b4"/>
     <use xlink:href="#md5064a788b" x="422.479339" y="77.930885" style="fill: #1f77b4; stroke: #1f77b4"/>
     <use xlink:href="#md5064a788b" x="424.323967" y="81.41985" style="fill: #1f77b4; stroke: #1f77b4"/>
     <use xlink:href="#md5064a788b" x="426.168595" y="78.710252" style="fill: #1f77b4; stroke: #1f77b4"/>
     <use xlink:href="#md5064a788b" x="428.013223" y="78.440072" style="fill: #1f77b4; stroke: #1f77b4"/>
     <use xlink:href="#md5064a788b" x="429.857851" y="74.286047" style="fill: #1f77b4; stroke: #1f77b4"/>
     <use xlink:href="#md5064a788b" x="431.702479" y="83.557913" style="fill: #1f77b4; stroke: #1f77b4"/>
     <use xlink:href="#md5064a788b" x="433.547107" y="81.640671" style="fill: #1f77b4; stroke: #1f77b4"/>
     <use xlink:href="#md5064a788b" x="435.391736" y="79.086946" style="fill: #1f77b4; stroke: #1f77b4"/>
     <use xlink:href="#md5064a788b" x="437.236364" y="81.918645" style="fill: #1f77b4; stroke: #1f77b4"/>
     <use xlink:href="#md5064a788b" x="439.080992" y="81.108104" style="fill: #1f77b4; stroke: #1f77b4"/>
     <use xlink:href="#md5064a788b" x="440.92562" y="81.53156" style="fill: #1f77b4; stroke: #1f77b4"/>
     <use xlink:href="#md5064a788b" x="442.770248" y="76.021437" style="fill: #1f77b4; stroke: #1f77b4"/>
     <use xlink:href="#md5064a788b" x="444.614876" y="79.050576" style="fill: #1f77b4; stroke: #1f77b4"/>
     <use xlink:href="#md5064a788b" x="446.459504" y="80.053361" style="fill: #1f77b4; stroke: #1f77b4"/>
     <use xlink:href="#md5064a788b" x="448.304132" y="79.991011" style="fill: #1f77b4; stroke: #1f77b4"/>
     <use xlink:href="#md5064a788b" x="450.14876" y="79.481825" style="fill: #1f77b4; stroke: #1f77b4"/>
     <use xlink:href="#md5064a788b" x="451.993388" y="78.5284" style="fill: #1f77b4; stroke: #1f77b4"/>
     <use xlink:href="#md5064a788b" x="453.838017" y="77.616541" style="fill: #1f77b4; stroke: #1f77b4"/>
     <use xlink:href="#md5064a788b" x="455.682645" y="80.30016" style="fill: #1f77b4; stroke: #1f77b4"/>
     <use xlink:href="#md5064a788b" x="457.527273" y="80.318345" style="fill: #1f77b4; stroke: #1f77b4"/>
     <use xlink:href="#md5064a788b" x="459.371901" y="82.939615" style="fill: #1f77b4; stroke: #1f77b4"/>
     <use xlink:href="#md5064a788b" x="461.216529" y="76.330586" style="fill: #1f77b4; stroke: #1f77b4"/>
     <use xlink:href="#md5064a788b" x="463.061157" y="78.328362" style="fill: #1f77b4; stroke: #1f77b4"/>
     <use xlink:href="#md5064a788b" x="464.905785" y="80.380695" style="fill: #1f77b4; stroke: #1f77b4"/>
     <use xlink:href="#md5064a788b" x="466.750413" y="83.150044" style="fill: #1f77b4; stroke: #1f77b4"/>
     <use xlink:href="#md5064a788b" x="468.595041" y="78.263415" style="fill: #1f77b4; stroke: #1f77b4"/>
     <use xlink:href="#md5064a788b" x="470.439669" y="73.995083" style="fill: #1f77b4; stroke: #1f77b4"/>
     <use xlink:href="#md5064a788b" x="472.284298" y="77.34636" style="fill: #1f77b4; stroke: #1f77b4"/>
     <use xlink:href="#md5064a788b" x="474.128926" y="74.462704" style="fill: #1f77b4; stroke: #1f77b4"/>
     <use xlink:href="#md5064a788b" x="475.973554" y="75.234277" style="fill: #1f77b4; stroke: #1f77b4"/>
     <use xlink:href="#md5064a788b" x="477.818182" y="76.351369" style="fill: #1f77b4; stroke: #1f77b4"/>
     <use xlink:href="#md5064a788b" x="479.66281" y="78.658294" style="fill: #1f77b4; stroke: #1f77b4"/>
     <use xlink:href="#md5064a788b" x="481.507438" y="71.529687" style="fill: #1f77b4; stroke: #1f77b4"/>
     <use xlink:href="#md5064a788b" x="483.352066" y="78.499823" style="fill: #1f77b4; stroke: #1f77b4"/>
     <use xlink:href="#md5064a788b" x="485.196694" y="79.497412" style="fill: #1f77b4; stroke: #1f77b4"/>
     <use xlink:href="#md5064a788b" x="487.041322" y="75.520044" style="fill: #1f77b4; stroke: #1f77b4"/>
     <use xlink:href="#md5064a788b" x="488.88595" y="76.244855" style="fill: #1f77b4; stroke: #1f77b4"/>
     <use xlink:href="#md5064a788b" x="490.730579" y="78.616728" style="fill: #1f77b4; stroke: #1f77b4"/>
     <use xlink:href="#md5064a788b" x="492.575207" y="77.577572" style="fill: #1f77b4; stroke: #1f77b4"/>
     <use xlink:href="#md5064a788b" x="494.419835" y="79.367518" style="fill: #1f77b4; stroke: #1f77b4"/>
     <use xlink:href="#md5064a788b" x="496.264463" y="75.701897" style="fill: #1f77b4; stroke: #1f77b4"/>
     <use xlink:href="#md5064a788b" x="498.109091" y="81.827719" style="fill: #1f77b4; stroke: #1f77b4"/>
    </g>
   </g>
   <g id="matplotlib.axis_1">
    <g id="xtick_1">
     <g id="line2d_1">
      <defs>
       <path id="me37e0cccb5" d="M 0 0 
L 0 3.5 
" style="stroke: #000000; stroke-width: 0.8"/>
      </defs>
      <g>
       <use xlink:href="#me37e0cccb5" x="138.406612" y="384.48" style="stroke: #000000; stroke-width: 0.8"/>
      </g>
     </g>
     <g id="text_1">
      <!-- 2.7 -->
      <g transform="translate(130.455049 399.078438)scale(0.1 -0.1)">
       <defs>
        <path id="DejaVuSans-32" d="M 1228 531 
L 3431 531 
L 3431 0 
L 469 0 
L 469 531 
Q 828 903 1448 1529 
Q 2069 2156 2228 2338 
Q 2531 2678 2651 2914 
Q 2772 3150 2772 3378 
Q 2772 3750 2511 3984 
Q 2250 4219 1831 4219 
Q 1534 4219 1204 4116 
Q 875 4013 500 3803 
L 500 4441 
Q 881 4594 1212 4672 
Q 1544 4750 1819 4750 
Q 2544 4750 2975 4387 
Q 3406 4025 3406 3419 
Q 3406 3131 3298 2873 
Q 3191 2616 2906 2266 
Q 2828 2175 2409 1742 
Q 1991 1309 1228 531 
z
" transform="scale(0.015625)"/>
        <path id="DejaVuSans-2e" d="M 684 794 
L 1344 794 
L 1344 0 
L 684 0 
L 684 794 
z
" transform="scale(0.015625)"/>
        <path id="DejaVuSans-37" d="M 525 4666 
L 3525 4666 
L 3525 4397 
L 1831 0 
L 1172 0 
L 2766 4134 
L 525 4134 
L 525 4666 
z
" transform="scale(0.015625)"/>
       </defs>
       <use xlink:href="#DejaVuSans-32"/>
       <use xlink:href="#DejaVuSans-2e" x="63.623047"/>
       <use xlink:href="#DejaVuSans-37" x="95.410156"/>
      </g>
     </g>
    </g>
    <g id="xtick_2">
     <g id="line2d_2">
      <g>
       <use xlink:href="#me37e0cccb5" x="230.638017" y="384.48" style="stroke: #000000; stroke-width: 0.8"/>
      </g>
     </g>
     <g id="text_2">
      <!-- 2.8 -->
      <g transform="translate(222.686454 399.078438)scale(0.1 -0.1)">
       <defs>
        <path id="DejaVuSans-38" d="M 2034 2216 
Q 1584 2216 1326 1975 
Q 1069 1734 1069 1313 
Q 1069 891 1326 650 
Q 1584 409 2034 409 
Q 2484 409 2743 651 
Q 3003 894 3003 1313 
Q 3003 1734 2745 1975 
Q 2488 2216 2034 2216 
z
M 1403 2484 
Q 997 2584 770 2862 
Q 544 3141 544 3541 
Q 544 4100 942 4425 
Q 1341 4750 2034 4750 
Q 2731 4750 3128 4425 
Q 3525 4100 3525 3541 
Q 3525 3141 3298 2862 
Q 3072 2584 2669 2484 
Q 3125 2378 3379 2068 
Q 3634 1759 3634 1313 
Q 3634 634 3220 271 
Q 2806 -91 2034 -91 
Q 1263 -91 848 271 
Q 434 634 434 1313 
Q 434 1759 690 2068 
Q 947 2378 1403 2484 
z
M 1172 3481 
Q 1172 3119 1398 2916 
Q 1625 2713 2034 2713 
Q 2441 2713 2670 2916 
Q 2900 3119 2900 3481 
Q 2900 3844 2670 4047 
Q 2441 4250 2034 4250 
Q 1625 4250 1398 4047 
Q 1172 3844 1172 3481 
z
" transform="scale(0.015625)"/>
       </defs>
       <use xlink:href="#DejaVuSans-32"/>
       <use xlink:href="#DejaVuSans-2e" x="63.623047"/>
       <use xlink:href="#DejaVuSans-38" x="95.410156"/>
      </g>
     </g>
    </g>
    <g id="xtick_3">
     <g id="line2d_3">
      <g>
       <use xlink:href="#me37e0cccb5" x="322.869421" y="384.48" style="stroke: #000000; stroke-width: 0.8"/>
      </g>
     </g>
     <g id="text_3">
      <!-- 2.9 -->
      <g transform="translate(314.917859 399.078438)scale(0.1 -0.1)">
       <defs>
        <path id="DejaVuSans-39" d="M 703 97 
L 703 672 
Q 941 559 1184 500 
Q 1428 441 1663 441 
Q 2288 441 2617 861 
Q 2947 1281 2994 2138 
Q 2813 1869 2534 1725 
Q 2256 1581 1919 1581 
Q 1219 1581 811 2004 
Q 403 2428 403 3163 
Q 403 3881 828 4315 
Q 1253 4750 1959 4750 
Q 2769 4750 3195 4129 
Q 3622 3509 3622 2328 
Q 3622 1225 3098 567 
Q 2575 -91 1691 -91 
Q 1453 -91 1209 -44 
Q 966 3 703 97 
z
M 1959 2075 
Q 2384 2075 2632 2365 
Q 2881 2656 2881 3163 
Q 2881 3666 2632 3958 
Q 2384 4250 1959 4250 
Q 1534 4250 1286 3958 
Q 1038 3666 1038 3163 
Q 1038 2656 1286 2365 
Q 1534 2075 1959 2075 
z
" transform="scale(0.015625)"/>
       </defs>
       <use xlink:href="#DejaVuSans-32"/>
       <use xlink:href="#DejaVuSans-2e" x="63.623047"/>
       <use xlink:href="#DejaVuSans-39" x="95.410156"/>
      </g>
     </g>
    </g>
    <g id="xtick_4">
     <g id="line2d_4">
      <g>
       <use xlink:href="#me37e0cccb5" x="415.100826" y="384.48" style="stroke: #000000; stroke-width: 0.8"/>
      </g>
     </g>
     <g id="text_4">
      <!-- 3.0 -->
      <g transform="translate(407.149264 399.078438)scale(0.1 -0.1)">
       <defs>
        <path id="DejaVuSans-33" d="M 2597 2516 
Q 3050 2419 3304 2112 
Q 3559 1806 3559 1356 
Q 3559 666 3084 287 
Q 2609 -91 1734 -91 
Q 1441 -91 1130 -33 
Q 819 25 488 141 
L 488 750 
Q 750 597 1062 519 
Q 1375 441 1716 441 
Q 2309 441 2620 675 
Q 2931 909 2931 1356 
Q 2931 1769 2642 2001 
Q 2353 2234 1838 2234 
L 1294 2234 
L 1294 2753 
L 1863 2753 
Q 2328 2753 2575 2939 
Q 2822 3125 2822 3475 
Q 2822 3834 2567 4026 
Q 2313 4219 1838 4219 
Q 1578 4219 1281 4162 
Q 984 4106 628 3988 
L 628 4550 
Q 988 4650 1302 4700 
Q 1616 4750 1894 4750 
Q 2613 4750 3031 4423 
Q 3450 4097 3450 3541 
Q 3450 3153 3228 2886 
Q 3006 2619 2597 2516 
z
" transform="scale(0.015625)"/>
        <path id="DejaVuSans-30" d="M 2034 4250 
Q 1547 4250 1301 3770 
Q 1056 3291 1056 2328 
Q 1056 1369 1301 889 
Q 1547 409 2034 409 
Q 2525 409 2770 889 
Q 3016 1369 3016 2328 
Q 3016 3291 2770 3770 
Q 2525 4250 2034 4250 
z
M 2034 4750 
Q 2819 4750 3233 4129 
Q 3647 3509 3647 2328 
Q 3647 1150 3233 529 
Q 2819 -91 2034 -91 
Q 1250 -91 836 529 
Q 422 1150 422 2328 
Q 422 3509 836 4129 
Q 1250 4750 2034 4750 
z
" transform="scale(0.015625)"/>
       </defs>
       <use xlink:href="#DejaVuSans-33"/>
       <use xlink:href="#DejaVuSans-2e" x="63.623047"/>
       <use xlink:href="#DejaVuSans-30" x="95.410156"/>
      </g>
     </g>
    </g>
    <g id="xtick_5">
     <g id="line2d_5">
      <g>
       <use xlink:href="#me37e0cccb5" x="507.332231" y="384.48" style="stroke: #000000; stroke-width: 0.8"/>
      </g>
     </g>
     <g id="text_5">
      <!-- 3.1 -->
      <g transform="translate(499.380669 399.078438)scale(0.1 -0.1)">
       <defs>
        <path id="DejaVuSans-31" d="M 794 531 
L 1825 531 
L 1825 4091 
L 703 3866 
L 703 4441 
L 1819 4666 
L 2450 4666 
L 2450 531 
L 3481 531 
L 3481 0 
L 794 0 
L 794 531 
z
" transform="scale(0.015625)"/>
       </defs>
       <use xlink:href="#DejaVuSans-33"/>
       <use xlink:href="#DejaVuSans-2e" x="63.623047"/>
       <use xlink:href="#DejaVuSans-31" x="95.410156"/>
      </g>
     </g>
    </g>
    <g id="text_6">
     <!-- [GHz] -->
     <g transform="translate(281.039844 412.756563)scale(0.1 -0.1)">
      <defs>
       <path id="DejaVuSans-5b" d="M 550 4863 
L 1875 4863 
L 1875 4416 
L 1125 4416 
L 1125 -397 
L 1875 -397 
L 1875 -844 
L 550 -844 
L 550 4863 
z
" transform="scale(0.015625)"/>
       <path id="DejaVuSans-47" d="M 3809 666 
L 3809 1919 
L 2778 1919 
L 2778 2438 
L 4434 2438 
L 4434 434 
Q 4069 175 3628 42 
Q 3188 -91 2688 -91 
Q 1594 -91 976 548 
Q 359 1188 359 2328 
Q 359 3472 976 4111 
Q 1594 4750 2688 4750 
Q 3144 4750 3555 4637 
Q 3966 4525 4313 4306 
L 4313 3634 
Q 3963 3931 3569 4081 
Q 3175 4231 2741 4231 
Q 1884 4231 1454 3753 
Q 1025 3275 1025 2328 
Q 1025 1384 1454 906 
Q 1884 428 2741 428 
Q 3075 428 3337 486 
Q 3600 544 3809 666 
z
" transform="scale(0.015625)"/>
       <path id="DejaVuSans-48" d="M 628 4666 
L 1259 4666 
L 1259 2753 
L 3553 2753 
L 3553 4666 
L 4184 4666 
L 4184 0 
L 3553 0 
L 3553 2222 
L 1259 2222 
L 1259 0 
L 628 0 
L 628 4666 
z
" transform="scale(0.015625)"/>
       <path id="DejaVuSans-7a" d="M 353 3500 
L 3084 3500 
L 3084 2975 
L 922 459 
L 3084 459 
L 3084 0 
L 275 0 
L 275 525 
L 2438 3041 
L 353 3041 
L 353 3500 
z
" transform="scale(0.015625)"/>
       <path id="DejaVuSans-5d" d="M 1947 4863 
L 1947 -844 
L 622 -844 
L 622 -397 
L 1369 -397 
L 1369 4416 
L 622 4416 
L 622 4863 
L 1947 4863 
z
" transform="scale(0.015625)"/>
      </defs>
      <use xlink:href="#DejaVuSans-5b"/>
      <use xlink:href="#DejaVuSans-47" x="39.013672"/>
      <use xlink:href="#DejaVuSans-48" x="116.503906"/>
      <use xlink:href="#DejaVuSans-7a" x="191.699219"/>
      <use xlink:href="#DejaVuSans-5d" x="244.189453"/>
     </g>
    </g>
   </g>
   <g id="matplotlib.axis_2">
    <g id="ytick_1">
     <g id="line2d_6">
      <defs>
       <path id="m08dd07a936" d="M 0 0 
L -3.5 0 
" style="stroke: #000000; stroke-width: 0.8"/>
      </defs>
      <g>
       <use xlink:href="#m08dd07a936" x="72" y="343.151628" style="stroke: #000000; stroke-width: 0.8"/>
      </g>
     </g>
     <g id="text_7">
      <!-- 0.9850 -->
      <g transform="translate(30.009375 346.950847)scale(0.1 -0.1)">
       <defs>
        <path id="DejaVuSans-35" d="M 691 4666 
L 3169 4666 
L 3169 4134 
L 1269 4134 
L 1269 2991 
Q 1406 3038 1543 3061 
Q 1681 3084 1819 3084 
Q 2600 3084 3056 2656 
Q 3513 2228 3513 1497 
Q 3513 744 3044 326 
Q 2575 -91 1722 -91 
Q 1428 -91 1123 -41 
Q 819 9 494 109 
L 494 744 
Q 775 591 1075 516 
Q 1375 441 1709 441 
Q 2250 441 2565 725 
Q 2881 1009 2881 1497 
Q 2881 1984 2565 2268 
Q 2250 2553 1709 2553 
Q 1456 2553 1204 2497 
Q 953 2441 691 2322 
L 691 4666 
z
" transform="scale(0.015625)"/>
       </defs>
       <use xlink:href="#DejaVuSans-30"/>
       <use xlink:href="#DejaVuSans-2e" x="63.623047"/>
       <use xlink:href="#DejaVuSans-39" x="95.410156"/>
       <use xlink:href="#DejaVuSans-38" x="159.033203"/>
       <use xlink:href="#DejaVuSans-35" x="222.65625"/>
       <use xlink:href="#DejaVuSans-30" x="286.279297"/>
      </g>
     </g>
    </g>
    <g id="ytick_2">
     <g id="line2d_7">
      <g>
       <use xlink:href="#m08dd07a936" x="72" y="298.598675" style="stroke: #000000; stroke-width: 0.8"/>
      </g>
     </g>
     <g id="text_8">
      <!-- 0.9875 -->
      <g transform="translate(30.009375 302.397894)scale(0.1 -0.1)">
       <use xlink:href="#DejaVuSans-30"/>
       <use xlink:href="#DejaVuSans-2e" x="63.623047"/>
       <use xlink:href="#DejaVuSans-39" x="95.410156"/>
       <use xlink:href="#DejaVuSans-38" x="159.033203"/>
       <use xlink:href="#DejaVuSans-37" x="222.65625"/>
       <use xlink:href="#DejaVuSans-35" x="286.279297"/>
      </g>
     </g>
    </g>
    <g id="ytick_3">
     <g id="line2d_8">
      <g>
       <use xlink:href="#m08dd07a936" x="72" y="254.045723" style="stroke: #000000; stroke-width: 0.8"/>
      </g>
     </g>
     <g id="text_9">
      <!-- 0.9900 -->
      <g transform="translate(30.009375 257.844942)scale(0.1 -0.1)">
       <use xlink:href="#DejaVuSans-30"/>
       <use xlink:href="#DejaVuSans-2e" x="63.623047"/>
       <use xlink:href="#DejaVuSans-39" x="95.410156"/>
       <use xlink:href="#DejaVuSans-39" x="159.033203"/>
       <use xlink:href="#DejaVuSans-30" x="222.65625"/>
       <use xlink:href="#DejaVuSans-30" x="286.279297"/>
      </g>
     </g>
    </g>
    <g id="ytick_4">
     <g id="line2d_9">
      <g>
       <use xlink:href="#m08dd07a936" x="72" y="209.49277" style="stroke: #000000; stroke-width: 0.8"/>
      </g>
     </g>
     <g id="text_10">
      <!-- 0.9925 -->
      <g transform="translate(30.009375 213.291989)scale(0.1 -0.1)">
       <use xlink:href="#DejaVuSans-30"/>
       <use xlink:href="#DejaVuSans-2e" x="63.623047"/>
       <use xlink:href="#DejaVuSans-39" x="95.410156"/>
       <use xlink:href="#DejaVuSans-39" x="159.033203"/>
       <use xlink:href="#DejaVuSans-32" x="222.65625"/>
       <use xlink:href="#DejaVuSans-35" x="286.279297"/>
      </g>
     </g>
    </g>
    <g id="ytick_5">
     <g id="line2d_10">
      <g>
       <use xlink:href="#m08dd07a936" x="72" y="164.939818" style="stroke: #000000; stroke-width: 0.8"/>
      </g>
     </g>
     <g id="text_11">
      <!-- 0.9950 -->
      <g transform="translate(30.009375 168.739037)scale(0.1 -0.1)">
       <use xlink:href="#DejaVuSans-30"/>
       <use xlink:href="#DejaVuSans-2e" x="63.623047"/>
       <use xlink:href="#DejaVuSans-39" x="95.410156"/>
       <use xlink:href="#DejaVuSans-39" x="159.033203"/>
       <use xlink:href="#DejaVuSans-35" x="222.65625"/>
       <use xlink:href="#DejaVuSans-30" x="286.279297"/>
      </g>
     </g>
    </g>
    <g id="ytick_6">
     <g id="line2d_11">
      <g>
       <use xlink:href="#m08dd07a936" x="72" y="120.386865" style="stroke: #000000; stroke-width: 0.8"/>
      </g>
     </g>
     <g id="text_12">
      <!-- 0.9975 -->
      <g transform="translate(30.009375 124.186084)scale(0.1 -0.1)">
       <use xlink:href="#DejaVuSans-30"/>
       <use xlink:href="#DejaVuSans-2e" x="63.623047"/>
       <use xlink:href="#DejaVuSans-39" x="95.410156"/>
       <use xlink:href="#DejaVuSans-39" x="159.033203"/>
       <use xlink:href="#DejaVuSans-37" x="222.65625"/>
       <use xlink:href="#DejaVuSans-35" x="286.279297"/>
      </g>
     </g>
    </g>
    <g id="ytick_7">
     <g id="line2d_12">
      <g>
       <use xlink:href="#m08dd07a936" x="72" y="75.833913" style="stroke: #000000; stroke-width: 0.8"/>
      </g>
     </g>
     <g id="text_13">
      <!-- 1.0000 -->
      <g transform="translate(30.009375 79.633131)scale(0.1 -0.1)">
       <use xlink:href="#DejaVuSans-31"/>
       <use xlink:href="#DejaVuSans-2e" x="63.623047"/>
       <use xlink:href="#DejaVuSans-30" x="95.410156"/>
       <use xlink:href="#DejaVuSans-30" x="159.033203"/>
       <use xlink:href="#DejaVuSans-30" x="222.65625"/>
       <use xlink:href="#DejaVuSans-30" x="286.279297"/>
      </g>
     </g>
    </g>
    <g id="text_14">
     <!-- [Normalized Counts / s] -->
     <g transform="translate(23.929687 276.926406)rotate(-90)scale(0.1 -0.1)">
      <defs>
       <path id="DejaVuSans-4e" d="M 628 4666 
L 1478 4666 
L 3547 763 
L 3547 4666 
L 4159 4666 
L 4159 0 
L 3309 0 
L 1241 3903 
L 1241 0 
L 628 0 
L 628 4666 
z
" transform="scale(0.015625)"/>
       <path id="DejaVuSans-6f" d="M 1959 3097 
Q 1497 3097 1228 2736 
Q 959 2375 959 1747 
Q 959 1119 1226 758 
Q 1494 397 1959 397 
Q 2419 397 2687 759 
Q 2956 1122 2956 1747 
Q 2956 2369 2687 2733 
Q 2419 3097 1959 3097 
z
M 1959 3584 
Q 2709 3584 3137 3096 
Q 3566 2609 3566 1747 
Q 3566 888 3137 398 
Q 2709 -91 1959 -91 
Q 1206 -91 779 398 
Q 353 888 353 1747 
Q 353 2609 779 3096 
Q 1206 3584 1959 3584 
z
" transform="scale(0.015625)"/>
       <path id="DejaVuSans-72" d="M 2631 2963 
Q 2534 3019 2420 3045 
Q 2306 3072 2169 3072 
Q 1681 3072 1420 2755 
Q 1159 2438 1159 1844 
L 1159 0 
L 581 0 
L 581 3500 
L 1159 3500 
L 1159 2956 
Q 1341 3275 1631 3429 
Q 1922 3584 2338 3584 
Q 2397 3584 2469 3576 
Q 2541 3569 2628 3553 
L 2631 2963 
z
" transform="scale(0.015625)"/>
       <path id="DejaVuSans-6d" d="M 3328 2828 
Q 3544 3216 3844 3400 
Q 4144 3584 4550 3584 
Q 5097 3584 5394 3201 
Q 5691 2819 5691 2113 
L 5691 0 
L 5113 0 
L 5113 2094 
Q 5113 2597 4934 2840 
Q 4756 3084 4391 3084 
Q 3944 3084 3684 2787 
Q 3425 2491 3425 1978 
L 3425 0 
L 2847 0 
L 2847 2094 
Q 2847 2600 2669 2842 
Q 2491 3084 2119 3084 
Q 1678 3084 1418 2786 
Q 1159 2488 1159 1978 
L 1159 0 
L 581 0 
L 581 3500 
L 1159 3500 
L 1159 2956 
Q 1356 3278 1631 3431 
Q 1906 3584 2284 3584 
Q 2666 3584 2933 3390 
Q 3200 3197 3328 2828 
z
" transform="scale(0.015625)"/>
       <path id="DejaVuSans-61" d="M 2194 1759 
Q 1497 1759 1228 1600 
Q 959 1441 959 1056 
Q 959 750 1161 570 
Q 1363 391 1709 391 
Q 2188 391 2477 730 
Q 2766 1069 2766 1631 
L 2766 1759 
L 2194 1759 
z
M 3341 1997 
L 3341 0 
L 2766 0 
L 2766 531 
Q 2569 213 2275 61 
Q 1981 -91 1556 -91 
Q 1019 -91 701 211 
Q 384 513 384 1019 
Q 384 1609 779 1909 
Q 1175 2209 1959 2209 
L 2766 2209 
L 2766 2266 
Q 2766 2663 2505 2880 
Q 2244 3097 1772 3097 
Q 1472 3097 1187 3025 
Q 903 2953 641 2809 
L 641 3341 
Q 956 3463 1253 3523 
Q 1550 3584 1831 3584 
Q 2591 3584 2966 3190 
Q 3341 2797 3341 1997 
z
" transform="scale(0.015625)"/>
       <path id="DejaVuSans-6c" d="M 603 4863 
L 1178 4863 
L 1178 0 
L 603 0 
L 603 4863 
z
" transform="scale(0.015625)"/>
       <path id="DejaVuSans-69" d="M 603 3500 
L 1178 3500 
L 1178 0 
L 603 0 
L 603 3500 
z
M 603 4863 
L 1178 4863 
L 1178 4134 
L 603 4134 
L 603 4863 
z
" transform="scale(0.015625)"/>
       <path id="DejaVuSans-65" d="M 3597 1894 
L 3597 1613 
L 953 1613 
Q 991 1019 1311 708 
Q 1631 397 2203 397 
Q 2534 397 2845 478 
Q 3156 559 3463 722 
L 3463 178 
Q 3153 47 2828 -22 
Q 2503 -91 2169 -91 
Q 1331 -91 842 396 
Q 353 884 353 1716 
Q 353 2575 817 3079 
Q 1281 3584 2069 3584 
Q 2775 3584 3186 3129 
Q 3597 2675 3597 1894 
z
M 3022 2063 
Q 3016 2534 2758 2815 
Q 2500 3097 2075 3097 
Q 1594 3097 1305 2825 
Q 1016 2553 972 2059 
L 3022 2063 
z
" transform="scale(0.015625)"/>
       <path id="DejaVuSans-64" d="M 2906 2969 
L 2906 4863 
L 3481 4863 
L 3481 0 
L 2906 0 
L 2906 525 
Q 2725 213 2448 61 
Q 2172 -91 1784 -91 
Q 1150 -91 751 415 
Q 353 922 353 1747 
Q 353 2572 751 3078 
Q 1150 3584 1784 3584 
Q 2172 3584 2448 3432 
Q 2725 3281 2906 2969 
z
M 947 1747 
Q 947 1113 1208 752 
Q 1469 391 1925 391 
Q 2381 391 2643 752 
Q 2906 1113 2906 1747 
Q 2906 2381 2643 2742 
Q 2381 3103 1925 3103 
Q 1469 3103 1208 2742 
Q 947 2381 947 1747 
z
" transform="scale(0.015625)"/>
       <path id="DejaVuSans-20" transform="scale(0.015625)"/>
       <path id="DejaVuSans-43" d="M 4122 4306 
L 4122 3641 
Q 3803 3938 3442 4084 
Q 3081 4231 2675 4231 
Q 1875 4231 1450 3742 
Q 1025 3253 1025 2328 
Q 1025 1406 1450 917 
Q 1875 428 2675 428 
Q 3081 428 3442 575 
Q 3803 722 4122 1019 
L 4122 359 
Q 3791 134 3420 21 
Q 3050 -91 2638 -91 
Q 1578 -91 968 557 
Q 359 1206 359 2328 
Q 359 3453 968 4101 
Q 1578 4750 2638 4750 
Q 3056 4750 3426 4639 
Q 3797 4528 4122 4306 
z
" transform="scale(0.015625)"/>
       <path id="DejaVuSans-75" d="M 544 1381 
L 544 3500 
L 1119 3500 
L 1119 1403 
Q 1119 906 1312 657 
Q 1506 409 1894 409 
Q 2359 409 2629 706 
Q 2900 1003 2900 1516 
L 2900 3500 
L 3475 3500 
L 3475 0 
L 2900 0 
L 2900 538 
Q 2691 219 2414 64 
Q 2138 -91 1772 -91 
Q 1169 -91 856 284 
Q 544 659 544 1381 
z
M 1991 3584 
L 1991 3584 
z
" transform="scale(0.015625)"/>
       <path id="DejaVuSans-6e" d="M 3513 2113 
L 3513 0 
L 2938 0 
L 2938 2094 
Q 2938 2591 2744 2837 
Q 2550 3084 2163 3084 
Q 1697 3084 1428 2787 
Q 1159 2491 1159 1978 
L 1159 0 
L 581 0 
L 581 3500 
L 1159 3500 
L 1159 2956 
Q 1366 3272 1645 3428 
Q 1925 3584 2291 3584 
Q 2894 3584 3203 3211 
Q 3513 2838 3513 2113 
z
" transform="scale(0.015625)"/>
       <path id="DejaVuSans-74" d="M 1172 4494 
L 1172 3500 
L 2356 3500 
L 2356 3053 
L 1172 3053 
L 1172 1153 
Q 1172 725 1289 603 
Q 1406 481 1766 481 
L 2356 481 
L 2356 0 
L 1766 0 
Q 1100 0 847 248 
Q 594 497 594 1153 
L 594 3053 
L 172 3053 
L 172 3500 
L 594 3500 
L 594 4494 
L 1172 4494 
z
" transform="scale(0.015625)"/>
       <path id="DejaVuSans-73" d="M 2834 3397 
L 2834 2853 
Q 2591 2978 2328 3040 
Q 2066 3103 1784 3103 
Q 1356 3103 1142 2972 
Q 928 2841 928 2578 
Q 928 2378 1081 2264 
Q 1234 2150 1697 2047 
L 1894 2003 
Q 2506 1872 2764 1633 
Q 3022 1394 3022 966 
Q 3022 478 2636 193 
Q 2250 -91 1575 -91 
Q 1294 -91 989 -36 
Q 684 19 347 128 
L 347 722 
Q 666 556 975 473 
Q 1284 391 1588 391 
Q 1994 391 2212 530 
Q 2431 669 2431 922 
Q 2431 1156 2273 1281 
Q 2116 1406 1581 1522 
L 1381 1569 
Q 847 1681 609 1914 
Q 372 2147 372 2553 
Q 372 3047 722 3315 
Q 1072 3584 1716 3584 
Q 2034 3584 2315 3537 
Q 2597 3491 2834 3397 
z
" transform="scale(0.015625)"/>
       <path id="DejaVuSans-2f" d="M 1625 4666 
L 2156 4666 
L 531 -594 
L 0 -594 
L 1625 4666 
z
" transform="scale(0.015625)"/>
      </defs>
      <use xlink:href="#DejaVuSans-5b"/>
      <use xlink:href="#DejaVuSans-4e" x="39.013672"/>
      <use xlink:href="#DejaVuSans-6f" x="113.818359"/>
      <use xlink:href="#DejaVuSans-72" x="175"/>
      <use xlink:href="#DejaVuSans-6d" x="214.363281"/>
      <use xlink:href="#DejaVuSans-61" x="311.775391"/>
      <use xlink:href="#DejaVuSans-6c" x="373.054688"/>
      <use xlink:href="#DejaVuSans-69" x="400.837891"/>
      <use xlink:href="#DejaVuSans-7a" x="428.621094"/>
      <use xlink:href="#DejaVuSans-65" x="481.111328"/>
      <use xlink:href="#DejaVuSans-64" x="542.634766"/>
      <use xlink:href="#DejaVuSans-20" x="606.111328"/>
      <use xlink:href="#DejaVuSans-43" x="637.898438"/>
      <use xlink:href="#DejaVuSans-6f" x="707.722656"/>
      <use xlink:href="#DejaVuSans-75" x="768.904297"/>
      <use xlink:href="#DejaVuSans-6e" x="832.283203"/>
      <use xlink:href="#DejaVuSans-74" x="895.662109"/>
      <use xlink:href="#DejaVuSans-73" x="934.871094"/>
      <use xlink:href="#DejaVuSans-20" x="986.970703"/>
      <use xlink:href="#DejaVuSans-2f" x="1018.757812"/>
      <use xlink:href="#DejaVuSans-20" x="1052.449219"/>
      <use xlink:href="#DejaVuSans-73" x="1084.236328"/>
      <use xlink:href="#DejaVuSans-5d" x="1136.335938"/>
     </g>
    </g>
   </g>
   <g id="line2d_13">
    <path d="M 92.290909 75.967515 
L 134.717355 76.166716 
L 153.163636 76.427563 
L 164.231405 76.764233 
L 171.609917 77.176963 
L 177.143802 77.696917 
L 180.833058 78.230569 
L 184.522314 79.029384 
L 186.366942 79.586319 
L 188.21157 80.301148 
L 190.056198 81.238965 
L 191.900826 82.501662 
L 193.745455 84.255475 
L 195.590083 86.785188 
L 197.434711 90.607599 
L 199.279339 96.725635 
L 201.123967 107.233678 
L 202.968595 126.769899 
L 204.813223 164.951038 
L 206.657851 227.040243 
L 208.502479 247.969886 
L 210.347107 189.356348 
L 212.191736 139.887651 
L 214.036364 113.974861 
L 215.880992 100.447008 
L 217.72562 92.828401 
L 219.570248 88.200963 
L 221.414876 85.20765 
L 223.259504 83.170367 
L 225.104132 81.725491 
L 226.94876 80.665634 
L 228.793388 79.866155 
L 230.638017 79.248748 
L 234.327273 78.372444 
L 238.016529 77.793807 
L 243.550413 77.236018 
L 250.928926 76.798135 
L 261.996694 76.444767 
L 278.598347 76.191859 
L 308.112397 76.012143 
L 372.67438 75.899843 
L 498.109091 75.855164 
L 498.109091 75.855164 
" clip-path="url(#pd7e87de2b0)" style="fill: none; stroke: #1f77b4; stroke-width: 1.5; stroke-linecap: square"/>
   </g>
   <g id="line2d_14">
    <path d="M 92.290909 75.883189 
L 177.143802 76.039677 
L 202.968595 76.275528 
L 215.880992 76.583286 
L 223.259504 76.929052 
L 228.793388 77.373142 
L 232.482645 77.837669 
L 236.171901 78.547871 
L 238.016529 79.052733 
L 239.861157 79.711622 
L 241.705785 80.593562 
L 243.550413 81.810527 
L 245.395041 83.553411 
L 247.239669 86.167762 
L 249.084298 90.326539 
L 250.928926 97.462158 
L 252.773554 110.952382 
L 254.618182 139.454275 
L 256.46281 201.376683 
L 258.307438 267.530755 
L 260.152066 209.672093 
L 261.996694 143.718745 
L 263.841322 112.879271 
L 265.68595 98.427155 
L 267.530579 90.864254 
L 269.375207 86.494082 
L 271.219835 83.764996 
L 273.064463 81.955018 
L 274.909091 80.696397 
L 276.753719 79.787307 
L 278.598347 79.11 
L 282.287603 78.187718 
L 285.97686 77.605512 
L 291.510744 77.066323 
L 298.889256 76.659847 
L 309.957025 76.344152 
L 326.558678 76.126198 
L 357.917355 75.97113 
L 433.547107 75.878234 
L 498.109091 75.857577 
L 498.109091 75.857577 
" clip-path="url(#pd7e87de2b0)" style="fill: none; stroke: #ff7f0e; stroke-width: 1.5; stroke-linecap: square"/>
   </g>
   <g id="line2d_15">
    <path d="M 92.290909 76.019711 
L 155.008264 76.25799 
L 184.522314 76.568613 
L 202.968595 76.974815 
L 214.036364 77.404072 
L 223.259504 77.97757 
L 230.638017 78.696283 
L 236.171901 79.500961 
L 239.861157 80.240794 
L 243.550413 81.227702 
L 247.239669 82.584258 
L 249.084298 83.461111 
L 250.928926 84.518666 
L 252.773554 85.809545 
L 254.618182 87.406697 
L 256.46281 89.413419 
L 258.307438 91.979474 
L 260.152066 95.327824 
L 261.996694 99.800356 
L 263.841322 105.938671 
L 265.68595 114.631093 
L 267.530579 127.385107 
L 269.375207 146.822798 
L 271.219835 177.453451 
L 273.064463 225.985468 
L 276.753719 361.977832 
L 278.598347 360.714581 
L 282.287603 224.258644 
L 284.132231 176.345468 
L 285.97686 146.126834 
L 287.821488 126.936038 
L 289.666116 114.330206 
L 291.510744 105.729465 
L 293.355372 99.649984 
L 295.2 95.216572 
L 297.044628 91.895084 
L 298.889256 89.348009 
L 300.733884 87.355042 
L 302.578512 85.76808 
L 304.42314 84.484902 
L 306.267769 83.433266 
L 308.112397 82.561035 
L 311.801653 81.211072 
L 315.490909 80.228489 
L 319.180165 79.491608 
L 324.71405 78.689822 
L 330.247934 78.124891 
L 337.626446 77.599029 
L 346.849587 77.161834 
L 359.761983 76.778259 
L 378.208264 76.464247 
L 407.722314 76.210972 
L 459.371901 76.027214 
L 498.109091 75.965279 
L 498.109091 75.965279 
" clip-path="url(#pd7e87de2b0)" style="fill: none; stroke: #2ca02c; stroke-width: 1.5; stroke-linecap: square"/>
   </g>
   <g id="line2d_16">
    <path d="M 92.290909 75.929396 
L 188.21157 76.116578 
L 225.104132 76.374713 
L 245.395041 76.701869 
L 258.307438 77.092975 
L 267.530579 77.559873 
L 274.909091 78.148872 
L 280.442975 78.812892 
L 284.132231 79.427277 
L 287.821488 80.252172 
L 291.510744 81.395223 
L 293.355372 82.139363 
L 295.2 83.042079 
L 297.044628 84.151338 
L 298.889256 85.534469 
L 300.733884 87.288194 
L 302.578512 89.555151 
L 304.42314 92.552066 
L 306.267769 96.619569 
L 308.112397 102.313907 
L 309.957025 110.582678 
L 311.801653 123.112949 
L 313.646281 143.02274 
L 315.490909 176.082413 
L 317.335537 231.442578 
L 319.180165 311.854182 
L 321.024793 369.36 
L 322.869421 329.888544 
L 324.71405 247.512111 
L 326.558678 186.05198 
L 328.403306 148.931324 
L 330.247934 126.731729 
L 332.092562 112.907443 
L 333.93719 103.877309 
L 335.781818 97.713838 
L 337.626446 93.344486 
L 339.471074 90.145778 
L 341.315702 87.739353 
L 343.160331 85.886416 
L 345.004959 84.430916 
L 346.849587 83.267704 
L 348.694215 82.323984 
L 350.538843 81.548148 
L 354.228099 80.360444 
L 357.917355 79.506664 
L 361.606612 78.872792 
L 367.140496 78.189881 
L 374.519008 77.586253 
L 383.742149 77.109397 
L 396.654545 76.711259 
L 415.100826 76.400931 
L 444.614876 76.162378 
L 498.109091 75.993836 
L 498.109091 75.993836 
" clip-path="url(#pd7e87de2b0)" style="fill: none; stroke: #d62728; stroke-width: 1.5; stroke-linecap: square"/>
   </g>
   <g id="line2d_17">
    <path d="M 92.290909 75.854955 
L 249.084298 75.990618 
L 280.442975 76.199857 
L 295.2 76.48166 
L 304.42314 76.862243 
L 309.957025 77.276879 
L 313.646281 77.709598 
L 317.335537 78.369487 
L 319.180165 78.837494 
L 321.024793 79.447078 
L 322.869421 80.26109 
L 324.71405 81.381104 
L 326.558678 82.979458 
L 328.403306 85.366322 
L 330.247934 89.141476 
L 332.092562 95.570535 
L 333.93719 107.608949 
L 335.781818 132.790316 
L 337.626446 187.874255 
L 339.471074 255.191621 
L 341.315702 209.032804 
L 343.160331 143.760779 
L 345.004959 112.574458 
L 346.849587 98.058069 
L 348.694215 90.527628 
L 350.538843 86.207512 
L 352.383471 83.52487 
L 354.228099 81.753555 
L 356.072727 80.526161 
L 357.917355 79.642163 
L 359.761983 78.985105 
L 363.45124 78.092825 
L 367.140496 77.531216 
L 372.67438 77.012458 
L 380.052893 76.622413 
L 391.120661 76.320228 
L 409.566942 76.097608 
L 444.614876 75.950929 
L 498.109091 75.885254 
L 498.109091 75.885254 
" clip-path="url(#pd7e87de2b0)" style="fill: none; stroke: #9467bd; stroke-width: 1.5; stroke-linecap: square"/>
   </g>
   <g id="line2d_18">
    <path d="M 92.290909 75.85965 
L 267.530579 75.997336 
L 308.112397 76.222861 
L 326.558678 76.519025 
L 337.626446 76.894175 
L 345.004959 77.345564 
L 350.538843 77.903439 
L 354.228099 78.465596 
L 357.917355 79.290521 
L 359.761983 79.855485 
L 361.606612 80.569875 
L 363.45124 81.490822 
L 365.295868 82.705207 
L 367.140496 84.350036 
L 368.985124 86.650689 
L 370.829752 89.996816 
L 372.67438 95.102355 
L 374.519008 103.364676 
L 376.363636 117.708191 
L 378.208264 144.457037 
L 380.052893 194.923782 
L 381.897521 262.574372 
L 383.742149 259.442595 
L 385.586777 191.160349 
L 387.431405 142.371738 
L 389.276033 116.616305 
L 391.120661 102.755393 
L 392.965289 94.736408 
L 394.809917 89.762574 
L 396.654545 86.492725 
L 398.499174 84.238892 
L 400.343802 82.624234 
L 402.18843 81.430099 
L 404.033058 80.52322 
L 405.877686 79.81889 
L 409.566942 78.81254 
L 413.256198 78.143162 
L 418.790083 77.493622 
L 424.323967 77.083617 
L 433.547107 76.672619 
L 446.459504 76.367848 
L 466.750413 76.141363 
L 498.109091 75.997031 
L 498.109091 75.997031 
" clip-path="url(#pd7e87de2b0)" style="fill: none; stroke: #8c564b; stroke-width: 1.5; stroke-linecap: square"/>
   </g>
   <g id="patch_3">
    <path d="M 72 384.48 
L 72 51.84 
" style="fill: none; stroke: #000000; stroke-width: 0.8; stroke-linejoin: miter; stroke-linecap: square"/>
   </g>
   <g id="patch_4">
    <path d="M 518.4 384.48 
L 518.4 51.84 
" style="fill: none; stroke: #000000; stroke-width: 0.8; stroke-linejoin: miter; stroke-linecap: square"/>
   </g>
   <g id="patch_5">
    <path d="M 72 384.48 
L 518.4 384.48 
" style="fill: none; stroke: #000000; stroke-width: 0.8; stroke-linejoin: miter; stroke-linecap: square"/>
   </g>
   <g id="patch_6">
    <path d="M 72 51.84 
L 518.4 51.84 
" style="fill: none; stroke: #000000; stroke-width: 0.8; stroke-linejoin: miter; stroke-linecap: square"/>
   </g>
  </g>
 </g>
 <defs>
  <clipPath id="pd7e87de2b0">
   <rect x="72" y="51.84" width="446.4" height="332.64"/>
  </clipPath>
 </defs>
</svg>
