<?xml version="1.0" encoding="utf-8" standalone="no"?>
<!DOCTYPE svg PUBLIC "-//W3C//DTD SVG 1.1//EN"
  "http://www.w3.org/Graphics/SVG/1.1/DTD/svg11.dtd">
<svg xmlns:xlink="http://www.w3.org/1999/xlink" width="576pt" height="576pt" viewBox="0 0 576 576" xmlns="http://www.w3.org/2000/svg" version="1.1">
 <metadata>
  <rdf:RDF xmlns:dc="http://purl.org/dc/elements/1.1/" xmlns:cc="http://creativecommons.org/ns#" xmlns:rdf="http://www.w3.org/1999/02/22-rdf-syntax-ns#">
   <cc:Work>
    <dc:type rdf:resource="http://purl.org/dc/dcmitype/StillImage"/>
    <dc:date>2022-09-09T10:55:16.553489</dc:date>
    <dc:format>image/svg+xml</dc:format>
    <dc:creator>
     <cc:Agent>
      <dc:title>Matplotlib v3.5.3, https://matplotlib.org/</dc:title>
     </cc:Agent>
    </dc:creator>
   </cc:Work>
  </rdf:RDF>
 </metadata>
 <defs>
  <style type="text/css">*{stroke-linejoin: round; stroke-linecap: butt}</style>
 </defs>
 <g id="figure_1">
  <g id="patch_1">
   <path d="M 0 576 
L 576 576 
L 576 0 
L 0 0 
z
" style="fill: #ffffff"/>
  </g>
  <g id="axes_1">
   <g id="patch_2">
    <path d="M 72 512.64 
L 518.4 512.64 
L 518.4 69.12 
L 72 69.12 
z
" style="fill: #ffffff"/>
   </g>
   <g id="matplotlib.axis_1">
    <g id="xtick_1">
     <g id="line2d_1">
      <path d="M 92.290909 512.64 
L 92.290909 69.12 
" clip-path="url(#pae04ab57a5)" style="fill: none; stroke: #b0b0b0; stroke-width: 0.8; stroke-linecap: square"/>
     </g>
     <g id="line2d_2">
      <defs>
       <path id="m2317aab4bd" d="M 0 0 
L 0 3.5 
" style="stroke: #000000; stroke-width: 0.8"/>
      </defs>
      <g>
       <use xlink:href="#m2317aab4bd" x="92.290909" y="512.64" style="stroke: #000000; stroke-width: 0.8"/>
      </g>
     </g>
     <g id="text_1">
      <!-- 0.00 -->
      <g transform="translate(81.158097 527.238438)scale(0.1 -0.1)">
       <defs>
        <path id="DejaVuSans-30" d="M 2034 4250 
Q 1547 4250 1301 3770 
Q 1056 3291 1056 2328 
Q 1056 1369 1301 889 
Q 1547 409 2034 409 
Q 2525 409 2770 889 
Q 3016 1369 3016 2328 
Q 3016 3291 2770 3770 
Q 2525 4250 2034 4250 
z
M 2034 4750 
Q 2819 4750 3233 4129 
Q 3647 3509 3647 2328 
Q 3647 1150 3233 529 
Q 2819 -91 2034 -91 
Q 1250 -91 836 529 
Q 422 1150 422 2328 
Q 422 3509 836 4129 
Q 1250 4750 2034 4750 
z
" transform="scale(0.015625)"/>
        <path id="DejaVuSans-2e" d="M 684 794 
L 1344 794 
L 1344 0 
L 684 0 
L 684 794 
z
" transform="scale(0.015625)"/>
       </defs>
       <use xlink:href="#DejaVuSans-30"/>
       <use xlink:href="#DejaVuSans-2e" x="63.623047"/>
       <use xlink:href="#DejaVuSans-30" x="95.410156"/>
       <use xlink:href="#DejaVuSans-30" x="159.033203"/>
      </g>
     </g>
    </g>
    <g id="xtick_2">
     <g id="line2d_3">
      <path d="M 173.454545 512.64 
L 173.454545 69.12 
" clip-path="url(#pae04ab57a5)" style="fill: none; stroke: #b0b0b0; stroke-width: 0.8; stroke-linecap: square"/>
     </g>
     <g id="line2d_4">
      <g>
       <use xlink:href="#m2317aab4bd" x="173.454545" y="512.64" style="stroke: #000000; stroke-width: 0.8"/>
      </g>
     </g>
     <g id="text_2">
      <!-- 0.02 -->
      <g transform="translate(162.321733 527.238438)scale(0.1 -0.1)">
       <defs>
        <path id="DejaVuSans-32" d="M 1228 531 
L 3431 531 
L 3431 0 
L 469 0 
L 469 531 
Q 828 903 1448 1529 
Q 2069 2156 2228 2338 
Q 2531 2678 2651 2914 
Q 2772 3150 2772 3378 
Q 2772 3750 2511 3984 
Q 2250 4219 1831 4219 
Q 1534 4219 1204 4116 
Q 875 4013 500 3803 
L 500 4441 
Q 881 4594 1212 4672 
Q 1544 4750 1819 4750 
Q 2544 4750 2975 4387 
Q 3406 4025 3406 3419 
Q 3406 3131 3298 2873 
Q 3191 2616 2906 2266 
Q 2828 2175 2409 1742 
Q 1991 1309 1228 531 
z
" transform="scale(0.015625)"/>
       </defs>
       <use xlink:href="#DejaVuSans-30"/>
       <use xlink:href="#DejaVuSans-2e" x="63.623047"/>
       <use xlink:href="#DejaVuSans-30" x="95.410156"/>
       <use xlink:href="#DejaVuSans-32" x="159.033203"/>
      </g>
     </g>
    </g>
    <g id="xtick_3">
     <g id="line2d_5">
      <path d="M 254.618182 512.64 
L 254.618182 69.12 
" clip-path="url(#pae04ab57a5)" style="fill: none; stroke: #b0b0b0; stroke-width: 0.8; stroke-linecap: square"/>
     </g>
     <g id="line2d_6">
      <g>
       <use xlink:href="#m2317aab4bd" x="254.618182" y="512.64" style="stroke: #000000; stroke-width: 0.8"/>
      </g>
     </g>
     <g id="text_3">
      <!-- 0.04 -->
      <g transform="translate(243.485369 527.238438)scale(0.1 -0.1)">
       <defs>
        <path id="DejaVuSans-34" d="M 2419 4116 
L 825 1625 
L 2419 1625 
L 2419 4116 
z
M 2253 4666 
L 3047 4666 
L 3047 1625 
L 3713 1625 
L 3713 1100 
L 3047 1100 
L 3047 0 
L 2419 0 
L 2419 1100 
L 313 1100 
L 313 1709 
L 2253 4666 
z
" transform="scale(0.015625)"/>
       </defs>
       <use xlink:href="#DejaVuSans-30"/>
       <use xlink:href="#DejaVuSans-2e" x="63.623047"/>
       <use xlink:href="#DejaVuSans-30" x="95.410156"/>
       <use xlink:href="#DejaVuSans-34" x="159.033203"/>
      </g>
     </g>
    </g>
    <g id="xtick_4">
     <g id="line2d_7">
      <path d="M 335.781818 512.64 
L 335.781818 69.12 
" clip-path="url(#pae04ab57a5)" style="fill: none; stroke: #b0b0b0; stroke-width: 0.8; stroke-linecap: square"/>
     </g>
     <g id="line2d_8">
      <g>
       <use xlink:href="#m2317aab4bd" x="335.781818" y="512.64" style="stroke: #000000; stroke-width: 0.8"/>
      </g>
     </g>
     <g id="text_4">
      <!-- 0.06 -->
      <g transform="translate(324.649006 527.238438)scale(0.1 -0.1)">
       <defs>
        <path id="DejaVuSans-36" d="M 2113 2584 
Q 1688 2584 1439 2293 
Q 1191 2003 1191 1497 
Q 1191 994 1439 701 
Q 1688 409 2113 409 
Q 2538 409 2786 701 
Q 3034 994 3034 1497 
Q 3034 2003 2786 2293 
Q 2538 2584 2113 2584 
z
M 3366 4563 
L 3366 3988 
Q 3128 4100 2886 4159 
Q 2644 4219 2406 4219 
Q 1781 4219 1451 3797 
Q 1122 3375 1075 2522 
Q 1259 2794 1537 2939 
Q 1816 3084 2150 3084 
Q 2853 3084 3261 2657 
Q 3669 2231 3669 1497 
Q 3669 778 3244 343 
Q 2819 -91 2113 -91 
Q 1303 -91 875 529 
Q 447 1150 447 2328 
Q 447 3434 972 4092 
Q 1497 4750 2381 4750 
Q 2619 4750 2861 4703 
Q 3103 4656 3366 4563 
z
" transform="scale(0.015625)"/>
       </defs>
       <use xlink:href="#DejaVuSans-30"/>
       <use xlink:href="#DejaVuSans-2e" x="63.623047"/>
       <use xlink:href="#DejaVuSans-30" x="95.410156"/>
       <use xlink:href="#DejaVuSans-36" x="159.033203"/>
      </g>
     </g>
    </g>
    <g id="xtick_5">
     <g id="line2d_9">
      <path d="M 416.945455 512.64 
L 416.945455 69.12 
" clip-path="url(#pae04ab57a5)" style="fill: none; stroke: #b0b0b0; stroke-width: 0.8; stroke-linecap: square"/>
     </g>
     <g id="line2d_10">
      <g>
       <use xlink:href="#m2317aab4bd" x="416.945455" y="512.64" style="stroke: #000000; stroke-width: 0.8"/>
      </g>
     </g>
     <g id="text_5">
      <!-- 0.08 -->
      <g transform="translate(405.812642 527.238438)scale(0.1 -0.1)">
       <defs>
        <path id="DejaVuSans-38" d="M 2034 2216 
Q 1584 2216 1326 1975 
Q 1069 1734 1069 1313 
Q 1069 891 1326 650 
Q 1584 409 2034 409 
Q 2484 409 2743 651 
Q 3003 894 3003 1313 
Q 3003 1734 2745 1975 
Q 2488 2216 2034 2216 
z
M 1403 2484 
Q 997 2584 770 2862 
Q 544 3141 544 3541 
Q 544 4100 942 4425 
Q 1341 4750 2034 4750 
Q 2731 4750 3128 4425 
Q 3525 4100 3525 3541 
Q 3525 3141 3298 2862 
Q 3072 2584 2669 2484 
Q 3125 2378 3379 2068 
Q 3634 1759 3634 1313 
Q 3634 634 3220 271 
Q 2806 -91 2034 -91 
Q 1263 -91 848 271 
Q 434 634 434 1313 
Q 434 1759 690 2068 
Q 947 2378 1403 2484 
z
M 1172 3481 
Q 1172 3119 1398 2916 
Q 1625 2713 2034 2713 
Q 2441 2713 2670 2916 
Q 2900 3119 2900 3481 
Q 2900 3844 2670 4047 
Q 2441 4250 2034 4250 
Q 1625 4250 1398 4047 
Q 1172 3844 1172 3481 
z
" transform="scale(0.015625)"/>
       </defs>
       <use xlink:href="#DejaVuSans-30"/>
       <use xlink:href="#DejaVuSans-2e" x="63.623047"/>
       <use xlink:href="#DejaVuSans-30" x="95.410156"/>
       <use xlink:href="#DejaVuSans-38" x="159.033203"/>
      </g>
     </g>
    </g>
    <g id="xtick_6">
     <g id="line2d_11">
      <path d="M 498.109091 512.64 
L 498.109091 69.12 
" clip-path="url(#pae04ab57a5)" style="fill: none; stroke: #b0b0b0; stroke-width: 0.8; stroke-linecap: square"/>
     </g>
     <g id="line2d_12">
      <g>
       <use xlink:href="#m2317aab4bd" x="498.109091" y="512.64" style="stroke: #000000; stroke-width: 0.8"/>
      </g>
     </g>
     <g id="text_6">
      <!-- 0.10 -->
      <g transform="translate(486.976278 527.238438)scale(0.1 -0.1)">
       <defs>
        <path id="DejaVuSans-31" d="M 794 531 
L 1825 531 
L 1825 4091 
L 703 3866 
L 703 4441 
L 1819 4666 
L 2450 4666 
L 2450 531 
L 3481 531 
L 3481 0 
L 794 0 
L 794 531 
z
" transform="scale(0.015625)"/>
       </defs>
       <use xlink:href="#DejaVuSans-30"/>
       <use xlink:href="#DejaVuSans-2e" x="63.623047"/>
       <use xlink:href="#DejaVuSans-31" x="95.410156"/>
       <use xlink:href="#DejaVuSans-30" x="159.033203"/>
      </g>
     </g>
    </g>
    <g id="text_7">
     <!-- $B \ [T]$ -->
     <g transform="translate(283.15 540.916563)scale(0.1 -0.1)">
      <defs>
       <path id="DejaVuSans-Oblique-42" d="M 1081 4666 
L 2694 4666 
Q 3350 4666 3675 4422 
Q 4000 4178 4000 3688 
Q 4000 3238 3720 2911 
Q 3441 2584 2988 2516 
Q 3375 2428 3569 2181 
Q 3763 1934 3763 1522 
Q 3763 819 3242 409 
Q 2722 0 1819 0 
L 172 0 
L 1081 4666 
z
M 1234 2228 
L 903 519 
L 1919 519 
Q 2491 519 2800 781 
Q 3109 1044 3109 1522 
Q 3109 1891 2904 2059 
Q 2700 2228 2247 2228 
L 1234 2228 
z
M 1606 4147 
L 1331 2741 
L 2272 2741 
Q 2775 2741 3058 2959 
Q 3341 3178 3341 3566 
Q 3341 3869 3150 4008 
Q 2959 4147 2541 4147 
L 1606 4147 
z
" transform="scale(0.015625)"/>
       <path id="DejaVuSans-5b" d="M 550 4863 
L 1875 4863 
L 1875 4416 
L 1125 4416 
L 1125 -397 
L 1875 -397 
L 1875 -844 
L 550 -844 
L 550 4863 
z
" transform="scale(0.015625)"/>
       <path id="DejaVuSans-Oblique-54" d="M 378 4666 
L 4325 4666 
L 4225 4134 
L 2559 4134 
L 1759 0 
L 1125 0 
L 1925 4134 
L 275 4134 
L 378 4666 
z
" transform="scale(0.015625)"/>
       <path id="DejaVuSans-5d" d="M 1947 4863 
L 1947 -844 
L 622 -844 
L 622 -397 
L 1369 -397 
L 1369 4416 
L 622 4416 
L 622 4863 
L 1947 4863 
z
" transform="scale(0.015625)"/>
      </defs>
      <use xlink:href="#DejaVuSans-Oblique-42" transform="translate(0 0.015625)"/>
      <use xlink:href="#DejaVuSans-5b" transform="translate(101.073894 0.015625)"/>
      <use xlink:href="#DejaVuSans-Oblique-54" transform="translate(140.087566 0.015625)"/>
      <use xlink:href="#DejaVuSans-5d" transform="translate(201.17155 0.015625)"/>
     </g>
    </g>
   </g>
   <g id="matplotlib.axis_2">
    <g id="ytick_1">
     <g id="line2d_13">
      <path d="M 72 496.883545 
L 518.4 496.883545 
" clip-path="url(#pae04ab57a5)" style="fill: none; stroke: #b0b0b0; stroke-width: 0.8; stroke-linecap: square"/>
     </g>
     <g id="line2d_14">
      <defs>
       <path id="m0154b6865a" d="M 0 0 
L -3.5 0 
" style="stroke: #000000; stroke-width: 0.8"/>
      </defs>
      <g>
       <use xlink:href="#m0154b6865a" x="72" y="496.883545" style="stroke: #000000; stroke-width: 0.8"/>
      </g>
     </g>
     <g id="text_8">
      <!-- 0 -->
      <g transform="translate(58.6375 500.682764)scale(0.1 -0.1)">
       <use xlink:href="#DejaVuSans-30"/>
      </g>
     </g>
    </g>
    <g id="ytick_2">
     <g id="line2d_15">
      <path d="M 72 433.975754 
L 518.4 433.975754 
" clip-path="url(#pae04ab57a5)" style="fill: none; stroke: #b0b0b0; stroke-width: 0.8; stroke-linecap: square"/>
     </g>
     <g id="line2d_16">
      <g>
       <use xlink:href="#m0154b6865a" x="72" y="433.975754" style="stroke: #000000; stroke-width: 0.8"/>
      </g>
     </g>
     <g id="text_9">
      <!-- 1 -->
      <g transform="translate(58.6375 437.774972)scale(0.1 -0.1)">
       <use xlink:href="#DejaVuSans-31"/>
      </g>
     </g>
    </g>
    <g id="ytick_3">
     <g id="line2d_17">
      <path d="M 72 371.067962 
L 518.4 371.067962 
" clip-path="url(#pae04ab57a5)" style="fill: none; stroke: #b0b0b0; stroke-width: 0.8; stroke-linecap: square"/>
     </g>
     <g id="line2d_18">
      <g>
       <use xlink:href="#m0154b6865a" x="72" y="371.067962" style="stroke: #000000; stroke-width: 0.8"/>
      </g>
     </g>
     <g id="text_10">
      <!-- 2 -->
      <g transform="translate(58.6375 374.867181)scale(0.1 -0.1)">
       <use xlink:href="#DejaVuSans-32"/>
      </g>
     </g>
    </g>
    <g id="ytick_4">
     <g id="line2d_19">
      <path d="M 72 308.16017 
L 518.4 308.16017 
" clip-path="url(#pae04ab57a5)" style="fill: none; stroke: #b0b0b0; stroke-width: 0.8; stroke-linecap: square"/>
     </g>
     <g id="line2d_20">
      <g>
       <use xlink:href="#m0154b6865a" x="72" y="308.16017" style="stroke: #000000; stroke-width: 0.8"/>
      </g>
     </g>
     <g id="text_11">
      <!-- 3 -->
      <g transform="translate(58.6375 311.959389)scale(0.1 -0.1)">
       <defs>
        <path id="DejaVuSans-33" d="M 2597 2516 
Q 3050 2419 3304 2112 
Q 3559 1806 3559 1356 
Q 3559 666 3084 287 
Q 2609 -91 1734 -91 
Q 1441 -91 1130 -33 
Q 819 25 488 141 
L 488 750 
Q 750 597 1062 519 
Q 1375 441 1716 441 
Q 2309 441 2620 675 
Q 2931 909 2931 1356 
Q 2931 1769 2642 2001 
Q 2353 2234 1838 2234 
L 1294 2234 
L 1294 2753 
L 1863 2753 
Q 2328 2753 2575 2939 
Q 2822 3125 2822 3475 
Q 2822 3834 2567 4026 
Q 2313 4219 1838 4219 
Q 1578 4219 1281 4162 
Q 984 4106 628 3988 
L 628 4550 
Q 988 4650 1302 4700 
Q 1616 4750 1894 4750 
Q 2613 4750 3031 4423 
Q 3450 4097 3450 3541 
Q 3450 3153 3228 2886 
Q 3006 2619 2597 2516 
z
" transform="scale(0.015625)"/>
       </defs>
       <use xlink:href="#DejaVuSans-33"/>
      </g>
     </g>
    </g>
    <g id="ytick_5">
     <g id="line2d_21">
      <path d="M 72 245.252378 
L 518.4 245.252378 
" clip-path="url(#pae04ab57a5)" style="fill: none; stroke: #b0b0b0; stroke-width: 0.8; stroke-linecap: square"/>
     </g>
     <g id="line2d_22">
      <g>
       <use xlink:href="#m0154b6865a" x="72" y="245.252378" style="stroke: #000000; stroke-width: 0.8"/>
      </g>
     </g>
     <g id="text_12">
      <!-- 4 -->
      <g transform="translate(58.6375 249.051597)scale(0.1 -0.1)">
       <use xlink:href="#DejaVuSans-34"/>
      </g>
     </g>
    </g>
    <g id="ytick_6">
     <g id="line2d_23">
      <path d="M 72 182.344587 
L 518.4 182.344587 
" clip-path="url(#pae04ab57a5)" style="fill: none; stroke: #b0b0b0; stroke-width: 0.8; stroke-linecap: square"/>
     </g>
     <g id="line2d_24">
      <g>
       <use xlink:href="#m0154b6865a" x="72" y="182.344587" style="stroke: #000000; stroke-width: 0.8"/>
      </g>
     </g>
     <g id="text_13">
      <!-- 5 -->
      <g transform="translate(58.6375 186.143805)scale(0.1 -0.1)">
       <defs>
        <path id="DejaVuSans-35" d="M 691 4666 
L 3169 4666 
L 3169 4134 
L 1269 4134 
L 1269 2991 
Q 1406 3038 1543 3061 
Q 1681 3084 1819 3084 
Q 2600 3084 3056 2656 
Q 3513 2228 3513 1497 
Q 3513 744 3044 326 
Q 2575 -91 1722 -91 
Q 1428 -91 1123 -41 
Q 819 9 494 109 
L 494 744 
Q 775 591 1075 516 
Q 1375 441 1709 441 
Q 2250 441 2565 725 
Q 2881 1009 2881 1497 
Q 2881 1984 2565 2268 
Q 2250 2553 1709 2553 
Q 1456 2553 1204 2497 
Q 953 2441 691 2322 
L 691 4666 
z
" transform="scale(0.015625)"/>
       </defs>
       <use xlink:href="#DejaVuSans-35"/>
      </g>
     </g>
    </g>
    <g id="ytick_7">
     <g id="line2d_25">
      <path d="M 72 119.436795 
L 518.4 119.436795 
" clip-path="url(#pae04ab57a5)" style="fill: none; stroke: #b0b0b0; stroke-width: 0.8; stroke-linecap: square"/>
     </g>
     <g id="line2d_26">
      <g>
       <use xlink:href="#m0154b6865a" x="72" y="119.436795" style="stroke: #000000; stroke-width: 0.8"/>
      </g>
     </g>
     <g id="text_14">
      <!-- 6 -->
      <g transform="translate(58.6375 123.236014)scale(0.1 -0.1)">
       <use xlink:href="#DejaVuSans-36"/>
      </g>
     </g>
    </g>
    <g id="text_15">
     <!-- $Transition \ Frequency \ [GHz]$ -->
     <g transform="translate(52.5375 359.53)rotate(-90)scale(0.1 -0.1)">
      <defs>
       <path id="DejaVuSans-Oblique-72" d="M 2853 2969 
Q 2766 3016 2653 3041 
Q 2541 3066 2413 3066 
Q 1953 3066 1609 2717 
Q 1266 2369 1153 1784 
L 800 0 
L 225 0 
L 909 3500 
L 1484 3500 
L 1375 2956 
Q 1603 3259 1920 3421 
Q 2238 3584 2597 3584 
Q 2691 3584 2781 3573 
Q 2872 3563 2963 3538 
L 2853 2969 
z
" transform="scale(0.015625)"/>
       <path id="DejaVuSans-Oblique-61" d="M 3438 1997 
L 3047 0 
L 2472 0 
L 2578 531 
Q 2325 219 2001 64 
Q 1678 -91 1281 -91 
Q 834 -91 548 182 
Q 263 456 263 884 
Q 263 1497 752 1853 
Q 1241 2209 2100 2209 
L 2900 2209 
L 2931 2363 
Q 2938 2388 2941 2417 
Q 2944 2447 2944 2509 
Q 2944 2788 2717 2942 
Q 2491 3097 2081 3097 
Q 1800 3097 1504 3025 
Q 1209 2953 897 2809 
L 997 3341 
Q 1322 3463 1633 3523 
Q 1944 3584 2234 3584 
Q 2853 3584 3176 3315 
Q 3500 3047 3500 2534 
Q 3500 2431 3484 2292 
Q 3469 2153 3438 1997 
z
M 2816 1759 
L 2241 1759 
Q 1534 1759 1195 1570 
Q 856 1381 856 984 
Q 856 709 1029 553 
Q 1203 397 1509 397 
Q 1978 397 2328 733 
Q 2678 1069 2791 1631 
L 2816 1759 
z
" transform="scale(0.015625)"/>
       <path id="DejaVuSans-Oblique-6e" d="M 3566 2113 
L 3156 0 
L 2578 0 
L 2988 2091 
Q 3016 2238 3031 2350 
Q 3047 2463 3047 2528 
Q 3047 2791 2881 2937 
Q 2716 3084 2419 3084 
Q 1956 3084 1622 2776 
Q 1288 2469 1184 1941 
L 800 0 
L 225 0 
L 903 3500 
L 1478 3500 
L 1363 2950 
Q 1603 3253 1940 3418 
Q 2278 3584 2650 3584 
Q 3113 3584 3367 3334 
Q 3622 3084 3622 2631 
Q 3622 2519 3608 2391 
Q 3594 2263 3566 2113 
z
" transform="scale(0.015625)"/>
       <path id="DejaVuSans-Oblique-73" d="M 3200 3397 
L 3091 2853 
Q 2863 2978 2609 3040 
Q 2356 3103 2088 3103 
Q 1634 3103 1373 2948 
Q 1113 2794 1113 2528 
Q 1113 2219 1719 2053 
Q 1766 2041 1788 2034 
L 1972 1978 
Q 2547 1819 2739 1644 
Q 2931 1469 2931 1166 
Q 2931 609 2489 259 
Q 2047 -91 1331 -91 
Q 1053 -91 747 -37 
Q 441 16 72 128 
L 184 722 
Q 500 559 806 475 
Q 1113 391 1394 391 
Q 1816 391 2080 572 
Q 2344 753 2344 1031 
Q 2344 1331 1650 1516 
L 1591 1531 
L 1394 1581 
Q 956 1697 753 1886 
Q 550 2075 550 2369 
Q 550 2928 970 3256 
Q 1391 3584 2113 3584 
Q 2397 3584 2667 3537 
Q 2938 3491 3200 3397 
z
" transform="scale(0.015625)"/>
       <path id="DejaVuSans-Oblique-69" d="M 1172 4863 
L 1747 4863 
L 1606 4134 
L 1031 4134 
L 1172 4863 
z
M 909 3500 
L 1484 3500 
L 800 0 
L 225 0 
L 909 3500 
z
" transform="scale(0.015625)"/>
       <path id="DejaVuSans-Oblique-74" d="M 2706 3500 
L 2619 3053 
L 1472 3053 
L 1100 1153 
Q 1081 1047 1072 975 
Q 1063 903 1063 863 
Q 1063 663 1183 572 
Q 1303 481 1569 481 
L 2150 481 
L 2053 0 
L 1503 0 
Q 991 0 739 200 
Q 488 400 488 806 
Q 488 878 497 964 
Q 506 1050 525 1153 
L 897 3053 
L 409 3053 
L 500 3500 
L 978 3500 
L 1172 4494 
L 1747 4494 
L 1556 3500 
L 2706 3500 
z
" transform="scale(0.015625)"/>
       <path id="DejaVuSans-Oblique-6f" d="M 1625 -91 
Q 1009 -91 651 289 
Q 294 669 294 1325 
Q 294 1706 417 2101 
Q 541 2497 738 2766 
Q 1047 3184 1428 3384 
Q 1809 3584 2291 3584 
Q 2888 3584 3255 3212 
Q 3622 2841 3622 2241 
Q 3622 1825 3500 1412 
Q 3378 1000 3181 728 
Q 2875 309 2494 109 
Q 2113 -91 1625 -91 
z
M 891 1344 
Q 891 869 1089 633 
Q 1288 397 1691 397 
Q 2269 397 2648 901 
Q 3028 1406 3028 2181 
Q 3028 2634 2825 2865 
Q 2622 3097 2228 3097 
Q 1903 3097 1650 2945 
Q 1397 2794 1197 2484 
Q 1050 2253 970 1956 
Q 891 1659 891 1344 
z
" transform="scale(0.015625)"/>
       <path id="DejaVuSans-Oblique-46" d="M 1081 4666 
L 3756 4666 
L 3653 4134 
L 1606 4134 
L 1338 2759 
L 3188 2759 
L 3084 2228 
L 1234 2228 
L 800 0 
L 172 0 
L 1081 4666 
z
" transform="scale(0.015625)"/>
       <path id="DejaVuSans-Oblique-65" d="M 3078 2063 
Q 3088 2113 3092 2166 
Q 3097 2219 3097 2272 
Q 3097 2653 2873 2875 
Q 2650 3097 2266 3097 
Q 1838 3097 1509 2826 
Q 1181 2556 1013 2059 
L 3078 2063 
z
M 3578 1613 
L 903 1613 
Q 884 1494 878 1425 
Q 872 1356 872 1306 
Q 872 872 1139 634 
Q 1406 397 1894 397 
Q 2269 397 2603 481 
Q 2938 566 3225 728 
L 3116 159 
Q 2806 34 2476 -28 
Q 2147 -91 1806 -91 
Q 1078 -91 686 257 
Q 294 606 294 1247 
Q 294 1794 489 2264 
Q 684 2734 1063 3103 
Q 1306 3334 1642 3459 
Q 1978 3584 2356 3584 
Q 2950 3584 3301 3228 
Q 3653 2872 3653 2272 
Q 3653 2128 3634 1964 
Q 3616 1800 3578 1613 
z
" transform="scale(0.015625)"/>
       <path id="DejaVuSans-Oblique-71" d="M 2669 525 
Q 2438 222 2123 65 
Q 1809 -91 1428 -91 
Q 897 -91 595 267 
Q 294 625 294 1253 
Q 294 1759 480 2231 
Q 666 2703 1013 3078 
Q 1238 3322 1530 3453 
Q 1822 3584 2144 3584 
Q 2531 3584 2781 3431 
Q 3031 3278 3144 2969 
L 3244 3494 
L 3822 3494 
L 2888 -1319 
L 2309 -1319 
L 2669 525 
z
M 891 1338 
Q 891 875 1084 633 
Q 1278 391 1644 391 
Q 2188 391 2572 911 
Q 2956 1431 2956 2175 
Q 2956 2625 2757 2864 
Q 2559 3103 2188 3103 
Q 1916 3103 1684 2976 
Q 1453 2850 1281 2606 
Q 1100 2350 995 2006 
Q 891 1663 891 1338 
z
" transform="scale(0.015625)"/>
       <path id="DejaVuSans-Oblique-75" d="M 428 1388 
L 838 3500 
L 1416 3500 
L 1006 1409 
Q 975 1256 961 1147 
Q 947 1038 947 966 
Q 947 700 1109 554 
Q 1272 409 1569 409 
Q 2031 409 2368 721 
Q 2706 1034 2809 1563 
L 3194 3500 
L 3769 3500 
L 3091 0 
L 2516 0 
L 2631 550 
Q 2388 244 2052 76 
Q 1716 -91 1338 -91 
Q 878 -91 622 161 
Q 366 413 366 863 
Q 366 956 381 1097 
Q 397 1238 428 1388 
z
" transform="scale(0.015625)"/>
       <path id="DejaVuSans-Oblique-63" d="M 3431 3366 
L 3316 2797 
Q 3109 2947 2876 3022 
Q 2644 3097 2394 3097 
Q 2119 3097 1870 3000 
Q 1622 2903 1453 2725 
Q 1184 2453 1037 2087 
Q 891 1722 891 1331 
Q 891 859 1127 628 
Q 1363 397 1844 397 
Q 2081 397 2348 469 
Q 2616 541 2906 684 
L 2797 116 
Q 2547 13 2283 -39 
Q 2019 -91 1741 -91 
Q 1044 -91 669 257 
Q 294 606 294 1253 
Q 294 1797 489 2255 
Q 684 2713 1069 3078 
Q 1331 3328 1684 3456 
Q 2038 3584 2456 3584 
Q 2700 3584 2940 3529 
Q 3181 3475 3431 3366 
z
" transform="scale(0.015625)"/>
       <path id="DejaVuSans-Oblique-79" d="M 1588 -325 
Q 1188 -997 936 -1164 
Q 684 -1331 294 -1331 
L -159 -1331 
L -63 -850 
L 269 -850 
Q 509 -850 678 -719 
Q 847 -588 1056 -206 
L 1234 128 
L 459 3500 
L 1069 3500 
L 1650 819 
L 3256 3500 
L 3859 3500 
L 1588 -325 
z
" transform="scale(0.015625)"/>
       <path id="DejaVuSans-Oblique-47" d="M 3494 697 
L 3738 1919 
L 2700 1919 
L 2797 2438 
L 4453 2438 
L 4050 384 
Q 3634 156 3143 32 
Q 2653 -91 2156 -91 
Q 1278 -91 783 396 
Q 288 884 288 1753 
Q 288 2475 589 3126 
Q 891 3778 1422 4213 
Q 1756 4484 2153 4617 
Q 2550 4750 3034 4750 
Q 3472 4750 3873 4639 
Q 4275 4528 4641 4306 
L 4513 3634 
Q 4231 3928 3853 4083 
Q 3475 4238 3047 4238 
Q 2550 4238 2172 4048 
Q 1794 3859 1497 3463 
Q 1244 3125 1098 2667 
Q 953 2209 953 1734 
Q 953 1081 1287 751 
Q 1622 422 2284 422 
Q 2616 422 2925 492 
Q 3234 563 3494 697 
z
" transform="scale(0.015625)"/>
       <path id="DejaVuSans-Oblique-48" d="M 1081 4666 
L 1716 4666 
L 1344 2753 
L 3634 2753 
L 4006 4666 
L 4641 4666 
L 3731 0 
L 3097 0 
L 3531 2222 
L 1241 2222 
L 806 0 
L 172 0 
L 1081 4666 
z
" transform="scale(0.015625)"/>
       <path id="DejaVuSans-Oblique-7a" d="M 744 3500 
L 3475 3500 
L 3372 2975 
L 738 459 
L 2913 459 
L 2822 0 
L -19 0 
L 84 525 
L 2719 3041 
L 653 3041 
L 744 3500 
z
" transform="scale(0.015625)"/>
      </defs>
      <use xlink:href="#DejaVuSans-Oblique-54" transform="translate(0 0.015625)"/>
      <use xlink:href="#DejaVuSans-Oblique-72" transform="translate(61.083984 0.015625)"/>
      <use xlink:href="#DejaVuSans-Oblique-61" transform="translate(102.197266 0.015625)"/>
      <use xlink:href="#DejaVuSans-Oblique-6e" transform="translate(163.476562 0.015625)"/>
      <use xlink:href="#DejaVuSans-Oblique-73" transform="translate(226.855469 0.015625)"/>
      <use xlink:href="#DejaVuSans-Oblique-69" transform="translate(278.955078 0.015625)"/>
      <use xlink:href="#DejaVuSans-Oblique-74" transform="translate(306.738281 0.015625)"/>
      <use xlink:href="#DejaVuSans-Oblique-69" transform="translate(345.947266 0.015625)"/>
      <use xlink:href="#DejaVuSans-Oblique-6f" transform="translate(373.730469 0.015625)"/>
      <use xlink:href="#DejaVuSans-Oblique-6e" transform="translate(434.912109 0.015625)"/>
      <use xlink:href="#DejaVuSans-Oblique-46" transform="translate(530.761394 0.015625)"/>
      <use xlink:href="#DejaVuSans-Oblique-72" transform="translate(588.280925 0.015625)"/>
      <use xlink:href="#DejaVuSans-Oblique-65" transform="translate(629.394207 0.015625)"/>
      <use xlink:href="#DejaVuSans-Oblique-71" transform="translate(690.917644 0.015625)"/>
      <use xlink:href="#DejaVuSans-Oblique-75" transform="translate(754.394207 0.015625)"/>
      <use xlink:href="#DejaVuSans-Oblique-65" transform="translate(817.773113 0.015625)"/>
      <use xlink:href="#DejaVuSans-Oblique-6e" transform="translate(879.29655 0.015625)"/>
      <use xlink:href="#DejaVuSans-Oblique-63" transform="translate(942.675457 0.015625)"/>
      <use xlink:href="#DejaVuSans-Oblique-79" transform="translate(997.655925 0.015625)"/>
      <use xlink:href="#DejaVuSans-5b" transform="translate(1089.305991 0.015625)"/>
      <use xlink:href="#DejaVuSans-Oblique-47" transform="translate(1128.319663 0.015625)"/>
      <use xlink:href="#DejaVuSans-Oblique-48" transform="translate(1205.809897 0.015625)"/>
      <use xlink:href="#DejaVuSans-Oblique-7a" transform="translate(1281.00521 0.015625)"/>
      <use xlink:href="#DejaVuSans-5d" transform="translate(1333.495444 0.015625)"/>
     </g>
    </g>
   </g>
   <g id="line2d_27">
    <path d="M 92.290909 316.338183 
L 96.390083 314.558973 
L 100.489256 312.779762 
L 104.58843 311.000552 
L 108.687603 309.221342 
L 112.786777 307.442132 
L 116.88595 305.662921 
L 120.985124 303.883711 
L 125.084298 302.104501 
L 129.183471 300.325291 
L 133.282645 298.54608 
L 137.381818 296.76687 
L 141.480992 294.98766 
L 145.580165 293.208449 
L 149.679339 291.429239 
L 153.778512 289.650029 
L 157.877686 287.870819 
L 161.97686 286.091608 
L 166.076033 284.312398 
L 170.175207 282.533188 
L 174.27438 280.753978 
L 178.373554 278.974767 
L 182.472727 277.195557 
L 186.571901 275.416347 
L 190.671074 273.637136 
L 194.770248 271.857926 
L 198.869421 270.078716 
L 202.968595 268.299506 
L 207.067769 266.520295 
L 211.166942 264.741085 
L 215.266116 262.961875 
L 219.365289 261.182665 
L 223.464463 259.403454 
L 227.563636 257.624244 
L 231.66281 255.845034 
L 235.761983 254.065823 
L 239.861157 252.286613 
L 243.960331 250.507403 
L 248.059504 248.728193 
L 252.158678 246.948982 
L 256.257851 245.169772 
L 260.357025 243.390562 
L 264.456198 241.611352 
L 268.555372 239.832141 
L 272.654545 238.052931 
L 276.753719 236.273721 
L 280.852893 234.49451 
L 284.952066 232.7153 
L 289.05124 230.93609 
L 293.150413 229.15688 
L 297.249587 227.377669 
L 301.34876 225.598459 
L 305.447934 223.819249 
L 309.547107 222.040039 
L 313.646281 220.260828 
L 317.745455 218.481618 
L 321.844628 216.702408 
L 325.943802 214.923197 
L 330.042975 213.143987 
L 334.142149 211.364777 
L 338.241322 209.585567 
L 342.340496 207.806356 
L 346.439669 206.027146 
L 350.538843 204.247936 
L 354.638017 202.468726 
L 358.73719 200.689515 
L 362.836364 198.910305 
L 366.935537 197.131095 
L 371.034711 195.351884 
L 375.133884 193.572674 
L 379.233058 191.793464 
L 383.332231 190.014254 
L 387.431405 188.235043 
L 391.530579 186.455833 
L 395.629752 184.676623 
L 399.728926 182.897413 
L 403.828099 181.118202 
L 407.927273 179.338992 
L 412.026446 177.559782 
L 416.12562 175.780571 
L 420.224793 174.001361 
L 424.323967 172.222151 
L 428.42314 170.442941 
L 432.522314 168.66373 
L 436.621488 166.88452 
L 440.720661 165.10531 
L 444.819835 163.3261 
L 448.919008 161.546889 
L 453.018182 159.767679 
L 457.117355 157.988469 
L 461.216529 156.209258 
L 465.315702 154.430048 
L 469.414876 152.650838 
L 473.51405 150.871628 
L 477.613223 149.092417 
L 481.712397 147.313207 
L 485.81157 145.533997 
L 489.910744 143.754787 
L 494.009917 141.975576 
L 498.109091 140.196366 
" clip-path="url(#pae04ab57a5)" style="fill: none; stroke: #000000; stroke-width: 1.5; stroke-linecap: square"/>
   </g>
   <g id="line2d_28">
    <path d="M 92.290909 316.338183 
L 96.390083 318.117393 
L 100.489256 319.896604 
L 104.58843 321.675814 
L 108.687603 323.455024 
L 112.786777 325.234234 
L 116.88595 327.013445 
L 120.985124 328.792655 
L 125.084298 330.571865 
L 129.183471 332.351075 
L 133.282645 334.130286 
L 137.381818 335.909496 
L 141.480992 337.688706 
L 145.580165 339.467917 
L 149.679339 341.247127 
L 153.778512 343.026337 
L 157.877686 344.805547 
L 161.97686 346.584758 
L 166.076033 348.363968 
L 170.175207 350.143178 
L 174.27438 351.922388 
L 178.373554 353.701599 
L 182.472727 355.480809 
L 186.571901 357.260019 
L 190.671074 359.03923 
L 194.770248 360.81844 
L 198.869421 362.59765 
L 202.968595 364.37686 
L 207.067769 366.156071 
L 211.166942 367.935281 
L 215.266116 369.714491 
L 219.365289 371.493701 
L 223.464463 373.272912 
L 227.563636 375.052122 
L 231.66281 376.831332 
L 235.761983 378.610543 
L 239.861157 380.389753 
L 243.960331 382.168963 
L 248.059504 383.948173 
L 252.158678 385.727384 
L 256.257851 387.506594 
L 260.357025 389.285804 
L 264.456198 391.065014 
L 268.555372 392.844225 
L 272.654545 394.623435 
L 276.753719 396.402645 
L 280.852893 398.181856 
L 284.952066 399.961066 
L 289.05124 401.740276 
L 293.150413 403.519486 
L 297.249587 405.298697 
L 301.34876 407.077907 
L 305.447934 408.857117 
L 309.547107 410.636327 
L 313.646281 412.415538 
L 317.745455 414.194748 
L 321.844628 415.973958 
L 325.943802 417.753169 
L 330.042975 419.532379 
L 334.142149 421.311589 
L 338.241322 423.090799 
L 342.340496 424.87001 
L 346.439669 426.64922 
L 350.538843 428.42843 
L 354.638017 430.20764 
L 358.73719 431.986851 
L 362.836364 433.766061 
L 366.935537 435.545271 
L 371.034711 437.324482 
L 375.133884 439.103692 
L 379.233058 440.882902 
L 383.332231 442.662112 
L 387.431405 444.441323 
L 391.530579 446.220533 
L 395.629752 447.999743 
L 399.728926 449.778953 
L 403.828099 451.558164 
L 407.927273 453.337374 
L 412.026446 455.116584 
L 416.12562 456.895795 
L 420.224793 458.675005 
L 424.323967 460.454215 
L 428.42314 462.233425 
L 432.522314 464.012636 
L 436.621488 465.791846 
L 440.720661 467.571056 
L 444.819835 469.350266 
L 448.919008 471.129477 
L 453.018182 472.908687 
L 457.117355 474.687897 
L 461.216529 476.467108 
L 465.315702 478.246318 
L 469.414876 480.025528 
L 473.51405 481.804738 
L 477.613223 483.583949 
L 481.712397 485.363159 
L 485.81157 487.142369 
L 489.910744 488.921579 
L 494.009917 490.70079 
L 498.109091 492.48 
" clip-path="url(#pae04ab57a5)" style="fill: none; stroke: #000000; stroke-width: 1.5; stroke-linecap: square"/>
   </g>
   <g id="line2d_29">
    <path d="M 92.290909 316.338183 
L 96.390083 314.790783 
L 100.489256 313.230332 
L 104.58843 311.656921 
L 108.687603 310.070633 
L 112.786777 308.471545 
L 116.88595 306.859726 
L 120.985124 305.235238 
L 125.084298 303.598134 
L 129.183471 301.948462 
L 133.282645 300.286261 
L 137.381818 298.611564 
L 141.480992 296.924397 
L 145.580165 295.224778 
L 149.679339 293.512718 
L 153.778512 291.788223 
L 157.877686 290.051291 
L 161.97686 288.301913 
L 166.076033 286.540074 
L 170.175207 284.765753 
L 174.27438 282.978921 
L 178.373554 281.179545 
L 182.472727 279.367584 
L 186.571901 277.542993 
L 190.671074 275.705719 
L 194.770248 273.855705 
L 198.869421 271.992887 
L 202.968595 270.117197 
L 207.067769 268.228562 
L 211.166942 266.326902 
L 215.266116 264.412134 
L 219.365289 262.484171 
L 223.464463 260.542919 
L 227.563636 258.588283 
L 231.66281 256.620161 
L 235.761983 254.638451 
L 239.861157 252.643045 
L 243.960331 250.633833 
L 248.059504 248.610702 
L 252.158678 246.573538 
L 256.257851 244.522224 
L 260.357025 242.45664 
L 264.456198 240.376668 
L 268.555372 238.282187 
L 272.654545 236.173077 
L 276.753719 234.049216 
L 280.852893 231.910485 
L 284.952066 229.756764 
L 289.05124 227.587935 
L 293.150413 225.403883 
L 297.249587 223.204494 
L 301.34876 220.989658 
L 305.447934 218.759268 
L 309.547107 216.51322 
L 313.646281 214.251416 
L 317.745455 211.973761 
L 321.844628 209.680167 
L 325.943802 207.370551 
L 330.042975 205.044836 
L 334.142149 202.702952 
L 338.241322 200.344838 
L 342.340496 197.970437 
L 346.439669 195.579702 
L 350.538843 193.172595 
L 354.638017 190.749086 
L 358.73719 188.309152 
L 362.836364 185.852782 
L 366.935537 183.379973 
L 371.034711 180.890732 
L 375.133884 178.385076 
L 379.233058 175.863031 
L 383.332231 173.324633 
L 387.431405 170.76993 
L 391.530579 168.198977 
L 395.629752 165.611841 
L 399.728926 163.008598 
L 403.828099 160.389334 
L 407.927273 157.754144 
L 412.026446 155.103134 
L 416.12562 152.436417 
L 420.224793 149.754116 
L 424.323967 147.056362 
L 428.42314 144.343294 
L 432.522314 141.615061 
L 436.621488 138.871816 
L 440.720661 136.113721 
L 444.819835 133.340945 
L 448.919008 130.553663 
L 453.018182 127.752055 
L 457.117355 124.936308 
L 461.216529 122.106611 
L 465.315702 119.263161 
L 469.414876 116.406156 
L 473.51405 113.5358 
L 477.613223 110.652298 
L 481.712397 107.75586 
L 485.81157 104.846696 
L 489.910744 101.92502 
L 494.009917 98.991045 
L 498.109091 96.044987 
" clip-path="url(#pae04ab57a5)" style="fill: none; stroke: #1f77b4; stroke-width: 1.5; stroke-linecap: square"/>
   </g>
   <g id="line2d_30">
    <path d="M 92.290909 316.338183 
L 96.390083 317.872432 
L 100.489256 319.393423 
L 104.58843 320.901043 
L 108.687603 322.395168 
L 112.786777 323.875669 
L 116.88595 325.342409 
L 120.985124 326.795241 
L 125.084298 328.234011 
L 129.183471 329.65856 
L 133.282645 331.068716 
L 137.381818 332.464304 
L 141.480992 333.845137 
L 145.580165 335.211022 
L 149.679339 336.561758 
L 153.778512 337.897137 
L 157.877686 339.216941 
L 161.97686 340.520945 
L 166.076033 341.808918 
L 170.175207 343.080618 
L 174.27438 344.335799 
L 178.373554 345.574204 
L 182.472727 346.795571 
L 186.571901 347.99963 
L 190.671074 349.186104 
L 194.770248 350.354709 
L 198.869421 351.505153 
L 202.968595 352.637141 
L 207.067769 353.750367 
L 211.166942 354.844523 
L 215.266116 355.919293 
L 219.365289 356.974357 
L 223.464463 358.009389 
L 227.563636 359.024058 
L 231.66281 360.01803 
L 235.761983 360.990968 
L 239.861157 361.942529 
L 243.960331 362.872369 
L 248.059504 363.780142 
L 252.158678 364.6655 
L 256.257851 365.528094 
L 260.357025 366.367576 
L 264.456198 367.183595 
L 268.555372 367.975805 
L 272.654545 368.743861 
L 276.753719 369.487418 
L 280.852893 370.206137 
L 284.952066 370.899684 
L 289.05124 371.567729 
L 293.150413 372.209947 
L 297.249587 372.826022 
L 301.34876 373.415646 
L 305.447934 373.978518 
L 309.547107 374.514348 
L 313.646281 375.022857 
L 317.745455 375.503777 
L 321.844628 375.956853 
L 325.943802 376.381843 
L 330.042975 376.778521 
L 334.142149 377.146673 
L 338.241322 377.486103 
L 342.340496 377.796633 
L 346.439669 378.0781 
L 350.538843 378.33036 
L 354.638017 378.553289 
L 358.73719 378.74678 
L 362.836364 378.910748 
L 366.935537 379.045127 
L 371.034711 379.149872 
L 375.133884 379.224959 
L 379.233058 379.270385 
L 383.332231 379.286167 
L 387.431405 379.272346 
L 391.530579 379.22898 
L 395.629752 379.156152 
L 399.728926 379.053964 
L 403.828099 378.922538 
L 407.927273 378.762017 
L 412.026446 378.572563 
L 416.12562 378.35436 
L 420.224793 378.107605 
L 424.323967 377.832519 
L 428.42314 377.529337 
L 432.522314 377.198311 
L 436.621488 376.83971 
L 440.720661 376.453816 
L 444.819835 376.040927 
L 448.919008 375.601354 
L 453.018182 375.135419 
L 457.117355 374.643459 
L 461.216529 374.125817 
L 465.315702 373.582848 
L 469.414876 373.014918 
L 473.51405 372.422396 
L 477.613223 371.805662 
L 481.712397 371.1651 
L 485.81157 370.5011 
L 489.910744 369.814057 
L 494.009917 369.104368 
L 498.109091 368.372434 
" clip-path="url(#pae04ab57a5)" style="fill: none; stroke: #1f77b4; stroke-width: 1.5; stroke-linecap: square"/>
   </g>
   <g id="line2d_31">
    <path d="M 92.290909 316.338183 
L 96.390083 315.428862 
L 100.489256 314.480152 
L 104.58843 313.492137 
L 108.687603 312.464921 
L 112.786777 311.398633 
L 116.88595 310.293421 
L 120.985124 309.149456 
L 125.084298 307.96693 
L 129.183471 306.746054 
L 133.282645 305.48706 
L 137.381818 304.190199 
L 141.480992 302.855741 
L 145.580165 301.483971 
L 149.679339 300.075196 
L 153.778512 298.629735 
L 157.877686 297.147925 
L 161.97686 295.630117 
L 166.076033 294.076677 
L 170.175207 292.487984 
L 174.27438 290.864428 
L 178.373554 289.206412 
L 182.472727 287.51435 
L 186.571901 285.788665 
L 190.671074 284.02979 
L 194.770248 282.238166 
L 198.869421 280.414241 
L 202.968595 278.55847 
L 207.067769 276.671315 
L 211.166942 274.753241 
L 215.266116 272.804719 
L 219.365289 270.826223 
L 223.464463 268.818231 
L 227.563636 266.78122 
L 231.66281 264.715673 
L 235.761983 262.622071 
L 239.861157 260.500896 
L 243.960331 258.35263 
L 248.059504 256.177753 
L 252.158678 253.976745 
L 256.257851 251.750083 
L 260.357025 249.498242 
L 264.456198 247.221694 
L 268.555372 244.920909 
L 272.654545 242.596352 
L 276.753719 240.248482 
L 280.852893 237.877759 
L 284.952066 235.484632 
L 289.05124 233.069549 
L 293.150413 230.632953 
L 297.249587 228.175278 
L 301.34876 225.696956 
L 305.447934 223.198411 
L 309.547107 220.680062 
L 313.646281 218.14232 
L 317.745455 215.585591 
L 321.844628 213.010275 
L 325.943802 210.416764 
L 330.042975 207.805445 
L 334.142149 205.176696 
L 338.241322 202.53089 
L 342.340496 199.868392 
L 346.439669 197.189563 
L 350.538843 194.494753 
L 354.638017 191.784307 
L 358.73719 189.058565 
L 362.836364 186.317858 
L 366.935537 183.562511 
L 371.034711 180.792841 
L 375.133884 178.009161 
L 379.233058 175.211775 
L 383.332231 172.400983 
L 387.431405 169.577075 
L 391.530579 166.740338 
L 395.629752 163.891051 
L 399.728926 161.029487 
L 403.828099 158.155913 
L 407.927273 155.27059 
L 412.026446 152.373774 
L 416.12562 149.465713 
L 420.224793 146.546652 
L 424.323967 143.616828 
L 428.42314 140.676474 
L 432.522314 137.725816 
L 436.621488 134.765078 
L 440.720661 131.794474 
L 444.819835 128.814217 
L 448.919008 125.824513 
L 453.018182 122.825563 
L 457.117355 119.817565 
L 461.216529 116.800711 
L 465.315702 113.775188 
L 469.414876 110.741179 
L 473.51405 107.698862 
L 477.613223 104.648414 
L 481.712397 101.590003 
L 485.81157 98.523796 
L 489.910744 95.449954 
L 494.009917 92.368638 
L 498.109091 89.28 
" clip-path="url(#pae04ab57a5)" style="fill: none; stroke: #ff0000; stroke-width: 1.5; stroke-linecap: square"/>
   </g>
   <g id="line2d_32">
    <path d="M 92.290909 316.338183 
L 96.390083 317.208056 
L 100.489256 318.038443 
L 104.58843 318.829331 
L 108.687603 319.580729 
L 112.786777 320.292669 
L 116.88595 320.965208 
L 120.985124 321.598423 
L 125.084298 322.192418 
L 129.183471 322.747317 
L 133.282645 323.263266 
L 137.381818 323.740437 
L 141.480992 324.179019 
L 145.580165 324.579225 
L 149.679339 324.941289 
L 153.778512 325.265465 
L 157.877686 325.552026 
L 161.97686 325.801264 
L 166.076033 326.013491 
L 170.175207 326.189036 
L 174.27438 326.328244 
L 178.373554 326.431477 
L 182.472727 326.499112 
L 186.571901 326.53154 
L 190.671074 326.529168 
L 194.770248 326.492413 
L 198.869421 326.421705 
L 202.968595 326.317485 
L 207.067769 326.180204 
L 211.166942 326.010322 
L 215.266116 325.808309 
L 219.365289 325.57464 
L 223.464463 325.309798 
L 227.563636 325.014271 
L 231.66281 324.688553 
L 235.761983 324.333141 
L 239.861157 323.948536 
L 243.960331 323.53524 
L 248.059504 323.093758 
L 252.158678 322.624597 
L 256.257851 322.128261 
L 260.357025 321.605258 
L 264.456198 321.056091 
L 268.555372 320.481263 
L 272.654545 319.881276 
L 276.753719 319.256628 
L 280.852893 318.607813 
L 284.952066 317.935322 
L 289.05124 317.239643 
L 293.150413 316.521258 
L 297.249587 315.780644 
L 301.34876 315.018274 
L 305.447934 314.234614 
L 309.547107 313.430125 
L 313.646281 312.60526 
L 317.745455 311.760469 
L 321.844628 310.896191 
L 325.943802 310.012863 
L 330.042975 309.110911 
L 334.142149 308.190755 
L 338.241322 307.25281 
L 342.340496 306.29748 
L 346.439669 305.325165 
L 350.538843 304.336254 
L 354.638017 303.331133 
L 358.73719 302.310176 
L 362.836364 301.273753 
L 366.935537 300.222223 
L 371.034711 299.155941 
L 375.133884 298.075253 
L 379.233058 296.980496 
L 383.332231 295.872003 
L 387.431405 294.750096 
L 391.530579 293.615093 
L 395.629752 292.467303 
L 399.728926 291.307028 
L 403.828099 290.134563 
L 407.927273 288.950198 
L 412.026446 287.754213 
L 416.12562 286.546883 
L 420.224793 285.328477 
L 424.323967 284.099256 
L 428.42314 282.859476 
L 432.522314 281.609387 
L 436.621488 280.349231 
L 440.720661 279.079245 
L 444.819835 277.799661 
L 448.919008 276.510704 
L 453.018182 275.212594 
L 457.117355 273.905544 
L 461.216529 272.589765 
L 465.315702 271.265459 
L 469.414876 269.932825 
L 473.51405 268.592055 
L 477.613223 267.24334 
L 481.712397 265.886862 
L 485.81157 264.522799 
L 489.910744 263.151328 
L 494.009917 261.772616 
L 498.109091 260.38683 
" clip-path="url(#pae04ab57a5)" style="fill: none; stroke: #ff0000; stroke-width: 1.5; stroke-linecap: square"/>
   </g>
   <g id="line2d_33">
    <path d="M 92.290909 316.338183 
L 96.390083 316.303119 
L 100.489256 316.19797 
L 104.58843 316.022856 
L 108.687603 315.777981 
L 112.786777 315.463627 
L 116.88595 315.080155 
L 120.985124 314.628001 
L 125.084298 314.107675 
L 129.183471 313.519757 
L 133.282645 312.864895 
L 137.381818 312.143801 
L 141.480992 311.357247 
L 145.580165 310.506062 
L 149.679339 309.591127 
L 153.778512 308.613372 
L 157.877686 307.57377 
L 161.97686 306.473333 
L 166.076033 305.313111 
L 170.175207 304.094182 
L 174.27438 302.817653 
L 178.373554 301.484653 
L 182.472727 300.096329 
L 186.571901 298.653844 
L 190.671074 297.158371 
L 194.770248 295.611091 
L 198.869421 294.01319 
L 202.968595 292.365854 
L 207.067769 290.670268 
L 211.166942 288.927613 
L 215.266116 287.13906 
L 219.365289 285.305775 
L 223.464463 283.42891 
L 227.563636 281.509605 
L 231.66281 279.548982 
L 235.761983 277.548152 
L 239.861157 275.508203 
L 243.960331 273.430207 
L 248.059504 271.315216 
L 252.158678 269.164261 
L 256.257851 266.97835 
L 260.357025 264.758472 
L 264.456198 262.505592 
L 268.555372 260.220651 
L 272.654545 257.90457 
L 276.753719 255.558246 
L 280.852893 253.182551 
L 284.952066 250.778336 
L 289.05124 248.34643 
L 293.150413 245.887636 
L 297.249587 243.402738 
L 301.34876 240.892495 
L 305.447934 238.357646 
L 309.547107 235.798908 
L 313.646281 233.216975 
L 317.745455 230.612523 
L 321.844628 227.986207 
L 325.943802 225.33866 
L 330.042975 222.670497 
L 334.142149 219.982314 
L 338.241322 217.27469 
L 342.340496 214.548182 
L 346.439669 211.803333 
L 350.538843 209.040668 
L 354.638017 206.260695 
L 358.73719 203.463905 
L 362.836364 200.650775 
L 366.935537 197.821767 
L 371.034711 194.977326 
L 375.133884 192.117884 
L 379.233058 189.24386 
L 383.332231 186.355659 
L 387.431405 183.453672 
L 391.530579 180.53828 
L 395.629752 177.609848 
L 399.728926 174.668734 
L 403.828099 171.71528 
L 407.927273 168.749821 
L 412.026446 165.772678 
L 416.12562 162.784164 
L 420.224793 159.784582 
L 424.323967 156.774224 
L 428.42314 153.753374 
L 432.522314 150.722306 
L 436.621488 147.681287 
L 440.720661 144.630574 
L 444.819835 141.570418 
L 448.919008 138.501059 
L 453.018182 135.422733 
L 457.117355 132.335667 
L 461.216529 129.24008 
L 465.315702 126.136186 
L 469.414876 123.024193 
L 473.51405 119.9043 
L 477.613223 116.776702 
L 481.712397 113.641588 
L 485.81157 110.499141 
L 489.910744 107.349538 
L 494.009917 104.192952 
L 498.109091 101.029549 
" clip-path="url(#pae04ab57a5)" style="fill: none; stroke: #008000; stroke-width: 1.5; stroke-linecap: square"/>
   </g>
   <g id="line2d_34">
    <path d="M 92.290909 316.338183 
L 96.390083 316.320651 
L 100.489256 316.268076 
L 104.58843 316.180519 
L 108.687603 316.058082 
L 112.786777 315.900905 
L 116.88595 315.709169 
L 120.985124 315.483092 
L 125.084298 315.222929 
L 129.183471 314.92897 
L 133.282645 314.601539 
L 137.381818 314.240992 
L 141.480992 313.847715 
L 145.580165 313.422123 
L 149.679339 312.964655 
L 153.778512 312.475778 
L 157.877686 311.955976 
L 161.97686 311.405758 
L 166.076033 310.825647 
L 170.175207 310.216182 
L 174.27438 309.577918 
L 178.373554 308.911418 
L 182.472727 308.217256 
L 186.571901 307.496013 
L 190.671074 306.748277 
L 194.770248 305.974637 
L 198.869421 305.175687 
L 202.968595 304.352019 
L 207.067769 303.504226 
L 211.166942 302.632898 
L 215.266116 301.738622 
L 219.365289 300.821979 
L 223.464463 299.883547 
L 227.563636 298.923894 
L 231.66281 297.943583 
L 235.761983 296.943167 
L 239.861157 295.923193 
L 243.960331 294.884195 
L 248.059504 293.8267 
L 252.158678 292.751222 
L 256.257851 291.658267 
L 260.357025 290.548328 
L 264.456198 289.421887 
L 268.555372 288.279417 
L 272.654545 287.121377 
L 276.753719 285.948214 
L 280.852893 284.760367 
L 284.952066 283.55826 
L 289.05124 282.342306 
L 293.150413 281.11291 
L 297.249587 279.87046 
L 301.34876 278.615339 
L 305.447934 277.347915 
L 309.547107 276.068545 
L 313.646281 274.777579 
L 317.745455 273.475353 
L 321.844628 272.162195 
L 325.943802 270.838421 
L 330.042975 269.50434 
L 334.142149 268.160249 
L 338.241322 266.806436 
L 342.340496 265.443183 
L 346.439669 264.070758 
L 350.538843 262.689426 
L 354.638017 261.299439 
L 358.73719 259.901044 
L 362.836364 258.494479 
L 366.935537 257.079975 
L 371.034711 255.657754 
L 375.133884 254.228033 
L 379.233058 252.791021 
L 383.332231 251.346921 
L 387.431405 249.895928 
L 391.530579 248.438231 
L 395.629752 246.974016 
L 399.728926 245.503458 
L 403.828099 244.026732 
L 407.927273 242.544002 
L 412.026446 241.055431 
L 416.12562 239.561174 
L 420.224793 238.061382 
L 424.323967 236.556203 
L 428.42314 235.045778 
L 432.522314 233.530244 
L 436.621488 232.009735 
L 440.720661 230.484379 
L 444.819835 228.9543 
L 448.919008 227.419621 
L 453.018182 225.880458 
L 457.117355 224.336925 
L 461.216529 222.789131 
L 465.315702 221.237185 
L 469.414876 219.681188 
L 473.51405 218.121241 
L 477.613223 216.557443 
L 481.712397 214.989886 
L 485.81157 213.418662 
L 489.910744 211.843861 
L 494.009917 210.265567 
L 498.109091 208.683866 
" clip-path="url(#pae04ab57a5)" style="fill: none; stroke: #008000; stroke-width: 1.5; stroke-linecap: square"/>
   </g>
   <g id="patch_3">
    <path d="M 72 512.64 
L 72 69.12 
" style="fill: none; stroke: #000000; stroke-width: 0.8; stroke-linejoin: miter; stroke-linecap: square"/>
   </g>
   <g id="patch_4">
    <path d="M 518.4 512.64 
L 518.4 69.12 
" style="fill: none; stroke: #000000; stroke-width: 0.8; stroke-linejoin: miter; stroke-linecap: square"/>
   </g>
   <g id="patch_5">
    <path d="M 72 512.64 
L 518.4 512.64 
" style="fill: none; stroke: #000000; stroke-width: 0.8; stroke-linejoin: miter; stroke-linecap: square"/>
   </g>
   <g id="patch_6">
    <path d="M 72 69.12 
L 518.4 69.12 
" style="fill: none; stroke: #000000; stroke-width: 0.8; stroke-linejoin: miter; stroke-linecap: square"/>
   </g>
   <g id="legend_1">
    <g id="patch_7">
     <path d="M 79 136.052813 
L 128.8 136.052813 
Q 130.8 136.052813 130.8 134.052813 
L 130.8 76.12 
Q 130.8 74.12 128.8 74.12 
L 79 74.12 
Q 77 74.12 77 76.12 
L 77 134.052813 
Q 77 136.052813 79 136.052813 
z
" style="fill: #ffffff; opacity: 0.8; stroke: #cccccc; stroke-linejoin: miter"/>
    </g>
    <g id="line2d_35">
     <path d="M 81 82.218438 
L 91 82.218438 
L 101 82.218438 
" style="fill: none; stroke: #000000; stroke-width: 1.5; stroke-linecap: square"/>
    </g>
    <g id="text_16">
     <!-- $B_{//}$ -->
     <g transform="translate(109 85.718438)scale(0.1 -0.1)">
      <defs>
       <path id="DejaVuSans-2f" d="M 1625 4666 
L 2156 4666 
L 531 -594 
L 0 -594 
L 1625 4666 
z
" transform="scale(0.015625)"/>
      </defs>
      <use xlink:href="#DejaVuSans-Oblique-42" transform="translate(0 0.09375)"/>
      <use xlink:href="#DejaVuSans-2f" transform="translate(68.603516 -16.3125)scale(0.7)"/>
      <use xlink:href="#DejaVuSans-2f" transform="translate(92.1875 -16.3125)scale(0.7)"/>
     </g>
    </g>
    <g id="line2d_36">
     <path d="M 81 97.116875 
L 91 97.116875 
L 101 97.116875 
" style="fill: none; stroke: #1f77b4; stroke-width: 1.5; stroke-linecap: square"/>
    </g>
    <g id="text_17">
     <!-- $30\degree$ -->
     <g transform="translate(109 100.616875)scale(0.1 -0.1)">
      <defs>
       <path id="DejaVuSans-b0" d="M 1600 4347 
Q 1350 4347 1178 4173 
Q 1006 4000 1006 3750 
Q 1006 3503 1178 3333 
Q 1350 3163 1600 3163 
Q 1850 3163 2022 3333 
Q 2194 3503 2194 3750 
Q 2194 3997 2020 4172 
Q 1847 4347 1600 4347 
z
M 1600 4750 
Q 1800 4750 1984 4673 
Q 2169 4597 2303 4453 
Q 2447 4313 2519 4134 
Q 2591 3956 2591 3750 
Q 2591 3338 2302 3052 
Q 2013 2766 1594 2766 
Q 1172 2766 890 3047 
Q 609 3328 609 3750 
Q 609 4169 896 4459 
Q 1184 4750 1600 4750 
z
" transform="scale(0.015625)"/>
      </defs>
      <use xlink:href="#DejaVuSans-33" transform="translate(0 0.78125)"/>
      <use xlink:href="#DejaVuSans-30" transform="translate(63.623047 0.78125)"/>
      <use xlink:href="#DejaVuSans-b0" transform="translate(127.246094 0.78125)"/>
     </g>
    </g>
    <g id="line2d_37">
     <path d="M 81 111.795 
L 91 111.795 
L 101 111.795 
" style="fill: none; stroke: #ff0000; stroke-width: 1.5; stroke-linecap: square"/>
    </g>
    <g id="text_18">
     <!-- $60\degree$ -->
     <g transform="translate(109 115.295)scale(0.1 -0.1)">
      <use xlink:href="#DejaVuSans-36" transform="translate(0 0.78125)"/>
      <use xlink:href="#DejaVuSans-30" transform="translate(63.623047 0.78125)"/>
      <use xlink:href="#DejaVuSans-b0" transform="translate(127.246094 0.78125)"/>
     </g>
    </g>
    <g id="line2d_38">
     <path d="M 81 126.473125 
L 91 126.473125 
L 101 126.473125 
" style="fill: none; stroke: #008000; stroke-width: 1.5; stroke-linecap: square"/>
    </g>
    <g id="text_19">
     <!-- $90\degree$ -->
     <g transform="translate(109 129.973125)scale(0.1 -0.1)">
      <defs>
       <path id="DejaVuSans-39" d="M 703 97 
L 703 672 
Q 941 559 1184 500 
Q 1428 441 1663 441 
Q 2288 441 2617 861 
Q 2947 1281 2994 2138 
Q 2813 1869 2534 1725 
Q 2256 1581 1919 1581 
Q 1219 1581 811 2004 
Q 403 2428 403 3163 
Q 403 3881 828 4315 
Q 1253 4750 1959 4750 
Q 2769 4750 3195 4129 
Q 3622 3509 3622 2328 
Q 3622 1225 3098 567 
Q 2575 -91 1691 -91 
Q 1453 -91 1209 -44 
Q 966 3 703 97 
z
M 1959 2075 
Q 2384 2075 2632 2365 
Q 2881 2656 2881 3163 
Q 2881 3666 2632 3958 
Q 2384 4250 1959 4250 
Q 1534 4250 1286 3958 
Q 1038 3666 1038 3163 
Q 1038 2656 1286 2365 
Q 1534 2075 1959 2075 
z
" transform="scale(0.015625)"/>
      </defs>
      <use xlink:href="#DejaVuSans-39" transform="translate(0 0.78125)"/>
      <use xlink:href="#DejaVuSans-30" transform="translate(63.623047 0.78125)"/>
      <use xlink:href="#DejaVuSans-b0" transform="translate(127.246094 0.78125)"/>
     </g>
    </g>
   </g>
  </g>
 </g>
 <defs>
  <clipPath id="pae04ab57a5">
   <rect x="72" y="69.12" width="446.4" height="443.52"/>
  </clipPath>
 </defs>
</svg>
